<?xml version="1.0" encoding="UTF-8"?>
<svg id="Layer_1" data-name="Layer 1" xmlns="http://www.w3.org/2000/svg" xmlns:xlink="http://www.w3.org/1999/xlink" viewBox="0 0 36 34">
  <defs>
    <style>
      .cls-1 {
        fill: url(#linear-gradient);
        fill-rule: evenodd;
        stroke-width: 0px;
      }
    </style>
    <linearGradient id="linear-gradient" x1="1" y1="-251" x2="35" y2="-251" gradientTransform="translate(0 -234) scale(1 -1)" gradientUnits="userSpaceOnUse">
      <stop offset="0" stop-color="#0049e7"/>
      <stop offset="1" stop-color="#c835f8"/>
    </linearGradient>
  </defs>
  <path class="cls-1" d="M16.58,9.21c0,5.08,4.13,9.21,9.21,9.21s9.21-4.13,9.21-9.21S30.87,0,25.79,0s-9.21,4.13-9.21,9.21ZM18,9.21c0-4.3,3.49-7.79,7.79-7.79s7.79,3.49,7.79,7.79-3.5,7.79-7.79,7.79-7.79-3.49-7.79-7.79ZM25.08,13.46c0,.39.32.71.71.71s.71-.32.71-.71v-3.54h3.54c.39,0,.71-.32.71-.71s-.32-.71-.71-.71h-3.54v-3.54c0-.39-.32-.71-.71-.71s-.71.32-.71.71v3.54h-3.54c-.39,0-.71.32-.71.71s.32.71.71.71h3.54v3.54ZM10.21,24.08h18.42c.34,0,.63-.24.69-.57l.51-2.53c.08-.38-.17-.76-.56-.83-.38-.08-.76.17-.83.56l-.39,1.96H10.79l-1.64-8.2-.91-4.55h4.8c.39,0,.71-.32.71-.71s-.32-.71-.71-.71h-5.09l-.56-2.82c-.33-1.65-1.79-2.85-3.47-2.85H1.71c-.39,0-.71.32-.71.71s.32.71.71.71h2.21c1.01,0,1.89.72,2.08,1.71l3.34,16.71h-1.97c-1.17,0-2.13.95-2.13,2.13s.95,2.12,2.13,2.12h24.08c.39,0,.71-.32.71-.71s-.32-.71-.71-.71H7.38c-.39,0-.71-.32-.71-.71s.32-.71.71-.71h2.83ZM12.33,34c-1.56,0-2.83-1.27-2.83-2.83s1.27-2.83,2.83-2.83,2.83,1.27,2.83,2.83-1.27,2.83-2.83,2.83ZM12.33,29.75c-.78,0-1.42.64-1.42,1.42s.64,1.42,1.42,1.42,1.42-.64,1.42-1.42-.64-1.42-1.42-1.42ZM22.25,31.17c0,1.56,1.27,2.83,2.83,2.83s2.83-1.27,2.83-2.83-1.27-2.83-2.83-2.83-2.83,1.27-2.83,2.83ZM23.67,31.17c0-.78.64-1.42,1.42-1.42s1.42.64,1.42,1.42-.64,1.42-1.42,1.42-1.42-.64-1.42-1.42Z"/>
</svg>