<?xml version="1.0" encoding="UTF-8"?>
<svg id="Layer_1" data-name="Layer 1" xmlns="http://www.w3.org/2000/svg" xmlns:xlink="http://www.w3.org/1999/xlink" viewBox="0 0 36 34">
  <defs>
    <style>
      .cls-1 {
        fill: url(#linear-gradient);
      }

      .cls-1, .cls-2, .cls-3, .cls-4, .cls-5 {
        stroke-width: 0px;
      }

      .cls-2 {
        fill: url(#linear-gradient-5);
      }

      .cls-3 {
        fill: url(#linear-gradient-2);
      }

      .cls-4 {
        fill: url(#linear-gradient-3);
      }

      .cls-5 {
        fill: url(#linear-gradient-4);
      }
    </style>
    <linearGradient id="linear-gradient" x1="7.91" y1="420.65" x2="36.28" y2="393.31" gradientTransform="translate(0 414) scale(1 -1)" gradientUnits="userSpaceOnUse">
      <stop offset="0" stop-color="#0049e7"/>
      <stop offset=".11" stop-color="#0648e7"/>
      <stop offset=".26" stop-color="#1647e9"/>
      <stop offset=".42" stop-color="#3144eb"/>
      <stop offset=".47" stop-color="#5740ee"/>
      <stop offset=".69" stop-color="#883bf3"/>
      <stop offset=".98" stop-color="#c236f7"/>
      <stop offset="1" stop-color="#c835f8"/>
    </linearGradient>
    <linearGradient id="linear-gradient-2" x1="-2.26" y1="410.1" x2="26.11" y2="382.76" xlink:href="#linear-gradient"/>
    <linearGradient id="linear-gradient-3" x1="-2.38" y1="409.98" x2="25.99" y2="382.63" xlink:href="#linear-gradient"/>
    <linearGradient id="linear-gradient-4" x1=".57" y1="413.04" x2="28.95" y2="385.7" xlink:href="#linear-gradient"/>
    <linearGradient id="linear-gradient-5" x1="3.98" y1="416.58" x2="32.35" y2="389.23" xlink:href="#linear-gradient"/>
  </defs>
  <g>
    <path class="cls-1" d="M31.89,20.93c.36-1.29.54-2.66.52-4-.03-8.13-6.74-14.64-14.87-14.64h-9.29c-.57,0-1.06-.46-1.06-1.06h0c0-.57.46-1.06,1.06-1.06h9.27c9.29,0,17.04,7.59,16.99,16.88,0,1.5-.21,2.97-.59,4.41l-2.01-.54Z"/>
    <path class="cls-3" d="M16.01,33.74l.21-2.09c.49.05.98.08,1.47.08.83-.03,1.63-.08,2.43-.21l.34,2.07c-.9.15-1.83.23-2.76.23h-.03c-.52.03-1.08-.03-1.65-.08ZM13.79,33.38c-1.45-.34-2.87-.88-4.18-1.6l1.01-1.83c1.14.62,2.38,1.11,3.64,1.39l-.46,2.04h0ZM22.05,31.08c1.24-.39,2.45-.93,3.54-1.63l1.14,1.78c-1.27.8-2.63,1.45-4.05,1.88l-.62-2.04ZM7.75,30.56c-1.21-.88-2.27-1.94-3.2-3.1l1.65-1.32c.83,1.03,1.76,1.94,2.81,2.71l-1.27,1.7h0ZM27.16,28.29c1.01-.85,1.88-1.81,2.63-2.89l1.73,1.19c-.85,1.24-1.86,2.35-3.02,3.3l-1.34-1.6ZM1.5,21.5l2.01-.57c.34,1.27.88,2.48,1.52,3.59l-1.81,1.08c-.75-1.29-1.34-2.66-1.73-4.1ZM30.81,23.72c.46-.88.83-1.81,1.08-2.76l2.01.57c-.31,1.08-.72,2.17-1.24,3.18l-1.86-.98Z"/>
  </g>
  <g>
    <path class="cls-4" d="M13.89,19.85v.98h-4.21v-.98h1.55v-4.44c0-.18,0-.36.03-.54l-1.08.9c-.05.05-.13.08-.18.1-.05,0-.13.03-.18,0-.05,0-.1-.03-.15-.05-.05-.03-.08-.05-.1-.08l-.41-.57,2.32-1.96h1.06v6.64h1.37Z"/>
    <path class="cls-5" d="M20.01,19.62c.13,0,.26.05.34.13s.13.18.13.31v.77h-5.22v-.44c0-.08.03-.18.05-.28.03-.1.1-.18.18-.26l2.3-2.32c.18-.21.36-.39.52-.57s.28-.36.39-.54c.1-.18.18-.36.23-.54.05-.18.08-.36.08-.57,0-.18-.03-.34-.08-.49-.05-.13-.13-.26-.23-.36s-.21-.15-.34-.21-.28-.08-.46-.08c-.15,0-.28.03-.44.08-.13.05-.26.1-.36.18s-.18.18-.26.28c-.08.1-.13.23-.15.34-.05.15-.13.26-.23.31s-.23.08-.41.03l-.67-.13c.05-.36.15-.67.31-.96.15-.28.34-.52.57-.7s.49-.31.77-.41c.28-.1.62-.13.96-.13.36,0,.67.05.96.15.28.1.54.26.75.44s.36.41.49.67c.1.26.18.57.18.88,0,.28-.05.54-.13.77s-.18.46-.34.67c-.13.21-.31.44-.49.62-.18.21-.39.41-.59.62l-1.7,1.76c.15-.05.34-.08.49-.1.15-.03.31-.05.46-.05h1.96v.13Z"/>
    <path class="cls-2" d="M21.85,15.33c.05-.36.15-.67.31-.96.15-.28.34-.52.57-.7.23-.18.49-.31.77-.41.28-.1.62-.13.96-.13.36,0,.67.05.96.15.28.1.52.23.72.41.21.18.36.39.46.62s.15.49.15.77c0,.23-.03.46-.08.65-.05.18-.13.34-.23.49-.1.13-.23.26-.39.34-.15.1-.31.18-.52.23.46.15.8.36,1.01.65.23.28.34.67.34,1.11,0,.39-.08.72-.21,1.01s-.34.54-.57.72c-.23.21-.52.34-.83.44-.31.1-.65.15-1.01.15-.39,0-.72-.05-1.01-.13s-.54-.21-.75-.39-.39-.39-.54-.62c-.15-.26-.28-.54-.39-.85l.57-.23c.15-.05.28-.08.41-.05.13.03.23.1.28.21.05.13.13.23.21.36s.15.23.26.31c.1.1.23.18.36.23.13.05.31.08.52.08.23,0,.41-.03.57-.1s.31-.15.41-.28c.1-.1.18-.23.26-.39.05-.13.08-.28.08-.44,0-.18-.03-.34-.05-.49s-.13-.28-.23-.39c-.13-.1-.31-.18-.52-.26-.23-.05-.54-.08-.93-.08v-.9c.31,0,.59-.03.8-.08.21-.05.39-.13.49-.23.13-.1.21-.23.26-.36s.08-.28.08-.46c0-.36-.1-.62-.31-.83-.21-.18-.46-.28-.8-.28-.15,0-.28.03-.41.08s-.26.1-.36.18-.18.18-.26.28c-.08.1-.13.23-.15.34-.05.15-.13.26-.23.31s-.23.08-.41.03l-.62-.1Z"/>
  </g>
</svg>