<?xml version="1.0" encoding="UTF-8"?>
<svg id="Layer_1" data-name="Layer 1" xmlns="http://www.w3.org/2000/svg" xmlns:xlink="http://www.w3.org/1999/xlink" viewBox="0 0 36 34">
  <defs>
    <style>
      .cls-1 {
        fill: url(#linear-gradient);
        fill-rule: evenodd;
        stroke-width: 0px;
      }
    </style>
    <linearGradient id="linear-gradient" x1="1.1" y1="397" x2="34.9" y2="397" gradientTransform="translate(0 414) scale(1 -1)" gradientUnits="userSpaceOnUse">
      <stop offset="0" stop-color="#0049e7"/>
      <stop offset="1" stop-color="#c835f8"/>
    </linearGradient>
  </defs>
  <path class="cls-1" d="M32.65.1h-9.01c-1.24,0-2.25,1.01-2.25,2.25v4.51h-6.76V2.35C14.62,1.11,13.61.1,12.37.1H3.35C2.11.1,1.1,1.11,1.1,2.35v22.54c0,1.24,1.01,2.25,2.25,2.25h7.89v4.51c0,1.24,1.01,2.25,2.25,2.25h9.01c1.24,0,2.25-1.01,2.25-2.25v-4.51h7.89c1.24,0,2.25-1.01,2.25-2.25V2.35c0-1.24-1.01-2.25-2.25-2.25ZM23.63,1.22h9.01c.62,0,1.13.5,1.13,1.13v.56h-11.27v-.56c0-.62.5-1.13,1.13-1.13ZM22.51,4.04h11.27v9.01h-9.01v-3.94c0-1.24-1.01-2.25-2.25-2.25v-2.82ZM22.51,7.99c.62,0,1.13.5,1.13,1.13v.56h-11.27v-.56c0-.62.5-1.13,1.13-1.13h9.01ZM12.37,10.8h11.27v9.01h-11.27v-9.01ZM11.24,9.11v3.94H2.22V4.04h11.27v2.82c-1.24,0-2.25,1.01-2.25,2.25ZM3.35,1.22h9.01c.62,0,1.13.5,1.13,1.13v.56H2.22v-.56c0-.62.5-1.13,1.13-1.13ZM3.35,26.01c-.62,0-1.13-.5-1.13-1.13v-10.7h9.01v1.69h-3.38c-.31,0-.56.25-.56.56s.25.56.56.56h3.38v2.25h-3.38c-.31,0-.56.25-.56.56s.25.56.56.56h3.38v2.25h-3.38c-.31,0-.56.25-.56.56s.25.56.56.56h3.38v2.25H3.35ZM23.63,31.65c0,.62-.5,1.13-1.13,1.13h-9.01c-.62,0-1.13-.5-1.13-1.13v-10.7h11.27v10.7ZM32.65,26.01h-7.89v-2.25h.56c.31,0,.56-.25.56-.56s-.25-.56-.56-.56h-.56v-2.25h.56c.31,0,.56-.25.56-.56s-.25-.56-.56-.56h-.56v-2.02l.96-.96c.21-.22.21-.57,0-.79-.22-.22-.57-.22-.79,0l-.17.17v-1.46h9.01v10.7c0,.62-.5,1.13-1.13,1.13ZM7.3,7.52c.05.27.28.47.55.47.82,0,1.53.59,1.67,1.4.14.81-.33,1.6-1.1,1.88v.1c0,.31-.25.56-.56.56s-.56-.25-.56-.56v-.11c-.38-.13-.7-.39-.9-.73-.14-.27-.05-.6.21-.75.26-.15.6-.07.76.19.14.24.42.34.68.25.26-.09.41-.36.36-.63-.05-.27-.28-.47-.55-.47-.82,0-1.53-.59-1.67-1.4-.14-.81.33-1.6,1.1-1.88v-.1c0-.31.25-.56.56-.56s.56.25.56.56v.11c.38.13.7.39.9.73.14.27.05.6-.21.75-.26.15-.6.07-.76-.19-.14-.24-.42-.34-.68-.25-.26.09-.41.36-.36.63ZM17.45,14.28c.05.27.28.47.55.47.82,0,1.53.59,1.67,1.4.14.81-.33,1.6-1.1,1.88v.1c0,.31-.25.56-.56.56s-.56-.25-.56-.56v-.11c-.38-.13-.7-.39-.9-.73-.14-.27-.05-.6.21-.75.26-.15.6-.07.76.19.14.24.42.34.68.25.26-.09.41-.36.36-.63-.05-.27-.28-.47-.55-.47-.82,0-1.53-.59-1.67-1.4-.14-.81.33-1.6,1.1-1.88v-.1c0-.31.25-.56.56-.56s.56.25.56.56v.11c.38.13.7.39.9.73.14.27.05.6-.21.75-.26.15-.6.07-.76-.19-.14-.24-.42-.34-.68-.25-.26.09-.41.36-.36.63ZM14.62,22.96l.73-.73c.22-.21.57-.21.79,0,.22.22.22.57,0,.79l-1.13,1.13c-.22.22-.58.22-.8,0l-.56-.56c-.21-.22-.21-.57,0-.79.22-.22.57-.22.79,0l.17.17ZM5.21,15.47l-.73.73-.17-.17c-.22-.21-.57-.21-.79,0-.22.22-.22.57,0,.79l.56.56c.22.22.58.22.8,0l1.13-1.13c.21-.22.21-.57,0-.79-.22-.22-.57-.22-.79,0ZM4.48,19.58l.73-.73c.22-.21.57-.21.79,0,.22.22.22.57,0,.79l-1.13,1.13c-.22.22-.58.22-.8,0l-.56-.56c-.21-.22-.21-.57,0-.79.22-.22.57-.22.79,0l.17.17ZM21.94,22.63h-3.94c-.31,0-.56.25-.56.56s.25.56.56.56h3.94c.31,0,.56-.25.56-.56,0-.31-.25-.56-.56-.56ZM14.62,26.34l.73-.73c.22-.21.57-.21.79,0,.22.22.22.57,0,.79l-1.13,1.13c-.22.22-.58.22-.8,0l-.56-.56c-.21-.22-.21-.57,0-.79.22-.22.57-.22.79,0l.17.17ZM21.94,26.01h-3.94c-.31,0-.56.25-.56.56s.25.56.56.56h3.94c.31,0,.56-.25.56-.56s-.25-.56-.56-.56ZM14.62,29.73l.73-.73c.22-.21.57-.21.79,0,.22.22.22.57,0,.79l-1.13,1.13c-.22.22-.58.22-.8,0l-.56-.56c-.21-.22-.21-.57,0-.79.22-.22.57-.22.79,0l.17.17ZM21.94,29.39h-3.94c-.31,0-.56.25-.56.56s.25.56.56.56h3.94c.31,0,.56-.25.56-.56s-.25-.56-.56-.56ZM28.7,9.58c-.05-.27-.28-.47-.55-.47-.82,0-1.53-.59-1.67-1.4-.14-.81.33-1.6,1.1-1.88v-.1c0-.31.25-.56.56-.56s.56.25.56.56v.11c.38.13.7.39.9.73.14.27.05.6-.21.75-.26.15-.6.07-.76-.19-.14-.24-.42-.34-.68-.25-.26.09-.41.36-.36.63.05.27.28.47.55.47.82,0,1.53.59,1.66,1.4.14.81-.33,1.6-1.1,1.88v.1c0,.31-.25.56-.56.56s-.56-.25-.56-.56v-.11c-.38-.13-.7-.39-.9-.73-.14-.27-.05-.6.21-.75.26-.15.6-.07.76.19.14.24.42.34.68.25.26-.09.41-.36.36-.63ZM32.09,15.87h-3.94c-.31,0-.56.25-.56.56s.25.56.56.56h3.94c.31,0,.56-.25.56-.56s-.25-.56-.56-.56ZM28.14,19.25h3.94c.31,0,.56.25.56.56s-.25.56-.56.56h-3.94c-.31,0-.56-.25-.56-.56s.25-.56.56-.56ZM32.09,22.63h-3.94c-.31,0-.56.25-.56.56s.25.56.56.56h3.94c.31,0,.56-.25.56-.56s-.25-.56-.56-.56ZM3.91,22.63h1.13c.31,0,.56.25.56.56s-.25.56-.56.56h-1.13c-.31,0-.56-.25-.56-.56s.25-.56.56-.56Z"/>
</svg>