<?xml version="1.0" encoding="UTF-8"?>
<svg id="Layer_1" data-name="Layer 1" xmlns="http://www.w3.org/2000/svg" xmlns:xlink="http://www.w3.org/1999/xlink" viewBox="0 0 36 34">
  <defs>
    <style>
      .cls-1 {
        fill: url(#linear-gradient);
      }

      .cls-1, .cls-2, .cls-3, .cls-4 {
        stroke-width: 0px;
      }

      .cls-2 {
        fill: url(#linear-gradient-2);
      }

      .cls-3 {
        fill: url(#linear-gradient-3);
      }

      .cls-4 {
        fill: url(#linear-gradient-4);
      }
    </style>
    <linearGradient id="linear-gradient" x1="0" y1="409.56" x2="16.93" y2="402.55" gradientTransform="translate(0 414) scale(1 -1)" gradientUnits="userSpaceOnUse">
      <stop offset="0" stop-color="#0049e7"/>
      <stop offset=".11" stop-color="#0648e7"/>
      <stop offset=".26" stop-color="#1647e9"/>
      <stop offset=".42" stop-color="#3144eb"/>
      <stop offset=".47" stop-color="#5740ee"/>
      <stop offset=".69" stop-color="#883bf3"/>
      <stop offset=".98" stop-color="#c236f7"/>
      <stop offset="1" stop-color="#c835f8"/>
    </linearGradient>
    <linearGradient id="linear-gradient-2" x1="19.48" y1="390.86" x2="33.17" y2="385.19" xlink:href="#linear-gradient"/>
    <linearGradient id="linear-gradient-3" x1="21.13" y1="406.9" x2="35.71" y2="400.86" xlink:href="#linear-gradient"/>
    <linearGradient id="linear-gradient-4" x1="1.16" y1="390.08" x2="15.16" y2="384.29" xlink:href="#linear-gradient"/>
  </defs>
  <path class="cls-1" d="M15.5,14.97H1.47V.94h14.03v14.03ZM2.81,13.64h11.36V2.27H2.81v11.36Z"/>
  <path class="cls-2" d="M26.33,33.38c-4.1,0-7.41-3.31-7.41-7.41s3.31-7.41,7.41-7.41,7.41,3.31,7.41,7.41-3.31,7.41-7.41,7.41ZM26.33,19.9c-3.34,0-6.08,2.73-6.08,6.08s2.73,6.08,6.08,6.08,6.08-2.73,6.08-6.08c0-3.34-2.73-6.08-6.08-6.08Z"/>
  <path class="cls-3" d="M34.96,14.97h-17.08L25.43.8c.18-.36.58-.61,1.01-.61h0c.43,0,.79.22,1.01.61l7.52,14.17ZM20.1,13.64h12.62L26.43,1.77l-6.33,11.87Z"/>
  <path class="cls-4" d="M12.26,33.81h-7.52c-.83,0-1.51-.54-1.73-1.33l-1.91-7.37c-.22-.76.07-1.58.68-2.09l4.57-3.6c1.22-.97,2.95-1.01,4.21-.07l4.86,3.63c.68.5.97,1.37.72,2.16l-2.16,7.37c-.22.76-.94,1.29-1.73,1.29ZM8.52,20c-.47,0-.94.14-1.33.47l-4.57,3.6c-.22.18-.29.43-.22.68l1.94,7.37c.04.22.22.32.43.32h7.52c.22,0,.36-.14.43-.32l2.19-7.37c.07-.25,0-.54-.25-.72l-4.89-3.6c-.36-.29-.83-.43-1.26-.43Z"/>
</svg>