<?xml version="1.0" encoding="UTF-8"?>
<svg id="Layer_1" data-name="Layer 1" xmlns="http://www.w3.org/2000/svg" xmlns:xlink="http://www.w3.org/1999/xlink" viewBox="0 0 36 34">
  <defs>
    <style>
      .cls-1 {
        fill: url(#linear-gradient);
        stroke-width: 0px;
      }
    </style>
    <linearGradient id="linear-gradient" x1="-3.92" y1="1.36" x2="30.2" y2="25.69" gradientUnits="userSpaceOnUse">
      <stop offset="0" stop-color="#0049e7"/>
      <stop offset=".11" stop-color="#0648e7"/>
      <stop offset=".26" stop-color="#1647e9"/>
      <stop offset=".46" stop-color="#3144eb"/>
      <stop offset=".66" stop-color="#5740ee"/>
      <stop offset=".79" stop-color="#883bf3"/>
      <stop offset=".98" stop-color="#c236f7"/>
      <stop offset="1" stop-color="#c835f8"/>
    </linearGradient>
  </defs>
  <path class="cls-1" d="M34.13,7.46H1.87v22.75c0,1.2.99,2.18,2.18,2.18h27.89c1.2,0,2.18-.99,2.18-2.18V7.46ZM34.13,5.98v-2.18c0-1.23-.99-2.22-2.18-2.22H4.05c-1.2,0-2.18.99-2.18,2.22v2.18h32.26ZM35.61,30.21c0,2.01-1.66,3.66-3.66,3.66H4.05c-2.01,0-3.66-1.66-3.66-3.66V3.79C.39,1.75,2.05.13,4.05.13h27.89c2.01,0,3.66,1.62,3.66,3.66v26.41ZM4.79,3.79c0,.39-.32.74-.74.74s-.74-.35-.74-.74.35-.74.74-.74.74.32.74.74ZM7.72,3.79c0,.39-.32.74-.7.74s-.74-.35-.74-.74.32-.74.74-.74.7.32.7.74ZM10.67,3.79c0,.39-.32.74-.74.74s-.74-.35-.74-.74.32-.74.74-.74.74.32.74.74ZM5.53,29.47c-.42,0-.74-.32-.74-.74v-2.92c0-.42.32-.74.74-.74h2.92c.42,0,.74.32.74.74v2.92c0,.42-.32.74-.74.74h-2.92ZM6.27,27.99h1.44v-1.44h-1.44v1.44ZM11.41,26.54c-.42,0-.74-.35-.74-.74s.32-.74.74-.74h4.4c.39,0,.7.32.7.74s-.32.74-.7.74h-4.4ZM11.41,29.47c-.42,0-.74-.32-.74-.74s.32-.74.74-.74h4.4c.39,0,.7.32.7.74s-.32.74-.7.74h-4.4ZM20.22,29.47c-.42,0-.74-.32-.74-.74v-2.92c0-.42.32-.74.74-.74h2.92c.42,0,.74.32.74.74v2.92c0,.42-.32.74-.74.74h-2.92ZM20.92,27.99h1.48v-1.44h-1.48v1.44ZM26.06,26.54c-.39,0-.74-.35-.74-.74s.35-.74.74-.74h4.4c.42,0,.74.32.74.74s-.32.74-.74.74h-4.4ZM26.06,29.47c-.39,0-.74-.32-.74-.74s.35-.74.74-.74h4.4c.42,0,.74.32.74.74s-.32.74-.74.74h-4.4ZM17.26,19.18v-7.33h-2.92v.77c0,.42-.32.74-.74.74s-.74-.32-.74-.74v-1.51c0-.42.32-.74.74-.74h8.8c.42,0,.74.32.74.74v1.51c0,.42-.32.74-.74.74s-.74-.32-.74-.74v-.77h-2.92v7.33h1.48c.39,0,.7.32.7.74s-.32.74-.7.74h-4.4c-.42,0-.74-.32-.74-.74s.32-.74.74-.74h1.44Z"/>
</svg>