<?xml version="1.0" encoding="UTF-8"?>
<svg id="Layer_1" data-name="Layer 1" xmlns="http://www.w3.org/2000/svg" xmlns:xlink="http://www.w3.org/1999/xlink" viewBox="0 0 36 34">
  <defs>
    <style>
      .cls-1 {
        fill: #953af4;
      }

      .cls-1, .cls-2, .cls-3, .cls-4, .cls-5, .cls-6, .cls-7, .cls-8, .cls-9, .cls-10, .cls-11, .cls-12, .cls-13, .cls-14, .cls-15, .cls-16, .cls-17, .cls-18, .cls-19, .cls-20, .cls-21, .cls-22, .cls-23, .cls-24, .cls-25, .cls-26, .cls-27, .cls-28, .cls-29, .cls-30, .cls-31, .cls-32, .cls-33, .cls-34, .cls-35, .cls-36, .cls-37, .cls-38, .cls-39, .cls-40, .cls-41, .cls-42, .cls-43, .cls-44, .cls-45, .cls-46, .cls-47, .cls-48, .cls-49, .cls-50, .cls-51, .cls-52, .cls-53, .cls-54, .cls-55, .cls-56, .cls-57, .cls-58, .cls-59, .cls-60, .cls-61, .cls-62, .cls-63, .cls-64, .cls-65, .cls-66, .cls-67, .cls-68, .cls-69, .cls-70, .cls-71, .cls-72, .cls-73, .cls-74, .cls-75, .cls-76, .cls-77, .cls-78, .cls-79, .cls-80, .cls-81, .cls-82, .cls-83, .cls-84, .cls-85, .cls-86, .cls-87, .cls-88, .cls-89, .cls-90, .cls-91, .cls-92, .cls-93, .cls-94, .cls-95, .cls-96, .cls-97, .cls-98, .cls-99, .cls-100, .cls-101, .cls-102, .cls-103, .cls-104, .cls-105, .cls-106, .cls-107, .cls-108, .cls-109, .cls-110, .cls-111, .cls-112, .cls-113, .cls-114, .cls-115, .cls-116, .cls-117, .cls-118, .cls-119, .cls-120, .cls-121, .cls-122, .cls-123, .cls-124, .cls-125, .cls-126, .cls-127, .cls-128, .cls-129, .cls-130, .cls-131, .cls-132, .cls-133, .cls-134, .cls-135, .cls-136, .cls-137, .cls-138, .cls-139, .cls-140, .cls-141, .cls-142, .cls-143, .cls-144, .cls-145, .cls-146, .cls-147, .cls-148, .cls-149, .cls-150, .cls-151, .cls-152, .cls-153, .cls-154, .cls-155, .cls-156, .cls-157, .cls-158, .cls-159 {
        stroke-width: 0px;
      }

      .cls-2 {
        fill: #2c45eb;
      }

      .cls-3 {
        fill: #4042ec;
      }

      .cls-4 {
        fill: #3c43ec;
      }

      .cls-5 {
        fill: #7f3cf2;
      }

      .cls-6 {
        fill: #ae38f6;
      }

      .cls-7 {
        fill: #623fef;
      }

      .cls-8 {
        fill: #5f3fef;
      }

      .cls-9 {
        fill: #9c39f4;
      }

      .cls-10 {
        fill: url(#linear-gradient);
      }

      .cls-11 {
        fill: #763df1;
      }

      .cls-12 {
        fill: #9b39f4;
      }

      .cls-13 {
        fill: #4542ed;
      }

      .cls-14 {
        fill: #5740ee;
      }

      .cls-15 {
        fill: #b637f6;
      }

      .cls-16 {
        fill: #b537f6;
      }

      .cls-17 {
        fill: #5241ee;
      }

      .cls-18 {
        fill: #4342ec;
      }

      .cls-19 {
        fill: #723df1;
      }

      .cls-20 {
        fill: #8f3af3;
      }

      .cls-21 {
        fill: #8a3bf3;
      }

      .cls-22 {
        fill: #ab38f5;
      }

      .cls-23 {
        fill: #3643eb;
      }

      .cls-24 {
        fill: #9e39f5;
      }

      .cls-25 {
        fill: #793df1;
      }

      .cls-26 {
        fill: #873bf3;
      }

      .cls-27 {
        fill: #9a39f4;
      }

      .cls-28 {
        fill: #3843ec;
      }

      .cls-29 {
        fill: #4b41ed;
      }

      .cls-30 {
        fill: #bb37f7;
      }

      .cls-31 {
        fill: #b038f6;
      }

      .cls-32 {
        fill: #8b3bf3;
      }

      .cls-33 {
        fill: #6d3ef0;
      }

      .cls-34 {
        fill: #863bf3;
      }

      .cls-35 {
        fill: #bd36f7;
      }

      .cls-36 {
        fill: #973af4;
      }

      .cls-37 {
        fill: #c236f7;
      }

      .cls-38 {
        fill: #7b3cf2;
      }

      .cls-39 {
        fill: #4742ed;
      }

      .cls-40 {
        fill: #7a3cf2;
      }

      .cls-41 {
        fill: #b437f6;
      }

      .cls-42 {
        fill: #a738f5;
      }

      .cls-43 {
        fill: #4f41ed;
      }

      .cls-160 {
        clip-path: url(#clippath-2);
      }

      .cls-44 {
        fill: #5840ee;
      }

      .cls-45 {
        fill: #4d41ed;
      }

      .cls-46 {
        fill: #5540ee;
      }

      .cls-47 {
        fill: #933af4;
      }

      .cls-48 {
        fill: #613fef;
      }

      .cls-49 {
        fill: #4c41ed;
      }

      .cls-50 {
        fill: #a239f5;
      }

      .cls-51 {
        fill: #653fef;
      }

      .cls-52 {
        fill: #5d3fef;
      }

      .cls-53 {
        fill: #773df1;
      }

      .cls-54 {
        fill: #8d3bf3;
      }

      .cls-55 {
        fill: #903af4;
      }

      .cls-56 {
        fill: #4e41ed;
      }

      .cls-57 {
        fill: #5a40ee;
      }

      .cls-58 {
        fill: #b937f6;
      }

      .cls-59 {
        fill: #4842ed;
      }

      .cls-60 {
        fill: #c835f8;
      }

      .cls-61 {
        fill: #823cf2;
      }

      .cls-62, .cls-75 {
        fill: none;
      }

      .cls-63 {
        fill: #703ef1;
      }

      .cls-64 {
        fill: #683ef0;
      }

      .cls-65 {
        fill: #c136f7;
      }

      .cls-66 {
        fill: #8e3af3;
      }

      .cls-67 {
        fill: #2945ea;
      }

      .cls-68 {
        fill: #c036f7;
      }

      .cls-69 {
        fill: #6e3ef0;
      }

      .cls-70 {
        fill: #5041ed;
      }

      .cls-71 {
        fill: #913af4;
      }

      .cls-72 {
        fill: #5640ee;
      }

      .cls-73 {
        fill: #7c3cf2;
      }

      .cls-74 {
        fill: #663ef0;
      }

      .cls-161 {
        clip-path: url(#clippath-1);
      }

      .cls-75 {
        clip-rule: evenodd;
      }

      .cls-76 {
        fill: #993af4;
      }

      .cls-77 {
        fill: #923af4;
      }

      .cls-78 {
        fill: #803cf2;
      }

      .cls-79 {
        fill: #4a41ed;
      }

      .cls-80 {
        fill: #a838f5;
      }

      .cls-81 {
        fill: #833cf2;
      }

      .cls-82 {
        fill: #c735f8;
      }

      .cls-83 {
        fill: #ad38f6;
      }

      .cls-84 {
        fill: #2d44eb;
      }

      .cls-85 {
        fill: #5e3fef;
      }

      .cls-86 {
        fill: #9d39f4;
      }

      .cls-87 {
        fill: #aa38f5;
      }

      .cls-88 {
        fill: #3044eb;
      }

      .cls-89 {
        fill: #3e43ec;
      }

      .cls-90 {
        fill: #733df1;
      }

      .cls-91 {
        fill: #6c3ef0;
      }

      .cls-92 {
        fill: #6b3ef0;
      }

      .cls-93 {
        fill: #2a45ea;
      }

      .cls-94 {
        fill: #bf36f7;
      }

      .cls-95 {
        fill: #b337f6;
      }

      .cls-96 {
        fill: #a638f5;
      }

      .cls-97 {
        fill: #633fef;
      }

      .cls-98 {
        fill: #4642ed;
      }

      .cls-99 {
        fill: #a039f5;
      }

      .cls-100 {
        fill: #ac38f5;
      }

      .cls-101 {
        fill: #b237f6;
      }

      .cls-102 {
        fill: #983af4;
      }

      .cls-103 {
        fill: #3244eb;
      }

      .cls-104 {
        fill: #be36f7;
      }

      .cls-105 {
        fill: #783df1;
      }

      .cls-106 {
        fill: #4942ed;
      }

      .cls-107 {
        fill: #3f42ec;
      }

      .cls-108 {
        fill: #5c3fef;
      }

      .cls-109 {
        fill: #2e44eb;
      }

      .cls-110 {
        fill: #3a43ec;
      }

      .cls-111 {
        fill: #c436f7;
      }

      .cls-112 {
        fill: #ba37f6;
      }

      .cls-162 {
        clip-path: url(#clippath);
      }

      .cls-113 {
        fill: #6a3ef0;
      }

      .cls-114 {
        fill: #5b40ee;
      }

      .cls-115 {
        fill: #673ef0;
      }

      .cls-116 {
        fill: #713df1;
      }

      .cls-117 {
        fill: #5940ee;
      }

      .cls-118 {
        fill: #743df1;
      }

      .cls-119 {
        fill: #c635f8;
      }

      .cls-120 {
        fill: #7e3cf2;
      }

      .cls-121 {
        fill: #5340ee;
      }

      .cls-163 {
        clip-path: url(#clippath-3);
      }

      .cls-122 {
        fill: #813cf2;
      }

      .cls-123 {
        fill: #a938f5;
      }

      .cls-124 {
        fill: #843bf3;
      }

      .cls-125 {
        fill: #b137f6;
      }

      .cls-126 {
        fill: #3943ec;
      }

      .cls-127 {
        fill: #af38f6;
      }

      .cls-128 {
        fill: #a339f5;
      }

      .cls-129 {
        fill: #b837f6;
      }

      .cls-130 {
        fill: #883bf3;
      }

      .cls-131 {
        fill: #b737f6;
      }

      .cls-132 {
        fill: #a139f5;
      }

      .cls-133 {
        fill: #3b43ec;
      }

      .cls-134 {
        fill: #c336f7;
      }

      .cls-135 {
        fill: #603fef;
      }

      .cls-136 {
        fill: #753df1;
      }

      .cls-137 {
        fill: #7d3cf2;
      }

      .cls-138 {
        fill: #3444eb;
      }

      .cls-139 {
        fill: #893bf3;
      }

      .cls-140 {
        fill: #943af4;
      }

      .cls-141 {
        fill: #5141ee;
      }

      .cls-142 {
        fill: #4142ec;
      }

      .cls-143 {
        fill: #5440ee;
      }

      .cls-144 {
        fill: #a439f5;
      }

      .cls-145 {
        fill: #2b45eb;
      }

      .cls-146 {
        fill: #9f39f5;
      }

      .cls-147 {
        fill: #2f44eb;
      }

      .cls-148 {
        fill: #853bf3;
      }

      .cls-149 {
        fill: #3544eb;
      }

      .cls-150 {
        fill: #3144eb;
      }

      .cls-151 {
        fill: #bc37f7;
      }

      .cls-152 {
        fill: #3743eb;
      }

      .cls-153 {
        fill: #963af4;
      }

      .cls-154 {
        fill: #693ef0;
      }

      .cls-155 {
        fill: #3d43ec;
      }

      .cls-156 {
        fill: #4242ec;
      }

      .cls-157 {
        fill: #8c3bf3;
      }

      .cls-158 {
        fill: #3344eb;
      }

      .cls-159 {
        fill: #643fef;
      }
    </style>
    <linearGradient id="linear-gradient" x1="6.91" y1="-1.18" x2="29.09" y2="35.18" gradientUnits="userSpaceOnUse">
      <stop offset="0" stop-color="#0049e7"/>
      <stop offset=".11" stop-color="#0648e7"/>
      <stop offset=".26" stop-color="#1647e9"/>
      <stop offset=".42" stop-color="#3144eb"/>
      <stop offset=".6" stop-color="#5740ee"/>
      <stop offset=".79" stop-color="#883bf3"/>
      <stop offset=".98" stop-color="#c236f7"/>
      <stop offset="1" stop-color="#c835f8"/>
    </linearGradient>
    <clipPath id="clippath">
      <polygon class="cls-75" points="24.55 15.36 24.55 13.42 17.79 8.02 11.03 13.42 11.03 15.36 17.79 9.96 24.55 15.36"/>
    </clipPath>
    <clipPath id="clippath-1">
      <path class="cls-62" d="M11.04,20.43h-2.09v-.96h5.24v.96h-2.09v5.47h-1.06v-5.47Z"/>
    </clipPath>
    <clipPath id="clippath-2">
      <path class="cls-62" d="M14.63,22.67c0-1.84,1.44-3.3,3.27-3.3s3.28,1.46,3.28,3.31-1.44,3.31-3.26,3.31-3.29-1.48-3.29-3.32ZM20.1,22.67c0-1.34-.91-2.29-2.2-2.29s-2.19.94-2.19,2.29.9,2.31,2.19,2.31,2.2-.95,2.2-2.31Z"/>
    </clipPath>
    <clipPath id="clippath-3">
      <path class="cls-62" d="M22.53,19.46h2.39c1.21,0,2.13.79,2.13,2s-.92,2-2.13,2h-1.33v2.42h-1.06v-6.43ZM23.59,20.38v2.17h1.28c.66,0,1.13-.42,1.13-1.08s-.47-1.08-1.13-1.08h-1.28Z"/>
    </clipPath>
  </defs>
  <path class="cls-10" d="M29.96,33.84H6.04c-2.61,0-4.65-2.06-4.65-4.7V4.86C1.39,2.22,3.43.16,6.04.16h23.92c2.61,0,4.65,2.06,4.65,4.7v24.29c0,2.63-2.04,4.7-4.65,4.7ZM6.04,3c-1.01,0-1.81.82-1.81,1.86v24.29c0,1.04.79,1.86,1.81,1.86h23.92c1.01,0,1.81-.82,1.81-1.86V4.86c0-1.04-.79-1.86-1.81-1.86H6.04Z"/>
  <g>
    <g class="cls-162">
      <polygon class="cls-67" points="11.08 8.02 11.03 8.09 11.03 8.02 11.08 8.02"/>
      <polygon class="cls-93" points="11.38 8.02 11.03 8.55 11.03 8.09 11.08 8.02 11.38 8.02"/>
      <polygon class="cls-145" points="11.67 8.02 11.03 9 11.03 8.55 11.38 8.02 11.67 8.02"/>
      <polygon class="cls-2" points="11.97 8.02 11.03 9.46 11.03 9 11.67 8.02 11.97 8.02"/>
      <polygon class="cls-84" points="12.26 8.02 11.03 9.91 11.03 9.46 11.97 8.02 12.26 8.02"/>
      <polygon class="cls-109" points="12.56 8.02 11.03 10.37 11.03 9.91 12.26 8.02 12.56 8.02"/>
      <polygon class="cls-147" points="12.85 8.02 11.03 10.82 11.03 10.37 12.56 8.02 12.85 8.02"/>
      <polygon class="cls-88" points="13.14 8.02 11.03 11.27 11.03 10.82 12.85 8.02 13.14 8.02"/>
      <polygon class="cls-150" points="13.44 8.02 11.03 11.73 11.03 11.27 13.14 8.02 13.44 8.02"/>
      <polygon class="cls-150" points="13.63 8.02 11.03 12.03 11.03 11.73 13.44 8.02 13.63 8.02"/>
      <polygon class="cls-103" points="13.83 8.02 11.03 12.33 11.03 12.03 13.63 8.02 13.83 8.02"/>
      <polygon class="cls-158" points="14.02 8.02 11.03 12.63 11.03 12.33 13.83 8.02 14.02 8.02"/>
      <polygon class="cls-138" points="14.22 8.02 11.03 12.93 11.03 12.63 14.02 8.02 14.22 8.02"/>
      <polygon class="cls-149" points="14.42 8.02 11.03 13.23 11.03 12.93 14.22 8.02 14.42 8.02"/>
      <polygon class="cls-23" points="14.61 8.02 11.03 13.53 11.03 13.23 14.42 8.02 14.61 8.02"/>
      <polygon class="cls-152" points="14.81 8.02 11.03 13.83 11.03 13.53 14.61 8.02 14.81 8.02"/>
      <polygon class="cls-28" points="15 8.02 11.03 14.13 11.03 13.83 14.81 8.02 15 8.02"/>
      <polygon class="cls-126" points="15.2 8.02 11.03 14.44 11.03 14.13 15 8.02 15.2 8.02"/>
      <polygon class="cls-110" points="15.39 8.02 11.03 14.74 11.03 14.44 15.2 8.02 15.39 8.02"/>
      <polygon class="cls-133" points="15.59 8.02 11.03 15.04 11.03 14.74 15.39 8.02 15.59 8.02"/>
      <polygon class="cls-4" points="15.78 8.02 11.03 15.34 11.03 15.04 15.59 8.02 15.78 8.02"/>
      <polygon class="cls-155" points="15.98 8.02 11.21 15.36 11.03 15.36 11.03 15.34 15.78 8.02 15.98 8.02"/>
      <polygon class="cls-89" points="16.17 8.02 11.41 15.36 11.21 15.36 15.98 8.02 16.17 8.02"/>
      <polygon class="cls-107" points="16.37 8.02 11.6 15.36 11.41 15.36 16.17 8.02 16.37 8.02"/>
      <polygon class="cls-3" points="16.56 8.02 11.8 15.36 11.6 15.36 16.37 8.02 16.56 8.02"/>
      <polygon class="cls-142" points="16.76 8.02 11.99 15.36 11.8 15.36 16.56 8.02 16.76 8.02"/>
      <polygon class="cls-156" points="16.95 8.02 12.19 15.36 11.99 15.36 16.76 8.02 16.95 8.02"/>
      <polygon class="cls-18" points="17.15 8.02 12.38 15.36 12.19 15.36 16.95 8.02 17.15 8.02"/>
      <polygon class="cls-13" points="17.34 8.02 12.58 15.36 12.38 15.36 17.15 8.02 17.34 8.02"/>
      <polygon class="cls-98" points="17.54 8.02 12.77 15.36 12.58 15.36 17.34 8.02 17.54 8.02"/>
      <polygon class="cls-39" points="17.73 8.02 12.97 15.36 12.77 15.36 17.54 8.02 17.73 8.02"/>
      <polygon class="cls-59" points="17.93 8.02 13.16 15.36 12.97 15.36 17.73 8.02 17.93 8.02"/>
      <polygon class="cls-106" points="18.12 8.02 13.36 15.36 13.16 15.36 17.93 8.02 18.12 8.02"/>
      <polygon class="cls-79" points="18.32 8.02 13.55 15.36 13.36 15.36 18.12 8.02 18.32 8.02"/>
      <polygon class="cls-29" points="18.51 8.02 13.75 15.36 13.55 15.36 18.32 8.02 18.51 8.02"/>
      <polygon class="cls-49" points="18.71 8.02 13.94 15.36 13.75 15.36 18.51 8.02 18.71 8.02"/>
      <polygon class="cls-45" points="18.9 8.02 14.14 15.36 13.94 15.36 18.71 8.02 18.9 8.02"/>
      <polygon class="cls-56" points="19.1 8.02 14.33 15.36 14.14 15.36 18.9 8.02 19.1 8.02"/>
      <polygon class="cls-43" points="19.29 8.02 14.53 15.36 14.33 15.36 19.1 8.02 19.29 8.02"/>
      <polygon class="cls-70" points="19.49 8.02 14.72 15.36 14.53 15.36 19.29 8.02 19.49 8.02"/>
      <polygon class="cls-141" points="19.68 8.02 14.92 15.36 14.72 15.36 19.49 8.02 19.68 8.02"/>
      <polygon class="cls-17" points="19.88 8.02 15.11 15.36 14.92 15.36 19.68 8.02 19.88 8.02"/>
      <polygon class="cls-121" points="20.08 8.02 15.31 15.36 15.11 15.36 19.88 8.02 20.08 8.02"/>
      <polygon class="cls-143" points="20.11 8.02 20.22 8.09 15.51 15.36 15.31 15.36 20.08 8.02 20.11 8.02"/>
      <polygon class="cls-46" points="20.22 8.09 20.36 8.18 15.7 15.36 15.51 15.36 20.22 8.09"/>
      <polygon class="cls-72" points="20.36 8.18 20.5 8.27 15.9 15.36 15.7 15.36 20.36 8.18"/>
      <polygon class="cls-14" points="20.5 8.27 20.63 8.36 16.09 15.36 15.9 15.36 20.5 8.27"/>
      <polygon class="cls-14" points="20.63 8.36 20.7 8.4 16.19 15.36 16.09 15.36 20.63 8.36"/>
      <polygon class="cls-44" points="20.7 8.4 20.77 8.45 16.29 15.36 16.19 15.36 20.7 8.4"/>
      <polygon class="cls-117" points="20.77 8.45 20.84 8.49 16.39 15.36 16.29 15.36 20.77 8.45"/>
      <polygon class="cls-57" points="20.84 8.49 20.91 8.54 16.49 15.36 16.39 15.36 20.84 8.49"/>
      <polygon class="cls-114" points="20.91 8.54 20.98 8.59 16.59 15.36 16.49 15.36 20.91 8.54"/>
      <polygon class="cls-108" points="20.98 8.59 21.05 8.63 16.69 15.36 16.59 15.36 20.98 8.59"/>
      <polygon class="cls-52" points="21.05 8.63 21.12 8.68 16.79 15.36 16.69 15.36 21.05 8.63"/>
      <polygon class="cls-85" points="21.12 8.68 21.19 8.72 16.88 15.36 16.79 15.36 21.12 8.68"/>
      <polygon class="cls-8" points="21.19 8.72 21.26 8.77 16.98 15.36 16.88 15.36 21.19 8.72"/>
      <polygon class="cls-135" points="21.26 8.77 21.33 8.81 17.08 15.36 16.98 15.36 21.26 8.77"/>
      <polygon class="cls-48" points="21.33 8.81 21.4 8.86 17.18 15.36 17.08 15.36 21.33 8.81"/>
      <polygon class="cls-7" points="21.4 8.86 21.47 8.9 17.28 15.36 17.18 15.36 21.4 8.86"/>
      <polygon class="cls-97" points="21.47 8.9 21.54 8.95 17.38 15.36 17.28 15.36 21.47 8.9"/>
      <polygon class="cls-159" points="21.54 8.95 21.61 8.99 17.48 15.36 17.38 15.36 21.54 8.95"/>
      <polygon class="cls-51" points="21.61 8.99 21.68 9.04 17.58 15.36 17.48 15.36 21.61 8.99"/>
      <polygon class="cls-74" points="21.68 9.04 21.75 9.08 17.68 15.36 17.58 15.36 21.68 9.04"/>
      <polygon class="cls-115" points="21.75 9.08 21.82 9.13 17.78 15.36 17.68 15.36 21.75 9.08"/>
      <polygon class="cls-64" points="21.82 9.13 21.89 9.17 17.88 15.36 17.78 15.36 21.82 9.13"/>
      <polygon class="cls-154" points="21.89 9.17 21.96 9.22 17.98 15.36 17.88 15.36 21.89 9.17"/>
      <polygon class="cls-113" points="21.96 9.22 22.03 9.27 18.08 15.36 17.98 15.36 21.96 9.22"/>
      <polygon class="cls-92" points="22.03 9.27 22.1 9.31 18.18 15.36 18.08 15.36 22.03 9.27"/>
      <polygon class="cls-91" points="22.1 9.31 22.17 9.36 18.27 15.36 18.18 15.36 22.1 9.31"/>
      <polygon class="cls-33" points="22.17 9.36 22.24 9.4 18.37 15.36 18.27 15.36 22.17 9.36"/>
      <polygon class="cls-69" points="22.24 9.4 22.31 9.45 18.47 15.36 18.37 15.36 22.24 9.4"/>
      <polygon class="cls-63" points="22.31 9.45 22.38 9.49 18.57 15.36 18.47 15.36 22.31 9.45"/>
      <polygon class="cls-116" points="22.38 9.49 22.45 9.54 18.67 15.36 18.57 15.36 22.38 9.49"/>
      <polygon class="cls-19" points="22.45 9.54 22.52 9.58 18.77 15.36 18.67 15.36 22.45 9.54"/>
      <polygon class="cls-90" points="22.52 9.58 22.59 9.63 18.87 15.36 18.77 15.36 22.52 9.58"/>
      <polygon class="cls-118" points="22.59 9.63 22.66 9.67 18.97 15.36 18.87 15.36 22.59 9.63"/>
      <polygon class="cls-136" points="22.66 9.67 22.73 9.72 19.07 15.36 18.97 15.36 22.66 9.67"/>
      <polygon class="cls-11" points="22.73 9.72 22.8 9.76 19.17 15.36 19.07 15.36 22.73 9.72"/>
      <polygon class="cls-53" points="22.8 9.76 22.87 9.81 19.27 15.36 19.17 15.36 22.8 9.76"/>
      <polygon class="cls-105" points="22.87 9.81 22.94 9.85 19.37 15.36 19.27 15.36 22.87 9.81"/>
      <polygon class="cls-25" points="22.94 9.85 23.01 9.9 19.47 15.36 19.37 15.36 22.94 9.85"/>
      <polygon class="cls-40" points="23.01 9.9 23.08 9.94 19.57 15.36 19.47 15.36 23.01 9.9"/>
      <polygon class="cls-38" points="23.08 9.94 23.15 9.99 19.66 15.36 19.57 15.36 23.08 9.94"/>
      <polygon class="cls-73" points="23.15 9.99 23.22 10.04 19.76 15.36 19.66 15.36 23.15 9.99"/>
      <polygon class="cls-137" points="23.22 10.04 23.29 10.08 19.86 15.36 19.76 15.36 23.22 10.04"/>
      <polygon class="cls-120" points="23.29 10.08 23.36 10.13 19.96 15.36 19.86 15.36 23.29 10.08"/>
      <polygon class="cls-5" points="23.36 10.13 23.43 10.17 20.06 15.36 19.96 15.36 23.36 10.13"/>
      <polygon class="cls-78" points="23.43 10.17 23.5 10.22 20.16 15.36 20.06 15.36 23.43 10.17"/>
      <polygon class="cls-122" points="23.5 10.22 23.57 10.26 20.26 15.36 20.16 15.36 23.5 10.22"/>
      <polygon class="cls-61" points="23.57 10.26 23.64 10.31 20.36 15.36 20.26 15.36 23.57 10.26"/>
      <polygon class="cls-81" points="23.64 10.31 23.71 10.35 20.46 15.36 20.36 15.36 23.64 10.31"/>
      <polygon class="cls-124" points="23.71 10.35 23.78 10.4 20.56 15.36 20.46 15.36 23.71 10.35"/>
      <polygon class="cls-148" points="23.78 10.4 23.85 10.44 20.66 15.36 20.56 15.36 23.78 10.4"/>
      <polygon class="cls-34" points="23.85 10.44 23.92 10.49 20.76 15.36 20.66 15.36 23.85 10.44"/>
      <polygon class="cls-26" points="23.92 10.49 23.99 10.53 20.86 15.36 20.76 15.36 23.92 10.49"/>
      <polygon class="cls-130" points="23.99 10.53 24.06 10.58 20.96 15.36 20.86 15.36 23.99 10.53"/>
      <polygon class="cls-130" points="24.06 10.58 24.15 10.64 21.08 15.36 20.96 15.36 24.06 10.58"/>
      <polygon class="cls-139" points="24.15 10.64 24.24 10.7 21.21 15.36 21.08 15.36 24.15 10.64"/>
      <polygon class="cls-21" points="24.24 10.7 24.33 10.76 21.34 15.36 21.21 15.36 24.24 10.7"/>
      <polygon class="cls-32" points="24.33 10.76 24.42 10.81 21.47 15.36 21.34 15.36 24.33 10.76"/>
      <polygon class="cls-157" points="24.42 10.81 24.51 10.87 21.6 15.36 21.47 15.36 24.42 10.81"/>
      <polygon class="cls-54" points="24.51 10.87 24.55 10.9 24.55 11.02 21.73 15.36 21.6 15.36 24.51 10.87"/>
      <polygon class="cls-66" points="24.55 11.22 21.86 15.36 21.73 15.36 24.55 11.02 24.55 11.22"/>
      <polygon class="cls-20" points="24.55 11.41 21.99 15.36 21.86 15.36 24.55 11.22 24.55 11.41"/>
      <polygon class="cls-55" points="24.55 11.61 22.11 15.36 21.99 15.36 24.55 11.41 24.55 11.61"/>
      <polygon class="cls-71" points="24.55 11.81 22.24 15.36 22.11 15.36 24.55 11.61 24.55 11.81"/>
      <polygon class="cls-77" points="24.55 12.01 22.37 15.36 22.24 15.36 24.55 11.81 24.55 12.01"/>
      <polygon class="cls-47" points="24.55 12.21 22.5 15.36 22.37 15.36 24.55 12.01 24.55 12.21"/>
      <polygon class="cls-140" points="24.55 12.41 22.63 15.36 22.5 15.36 24.55 12.21 24.55 12.41"/>
      <polygon class="cls-1" points="24.55 12.61 22.76 15.36 22.63 15.36 24.55 12.41 24.55 12.61"/>
      <polygon class="cls-153" points="24.55 12.8 22.89 15.36 22.76 15.36 24.55 12.61 24.55 12.8"/>
      <polygon class="cls-36" points="24.55 13 23.02 15.36 22.89 15.36 24.55 12.8 24.55 13"/>
      <polygon class="cls-102" points="24.55 13.2 23.14 15.36 23.02 15.36 24.55 13 24.55 13.2"/>
      <polygon class="cls-76" points="24.55 13.4 23.27 15.36 23.14 15.36 24.55 13.2 24.55 13.4"/>
      <polygon class="cls-27" points="24.55 13.6 23.4 15.36 23.27 15.36 24.55 13.4 24.55 13.6"/>
      <polygon class="cls-12" points="24.55 13.8 23.53 15.36 23.4 15.36 24.55 13.6 24.55 13.8"/>
      <polygon class="cls-9" points="24.55 14 23.66 15.36 23.53 15.36 24.55 13.8 24.55 14"/>
      <polygon class="cls-86" points="24.55 14.19 23.79 15.36 23.66 15.36 24.55 14 24.55 14.19"/>
      <polygon class="cls-24" points="24.55 14.39 23.92 15.36 23.79 15.36 24.55 14.19 24.55 14.39"/>
      <polygon class="cls-146" points="24.55 14.59 24.05 15.36 23.92 15.36 24.55 14.39 24.55 14.59"/>
      <polygon class="cls-99" points="24.55 14.79 24.17 15.36 24.05 15.36 24.55 14.59 24.55 14.79"/>
      <polygon class="cls-132" points="24.55 14.99 24.3 15.36 24.17 15.36 24.55 14.79 24.55 14.99"/>
      <polygon class="cls-50" points="24.55 15.19 24.43 15.36 24.3 15.36 24.55 14.99 24.55 15.19"/>
      <polygon class="cls-128" points="24.43 15.36 24.55 15.19 24.55 15.36 24.43 15.36"/>
    </g>
    <g>
      <g class="cls-161">
        <polygon class="cls-3" points="9.14 19.46 8.95 19.76 8.95 19.46 9.14 19.46"/>
        <polygon class="cls-142" points="9.34 19.46 8.95 20.06 8.95 19.76 9.14 19.46 9.34 19.46"/>
        <polygon class="cls-156" points="9.53 19.46 8.95 20.36 8.95 20.06 9.34 19.46 9.53 19.46"/>
        <polygon class="cls-18" points="9.73 19.46 8.95 20.66 8.95 20.36 9.53 19.46 9.73 19.46"/>
        <polygon class="cls-13" points="9.92 19.46 8.95 20.96 8.95 20.66 9.73 19.46 9.92 19.46"/>
        <polygon class="cls-98" points="10.12 19.46 8.95 21.26 8.95 20.96 9.92 19.46 10.12 19.46"/>
        <polygon class="cls-39" points="10.31 19.46 8.95 21.56 8.95 21.26 10.12 19.46 10.31 19.46"/>
        <polygon class="cls-59" points="10.51 19.46 8.95 21.86 8.95 21.56 10.31 19.46 10.51 19.46"/>
        <polygon class="cls-106" points="10.7 19.46 8.95 22.17 8.95 21.86 10.51 19.46 10.7 19.46"/>
        <polygon class="cls-79" points="10.9 19.46 8.95 22.47 8.95 22.17 10.7 19.46 10.9 19.46"/>
        <polygon class="cls-29" points="11.09 19.46 8.95 22.77 8.95 22.47 10.9 19.46 11.09 19.46"/>
        <polygon class="cls-49" points="11.29 19.46 8.95 23.07 8.95 22.77 11.09 19.46 11.29 19.46"/>
        <polygon class="cls-45" points="11.48 19.46 8.95 23.37 8.95 23.07 11.29 19.46 11.48 19.46"/>
        <polygon class="cls-56" points="11.68 19.46 8.95 23.67 8.95 23.37 11.48 19.46 11.68 19.46"/>
        <polygon class="cls-43" points="11.87 19.46 8.95 23.97 8.95 23.67 11.68 19.46 11.87 19.46"/>
        <polygon class="cls-70" points="12.07 19.46 8.95 24.27 8.95 23.97 11.87 19.46 12.07 19.46"/>
        <polygon class="cls-141" points="12.26 19.46 8.95 24.57 8.95 24.27 12.07 19.46 12.26 19.46"/>
        <polygon class="cls-17" points="12.46 19.46 8.95 24.87 8.95 24.57 12.26 19.46 12.46 19.46"/>
        <polygon class="cls-121" points="12.65 19.46 8.95 25.18 8.95 24.87 12.46 19.46 12.65 19.46"/>
        <polygon class="cls-143" points="12.85 19.46 8.95 25.48 8.95 25.18 12.65 19.46 12.85 19.46"/>
        <polygon class="cls-46" points="13.04 19.46 8.95 25.78 8.95 25.48 12.85 19.46 13.04 19.46"/>
        <polygon class="cls-72" points="13.24 19.46 9.07 25.89 8.95 25.89 8.95 25.78 13.04 19.46 13.24 19.46"/>
        <polygon class="cls-14" points="13.43 19.46 9.26 25.89 9.07 25.89 13.24 19.46 13.43 19.46"/>
        <polygon class="cls-14" points="13.53 19.46 9.36 25.89 9.26 25.89 13.43 19.46 13.53 19.46"/>
        <polygon class="cls-44" points="13.63 19.46 9.46 25.89 9.36 25.89 13.53 19.46 13.63 19.46"/>
        <polygon class="cls-117" points="13.73 19.46 9.56 25.89 9.46 25.89 13.63 19.46 13.73 19.46"/>
        <polygon class="cls-57" points="13.83 19.46 9.66 25.89 9.56 25.89 13.73 19.46 13.83 19.46"/>
        <polygon class="cls-114" points="13.93 19.46 9.76 25.89 9.66 25.89 13.83 19.46 13.93 19.46"/>
        <polygon class="cls-108" points="14.03 19.46 9.86 25.89 9.76 25.89 13.93 19.46 14.03 19.46"/>
        <polygon class="cls-52" points="14.13 19.46 9.96 25.89 9.86 25.89 14.03 19.46 14.13 19.46"/>
        <polygon class="cls-85" points="14.19 19.52 10.06 25.89 9.96 25.89 14.13 19.46 14.19 19.46 14.19 19.52"/>
        <polygon class="cls-8" points="14.19 19.67 10.16 25.89 10.06 25.89 14.19 19.52 14.19 19.67"/>
        <polygon class="cls-135" points="14.19 19.82 10.26 25.89 10.16 25.89 14.19 19.67 14.19 19.82"/>
        <polygon class="cls-48" points="14.19 19.98 10.36 25.89 10.26 25.89 14.19 19.82 14.19 19.98"/>
        <polygon class="cls-7" points="14.19 20.13 10.46 25.89 10.36 25.89 14.19 19.98 14.19 20.13"/>
        <polygon class="cls-97" points="14.19 20.28 10.55 25.89 10.46 25.89 14.19 20.13 14.19 20.28"/>
        <polygon class="cls-159" points="14.19 20.44 10.65 25.89 10.55 25.89 14.19 20.28 14.19 20.44"/>
        <polygon class="cls-51" points="14.19 20.59 10.75 25.89 10.65 25.89 14.19 20.44 14.19 20.59"/>
        <polygon class="cls-74" points="14.19 20.74 10.85 25.89 10.75 25.89 14.19 20.59 14.19 20.74"/>
        <polygon class="cls-115" points="14.19 20.89 10.95 25.89 10.85 25.89 14.19 20.74 14.19 20.89"/>
        <polygon class="cls-64" points="14.19 21.05 11.05 25.89 10.95 25.89 14.19 20.89 14.19 21.05"/>
        <polygon class="cls-154" points="14.19 21.2 11.15 25.89 11.05 25.89 14.19 21.05 14.19 21.2"/>
        <polygon class="cls-113" points="14.19 21.35 11.25 25.89 11.15 25.89 14.19 21.2 14.19 21.35"/>
        <polygon class="cls-92" points="14.19 21.51 11.35 25.89 11.25 25.89 14.19 21.35 14.19 21.51"/>
        <polygon class="cls-91" points="14.19 21.66 11.45 25.89 11.35 25.89 14.19 21.51 14.19 21.66"/>
        <polygon class="cls-33" points="14.19 21.81 11.55 25.89 11.45 25.89 14.19 21.66 14.19 21.81"/>
        <polygon class="cls-69" points="14.19 21.97 11.65 25.89 11.55 25.89 14.19 21.81 14.19 21.97"/>
        <polygon class="cls-63" points="14.19 22.12 11.75 25.89 11.65 25.89 14.19 21.97 14.19 22.12"/>
        <polygon class="cls-116" points="14.19 22.27 11.85 25.89 11.75 25.89 14.19 22.12 14.19 22.27"/>
        <polygon class="cls-19" points="14.19 22.43 11.94 25.89 11.85 25.89 14.19 22.27 14.19 22.43"/>
        <polygon class="cls-90" points="14.19 22.58 12.04 25.89 11.94 25.89 14.19 22.43 14.19 22.58"/>
        <polygon class="cls-118" points="14.19 22.73 12.14 25.89 12.04 25.89 14.19 22.58 14.19 22.73"/>
        <polygon class="cls-136" points="14.19 22.88 12.24 25.89 12.14 25.89 14.19 22.73 14.19 22.88"/>
        <polygon class="cls-11" points="14.19 23.04 12.34 25.89 12.24 25.89 14.19 22.88 14.19 23.04"/>
        <polygon class="cls-53" points="14.19 23.19 12.44 25.89 12.34 25.89 14.19 23.04 14.19 23.19"/>
        <polygon class="cls-105" points="14.19 23.34 12.54 25.89 12.44 25.89 14.19 23.19 14.19 23.34"/>
        <polygon class="cls-25" points="14.19 23.5 12.64 25.89 12.54 25.89 14.19 23.34 14.19 23.5"/>
        <polygon class="cls-40" points="14.19 23.65 12.74 25.89 12.64 25.89 14.19 23.5 14.19 23.65"/>
        <polygon class="cls-38" points="14.19 23.8 12.84 25.89 12.74 25.89 14.19 23.65 14.19 23.8"/>
        <polygon class="cls-73" points="14.19 23.96 12.94 25.89 12.84 25.89 14.19 23.8 14.19 23.96"/>
        <polygon class="cls-137" points="14.19 24.11 13.04 25.89 12.94 25.89 14.19 23.96 14.19 24.11"/>
        <polygon class="cls-120" points="14.19 24.26 13.14 25.89 13.04 25.89 14.19 24.11 14.19 24.26"/>
        <polygon class="cls-5" points="14.19 24.41 13.24 25.89 13.14 25.89 14.19 24.26 14.19 24.41"/>
        <polygon class="cls-78" points="14.19 24.57 13.33 25.89 13.24 25.89 14.19 24.41 14.19 24.57"/>
        <polygon class="cls-122" points="14.19 24.72 13.43 25.89 13.33 25.89 14.19 24.57 14.19 24.72"/>
        <polygon class="cls-61" points="14.19 24.87 13.53 25.89 13.43 25.89 14.19 24.72 14.19 24.87"/>
        <polygon class="cls-81" points="14.19 25.03 13.63 25.89 13.53 25.89 14.19 24.87 14.19 25.03"/>
        <polygon class="cls-124" points="14.19 25.18 13.73 25.89 13.63 25.89 14.19 25.03 14.19 25.18"/>
        <polygon class="cls-148" points="14.19 25.33 13.83 25.89 13.73 25.89 14.19 25.18 14.19 25.33"/>
        <polygon class="cls-34" points="14.19 25.49 13.93 25.89 13.83 25.89 14.19 25.33 14.19 25.49"/>
        <polygon class="cls-26" points="14.19 25.64 14.03 25.89 13.93 25.89 14.19 25.49 14.19 25.64"/>
        <polygon class="cls-130" points="14.19 25.79 14.13 25.89 14.03 25.89 14.19 25.64 14.19 25.79"/>
        <polygon class="cls-130" points="14.13 25.89 14.19 25.79 14.19 25.89 14.13 25.89"/>
      </g>
      <g class="cls-160">
        <polygon class="cls-118" points="15.72 20.38 15.72 20.38 15.72 20.38 15.72 20.38"/>
        <polygon class="cls-136" points="15.82 20.38 15.72 20.53 15.72 20.38 15.72 20.38 15.82 20.38"/>
        <polygon class="cls-11" points="15.92 20.38 15.72 20.69 15.72 20.53 15.82 20.38 15.92 20.38"/>
        <polygon class="cls-53" points="16.02 20.38 15.72 20.84 15.72 20.69 15.92 20.38 16.02 20.38"/>
        <polygon class="cls-105" points="16.11 20.38 15.72 20.99 15.72 20.84 16.02 20.38 16.11 20.38"/>
        <polygon class="cls-25" points="16.21 20.38 15.72 21.15 15.72 20.99 16.11 20.38 16.21 20.38"/>
        <polygon class="cls-40" points="16.31 20.38 15.72 21.3 15.72 21.15 16.21 20.38 16.31 20.38"/>
        <polygon class="cls-38" points="16.41 20.38 15.72 21.45 15.72 21.3 16.31 20.38 16.41 20.38"/>
        <polygon class="cls-73" points="16.51 20.38 15.72 21.6 15.72 21.45 16.41 20.38 16.51 20.38"/>
        <polygon class="cls-137" points="16.61 20.38 15.72 21.76 15.72 21.6 16.51 20.38 16.61 20.38"/>
        <polygon class="cls-120" points="16.71 20.38 15.72 21.91 15.72 21.76 16.61 20.38 16.71 20.38"/>
        <polygon class="cls-5" points="16.81 20.38 15.72 22.06 15.72 21.91 16.71 20.38 16.81 20.38"/>
        <polygon class="cls-78" points="16.91 20.38 15.72 22.22 15.72 22.06 16.81 20.38 16.91 20.38"/>
        <polygon class="cls-122" points="17.01 20.38 15.72 22.37 15.72 22.22 16.91 20.38 17.01 20.38"/>
        <polygon class="cls-61" points="17.11 20.38 15.72 22.52 15.72 22.37 17.01 20.38 17.11 20.38"/>
        <polygon class="cls-81" points="17.21 20.38 15.72 22.68 15.72 22.52 17.11 20.38 17.21 20.38"/>
        <polygon class="cls-124" points="17.31 20.38 15.72 22.83 15.72 22.68 17.21 20.38 17.31 20.38"/>
        <polygon class="cls-148" points="17.41 20.38 15.72 22.98 15.72 22.83 17.31 20.38 17.41 20.38"/>
        <polygon class="cls-34" points="17.5 20.38 15.72 23.14 15.72 22.98 17.41 20.38 17.5 20.38"/>
        <polygon class="cls-26" points="17.6 20.38 15.72 23.29 15.72 23.14 17.5 20.38 17.6 20.38"/>
        <polygon class="cls-130" points="17.7 20.38 15.72 23.44 15.72 23.29 17.6 20.38 17.7 20.38"/>
        <polygon class="cls-130" points="17.83 20.38 15.72 23.64 15.72 23.44 17.7 20.38 17.83 20.38"/>
        <polygon class="cls-139" points="17.96 20.38 15.72 23.84 15.72 23.64 17.83 20.38 17.96 20.38"/>
        <polygon class="cls-21" points="18.09 20.38 15.72 24.04 15.72 23.84 17.96 20.38 18.09 20.38"/>
        <polygon class="cls-32" points="18.22 20.38 15.72 24.24 15.72 24.04 18.09 20.38 18.22 20.38"/>
        <polygon class="cls-157" points="18.35 20.38 15.72 24.43 15.72 24.24 18.22 20.38 18.35 20.38"/>
        <polygon class="cls-54" points="18.48 20.38 15.72 24.63 15.72 24.43 18.35 20.38 18.48 20.38"/>
        <polygon class="cls-66" points="18.6 20.38 15.72 24.83 15.72 24.63 18.48 20.38 18.6 20.38"/>
        <polygon class="cls-20" points="18.73 20.38 15.75 24.97 15.72 24.97 15.72 24.83 18.6 20.38 18.73 20.38"/>
        <polygon class="cls-55" points="18.86 20.38 15.88 24.97 15.75 24.97 18.73 20.38 18.86 20.38"/>
        <polygon class="cls-71" points="18.99 20.38 16.01 24.97 15.88 24.97 18.86 20.38 18.99 20.38"/>
        <polygon class="cls-77" points="19.12 20.38 16.14 24.97 16.01 24.97 18.99 20.38 19.12 20.38"/>
        <polygon class="cls-47" points="19.25 20.38 16.27 24.97 16.14 24.97 19.12 20.38 19.25 20.38"/>
        <polygon class="cls-140" points="19.38 20.38 16.4 24.97 16.27 24.97 19.25 20.38 19.38 20.38"/>
        <polygon class="cls-1" points="19.51 20.38 16.53 24.97 16.4 24.97 19.38 20.38 19.51 20.38"/>
        <polygon class="cls-153" points="19.63 20.38 16.66 24.97 16.53 24.97 19.51 20.38 19.63 20.38"/>
        <polygon class="cls-36" points="19.76 20.38 16.78 24.97 16.66 24.97 19.63 20.38 19.76 20.38"/>
        <polygon class="cls-102" points="19.89 20.38 16.91 24.97 16.78 24.97 19.76 20.38 19.89 20.38"/>
        <polygon class="cls-76" points="20.02 20.38 17.04 24.97 16.91 24.97 19.89 20.38 20.02 20.38"/>
        <polygon class="cls-27" points="20.1 20.46 17.17 24.97 17.04 24.97 20.02 20.38 20.1 20.38 20.1 20.46"/>
        <polygon class="cls-12" points="20.1 20.66 17.3 24.97 17.17 24.97 20.1 20.46 20.1 20.66"/>
        <polygon class="cls-9" points="20.1 20.85 17.43 24.97 17.3 24.97 20.1 20.66 20.1 20.85"/>
        <polygon class="cls-86" points="20.1 21.05 17.56 24.97 17.43 24.97 20.1 20.85 20.1 21.05"/>
        <polygon class="cls-24" points="20.1 21.25 17.69 24.97 17.56 24.97 20.1 21.05 20.1 21.25"/>
        <polygon class="cls-146" points="20.1 21.45 17.81 24.97 17.69 24.97 20.1 21.25 20.1 21.45"/>
        <polygon class="cls-99" points="20.1 21.65 17.94 24.97 17.81 24.97 20.1 21.45 20.1 21.65"/>
        <polygon class="cls-132" points="20.1 21.85 18.07 24.97 17.94 24.97 20.1 21.65 20.1 21.85"/>
        <polygon class="cls-50" points="20.1 22.05 18.2 24.97 18.07 24.97 20.1 21.85 20.1 22.05"/>
        <polygon class="cls-128" points="20.1 22.24 18.33 24.97 18.2 24.97 20.1 22.05 20.1 22.24"/>
        <polygon class="cls-144" points="20.1 22.44 18.46 24.97 18.33 24.97 20.1 22.24 20.1 22.44"/>
        <polygon class="cls-96" points="20.1 22.64 18.59 24.97 18.46 24.97 20.1 22.44 20.1 22.64"/>
        <polygon class="cls-42" points="20.1 22.84 18.72 24.97 18.59 24.97 20.1 22.64 20.1 22.84"/>
        <polygon class="cls-80" points="20.1 23.04 18.84 24.97 18.72 24.97 20.1 22.84 20.1 23.04"/>
        <polygon class="cls-123" points="20.1 23.24 18.97 24.97 18.84 24.97 20.1 23.04 20.1 23.24"/>
        <polygon class="cls-87" points="20.1 23.44 19.1 24.97 18.97 24.97 20.1 23.24 20.1 23.44"/>
        <polygon class="cls-22" points="20.1 23.63 19.23 24.97 19.1 24.97 20.1 23.44 20.1 23.63"/>
        <polygon class="cls-100" points="20.1 23.83 19.36 24.97 19.23 24.97 20.1 23.63 20.1 23.83"/>
        <polygon class="cls-83" points="20.1 24.03 19.49 24.97 19.36 24.97 20.1 23.83 20.1 24.03"/>
        <polygon class="cls-6" points="20.1 24.23 19.62 24.97 19.49 24.97 20.1 24.03 20.1 24.23"/>
        <polygon class="cls-127" points="20.1 24.43 19.75 24.97 19.62 24.97 20.1 24.23 20.1 24.43"/>
        <polygon class="cls-31" points="20.1 24.63 19.87 24.97 19.75 24.97 20.1 24.43 20.1 24.63"/>
        <polygon class="cls-125" points="20.1 24.83 20 24.97 19.87 24.97 20.1 24.63 20.1 24.83"/>
        <polygon class="cls-101" points="20 24.97 20.1 24.83 20.1 24.97 20 24.97"/>
        <polygon class="cls-7" points="14.69 19.37 14.63 19.45 14.63 19.37 14.69 19.37"/>
        <polygon class="cls-97" points="14.78 19.37 14.63 19.6 14.63 19.45 14.69 19.37 14.78 19.37"/>
        <polygon class="cls-159" points="14.88 19.37 14.63 19.75 14.63 19.6 14.78 19.37 14.88 19.37"/>
        <polygon class="cls-51" points="14.98 19.37 14.63 19.91 14.63 19.75 14.88 19.37 14.98 19.37"/>
        <polygon class="cls-74" points="15.08 19.37 14.63 20.06 14.63 19.91 14.98 19.37 15.08 19.37"/>
        <polygon class="cls-115" points="15.18 19.37 14.63 20.21 14.63 20.06 15.08 19.37 15.18 19.37"/>
        <polygon class="cls-64" points="15.28 19.37 14.63 20.37 14.63 20.21 15.18 19.37 15.28 19.37"/>
        <polygon class="cls-154" points="15.38 19.37 14.63 20.52 14.63 20.37 15.28 19.37 15.38 19.37"/>
        <polygon class="cls-113" points="15.48 19.37 14.63 20.67 14.63 20.52 15.38 19.37 15.48 19.37"/>
        <polygon class="cls-92" points="15.58 19.37 14.63 20.83 14.63 20.67 15.48 19.37 15.58 19.37"/>
        <polygon class="cls-91" points="15.68 19.37 14.63 20.98 14.63 20.83 15.58 19.37 15.68 19.37"/>
        <polygon class="cls-33" points="15.78 19.37 14.63 21.13 14.63 20.98 15.68 19.37 15.78 19.37"/>
        <polygon class="cls-69" points="15.88 19.37 14.63 21.29 14.63 21.13 15.78 19.37 15.88 19.37"/>
        <polygon class="cls-63" points="15.98 19.37 14.63 21.44 14.63 21.29 15.88 19.37 15.98 19.37"/>
        <polygon class="cls-116" points="16.08 19.37 14.63 21.59 14.63 21.44 15.98 19.37 16.08 19.37"/>
        <polygon class="cls-19" points="16.17 19.37 14.63 21.74 14.63 21.59 16.08 19.37 16.17 19.37"/>
        <polygon class="cls-90" points="16.27 19.37 14.63 21.9 14.63 21.74 16.17 19.37 16.27 19.37"/>
        <polygon class="cls-118" points="16.37 19.37 14.63 22.05 14.63 21.9 16.27 19.37 16.37 19.37"/>
        <polygon class="cls-136" points="16.47 19.37 14.63 22.2 14.63 22.05 16.37 19.37 16.47 19.37"/>
        <polygon class="cls-11" points="16.57 19.37 14.63 22.36 14.63 22.2 16.47 19.37 16.57 19.37"/>
        <polygon class="cls-53" points="16.67 19.37 14.63 22.51 14.63 22.36 16.57 19.37 16.67 19.37"/>
        <polygon class="cls-105" points="16.77 19.37 14.63 22.66 14.63 22.51 16.67 19.37 16.77 19.37"/>
        <polygon class="cls-25" points="16.87 19.37 14.63 22.82 14.63 22.66 16.77 19.37 16.87 19.37"/>
        <polygon class="cls-40" points="16.97 19.37 14.63 22.97 14.63 22.82 16.87 19.37 16.97 19.37"/>
        <polygon class="cls-38" points="17.07 19.37 14.63 23.12 14.63 22.97 16.97 19.37 17.07 19.37"/>
        <polygon class="cls-73" points="17.17 19.37 14.63 23.28 14.63 23.12 17.07 19.37 17.17 19.37"/>
        <polygon class="cls-137" points="17.27 19.37 14.63 23.43 14.63 23.28 17.17 19.37 17.27 19.37"/>
        <polygon class="cls-120" points="17.37 19.37 14.63 23.58 14.63 23.43 17.27 19.37 17.37 19.37"/>
        <polygon class="cls-5" points="17.47 19.37 14.63 23.73 14.63 23.58 17.37 19.37 17.47 19.37"/>
        <polygon class="cls-78" points="17.56 19.37 14.63 23.89 14.63 23.73 17.47 19.37 17.56 19.37"/>
        <polygon class="cls-122" points="17.66 19.37 14.63 24.04 14.63 23.89 17.56 19.37 17.66 19.37"/>
        <polygon class="cls-61" points="17.76 19.37 14.63 24.19 14.63 24.04 17.66 19.37 17.76 19.37"/>
        <polygon class="cls-81" points="17.86 19.37 14.63 24.35 14.63 24.19 17.76 19.37 17.86 19.37"/>
        <polygon class="cls-124" points="17.96 19.37 14.63 24.5 14.63 24.35 17.86 19.37 17.96 19.37"/>
        <polygon class="cls-148" points="18.06 19.37 14.63 24.65 14.63 24.5 17.96 19.37 18.06 19.37"/>
        <polygon class="cls-34" points="18.16 19.37 14.63 24.81 14.63 24.65 18.06 19.37 18.16 19.37"/>
        <polygon class="cls-26" points="18.26 19.37 14.63 24.96 14.63 24.81 18.16 19.37 18.26 19.37"/>
        <polygon class="cls-130" points="18.36 19.37 14.63 25.11 14.63 24.96 18.26 19.37 18.36 19.37"/>
        <polygon class="cls-130" points="18.49 19.37 14.63 25.31 14.63 25.11 18.36 19.37 18.49 19.37"/>
        <polygon class="cls-139" points="18.62 19.37 14.63 25.51 14.63 25.31 18.49 19.37 18.62 19.37"/>
        <polygon class="cls-21" points="18.74 19.37 14.63 25.71 14.63 25.51 18.62 19.37 18.74 19.37"/>
        <polygon class="cls-32" points="18.87 19.37 14.63 25.91 14.63 25.71 18.74 19.37 18.87 19.37"/>
        <polygon class="cls-157" points="19 19.37 14.71 25.98 14.63 25.98 14.63 25.91 18.87 19.37 19 19.37"/>
        <polygon class="cls-54" points="19.13 19.37 14.84 25.98 14.71 25.98 19 19.37 19.13 19.37"/>
        <polygon class="cls-66" points="19.26 19.37 14.97 25.98 14.84 25.98 19.13 19.37 19.26 19.37"/>
        <polygon class="cls-20" points="19.39 19.37 15.1 25.98 14.97 25.98 19.26 19.37 19.39 19.37"/>
        <polygon class="cls-55" points="19.52 19.37 15.23 25.98 15.1 25.98 19.39 19.37 19.52 19.37"/>
        <polygon class="cls-71" points="19.65 19.37 15.36 25.98 15.23 25.98 19.52 19.37 19.65 19.37"/>
        <polygon class="cls-77" points="19.77 19.37 15.49 25.98 15.36 25.98 19.65 19.37 19.77 19.37"/>
        <polygon class="cls-47" points="19.9 19.37 15.61 25.98 15.49 25.98 19.77 19.37 19.9 19.37"/>
        <polygon class="cls-140" points="20.03 19.37 15.74 25.98 15.61 25.98 19.9 19.37 20.03 19.37"/>
        <polygon class="cls-1" points="20.16 19.37 15.87 25.98 15.74 25.98 20.03 19.37 20.16 19.37"/>
        <polygon class="cls-153" points="20.29 19.37 16 25.98 15.87 25.98 20.16 19.37 20.29 19.37"/>
        <polygon class="cls-36" points="20.42 19.37 16.13 25.98 16 25.98 20.29 19.37 20.42 19.37"/>
        <polygon class="cls-102" points="20.55 19.37 16.26 25.98 16.13 25.98 20.42 19.37 20.55 19.37"/>
        <polygon class="cls-76" points="20.68 19.37 16.39 25.98 16.26 25.98 20.55 19.37 20.68 19.37"/>
        <polygon class="cls-27" points="20.8 19.37 16.52 25.98 16.39 25.98 20.68 19.37 20.8 19.37"/>
        <polygon class="cls-12" points="20.93 19.37 16.64 25.98 16.52 25.98 20.8 19.37 20.93 19.37"/>
        <polygon class="cls-9" points="21.06 19.37 16.77 25.98 16.64 25.98 20.93 19.37 21.06 19.37"/>
        <polygon class="cls-86" points="21.18 19.38 16.9 25.98 16.77 25.98 21.06 19.37 21.18 19.37 21.18 19.38"/>
        <polygon class="cls-24" points="21.18 19.58 17.03 25.98 16.9 25.98 21.18 19.38 21.18 19.58"/>
        <polygon class="cls-146" points="21.18 19.78 17.16 25.98 17.03 25.98 21.18 19.58 21.18 19.78"/>
        <polygon class="cls-99" points="21.18 19.98 17.29 25.98 17.16 25.98 21.18 19.78 21.18 19.98"/>
        <polygon class="cls-132" points="21.18 20.18 17.42 25.98 17.29 25.98 21.18 19.98 21.18 20.18"/>
        <polygon class="cls-50" points="21.18 20.37 17.55 25.98 17.42 25.98 21.18 20.18 21.18 20.37"/>
        <polygon class="cls-128" points="21.18 20.57 17.67 25.98 17.55 25.98 21.18 20.37 21.18 20.57"/>
        <polygon class="cls-144" points="21.18 20.77 17.8 25.98 17.67 25.98 21.18 20.57 21.18 20.77"/>
        <polygon class="cls-96" points="21.18 20.97 17.93 25.98 17.8 25.98 21.18 20.77 21.18 20.97"/>
        <polygon class="cls-42" points="21.18 21.17 18.06 25.98 17.93 25.98 21.18 20.97 21.18 21.17"/>
        <polygon class="cls-80" points="21.18 21.37 18.19 25.98 18.06 25.98 21.18 21.17 21.18 21.37"/>
        <polygon class="cls-123" points="21.18 21.57 18.32 25.98 18.19 25.98 21.18 21.37 21.18 21.57"/>
        <polygon class="cls-87" points="21.18 21.76 18.45 25.98 18.32 25.98 21.18 21.57 21.18 21.76"/>
        <polygon class="cls-22" points="21.18 21.96 18.58 25.98 18.45 25.98 21.18 21.76 21.18 21.96"/>
        <polygon class="cls-100" points="21.18 22.16 18.7 25.98 18.58 25.98 21.18 21.96 21.18 22.16"/>
        <polygon class="cls-83" points="21.18 22.36 18.83 25.98 18.7 25.98 21.18 22.16 21.18 22.36"/>
        <polygon class="cls-6" points="21.18 22.56 18.96 25.98 18.83 25.98 21.18 22.36 21.18 22.56"/>
        <polygon class="cls-127" points="21.18 22.76 19.09 25.98 18.96 25.98 21.18 22.56 21.18 22.76"/>
        <polygon class="cls-31" points="21.18 22.96 19.22 25.98 19.09 25.98 21.18 22.76 21.18 22.96"/>
        <polygon class="cls-125" points="21.18 23.15 19.35 25.98 19.22 25.98 21.18 22.96 21.18 23.15"/>
        <polygon class="cls-101" points="21.18 23.35 19.48 25.98 19.35 25.98 21.18 23.15 21.18 23.35"/>
        <polygon class="cls-95" points="21.18 23.55 19.61 25.98 19.48 25.98 21.18 23.35 21.18 23.55"/>
        <polygon class="cls-41" points="21.18 23.75 19.73 25.98 19.61 25.98 21.18 23.55 21.18 23.75"/>
        <polygon class="cls-16" points="21.18 23.95 19.86 25.98 19.73 25.98 21.18 23.75 21.18 23.95"/>
        <polygon class="cls-15" points="21.18 24.15 19.99 25.98 19.86 25.98 21.18 23.95 21.18 24.15"/>
        <polygon class="cls-131" points="21.18 24.35 20.12 25.98 19.99 25.98 21.18 24.15 21.18 24.35"/>
        <polygon class="cls-129" points="21.18 24.54 20.25 25.98 20.12 25.98 21.18 24.35 21.18 24.54"/>
        <polygon class="cls-58" points="21.18 24.74 20.38 25.98 20.25 25.98 21.18 24.54 21.18 24.74"/>
        <polygon class="cls-112" points="21.18 24.94 20.51 25.98 20.38 25.98 21.18 24.74 21.18 24.94"/>
        <polygon class="cls-30" points="21.18 25.14 20.64 25.98 20.51 25.98 21.18 24.94 21.18 25.14"/>
        <polygon class="cls-151" points="21.18 25.34 20.76 25.98 20.64 25.98 21.18 25.14 21.18 25.34"/>
        <polygon class="cls-35" points="21.18 25.54 20.89 25.98 20.76 25.98 21.18 25.34 21.18 25.54"/>
        <polygon class="cls-104" points="21.18 25.73 21.02 25.98 20.89 25.98 21.18 25.54 21.18 25.73"/>
        <polygon class="cls-94" points="21.18 25.93 21.15 25.98 21.02 25.98 21.18 25.73 21.18 25.93"/>
        <polygon class="cls-68" points="21.15 25.98 21.18 25.93 21.18 25.98 21.15 25.98"/>
      </g>
      <g class="cls-163">
        <polygon class="cls-15" points="23.63 20.38 23.59 20.44 23.59 20.38 23.63 20.38"/>
        <polygon class="cls-131" points="23.75 20.38 23.59 20.63 23.59 20.44 23.63 20.38 23.75 20.38"/>
        <polygon class="cls-129" points="23.88 20.38 23.59 20.83 23.59 20.63 23.75 20.38 23.88 20.38"/>
        <polygon class="cls-58" points="24.01 20.38 23.59 21.03 23.59 20.83 23.88 20.38 24.01 20.38"/>
        <polygon class="cls-112" points="24.14 20.38 23.59 21.23 23.59 21.03 24.01 20.38 24.14 20.38"/>
        <polygon class="cls-30" points="24.27 20.38 23.59 21.43 23.59 21.23 24.14 20.38 24.27 20.38"/>
        <polygon class="cls-151" points="24.4 20.38 23.59 21.63 23.59 21.43 24.27 20.38 24.4 20.38"/>
        <polygon class="cls-35" points="24.53 20.38 23.59 21.83 23.59 21.63 24.4 20.38 24.53 20.38"/>
        <polygon class="cls-104" points="24.66 20.38 23.59 22.02 23.59 21.83 24.53 20.38 24.66 20.38"/>
        <polygon class="cls-94" points="24.78 20.38 23.59 22.22 23.59 22.02 24.66 20.38 24.78 20.38"/>
        <polygon class="cls-68" points="24.91 20.38 23.59 22.42 23.59 22.22 24.78 20.38 24.91 20.38"/>
        <polygon class="cls-65" points="25.04 20.38 23.64 22.55 23.59 22.55 23.59 22.42 24.91 20.38 25.04 20.38"/>
        <polygon class="cls-37" points="25.17 20.38 23.77 22.55 23.64 22.55 25.04 20.38 25.17 20.38"/>
        <polygon class="cls-37" points="25.29 20.38 23.88 22.55 23.77 22.55 25.17 20.38 25.29 20.38"/>
        <polygon class="cls-134" points="25.41 20.38 24 22.55 23.88 22.55 25.29 20.38 25.41 20.38"/>
        <polygon class="cls-111" points="25.52 20.38 24.12 22.55 24 22.55 25.41 20.38 25.52 20.38"/>
        <polygon class="cls-119" points="25.64 20.38 24.24 22.55 24.12 22.55 25.52 20.38 25.64 20.38"/>
        <polygon class="cls-82" points="25.76 20.38 24.35 22.55 24.24 22.55 25.64 20.38 25.76 20.38"/>
        <polygon class="cls-60" points="25.88 20.38 24.47 22.55 24.35 22.55 25.76 20.38 25.88 20.38"/>
        <polygon class="cls-60" points="24.47 22.55 25.88 20.38 26 20.38 26 22.55 24.47 22.55"/>
        <polygon class="cls-123" points="22.55 19.46 22.53 19.48 22.53 19.46 22.55 19.46"/>
        <polygon class="cls-87" points="22.68 19.46 22.53 19.68 22.53 19.48 22.55 19.46 22.68 19.46"/>
        <polygon class="cls-22" points="22.81 19.46 22.53 19.88 22.53 19.68 22.68 19.46 22.81 19.46"/>
        <polygon class="cls-100" points="22.93 19.46 22.53 20.08 22.53 19.88 22.81 19.46 22.93 19.46"/>
        <polygon class="cls-83" points="23.06 19.46 22.53 20.28 22.53 20.08 22.93 19.46 23.06 19.46"/>
        <polygon class="cls-6" points="23.19 19.46 22.53 20.48 22.53 20.28 23.06 19.46 23.19 19.46"/>
        <polygon class="cls-127" points="23.32 19.46 22.53 20.67 22.53 20.48 23.19 19.46 23.32 19.46"/>
        <polygon class="cls-31" points="23.45 19.46 22.53 20.87 22.53 20.67 23.32 19.46 23.45 19.46"/>
        <polygon class="cls-125" points="23.58 19.46 22.53 21.07 22.53 20.87 23.45 19.46 23.58 19.46"/>
        <polygon class="cls-101" points="23.71 19.46 22.53 21.27 22.53 21.07 23.58 19.46 23.71 19.46"/>
        <polygon class="cls-95" points="23.84 19.46 22.53 21.47 22.53 21.27 23.71 19.46 23.84 19.46"/>
        <polygon class="cls-41" points="23.96 19.46 22.53 21.67 22.53 21.47 23.84 19.46 23.96 19.46"/>
        <polygon class="cls-16" points="24.09 19.46 22.53 21.87 22.53 21.67 23.96 19.46 24.09 19.46"/>
        <polygon class="cls-15" points="24.22 19.46 22.53 22.06 22.53 21.87 24.09 19.46 24.22 19.46"/>
        <polygon class="cls-131" points="24.35 19.46 22.53 22.26 22.53 22.06 24.22 19.46 24.35 19.46"/>
        <polygon class="cls-129" points="24.48 19.46 22.53 22.46 22.53 22.26 24.35 19.46 24.48 19.46"/>
        <polygon class="cls-58" points="24.61 19.46 22.53 22.66 22.53 22.46 24.48 19.46 24.61 19.46"/>
        <polygon class="cls-112" points="24.74 19.46 22.53 22.86 22.53 22.66 24.61 19.46 24.74 19.46"/>
        <polygon class="cls-30" points="24.87 19.46 22.53 23.06 22.53 22.86 24.74 19.46 24.87 19.46"/>
        <polygon class="cls-151" points="24.99 19.46 22.53 23.26 22.53 23.06 24.87 19.46 24.99 19.46"/>
        <polygon class="cls-35" points="25.12 19.46 22.53 23.45 22.53 23.26 24.99 19.46 25.12 19.46"/>
        <polygon class="cls-104" points="25.25 19.46 22.53 23.65 22.53 23.45 25.12 19.46 25.25 19.46"/>
        <polygon class="cls-94" points="25.38 19.46 22.53 23.85 22.53 23.65 25.25 19.46 25.38 19.46"/>
        <polygon class="cls-68" points="25.51 19.46 22.53 24.05 22.53 23.85 25.38 19.46 25.51 19.46"/>
        <polygon class="cls-65" points="25.64 19.46 22.53 24.25 22.53 24.05 25.51 19.46 25.64 19.46"/>
        <polygon class="cls-37" points="25.77 19.46 22.53 24.45 22.53 24.25 25.64 19.46 25.77 19.46"/>
        <polygon class="cls-37" points="25.88 19.46 22.53 24.63 22.53 24.45 25.77 19.46 25.88 19.46"/>
        <polygon class="cls-134" points="26 19.46 22.53 24.81 22.53 24.63 25.88 19.46 26 19.46"/>
        <polygon class="cls-111" points="26.12 19.46 22.53 24.99 22.53 24.81 26 19.46 26.12 19.46"/>
        <polygon class="cls-119" points="26.24 19.46 22.53 25.17 22.53 24.99 26.12 19.46 26.24 19.46"/>
        <polygon class="cls-82" points="26.35 19.46 22.53 25.35 22.53 25.17 26.24 19.46 26.35 19.46"/>
        <polygon class="cls-60" points="26.47 19.46 22.53 25.53 22.53 25.35 26.35 19.46 26.47 19.46"/>
        <polygon class="cls-60" points="22.53 25.53 26.47 19.46 27.05 19.46 27.05 25.89 22.53 25.89 22.53 25.53"/>
      </g>
    </g>
  </g>
</svg>