<?xml version="1.0" encoding="UTF-8"?>
<svg id="Layer_1" data-name="Layer 1" xmlns="http://www.w3.org/2000/svg" xmlns:xlink="http://www.w3.org/1999/xlink" viewBox="0 0 36 34">
  <defs>
    <style>
      .cls-1 {
        fill: url(#linear-gradient);
      }

      .cls-1, .cls-2, .cls-3, .cls-4, .cls-5 {
        stroke-width: 0px;
      }

      .cls-2 {
        fill: url(#linear-gradient-5);
      }

      .cls-3 {
        fill: url(#linear-gradient-2);
      }

      .cls-4 {
        fill: url(#linear-gradient-3);
      }

      .cls-5 {
        fill: url(#linear-gradient-4);
      }
    </style>
    <linearGradient id="linear-gradient" x1="-.86" y1="2.85" x2="29.07" y2="25.3" gradientUnits="userSpaceOnUse">
      <stop offset="0" stop-color="#0049e7"/>
      <stop offset=".11" stop-color="#0648e7"/>
      <stop offset=".26" stop-color="#1647e9"/>
      <stop offset=".42" stop-color="#3144eb"/>
      <stop offset=".6" stop-color="#5740ee"/>
      <stop offset=".79" stop-color="#883bf3"/>
      <stop offset=".98" stop-color="#c236f7"/>
      <stop offset="1" stop-color="#c835f8"/>
    </linearGradient>
    <linearGradient id="linear-gradient-2" x1="-4.23" y1="7.35" x2="25.69" y2="29.8" gradientUnits="userSpaceOnUse">
      <stop offset="0" stop-color="#0049e7"/>
      <stop offset=".11" stop-color="#0648e7"/>
      <stop offset=".26" stop-color="#1647e9"/>
      <stop offset=".42" stop-color="#3144eb"/>
      <stop offset=".6" stop-color="#5740ee"/>
      <stop offset=".74" stop-color="#883bf3"/>
      <stop offset=".98" stop-color="#c236f7"/>
      <stop offset="1" stop-color="#c835f8"/>
    </linearGradient>
    <linearGradient id="linear-gradient-3" x1="-4.15" y1="7.24" x2="25.78" y2="29.69" xlink:href="#linear-gradient"/>
    <linearGradient id="linear-gradient-4" x1="2.28" y1="-1.33" x2="32.21" y2="21.11" gradientUnits="userSpaceOnUse">
      <stop offset="0" stop-color="#0049e7"/>
      <stop offset=".11" stop-color="#0648e7"/>
      <stop offset=".26" stop-color="#1647e9"/>
      <stop offset=".42" stop-color="#3144eb"/>
      <stop offset=".6" stop-color="#5740ee"/>
      <stop offset=".71" stop-color="#883bf3"/>
      <stop offset=".98" stop-color="#c236f7"/>
      <stop offset="1" stop-color="#c835f8"/>
    </linearGradient>
    <linearGradient id="linear-gradient-5" x1="2.2" y1="-1.22" x2="32.13" y2="21.22" xlink:href="#linear-gradient"/>
  </defs>
  <path class="cls-1" d="M34.82,6.68H1.18c-.61,0-1.11.5-1.11,1.11v18.44c0,.61.5,1.11,1.11,1.11h33.64c.61,0,1.11-.5,1.11-1.11V7.78c0-.61-.5-1.11-1.11-1.11ZM16.59,26.44H.95V7.56h15.64v18.89ZM35.05,26.44h-15.64V7.56h15.64v18.89Z"/>
  <path class="cls-3" d="M8.63,20.35c-1.85,0-3.35-1.5-3.35-3.35s1.5-3.35,3.35-3.35h0c1.85,0,3.35,1.51,3.35,3.35,0,1.85-1.5,3.35-3.35,3.35ZM8.63,13.98c-1.66,0-3.02,1.35-3.02,3.02s1.35,3.02,3.02,3.02,3.02-1.35,3.02-3.02c0-1.66-1.36-3.02-3.02-3.02Z"/>
  <path class="cls-4" d="M10.71,16.03h-2.07v-.97c0-.08-.06-.14-.14-.14-.04,0-.07.01-.1.04l-1.94,1.94c-.05.05-.05.14,0,.2l1.94,1.94c.05.05.14.05.2,0,.03-.03.04-.06.04-.1v-.97h2.07c.08,0,.14-.06.14-.14v-1.66c0-.08-.06-.14-.14-.14Z"/>
  <path class="cls-5" d="M26.73,20.35h0c-1.85,0-3.35-1.51-3.35-3.35,0-1.85,1.5-3.35,3.35-3.35s3.35,1.5,3.35,3.35-1.5,3.35-3.35,3.35ZM26.73,13.98c-1.66,0-3.02,1.35-3.02,3.02,0,1.66,1.36,3.02,3.02,3.02,1.66,0,3.02-1.35,3.02-3.02s-1.35-3.02-3.02-3.02Z"/>
  <path class="cls-2" d="M24.65,17.97h2.07v.97c0,.08.06.14.14.14.04,0,.07-.01.1-.04l1.94-1.94c.05-.05.05-.14,0-.2l-1.94-1.94c-.05-.05-.14-.05-.2,0-.03.03-.04.06-.04.1v.97h-2.07c-.08,0-.14.06-.14.14v1.66c0,.08.06.14.14.14Z"/>
</svg>