<?xml version="1.0" encoding="UTF-8"?>
<svg id="Layer_1" data-name="Layer 1" xmlns="http://www.w3.org/2000/svg" xmlns:xlink="http://www.w3.org/1999/xlink" viewBox="0 0 36 34">
  <defs>
    <style>
      .cls-1 {
        fill: url(#linear-gradient);
      }

      .cls-1, .cls-2 {
        stroke-width: 0px;
      }

      .cls-2 {
        fill: url(#linear-gradient-2);
      }
    </style>
    <linearGradient id="linear-gradient" x1="5.49" y1="1.39" x2="28.65" y2="25.3" gradientUnits="userSpaceOnUse">
      <stop offset="0" stop-color="#0049e7"/>
      <stop offset=".11" stop-color="#0648e7"/>
      <stop offset=".26" stop-color="#1647e9"/>
      <stop offset=".42" stop-color="#3144eb"/>
      <stop offset=".6" stop-color="#5740ee"/>
      <stop offset=".79" stop-color="#883bf3"/>
      <stop offset=".98" stop-color="#c236f7"/>
      <stop offset="1" stop-color="#c835f8"/>
    </linearGradient>
    <linearGradient id="linear-gradient-2" x1="3.82" y1="3" x2="26.98" y2="26.91" xlink:href="#linear-gradient"/>
  </defs>
  <path class="cls-1" d="M19.82,15.55c-.21.22-.2.56.01.77.21.2.55.2.76,0l1.09-1.09c.21-.21.21-.56,0-.77l-1.09-1.09c-.22-.21-.56-.2-.77.01-.2.21-.2.55,0,.76l.16.16h-3.15c-.17-.46-.53-.83-.99-.99v-5.33l.16.16c.22.21.56.2.77-.01.2-.21.2-.55,0-.76l-1.09-1.09c-.21-.21-.56-.21-.77,0l-1.09,1.09c-.21.22-.2.56.01.77.21.2.55.2.76,0l.16-.16v5.33c-.85.3-1.3,1.23-1,2.08s1.23,1.3,2.08,1c.47-.16.84-.53,1-1h3.15l-.16.16ZM15.3,15.39c-.3,0-.55-.24-.55-.55s.24-.55.55-.55.55.24.55.55-.24.55-.55.55Z"/>
  <path class="cls-2" d="M33.85,20.3h-2.73v-2.18c0-.73-.49-1.37-1.2-1.57C30.88,8.45,25.09,1.12,17,.16,8.9-.79,1.57,5,.61,13.09c-.95,8.09,4.83,15.43,12.93,16.38,1.31.15,2.64.13,3.94-.07v2.35c0,1.21.98,2.18,2.18,2.18h13.1c1.21,0,2.18-.98,2.18-2.18v-6.02c.35-.47.54-1.04.55-1.62v-2.18c0-.9-.73-1.64-1.64-1.64ZM29.76,17.65c.17.09.27.27.28.46v2.18h-1.05c.34-.86.6-1.74.77-2.65h0ZM17.48,28.31c-7.49,1.27-14.6-3.77-15.87-11.27C.34,9.55,5.38,2.44,12.88,1.17c7.49-1.27,14.6,3.77,15.87,11.27.23,1.34.25,2.7.08,4.04h-1.1c.08-.54.12-1.09.12-1.64.02-6.95-5.6-12.59-12.55-12.61-6.95-.02-12.59,5.6-12.61,12.55-.02,6.95,5.6,12.59,12.55,12.61.75,0,1.5-.06,2.24-.2v1.11ZM28.66,17.57c-.19.94-.48,1.85-.86,2.73h-1.2c.42-.87.73-1.79.94-2.73h1.12ZM17.48,26.06c-.54.11-1.09.18-1.64.21v-1.06c0-.3-.24-.55-.55-.55s-.55.24-.55.55v1.06c-1.64-.07-3.24-.5-4.7-1.26l.53-.93c.15-.26.06-.59-.2-.74h0c-.26-.15-.59-.06-.75.2l-.53.92c-1.38-.89-2.55-2.06-3.44-3.44l.92-.53c.26-.15.35-.48.2-.75,0,0,0,0,0,0h0c-.15-.26-.48-.35-.75-.2l-.93.53c-.75-1.46-1.18-3.06-1.25-4.7h1.06c.3,0,.55-.24.55-.55s-.24-.55-.55-.55h-1.06c.07-1.64.5-3.24,1.26-4.7l.93.53c.26.15.59.06.74-.2h0c.15-.26.06-.59-.2-.75l-.92-.53c.89-1.38,2.06-2.55,3.44-3.44l.53.92c.15.26.48.35.75.2,0,0,0,0,0,0h0c.26-.15.35-.48.2-.75l-.53-.93c1.46-.75,3.06-1.18,4.7-1.25v1.06c0,.3.24.55.55.55s.55-.24.55-.55v-1.06c1.64.07,3.24.5,4.7,1.26l-.53.93c-.15.26-.06.59.2.74h0c.26.15.59.06.75-.2l.53-.92c1.38.89,2.55,2.06,3.44,3.44l-.92.53c-.26.15-.35.48-.2.75,0,0,0,0,0,0h0c.15.26.48.35.75.2l.93-.53c.75,1.46,1.18,3.06,1.25,4.7h-1.06c-.3,0-.55.24-.55.55s.24.55.55.55h1.06c-.02.37-.06.73-.11,1.09h-3.68c-.9,0-1.64.73-1.64,1.64v2.18h-2.73c-.9,0-1.64.73-1.64,1.64v2.18c0,.58.19,1.15.55,1.62v.32ZM26.42,17.57c-.23.95-.59,1.87-1.05,2.73h-2.97v-2.18c0-.3.24-.55.55-.55h3.48ZM19.67,32.85c-.6,0-1.09-.49-1.09-1.09v-.55c.9,0,1.64.73,1.64,1.64h-.55ZM33.85,31.76c0,.6-.49,1.09-1.09,1.09h-.55c0-.9.73-1.64,1.64-1.64h0v.55ZM33.85,30.12c-1.51,0-2.73,1.22-2.73,2.73h-9.82c0-1.51-1.22-2.73-2.73-2.73v-3.51c.34.15.72.23,1.09.23v.55c0,.3.24.55.55.55h2.18c.3,0,.55-.24.55-.55v-.55h6.55v.55c0,.3.24.55.55.55h2.18c.3,0,.55-.24.55-.55v-.55c.38,0,.75-.08,1.09-.23v3.51ZM20.76,26.85v-1.09h1.09v1.09h-1.09ZM30.58,26.85v-1.09h1.09v1.09h-1.09ZM34.4,24.12c0,.9-.73,1.64-1.64,1.64v-.55c0-.3-.24-.55-.55-.55h-2.18c-.3,0-.55.24-.55.55v.55h-6.55v-.55c0-.3-.24-.55-.55-.55h-2.18c-.3,0-.55.24-.55.55v.55c-.9,0-1.64-.73-1.64-1.64v-2.18c0-.3.24-.55.55-.55h15.28c.3,0,.55.24.55.55v2.18Z"/>
</svg>