<?xml version="1.0" encoding="UTF-8"?>
<svg id="Layer_1" data-name="Layer 1" xmlns="http://www.w3.org/2000/svg" xmlns:xlink="http://www.w3.org/1999/xlink" viewBox="0 0 36 34">
  <defs>
    <style>
      .cls-1 {
        fill: url(#linear-gradient);
        stroke-width: 0px;
      }
    </style>
    <linearGradient id="linear-gradient" x1=".46" y1="-7.01" x2="24.36" y2="22.82" gradientUnits="userSpaceOnUse">
      <stop offset="0" stop-color="#0049e7"/>
      <stop offset=".11" stop-color="#0648e7"/>
      <stop offset=".26" stop-color="#1647e9"/>
      <stop offset=".51" stop-color="#3144eb"/>
      <stop offset=".98" stop-color="#c236f7"/>
      <stop offset="1" stop-color="#c835f8"/>
    </linearGradient>
  </defs>
  <path class="cls-1" d="M.64,27.16c0,1.4,1.14,2.54,2.54,2.54h11.86v-10.71c0-.34.17-.64.47-.76s.64-.13.89.08l10.59,7.96c.25.17.38.47.34.76s-.21.55-.47.68l-2.67,1.31.34.68h8.3c1.4,0,2.54-1.14,2.54-2.54V8.53H.64v18.63ZM21.26,17l1.52-.76c.42-.21.93-.04,1.14.38s.04.93-.38,1.14l-1.52.76c-.13.04-.25.08-.38.08-.3,0-.59-.17-.76-.47-.21-.42,0-.93.38-1.14ZM17.53,14.63l.55-1.61c.13-.47.64-.68,1.06-.55s.68.64.55,1.06l-.55,1.61c-.13.34-.47.59-.8.59-.08,0-.17,0-.25-.04-.42-.13-.68-.64-.55-1.06ZM12.83,12.94c.42-.21.93-.04,1.14.38l.76,1.52c.21.42.04.93-.38,1.14-.13.04-.25.08-.38.08-.3,0-.59-.17-.76-.47l-.72-1.52c-.21-.42-.08-.93.34-1.14ZM12.2,22.5c.21.42.04.93-.38,1.14l-1.52.76c-.13.04-.25.08-.38.08-.3,0-.59-.17-.76-.47-.21-.42-.04-.93.38-1.14l1.52-.76c.42-.21.93-.04,1.14.38ZM8.73,17.72c.13-.47.64-.68,1.06-.55l1.61.55c.42.13.68.64.55,1.06-.13.34-.47.59-.8.59-.08,0-.17,0-.25-.04l-1.61-.55c-.47-.13-.72-.64-.55-1.06ZM32.82.06H3.18C1.78.06.64,1.21.64,2.6v4.23h34.72V2.6c0-1.4-1.14-2.54-2.54-2.54ZM4.03,4.3c-.47,0-.85-.38-.85-.85s.38-.85.85-.85.85.38.85.85-.38.85-.85.85ZM8.26,4.3c-.47,0-.85-.38-.85-.85s.38-.85.85-.85.85.38.85.85-.38.85-.85.85ZM12.5,4.3c-.47,0-.85-.38-.85-.85s.38-.85.85-.85.85.38.85.85-.38.85-.85.85ZM22.32,29.02l1.91,3.81-2.29,1.1-1.91-3.77c-.13-.3-.42-.47-.76-.47-.13,0-.25.04-.38.08l-2.16,1.1v-10.2l8.13,6.1-2.2,1.1c-.38.21-.55.72-.34,1.14Z"/>
</svg>