<?xml version="1.0" encoding="UTF-8"?>
<svg id="Layer_1" data-name="Layer 1" xmlns="http://www.w3.org/2000/svg" xmlns:xlink="http://www.w3.org/1999/xlink" viewBox="0 0 36 34">
  <defs>
    <style>
      .cls-1 {
        fill: url(#linear-gradient);
      }

      .cls-1, .cls-2, .cls-3, .cls-4, .cls-5 {
        stroke-width: 0px;
      }

      .cls-2 {
        fill: url(#linear-gradient-5);
      }

      .cls-3 {
        fill: url(#linear-gradient-2);
      }

      .cls-4 {
        fill: url(#linear-gradient-3);
      }

      .cls-5 {
        fill: url(#linear-gradient-4);
      }
    </style>
    <linearGradient id="linear-gradient" x1="-2.07" y1="6.58" x2="26.45" y2="23.07" gradientUnits="userSpaceOnUse">
      <stop offset="0" stop-color="#0049e7"/>
      <stop offset=".11" stop-color="#0648e7"/>
      <stop offset=".26" stop-color="#1647e9"/>
      <stop offset=".46" stop-color="#3144eb"/>
      <stop offset=".66" stop-color="#5740ee"/>
      <stop offset=".79" stop-color="#883bf3"/>
      <stop offset=".98" stop-color="#c236f7"/>
      <stop offset="1" stop-color="#c835f8"/>
    </linearGradient>
    <linearGradient id="linear-gradient-2" x1="2.25" y1="-.9" x2="30.77" y2="15.59" xlink:href="#linear-gradient"/>
    <linearGradient id="linear-gradient-3" x1=".94" y1="1.38" x2="29.46" y2="17.87" xlink:href="#linear-gradient"/>
    <linearGradient id="linear-gradient-4" x1="-8.18" y1="17.14" x2="20.34" y2="33.63" xlink:href="#linear-gradient"/>
    <linearGradient id="linear-gradient-5" x1="3.91" y1="-3.77" x2="32.43" y2="12.73" xlink:href="#linear-gradient"/>
  </defs>
  <path class="cls-1" d="M28.22,23.65c-.06.84-.58,1.68-1.42,2.31-.26.21-.56.39-.88.52v4.3c0,1.75-1.51,3.18-3.36,3.19h-13.22c-1.85,0-3.36-1.43-3.36-3.19V3.22c0-1.75,1.51-3.18,3.36-3.19h13.22c1.85,0,3.36,1.43,3.36,3.19v3.57c0,.38-.33.67-.7.67-.19,0-.37-.08-.5-.21-.12-.13-.19-.29-.18-.46v-3.57c0-1.03-.89-1.86-1.98-1.86h-13.22c-1.09,0-1.97.83-1.97,1.86v27.57c0,1.02.89,1.86,1.98,1.86h13.22c1.09,0,1.97-.84,1.98-1.86v-3.99c-.23.02-.47.03-.7.03h0c-.72,0-1.46-.09-2.11-.17h-.05c-.38-.06-.63-.38-.59-.73.04-.36.38-.63.76-.59h.04c1.37.17,3.08.38,4.02-.39l.02-.02c.54-.4.86-.89.9-1.37.03-.35-.11-.68-.42-.98l-2.61-2.47c-.23-.22-.61-.22-.85,0-.04.04-.53.52-1.02,1-.26.25-.52.5-.72.69-.44.42-.53.51-.83.51-3.02,0-5.6-2.32-5.66-5.06-.09-.43.32-.83.71-1.22.33-.33.76-.7,1.1-1.01.18-.16.42-.37.48-.44l.02-.03.04-.04c.11-.1.17-.24.17-.39s-.06-.29-.17-.39l-3.2-3.02c-.11-.11-.26-.17-.42-.17h0c-.16,0-.31.06-.42.17l-.04.03c-1.39,1.12-1.93,2.66-1.6,4.57.61,3.55,4.31,7.87,7.92,9.25.17.07.31.2.38.36.07.16.07.33,0,.49-.14.34-.54.51-.89.37-1.89-.72-3.92-2.21-5.56-4.1-1.73-1.98-2.87-4.17-3.21-6.17-.41-2.37.31-4.37,2.06-5.79.36-.34.85-.53,1.37-.53,0,0,0,0,.01,0,.52,0,1.03.2,1.39.55l3.2,3.02c.37.35.58.82.58,1.32,0,.49-.19.97-.55,1.32-.07.08-.21.21-.59.55-.34.3-1.12,1-1.37,1.3.08,1.93,1.86,3.57,4.01,3.69.41-.39,1.35-1.31,1.85-1.8l.02-.02c.78-.72,2.02-.72,2.79,0l2.62,2.48c.59.58.87,1.27.81,2Z"/>
  <g>
    <path class="cls-3" d="M30.03,16.79c0,.14-.04.27-.13.38-.11.15-.27.25-.47.27-.04,0-.07,0-.1,0-.35,0-.64-.24-.69-.57-.58-3.7-4.24-7.17-8.15-7.74-.2-.03-.37-.13-.48-.28-.1-.14-.14-.31-.11-.48.06-.36.42-.6.79-.55,4.55.66,8.64,4.54,9.32,8.85,0,.03,0,.07,0,.1Z"/>
    <path class="cls-4" d="M26.56,16.8c.04.17.02.34-.07.49-.09.16-.24.27-.43.32-.06.01-.12.02-.18.02-.3,0-.59-.2-.67-.49-.6-2.18-2.71-4.15-5.02-4.69-.18-.04-.34-.16-.44-.31-.09-.15-.12-.33-.07-.49.09-.35.47-.57.84-.48,1.35.32,2.7,1.05,3.79,2.07,1.1,1.02,1.89,2.29,2.24,3.57Z"/>
  </g>
  <g>
    <path class="cls-5" d="M17.48,31.1c0,.36-.32.66-.69.66h-1.67c-.2,0-.38-.08-.51-.21-.12-.13-.19-.29-.18-.46,0-.36.31-.66.69-.66h1.67c.2,0,.38.08.51.21.12.13.19.29.19.46Z"/>
    <path class="cls-2" d="M20.07,3.2c0,.36-.31.66-.69.66h-6.86c-.21,0-.38-.08-.51-.21-.12-.13-.19-.29-.19-.46,0-.36.32-.66.69-.66h6.88c.19,0,.37.08.5.21.12.13.19.29.18.46Z"/>
  </g>
</svg>