<?xml version="1.0" encoding="UTF-8"?>
<svg id="Layer_1" data-name="Layer 1" xmlns="http://www.w3.org/2000/svg" xmlns:xlink="http://www.w3.org/1999/xlink" viewBox="0 0 36 34">
  <defs>
    <style>
      .cls-1 {
        fill: url(#linear-gradient);
        fill-rule: evenodd;
        stroke-width: 0px;
      }
    </style>
    <linearGradient id="linear-gradient" x1="1.08" y1="-251" x2="34.92" y2="-251" gradientTransform="translate(0 -234) scale(1 -1)" gradientUnits="userSpaceOnUse">
      <stop offset="0" stop-color="#0049e7"/>
      <stop offset="1" stop-color="#c835f8"/>
    </linearGradient>
  </defs>
  <path class="cls-1" d="M34.92,18.24V6.94c0-.27-.22-.5-.5-.5h-3.21V.58c0-.27-.22-.5-.5-.5h-12.71c-.27,0-.5.22-.5.5v2.68h-5.33c-.27,0-.5.22-.5.5v2.68h-2.64l-.99-3.86c-.3-1.16-1.34-1.97-2.53-1.97h-2.88c-.86,0-1.55.7-1.55,1.55s.7,1.55,1.55,1.55h2.5l5.55,21.73c.48,1.86,2.15,3.16,4.07,3.16h18.6c.86,0,1.56-.7,1.56-1.55s-.7-1.55-1.56-1.55H14.76c-.5,0-.94-.34-1.06-.82l-.5-1.95,19.88-2.43c1.05-.12,1.84-1.01,1.84-2.07ZM12.67,4.25h8.01v2.19h-8.01v-2.19ZM12.96,21.77l-2.95-11.56c-.07-.27-.34-.43-.6-.36-.27.07-.43.34-.36.6l3.7,14.48c.24.92,1.07,1.57,2.02,1.57h18.6c.31,0,.56.25.56.56s-.25.56-.56.56H14.76c-1.47,0-2.75-.99-3.11-2.42L6,3.11c-.06-.22-.25-.37-.48-.37h-2.88c-.31,0-.56-.25-.56-.56s.25-.56.56-.56h2.88c.74,0,1.39.5,1.57,1.22l1.42,5.56c.07.27.34.43.6.36.27-.07.43-.34.36-.6l-.18-.71h18.24c.27,0,.5-.22.5-.5s-.22-.5-.5-.5h-5.86v-2.68c0-.27-.22-.5-.5-.5h-2.68V1.07h11.72v5.37h-.56c-.27,0-.5.22-.5.5s.22.5.5.5h4.27v10.81c0,.55-.41,1.02-.97,1.09l-20,2.44ZM11.64,29.75c-1.15,0-2.08.94-2.08,2.08s.94,2.08,2.08,2.08,2.08-.94,2.08-2.08-.94-2.08-2.08-2.08ZM11.64,32.93c-.6,0-1.09-.49-1.09-1.09s.49-1.09,1.09-1.09,1.09.49,1.09,1.09-.49,1.09-1.09,1.09ZM30.75,31.83c0-1.15.94-2.08,2.08-2.08s2.08.94,2.08,2.08-.94,2.08-2.08,2.08-2.08-.94-2.08-2.08ZM31.74,31.83c0,.6.49,1.09,1.09,1.09s1.09-.49,1.09-1.09-.49-1.09-1.09-1.09-1.09.49-1.09,1.09ZM14.82,9.62c-.27,0-.5.22-.5.5v8.73c0,.27.22.5.5.5s.5-.22.5-.5v-8.73c0-.27-.22-.5-.5-.5ZM17.5,10.11c0-.27.22-.5.5-.5s.5.22.5.5v8.34c0,.27-.22.5-.5.5s-.5-.22-.5-.5v-8.34ZM21.18,9.62c-.27,0-.5.22-.5.5v7.96c0,.27.22.5.5.5s.5-.22.5-.5v-7.96c0-.27-.22-.5-.5-.5ZM23.86,10.11c0-.27.22-.5.5-.5s.5.22.5.5v7.56c0,.27-.22.5-.5.5s-.5-.22-.5-.5v-7.56ZM27.53,9.62c-.27,0-.5.22-.5.5v7.16c0,.27.22.5.5.5s.5-.22.5-.5v-7.16c0-.27-.22-.5-.5-.5ZM30.22,10.11c0-.27.22-.5.5-.5s.5.22.5.5v6.8c0,.27-.22.5-.5.5s-.5-.22-.5-.5v-6.8Z"/>
</svg>