<?xml version="1.0" encoding="UTF-8"?>
<svg id="Layer_1" data-name="Layer 1" xmlns="http://www.w3.org/2000/svg" xmlns:xlink="http://www.w3.org/1999/xlink" viewBox="0 0 36 34">
  <defs>
    <style>
      .cls-1 {
        fill: url(#linear-gradient);
        fill-rule: evenodd;
      }

      .cls-1, .cls-2 {
        stroke-width: 0px;
      }

      .cls-2 {
        fill: #2345ea;
      }
    </style>
    <linearGradient id="linear-gradient" x1="1.04" y1="-251" x2="34.96" y2="-251" gradientTransform="translate(0 -234) scale(1 -1)" gradientUnits="userSpaceOnUse">
      <stop offset="0" stop-color="#0049e7"/>
      <stop offset="1" stop-color="#c835f8"/>
    </linearGradient>
  </defs>
  <path class="cls-1" d="M16.59,9.22c0,5.07,4.12,9.19,9.19,9.19s9.19-4.12,9.19-9.19S30.84.04,25.78.04s-9.19,4.12-9.19,9.19ZM18,9.22c0-4.29,3.49-7.78,7.78-7.78s7.78,3.49,7.78,7.78-3.49,7.78-7.78,7.78-7.78-3.49-7.78-7.78ZM10.22,24.07h18.38c.34,0,.63-.24.69-.57l.5-2.53c.08-.38-.17-.75-.55-.83-.38-.08-.75.17-.83.55l-.39,1.96H10.8l-1.63-8.16-.91-4.56h4.79c.39,0,.71-.32.71-.71s-.32-.71-.71-.71h-5.07l-.56-2.82c-.33-1.65-1.79-2.84-3.47-2.84H1.74c-.39,0-.71.32-.71.71s.32.71.71.71h2.21c1.01,0,1.88.71,2.08,1.7l3.34,16.68h-1.97c-1.17,0-2.12.95-2.12,2.12s.95,2.12,2.12,2.12h24.03c.39,0,.71-.32.71-.71s-.32-.71-.71-.71H7.4c-.39,0-.71-.32-.71-.71s.32-.71.71-.71h2.83ZM12.35,33.96c-1.56,0-2.83-1.27-2.83-2.83s1.27-2.83,2.83-2.83,2.83,1.27,2.83,2.83-1.27,2.83-2.83,2.83ZM12.35,29.72c-.78,0-1.41.63-1.41,1.41s.63,1.41,1.41,1.41,1.41-.63,1.41-1.41-.63-1.41-1.41-1.41ZM22.24,31.14c0,1.56,1.27,2.83,2.83,2.83s2.83-1.27,2.83-2.83-1.27-2.83-2.83-2.83-2.83,1.27-2.83,2.83ZM23.65,31.14c0-.78.63-1.41,1.41-1.41s1.41.63,1.41,1.41-.63,1.41-1.41,1.41-1.41-.63-1.41-1.41Z"/>
  <path class="cls-2" d="M26.08,13.43c-.5,0-.94-.09-1.33-.27-.39-.18-.7-.44-.92-.76s-.35-.69-.36-1.11h1.48c.02.28.13.51.35.68.22.17.48.26.78.26.24,0,.45-.05.63-.16.19-.11.33-.26.43-.45.11-.19.16-.41.16-.66s-.05-.48-.16-.67c-.11-.19-.25-.34-.44-.45-.19-.11-.4-.16-.64-.17-.21,0-.42.04-.62.13-.2.09-.35.21-.46.36l-1.36-.24.34-3.8h4.41v1.25h-3.15l-.19,1.81h.04c.13-.18.32-.33.57-.44.26-.12.54-.18.86-.18.43,0,.82.1,1.16.31.34.2.61.48.81.84.2.35.29.76.29,1.23,0,.49-.11.92-.34,1.3-.23.38-.54.67-.95.89-.4.21-.87.32-1.41.32Z"/>
</svg>