<?xml version="1.0" encoding="UTF-8"?>
<svg id="Layer_1" data-name="Layer 1" xmlns="http://www.w3.org/2000/svg" xmlns:xlink="http://www.w3.org/1999/xlink" viewBox="0 0 36 34">
  <defs>
    <style>
      .cls-1 {
        fill: none;
      }

      .cls-1, .cls-2, .cls-3 {
        stroke-width: 0px;
      }

      .cls-2 {
        fill: url(#linear-gradient);
        fill-rule: evenodd;
      }

      .cls-4 {
        clip-path: url(#clippath);
      }

      .cls-3 {
        fill: #2345ea;
      }
    </style>
    <clipPath id="clippath">
      <rect class="cls-1" x="1.2" y=".2" width="33.61" height="33.61"/>
    </clipPath>
    <linearGradient id="linear-gradient" x1="1.2" y1="-251" x2="34.8" y2="-251" gradientTransform="translate(0 -234) scale(1 -1)" gradientUnits="userSpaceOnUse">
      <stop offset="0" stop-color="#0049e7"/>
      <stop offset="1" stop-color="#c835f8"/>
    </linearGradient>
  </defs>
  <g class="cls-4">
    <path class="cls-2" d="M16.6,9.3c0,5.02,4.08,9.1,9.1,9.1s9.1-4.08,9.1-9.1S30.72.2,25.7.2s-9.1,4.08-9.1,9.1ZM18,9.3c0-4.25,3.46-7.7,7.7-7.7s7.7,3.45,7.7,7.7-3.46,7.7-7.7,7.7-7.7-3.45-7.7-7.7ZM10.3,24h18.2c.33,0,.62-.24.69-.56l.5-2.5c.08-.38-.17-.75-.55-.82-.36-.07-.75.17-.82.55l-.39,1.94H10.87l-1.69-8.47-.83-4.13h4.75c.39,0,.7-.31.7-.7s-.31-.7-.7-.7h-5.03l-.56-2.79c-.33-1.63-1.77-2.81-3.43-2.81H1.89c-.39,0-.7.32-.7.7s.32.7.7.7h2.18c1,0,1.87.71,2.06,1.69l3.3,16.52h-1.95c-1.16,0-2.1.94-2.1,2.1s.94,2.1,2.1,2.1h23.81c.39,0,.7-.31.7-.7s-.31-.7-.7-.7H7.5c-.39,0-.7-.31-.7-.7s.32-.7.7-.7h2.8ZM12.4,33.8c-1.54,0-2.8-1.26-2.8-2.8s1.26-2.8,2.8-2.8,2.8,1.26,2.8,2.8-1.26,2.8-2.8,2.8ZM12.4,29.6c-.77,0-1.4.63-1.4,1.4s.63,1.4,1.4,1.4,1.4-.63,1.4-1.4-.63-1.4-1.4-1.4ZM22.2,31c0,1.54,1.26,2.8,2.8,2.8s2.8-1.26,2.8-2.8-1.26-2.8-2.8-2.8-2.8,1.26-2.8,2.8ZM23.6,31c0-.77.63-1.4,1.4-1.4s1.4.63,1.4,1.4-.63,1.4-1.4,1.4-1.4-.63-1.4-1.4Z"/>
  </g>
  <path class="cls-3" d="M24.3,12.8c-.19,0-.36-.07-.5-.2l-2.8-2.8c-.27-.27-.27-.72,0-.99.27-.27.72-.27.99,0l2.27,2.27,4.41-5.04c.26-.29.7-.32.99-.07.29.25.32.7.07.99l-4.9,5.6c-.13.15-.31.23-.5.24h-.02Z"/>
</svg>