<?xml version="1.0" encoding="UTF-8"?>
<svg id="Layer_1" data-name="Layer 1" xmlns="http://www.w3.org/2000/svg" xmlns:xlink="http://www.w3.org/1999/xlink" viewBox="0 0 36 34">
  <defs>
    <style>
      .cls-1 {
        fill: url(#linear-gradient);
        fill-rule: evenodd;
      }

      .cls-1, .cls-2 {
        stroke-width: 0px;
      }

      .cls-2 {
        fill: url(#linear-gradient-2);
      }
    </style>
    <linearGradient id="linear-gradient" x1="-3.9" y1="3.36" x2="34.31" y2="27.15" gradientUnits="userSpaceOnUse">
      <stop offset="0" stop-color="#0049e7"/>
      <stop offset="1" stop-color="#c835f8"/>
    </linearGradient>
    <linearGradient id="linear-gradient-2" x1="-5.43" y1="5.81" x2="32.78" y2="29.61" xlink:href="#linear-gradient"/>
  </defs>
  <path class="cls-1" d="M15.2,17H2.88c-.45,0-.87-.18-1.19-.49-.32-.32-.49-.74-.49-1.19V1.88c0-.45.18-.87.49-1.19.32-.32.74-.49,1.19-.49h12.32c.45,0,.87.18,1.19.49.32.32.49.74.49,1.19v13.44c0,.45-.18.87-.49,1.19-.32.32-.74.49-1.19.49ZM2.88,1.32c-.15,0-.29.06-.4.16s-.16.25-.16.4v13.44c0,.15.06.29.16.4.11.11.25.16.4.16h12.32c.15,0,.29-.06.4-.16s.16-.25.16-.4V1.88c0-.15-.06-.29-.16-.4-.11-.11-.25-.16-.4-.16H2.88ZM5.67,4.05c-.34,0-.65.12-.88.36-.25.25-.37.56-.37.88s.14.65.37.88c.23.23.56.37.87.36h.03c.31,0,.61-.12.84-.36.23-.23.37-.54.37-.88.02-.33-.12-.64-.36-.87-.23-.25-.54-.37-.87-.37ZM6.31,5.96c-.17.17-.4.28-.65.26-.23,0-.48-.09-.65-.26-.19-.17-.28-.42-.28-.67s.09-.48.28-.67c.17-.17.4-.26.67-.26.23,0,.47.09.64.26.19.19.28.42.28.67s-.09.5-.28.67ZM5.02,6.85h1.26c.25,0,.47.22.47.47v5.45c0,.23-.22.45-.47.45h-1.24c-.25,0-.47-.22-.47-.47v-5.43c0-.26.2-.47.45-.47ZM6.28,12.9c.08,0,.16-.06.16-.14v-5.45c0-.08-.08-.16-.16-.16h-1.26c-.08,0-.14.08-.14.16v5.43c0,.08.08.16.16.16h1.24ZM11.56,6.69h-.33c-.61,0-1.18.26-1.55.68v-.22c0-.16-.16-.31-.31-.31h-1.55c-.14,0-.31.12-.31.29v5.79c0,.17.17.28.31.28h1.71c.14,0,.31-.11.31-.28v-3.35c0-.51.37-.92.85-.92.25,0,.48.09.65.26.16.14.22.36.22.64v3.34c0,.16.16.31.31.31h1.55c.16,0,.31-.16.31-.31v-4c0-1.24-.95-2.2-2.17-2.2ZM13.42,12.89l-.02.02h-1.52l-.02-3.34c0-.37-.09-.65-.29-.85-.23-.23-.54-.36-.87-.36-.65.02-1.16.54-1.16,1.23v3.32h-1.71v-5.74h1.54l.02.02v.98l.42-.42.02-.02c.31-.43.85-.71,1.43-.71h.33c1.04,0,1.85.84,1.85,1.89v3.99ZM2.88,33.8h12.32c.45,0,.87-.18,1.19-.49.32-.32.49-.74.49-1.19v-12.32c0-.45-.18-.87-.49-1.19-.32-.32-.74-.49-1.19-.49H2.88c-.45,0-.87.18-1.19.49-.32.32-.49.74-.49,1.19v12.32c0,.45.18.87.49,1.19.32.32.74.49,1.19.49ZM2.48,19.4c.11-.11.25-.16.4-.16h12.32c.15,0,.29.06.4.16.11.11.16.25.16.4v12.32c0,.15-.06.29-.16.4-.11.11-.25.16-.4.16H2.88c-.15,0-.29-.06-.4-.16s-.16-.25-.16-.4v-12.32c0-.15.06-.29.16-.4ZM13.71,26.82c.05-.28.08-.56.08-.85,0-2.6-2.12-4.72-4.72-4.72-.28,0-.56.03-.85.08-.41-.23-.88-.35-1.36-.35-1.54,0-2.8,1.26-2.8,2.8,0,.46.12.94.35,1.36-.05.28-.08.56-.08.85,0,2.6,2.12,4.72,4.72,4.72.28,0,.56-.03.85-.08.36.2.81.3,1.36.3,1.54,0,2.75-1.21,2.75-2.75,0-.55-.1-.99-.3-1.36ZM11.26,30.6c-.51,0-.91-.1-1.24-.28l-.05-.03-.07.02c-.28.05-.56.08-.85.08-2.42,0-4.39-1.97-4.39-4.39,0-.28.03-.56.08-.85l.02-.07-.03-.05c-.22-.38-.33-.81-.33-1.24,0-1.36,1.11-2.47,2.47-2.47.43,0,.86.12,1.24.33l.05.03.07-.02c.28-.05.56-.08.85-.08,2.42,0,4.39,1.97,4.39,4.39,0,.28-.03.56-.08.85l-.02.07.03.05c.18.33.28.73.28,1.24,0,1.36-1.06,2.42-2.42,2.42ZM8.03,24.52c.02.08.2.4,1.44.65,1.69.33,2.44.96,2.44,2.05-.02.99-1.04,2.07-2.75,2.07-2.04,0-2.65-.93-2.83-1.49-.15-.43-.05-.71.05-.86.17-.25.43-.33.55-.35.23-.02.68.05.81.46.05.15.31.86,1.11.94.7.07,1.14-.23,1.28-.55.03-.1.03-.2-.02-.3-.08-.15-.35-.41-1.18-.53-1.64-.23-2.59-.99-2.59-2.07,0-1.36,1.52-1.84,2.85-1.84,1.39,0,2.1.81,2.27,1.13.15.28.15.65.03.91-.1.2-.25.33-.45.38-.61.15-.91-.28-1.19-.83-.12-.2-.35-.28-.51-.31-.45-.08-.96.07-1.18.25-.08.07-.17.17-.13.28ZM6.62,27.7c.27.81,1.16,1.26,2.52,1.26,1.51,0,2.4-.91,2.4-1.77,0-.65-.27-1.34-2.17-1.72-1.04-.2-1.59-.48-1.71-.88-.05-.22.03-.43.23-.61.31-.28.94-.41,1.46-.33.35.07.61.23.75.48.35.66.53.73.83.66.1-.02.18-.08.23-.2.08-.18.07-.45-.02-.63-.13-.27-.75-.94-1.97-.94-1.16,0-2.52.4-2.52,1.51,0,1.23,1.44,1.61,2.3,1.74.91.13,1.28.45,1.41.7.1.18.12.4.03.6-.18.43-.75.85-1.62.76-.99-.1-1.33-.99-1.39-1.18-.03-.2-.28-.22-.38-.22h-.05c-.07,0-.22.07-.31.2-.1.13-.1.33-.02.58ZM25.24,4.02s0,0,0,0c.01,0,.01,0,.07.02.06.03.15.1.25.2.18.2.37.51.47.71,0,0,0,.01.01.02.27.47.39.83.39,1.05,0,.22-.06.32-.25.43l-.49.28c-.32.18-.47.52-.51.82-.04.31.02.61.16.85l1.22,2.1c.14.24.37.44.66.56.29.12.65.16.97-.03l.49-.28c.19-.11.3-.11.5,0,.19.12.45.39.72.86,0,0,0,0,0,0,0,0,0,0,0,.01.13.18.3.5.38.75.04.13.06.25.05.31,0,.06,0,.06-.02.06,0,0,0,0,0,0,0,0,0,0,0,0l-.37.21c-.94.41-1.8.32-2.57-.08-.77-.4-1.45-1.13-1.91-1.98,0,0,0,0,0,0,0,0,0,0,0,0,0,0,0,0,0,0l-1.02-1.77s0,0,0,0c-.51-.83-.8-1.77-.77-2.64.04-.87.39-1.65,1.22-2.26l.37-.21s0,0,0,0ZM25.54,3.55c-.16-.08-.39-.1-.57,0l-.4.23s-.01,0-.02.01h0c-.95.7-1.39,1.67-1.44,2.67-.04,1,.29,2.03.84,2.94l1.02,1.76s0,0,0,0c0,0,0,0,0,0h0c.51.93,1.24,1.73,2.13,2.2.89.46,1.96.57,3.04.1,0,0,0,0,0,0,0,0,.01,0,.02,0l.4-.23c.18-.11.28-.31.29-.48.02-.18-.02-.35-.08-.52-.11-.34-.29-.66-.45-.89-.29-.5-.57-.85-.9-1.05-.33-.2-.72-.19-1.04,0l-.49.28c-.15.08-.32.07-.49,0-.18-.08-.34-.23-.41-.33l-1.22-2.1c-.06-.11-.11-.32-.09-.52.02-.19.1-.34.25-.43l.49-.28c.32-.18.52-.52.52-.9,0-.38-.17-.8-.46-1.3-.12-.24-.31-.57-.54-.83-.12-.13-.25-.25-.41-.32ZM20.8,17h12.32c.45,0,.87-.18,1.19-.49.32-.32.49-.74.49-1.19V1.88c0-.45-.18-.87-.49-1.19-.32-.32-.74-.49-1.19-.49h-12.32c-.45,0-.87.18-1.19.49-.32.32-.49.74-.49,1.19v13.44c0,.45.18.87.49,1.19.32.32.74.49,1.19.49ZM20.4,1.48c.11-.11.25-.16.4-.16h12.32c.15,0,.29.06.4.16s.16.25.16.4v13.44c0,.15-.06.29-.16.4-.11.11-.25.16-.4.16h-12.32c-.15,0-.29-.06-.4-.16-.11-.11-.16-.25-.16-.4V1.88c0-.15.06-.29.16-.4Z"/>
  <circle class="cls-2" cx="26.99" cy="26" r="3.88"/>
</svg>