<?xml version="1.0" encoding="UTF-8"?>
<svg id="Layer_1" data-name="Layer 1" xmlns="http://www.w3.org/2000/svg" xmlns:xlink="http://www.w3.org/1999/xlink" viewBox="0 0 36 34">
  <defs>
    <style>
      .cls-1 {
        fill: url(#linear-gradient);
      }

      .cls-1, .cls-2, .cls-3, .cls-4 {
        stroke-width: 0px;
      }

      .cls-2 {
        fill: url(#linear-gradient-2);
      }

      .cls-3 {
        fill: url(#linear-gradient-3);
      }

      .cls-4 {
        fill: url(#linear-gradient-4);
      }
    </style>
    <linearGradient id="linear-gradient" x1="8.76" y1="-6.89" x2="29.73" y2="14.93" gradientUnits="userSpaceOnUse">
      <stop offset="0" stop-color="#0049e7"/>
      <stop offset=".11" stop-color="#0648e7"/>
      <stop offset=".26" stop-color="#1647e9"/>
      <stop offset=".42" stop-color="#3144eb"/>
      <stop offset=".6" stop-color="#5740ee"/>
      <stop offset=".79" stop-color="#883bf3"/>
      <stop offset=".98" stop-color="#c236f7"/>
      <stop offset="1" stop-color="#c835f8"/>
    </linearGradient>
    <linearGradient id="linear-gradient-2" x1="5.85" y1="-4.09" x2="26.82" y2="17.73" xlink:href="#linear-gradient"/>
    <linearGradient id="linear-gradient-3" x1="-.36" y1="1.87" x2="20.61" y2="23.69" xlink:href="#linear-gradient"/>
    <linearGradient id="linear-gradient-4" x1="-12.57" y1="12.94" x2="8.77" y2="35.15" xlink:href="#linear-gradient"/>
  </defs>
  <path class="cls-1" d="M9.84.1c-1.5,0-2.72,1.22-2.72,2.72v.91h21.75v-.91c0-1.5-1.22-2.72-2.72-2.72H9.84Z"/>
  <path class="cls-2" d="M3.5,8.65c0-1.5,1.22-2.72,2.72-2.72h23.56c1.5,0,2.72,1.22,2.72,2.72v.91H3.5v-.91Z"/>
  <path class="cls-3" d="M31.21,30.38H4.89c-1.81,0-3.29-1.48-3.29-3.29v-12.24c0-1.81,1.48-3.29,3.29-3.29h26.22c1.81,0,3.29,1.48,3.29,3.29v12.16h-3.2v3.36ZM4.89,12.9c-1.08,0-1.96.88-1.96,1.96v12.24c0,1.08.88,1.96,1.96,1.96h24.98v-3.36h3.2v-10.83c0-1.08-.88-1.96-1.96-1.96H4.89Z"/>
  <rect class="cls-4" x="2.64" y="31.39" width="7.45" height="2.51" rx="1.13" ry="1.13"/>
</svg>