<?xml version="1.0" encoding="utf-8"?>
<!-- Generator: Adobe Illustrator 28.2.0, SVG Export Plug-In . SVG Version: 6.00 Build 0)  -->
<svg version="1.1" id="Layer_1" xmlns="http://www.w3.org/2000/svg" xmlns:xlink="http://www.w3.org/1999/xlink" x="0px" y="0px"
	 viewBox="0 0 36 34" style="enable-background:new 0 0 36 34;" xml:space="preserve">
<style type="text/css">
	.st0{fill:url(#SVGID_1_);}
</style>
<linearGradient id="SVGID_1_" gradientUnits="userSpaceOnUse" x1="2.5393" y1="3.2933" x2="27.0958" y2="25.0639">
	<stop  offset="0" style="stop-color:#0049E7"/>
	<stop  offset="0.11" style="stop-color:#0648E7"/>
	<stop  offset="0.26" style="stop-color:#1647E9"/>
	<stop  offset="0.42" style="stop-color:#3144EB"/>
	<stop  offset="0.6" style="stop-color:#5740EE"/>
	<stop  offset="0.7487" style="stop-color:#883BF3"/>
	<stop  offset="0.98" style="stop-color:#C236F7"/>
	<stop  offset="1" style="stop-color:#C835F8"/>
</linearGradient>
<path class="st0" d="M18,34c-4.5,0-8.8-1.8-12-5s-5-7.5-5-12S2.8,8.2,6,5s7.5-5,12-5s8.8,1.8,12,5s5,7.5,5,12s-1.8,8.8-5,12
	S22.5,34,18,34z M18,2.7C10.1,2.7,3.7,9.1,3.7,17S10.1,31.3,18,31.3S32.3,24.9,32.3,17S25.9,2.7,18,2.7z M25,24l-1.9-1.9
	c-2.8,2.8-7.4,2.8-10.2,0s-2.8-7.4,0-10.2s7.4-2.8,10.2,0L25,10c-3.8-3.8-10.1-3.8-14,0c-3.8,3.8-3.8,10.1,0,14
	c1.9,1.9,4.4,2.9,7,2.9C20.5,26.9,23.1,25.9,25,24z"/>
</svg>
