<?xml version="1.0" encoding="UTF-8"?>
<svg id="Layer_1" data-name="Layer 1" xmlns="http://www.w3.org/2000/svg" xmlns:xlink="http://www.w3.org/1999/xlink" viewBox="0 0 36 34">
  <defs>
    <style>
      .cls-1 {
        fill: url(#linear-gradient-12);
      }

      .cls-1, .cls-2, .cls-3, .cls-4, .cls-5, .cls-6, .cls-7, .cls-8, .cls-9, .cls-10, .cls-11, .cls-12 {
        stroke-width: 0px;
      }

      .cls-2 {
        fill: url(#linear-gradient);
      }

      .cls-3 {
        fill: url(#linear-gradient-6);
      }

      .cls-4 {
        fill: url(#linear-gradient-11);
      }

      .cls-5 {
        fill: url(#linear-gradient-5);
      }

      .cls-6 {
        fill: url(#linear-gradient-2);
      }

      .cls-7 {
        fill: url(#linear-gradient-7);
      }

      .cls-8 {
        fill: url(#linear-gradient-3);
      }

      .cls-9 {
        fill: url(#linear-gradient-9);
      }

      .cls-10 {
        fill: url(#linear-gradient-8);
      }

      .cls-11 {
        fill: url(#linear-gradient-10);
      }

      .cls-12 {
        fill: url(#linear-gradient-4);
      }
    </style>
    <linearGradient id="linear-gradient" x1="8.49" y1="-.62" x2="21.29" y2="34.1" gradientUnits="userSpaceOnUse">
      <stop offset="0" stop-color="#0049e7"/>
      <stop offset=".11" stop-color="#0648e7"/>
      <stop offset=".26" stop-color="#1647e9"/>
      <stop offset=".46" stop-color="#3144eb"/>
      <stop offset=".66" stop-color="#5740ee"/>
      <stop offset=".79" stop-color="#883bf3"/>
      <stop offset=".98" stop-color="#c236f7"/>
      <stop offset="1" stop-color="#c835f8"/>
    </linearGradient>
    <linearGradient id="linear-gradient-2" x1="20.35" y1="-5" x2="33.16" y2="29.73" xlink:href="#linear-gradient"/>
    <linearGradient id="linear-gradient-3" x1="15.85" y1="-3.34" x2="28.66" y2="31.39" xlink:href="#linear-gradient"/>
    <linearGradient id="linear-gradient-4" x1="6.96" y1="-.06" x2="19.76" y2="34.67" xlink:href="#linear-gradient"/>
    <linearGradient id="linear-gradient-5" x1="5.8" y1=".37" x2="18.61" y2="35.09" xlink:href="#linear-gradient"/>
    <linearGradient id="linear-gradient-6" x1="4.73" y1=".76" x2="17.54" y2="35.49" xlink:href="#linear-gradient"/>
    <linearGradient id="linear-gradient-7" x1="3.48" y1="1.23" x2="16.28" y2="35.95" xlink:href="#linear-gradient"/>
    <linearGradient id="linear-gradient-8" x1="8.01" y1="-.45" x2="20.82" y2="34.28" xlink:href="#linear-gradient"/>
    <linearGradient id="linear-gradient-9" x1="8.98" y1="-.8" x2="21.79" y2="33.92" xlink:href="#linear-gradient"/>
    <linearGradient id="linear-gradient-10" x1="7.04" y1="-.09" x2="19.85" y2="34.63" xlink:href="#linear-gradient"/>
    <linearGradient id="linear-gradient-11" x1="8" y1="-.44" x2="20.81" y2="34.28" xlink:href="#linear-gradient"/>
    <linearGradient id="linear-gradient-12" x1="16.23" y1="-3.48" x2="29.04" y2="31.25" xlink:href="#linear-gradient"/>
  </defs>
  <path class="cls-2" d="M19.83,31.25H6.16c-1.8,0-3.26-1.46-3.26-3.26V3.41C2.9,1.61,4.36.15,6.16.15h15.31c.21,0,.38.17.38.38s-.17.38-.38.38H6.16c-1.38,0-2.5,1.12-2.5,2.5v24.57c0,1.38,1.12,2.5,2.5,2.5h13.67c.21,0,.24.16.24.37s-.03.39-.24.39h0ZM26.84,14.45c-.21,0-.38-.17-.38-.38V5.9c0-.21.17-.38.38-.38s.38.17.38.38v8.17c0,.21-.17.38-.38.38Z"/>
  <path class="cls-6" d="M26.84,6.28h-3.95c-.99,0-1.8-.81-1.8-1.8V.53c0-.15.09-.29.24-.35s.31-.03.42.08l5.37,5.37c.11.11.14.27.08.42-.06.14-.2.24-.35.24ZM21.85,1.45v3.03c0,.57.47,1.04,1.04,1.04h3.03l-4.07-4.07Z"/>
  <path class="cls-8" d="M23.41,9.83h-5.68c-.21,0-.38-.17-.38-.38s.17-.38.38-.38h5.68c.21,0,.38.17.38.38s-.17.38-.38.38Z"/>
  <path class="cls-12" d="M19.64,16.98H6.78c-.32,0-.58-.17-.58-.38s.26-.38.58-.38h12.86c.32,0,.31.17.31.38s0,.38-.31.38h0Z"/>
  <path class="cls-5" d="M19.64,20.55H6.78c-.32,0-.58-.17-.58-.38s.26-.38.58-.38h12.86c.32,0,.31.14.31.35s0,.41-.31.41h0Z"/>
  <path class="cls-3" d="M19.64,24.12H6.78c-.32,0-.58-.17-.58-.38s.26-.38.58-.38h12.86c.32,0,.58.17.58.38s-.26.38-.58.38h0Z"/>
  <path class="cls-7" d="M19.64,27.69H6.78c-.32,0-.58-.17-.58-.38s.26-.38.58-.38h12.86c.32,0,.31.17.31.38s0,.38-.31.38h0Z"/>
  <path class="cls-10" d="M11.26,13.57c-2.88,0-5.22-2.34-5.22-5.22s2.34-5.22,5.22-5.22,5.22,2.34,5.22,5.22-2.34,5.22-5.22,5.22ZM11.26,3.89c-2.46,0-4.46,2-4.46,4.46s2,4.46,4.46,4.46,4.46-2,4.46-4.46-2-4.46-4.46-4.46Z"/>
  <path class="cls-9" d="M11.31,6.32c-.21,0-.38-.17-.38-.38v-.86c0-.21.17-.38.38-.38s.38.17.38.38v.86c0,.21-.17.38-.38.38Z"/>
  <path class="cls-11" d="M11.2,12c-.21,0-.38-.17-.38-.38v-.86c0-.21.17-.38.38-.38s.38.17.38.38v.86c0,.21-.17.38-.38.38Z"/>
  <path class="cls-4" d="M11.13,11.14s-.06,0-.09,0c-.66-.03-1.42-.48-1.41-1.61,0-.21.17-.38.38-.38h0c.21,0,.38.17.38.38,0,.67.37.83.68.85.47.02.95-.27.98-.61,0,0,0,0,0-.02.08-.64-.76-.99-1.02-1.09-1.1-.4-1.55-1-1.35-1.79.27-1.03,1.14-1.4,1.83-1.29.81.12,1.36.79,1.33,1.63,0,.21-.19.37-.39.37-.21,0-.37-.18-.37-.39.02-.55-.35-.8-.68-.85-.35-.05-.82.11-.98.73-.07.27-.01.56.87.88.39.14,1.66.7,1.51,1.9-.08.8-.91,1.3-1.69,1.3h0Z"/>
  <path class="cls-1" d="M26.97,29.33h-1.27c-.4,0-.72.32-.72.72v1.27c0,.4.32.72.72.72h1.27c.4,0,.72-.32.72-.72v-1.27c0-.4-.32-.72-.72-.72ZM26.97,31.39h-1.27s-.05-.03-.05-.05v-1.27s.03-.05.05-.05h1.27s.05.03.05.05v1.27h0s-.03.05-.05.05ZM30.58,25.72h-1.27c-.4,0-.72.32-.72.72v4.88c0,.4.32.72.72.72h1.27c.4,0,.72-.32.72-.72v-4.88c0-.4-.33-.72-.72-.72ZM30.63,31.33s-.03.05-.05.05h-1.27s-.05-.03-.05-.05v-4.88s.03-.05.05-.05h1.27s.05.03.05.05v4.88ZM26.97,25.72h-1.27c-.4,0-.72.32-.72.72v1.27c0,.4.32.72.72.72h1.27c.4,0,.72-.32.72-.72v-1.27c0-.4-.32-.72-.72-.72ZM26.97,27.77h-1.27s-.05-.03-.05-.05v-1.27s.03-.05.05-.05h1.27s.05.03.05.05v1.27h0s-.03.05-.05.05ZM23.35,29.33h-1.27c-.4,0-.72.32-.72.72v1.27c0,.4.32.72.72.72h1.27c.4,0,.72-.32.72-.72v-1.27c0-.4-.33-.72-.72-.72ZM23.41,31.33s-.03.05-.05.05h-1.27s-.05-.03-.05-.05v-1.27s.03-.05.05-.05h1.27s.05.03.05.05v1.27ZM23.35,25.72h-1.27c-.4,0-.72.32-.72.72v1.27c0,.4.32.72.72.72h1.27c.4,0,.72-.32.72-.72v-1.27c0-.4-.33-.72-.72-.72ZM23.41,27.72s-.03.05-.05.05h-1.27s-.05-.03-.05-.05v-1.27s.03-.05.05-.05h1.27s.05.03.05.05v1.27ZM26.97,22.11h-1.27c-.4,0-.72.32-.72.72v1.27c0,.4.32.72.72.72h1.27c.4,0,.72-.32.72-.72v-1.27c0-.4-.32-.72-.72-.72ZM26.97,24.16h-1.27s-.05-.03-.05-.05v-1.27s.03-.05.05-.05h1.27s.05.03.05.05v1.27h0s-.03.05-.05.05ZM30.58,22.11h-1.27c-.4,0-.72.32-.72.72v1.27c0,.4.32.72.72.72h1.27c.4,0,.72-.32.72-.72v-1.27c0-.4-.33-.72-.72-.72ZM30.63,24.1s-.03.05-.05.05h-1.27s-.05-.03-.05-.05v-1.27s.03-.05.05-.05h1.27s.05.03.05.05v1.27ZM23.35,22.11h-1.27c-.4,0-.72.32-.72.72v1.27c0,.4.32.72.72.72h1.27c.4,0,.72-.32.72-.72v-1.27c0-.4-.33-.72-.72-.72ZM23.41,24.1s-.03.05-.05.05h-1.27s-.05-.03-.05-.05v-1.27s.03-.05.05-.05h1.27s.05.03.05.05v1.27ZM30.58,15.65h-8.5c-.4,0-.72.32-.72.72v3.71c0,.4.32.72.72.72h8.5c.4,0,.72-.32.72-.72v-3.71c0-.4-.32-.72-.72-.72ZM30.58,20.14h-8.5s-.05-.03-.05-.05v-3.71s.03-.05.05-.05h8.5s.05.03.05.05v3.71h0s-.03.05-.05.05ZM30.58,25.72h-1.27c-.4,0-.72.32-.72.72v4.88c0,.4.32.72.72.72h1.27c.4,0,.72-.32.72-.72v-4.88c0-.4-.33-.72-.72-.72ZM30.63,31.33s-.03.05-.05.05h-1.27s-.05-.03-.05-.05v-4.88s.03-.05.05-.05h1.27s.05.03.05.05v4.88ZM30.58,22.11h-1.27c-.4,0-.72.32-.72.72v1.27c0,.4.32.72.72.72h1.27c.4,0,.72-.32.72-.72v-1.27c0-.4-.33-.72-.72-.72ZM30.63,24.1s-.03.05-.05.05h-1.27s-.05-.03-.05-.05v-1.27s.03-.05.05-.05h1.27s.05.03.05.05v1.27ZM22.08,20.81h8.5c.4,0,.72-.32.72-.72v-3.71c0-.4-.32-.72-.72-.72h-8.5c-.4,0-.72.32-.72.72v3.71c0,.4.32.72.72.72ZM22.03,16.38s.03-.05.05-.05h8.5s.05.03.05.05v3.71h0s-.03.05-.05.05h-8.5s-.05-.03-.05-.05v-3.71ZM26.97,29.33h-1.27c-.4,0-.72.32-.72.72v1.27c0,.4.32.72.72.72h1.27c.4,0,.72-.32.72-.72v-1.27c0-.4-.32-.72-.72-.72ZM26.97,31.39h-1.27s-.05-.03-.05-.05v-1.27s.03-.05.05-.05h1.27s.05.03.05.05v1.27h0s-.03.05-.05.05ZM26.97,25.72h-1.27c-.4,0-.72.32-.72.72v1.27c0,.4.32.72.72.72h1.27c.4,0,.72-.32.72-.72v-1.27c0-.4-.32-.72-.72-.72ZM26.97,27.77h-1.27s-.05-.03-.05-.05v-1.27s.03-.05.05-.05h1.27s.05.03.05.05v1.27h0s-.03.05-.05.05ZM26.97,22.11h-1.27c-.4,0-.72.32-.72.72v1.27c0,.4.32.72.72.72h1.27c.4,0,.72-.32.72-.72v-1.27c0-.4-.32-.72-.72-.72ZM26.97,24.16h-1.27s-.05-.03-.05-.05v-1.27s.03-.05.05-.05h1.27s.05.03.05.05v1.27h0s-.03.05-.05.05ZM23.35,29.33h-1.27c-.4,0-.72.32-.72.72v1.27c0,.4.32.72.72.72h1.27c.4,0,.72-.32.72-.72v-1.27c0-.4-.33-.72-.72-.72ZM23.41,31.33s-.03.05-.05.05h-1.27s-.05-.03-.05-.05v-1.27s.03-.05.05-.05h1.27s.05.03.05.05v1.27ZM23.35,25.72h-1.27c-.4,0-.72.32-.72.72v1.27c0,.4.32.72.72.72h1.27c.4,0,.72-.32.72-.72v-1.27c0-.4-.33-.72-.72-.72ZM23.41,27.72s-.03.05-.05.05h-1.27s-.05-.03-.05-.05v-1.27s.03-.05.05-.05h1.27s.05.03.05.05v1.27ZM23.35,22.11h-1.27c-.4,0-.72.32-.72.72v1.27c0,.4.32.72.72.72h1.27c.4,0,.72-.32.72-.72v-1.27c0-.4-.33-.72-.72-.72ZM23.41,24.1s-.03.05-.05.05h-1.27s-.05-.03-.05-.05v-1.27s.03-.05.05-.05h1.27s.05.03.05.05v1.27ZM32.55,14.41c-.36-.36-.83-.56-1.34-.56h-9.76c-1.04,0-1.89.85-1.89,1.89l-.03,12.91h0v.67h0v.8h0v.67h0v1.16c0,.5.19.98.55,1.34.36.36.83.56,1.34.56h9.75c1.04,0,1.89-.85,1.89-1.89l.04-16.21c0-.5-.19-.98-.55-1.34ZM32.39,31.96c0,.68-.55,1.22-1.22,1.22h-9.76c-.33,0-.63-.13-.87-.36-.23-.23-.36-.54-.36-.86l.04-16.21c0-.68.55-1.22,1.22-1.22h9.76c.33,0,.63.13.87.36.23.23.36.54.36.86l-.04,16.21ZM30.58,25.72h-1.27c-.4,0-.72.32-.72.72v4.88c0,.4.32.72.72.72h1.27c.4,0,.72-.32.72-.72v-4.88c0-.4-.33-.72-.72-.72ZM30.63,31.33s-.03.05-.05.05h-1.27s-.05-.03-.05-.05v-4.88s.03-.05.05-.05h1.27s.05.03.05.05v4.88ZM30.58,22.11h-1.27c-.4,0-.72.32-.72.72v1.27c0,.4.32.72.72.72h1.27c.4,0,.72-.32.72-.72v-1.27c0-.4-.33-.72-.72-.72ZM30.63,24.1s-.03.05-.05.05h-1.27s-.05-.03-.05-.05v-1.27s.03-.05.05-.05h1.27s.05.03.05.05v1.27ZM22.08,20.81h8.5c.4,0,.72-.32.72-.72v-3.71c0-.4-.32-.72-.72-.72h-8.5c-.4,0-.72.32-.72.72v3.71c0,.4.32.72.72.72ZM22.03,16.38s.03-.05.05-.05h8.5s.05.03.05.05v3.71h0s-.03.05-.05.05h-8.5s-.05-.03-.05-.05v-3.71ZM26.97,29.33h-1.27c-.4,0-.72.32-.72.72v1.27c0,.4.32.72.72.72h1.27c.4,0,.72-.32.72-.72v-1.27c0-.4-.32-.72-.72-.72ZM26.97,31.39h-1.27s-.05-.03-.05-.05v-1.27s.03-.05.05-.05h1.27s.05.03.05.05v1.27h0s-.03.05-.05.05ZM26.97,25.72h-1.27c-.4,0-.72.32-.72.72v1.27c0,.4.32.72.72.72h1.27c.4,0,.72-.32.72-.72v-1.27c0-.4-.32-.72-.72-.72ZM26.97,27.77h-1.27s-.05-.03-.05-.05v-1.27s.03-.05.05-.05h1.27s.05.03.05.05v1.27h0s-.03.05-.05.05ZM26.97,22.11h-1.27c-.4,0-.72.32-.72.72v1.27c0,.4.32.72.72.72h1.27c.4,0,.72-.32.72-.72v-1.27c0-.4-.32-.72-.72-.72ZM26.97,24.16h-1.27s-.05-.03-.05-.05v-1.27s.03-.05.05-.05h1.27s.05.03.05.05v1.27h0s-.03.05-.05.05ZM23.35,29.33h-1.27c-.4,0-.72.32-.72.72v1.27c0,.4.32.72.72.72h1.27c.4,0,.72-.32.72-.72v-1.27c0-.4-.33-.72-.72-.72ZM23.41,31.33s-.03.05-.05.05h-1.27s-.05-.03-.05-.05v-1.27s.03-.05.05-.05h1.27s.05.03.05.05v1.27ZM23.35,25.72h-1.27c-.4,0-.72.32-.72.72v1.27c0,.4.32.72.72.72h1.27c.4,0,.72-.32.72-.72v-1.27c0-.4-.33-.72-.72-.72ZM23.41,27.72s-.03.05-.05.05h-1.27s-.05-.03-.05-.05v-1.27s.03-.05.05-.05h1.27s.05.03.05.05v1.27ZM23.35,22.11h-1.27c-.4,0-.72.32-.72.72v1.27c0,.4.32.72.72.72h1.27c.4,0,.72-.32.72-.72v-1.27c0-.4-.33-.72-.72-.72ZM23.41,24.1s-.03.05-.05.05h-1.27s-.05-.03-.05-.05v-1.27s.03-.05.05-.05h1.27s.05.03.05.05v1.27Z"/>
</svg>