<?xml version="1.0" encoding="UTF-8"?>
<svg id="Layer_1" data-name="Layer 1" xmlns="http://www.w3.org/2000/svg" xmlns:xlink="http://www.w3.org/1999/xlink" viewBox="0 0 36 34">
  <defs>
    <style>
      .cls-1 {
        fill: url(#linear-gradient);
      }

      .cls-1, .cls-2, .cls-3, .cls-4 {
        stroke-width: 0px;
      }

      .cls-2 {
        fill: url(#linear-gradient-2);
      }

      .cls-3 {
        fill: url(#linear-gradient-3);
      }

      .cls-4 {
        fill: url(#linear-gradient-4);
      }
    </style>
    <linearGradient id="linear-gradient" x1="-.05" y1="19.9" x2="25.54" y2="31.57" gradientUnits="userSpaceOnUse">
      <stop offset="0" stop-color="#0049e7"/>
      <stop offset=".11" stop-color="#0648e7"/>
      <stop offset=".26" stop-color="#1647e9"/>
      <stop offset=".42" stop-color="#3144eb"/>
      <stop offset=".6" stop-color="#5740ee"/>
      <stop offset=".79" stop-color="#883bf3"/>
      <stop offset=".98" stop-color="#c236f7"/>
      <stop offset="1" stop-color="#c835f8"/>
    </linearGradient>
    <linearGradient id="linear-gradient-2" x1="1.35" y1="16.82" x2="26.94" y2="28.5" xlink:href="#linear-gradient"/>
    <linearGradient id="linear-gradient-3" x1="3.11" y1="12.96" x2="28.7" y2="24.64" xlink:href="#linear-gradient"/>
    <linearGradient id="linear-gradient-4" x1="6.06" y1="6.51" x2="31.65" y2="18.18" xlink:href="#linear-gradient"/>
  </defs>
  <g>
    <path class="cls-1" d="M7.4,27.11H.9v-1.76h2.29v-6.63c0-.06,0-.12,0-.18l-1.32,1.12c-.11.09-.22.15-.34.17-.12.03-.23.03-.33,0-.1-.02-.19-.06-.26-.11-.08-.05-.15-.11-.2-.17l-.65-.91,3.56-3.06h1.69v9.78h2.07v1.76ZM1.41,26.6h5.48v-.73h-2.07v-9.78h-.99l-3.07,2.64.38.53s.02.02.05.04c.03.02.06.03.1.04.03,0,.07,0,.11,0,.04,0,.08-.03.13-.07l2.21-1.87-.04.6c-.01.25-.02.49-.02.73v7.15H1.41v.73Z"/>
    <path class="cls-2" d="M16.55,27.11h-7.95v-.81c0-.14.03-.29.09-.44.06-.16.15-.3.28-.43l3.42-3.43c.28-.28.54-.56.76-.82.22-.25.4-.51.56-.76.15-.25.26-.5.34-.75.08-.25.11-.51.11-.78,0-.26-.04-.48-.12-.67-.07-.19-.18-.34-.3-.46-.13-.12-.28-.21-.47-.27-.37-.13-.87-.13-1.24,0-.18.06-.35.15-.49.26-.14.11-.26.24-.35.39-.09.15-.17.32-.21.5v.03c-.11.27-.24.45-.41.55-.18.1-.4.13-.7.08l-1.11-.2.04-.25c.08-.55.24-1.03.46-1.45.23-.42.52-.78.86-1.06.34-.28.74-.5,1.19-.64.44-.14.92-.21,1.43-.21s1,.08,1.43.23c.44.16.83.38,1.15.67.32.29.58.65.76,1.06.18.41.27.88.27,1.39,0,.43-.07.84-.19,1.21-.13.36-.3.72-.51,1.05-.21.33-.46.65-.74.95-.27.3-.56.6-.87.91l-2.07,2.12c.18-.02.36-.04.52-.04h3.23c.25,0,.45.08.6.23.15.15.23.35.23.58v1.25ZM9.11,26.6h6.93v-.74c0-.13-.05-.19-.08-.22-.02-.02-.08-.08-.24-.08h-3.23c-.18,0-.38.02-.59.05-.21.03-.42.08-.63.14l-.92.26,3.32-3.4c.3-.3.59-.61.85-.9.26-.29.49-.58.69-.89.19-.3.35-.61.46-.94.11-.32.17-.67.17-1.05,0-.44-.08-.84-.23-1.19-.15-.35-.37-.64-.64-.89-.27-.24-.6-.43-.98-.57-.38-.13-.81-.2-1.26-.2s-.88.06-1.27.19c-.38.12-.73.31-1.02.55-.29.24-.54.54-.73.9-.16.3-.28.65-.36,1.04l.61.11c.23.04.32,0,.35-.01.04-.02.11-.09.18-.28.06-.23.15-.44.27-.64.13-.2.28-.38.47-.52.19-.14.4-.26.64-.34.48-.16,1.09-.16,1.57,0,.25.09.47.21.65.38.18.17.33.39.43.64.1.25.15.54.15.86s-.05.64-.14.93c-.09.29-.22.58-.39.86-.17.28-.37.55-.6.83-.23.27-.49.55-.79.85l-3.42,3.43c-.08.08-.13.16-.16.25-.03.09-.05.18-.05.26v.3Z"/>
    <path class="cls-3" d="M21.48,27.23c-.59,0-1.11-.07-1.55-.22-.44-.14-.83-.36-1.15-.63-.32-.27-.59-.6-.8-.98-.21-.37-.38-.79-.52-1.25l-.07-.22.92-.39c.23-.1.47-.13.69-.08.25.05.44.2.55.42.08.16.17.33.27.51.09.16.21.31.35.45.14.13.31.25.52.34.2.09.46.13.77.13s.59-.05.82-.15c.23-.1.42-.23.58-.39.15-.16.26-.33.34-.52.07-.19.11-.39.11-.57,0-.25-.03-.48-.09-.69-.05-.18-.15-.34-.31-.47-.16-.14-.4-.25-.71-.33-.33-.09-.76-.13-1.3-.13h-.26v-1.69h.25c.44,0,.81-.05,1.11-.13.28-.08.51-.19.67-.32.16-.13.27-.28.34-.45.07-.19.11-.4.11-.63,0-.25-.04-.46-.11-.64-.07-.18-.17-.33-.3-.45-.13-.12-.28-.21-.46-.27-.37-.12-.86-.13-1.24,0-.18.06-.35.15-.49.26-.14.11-.26.24-.36.39-.1.15-.17.32-.21.5v.02c-.1.27-.23.45-.4.56-.18.1-.4.13-.7.08l-1.11-.2.04-.25c.08-.55.23-1.03.46-1.45.23-.42.52-.78.86-1.06.34-.28.74-.5,1.19-.64.44-.14.92-.21,1.43-.21s.99.08,1.42.22c.43.15.8.36,1.11.63.31.27.56.6.73.98.17.38.26.8.26,1.24,0,.38-.05.71-.14,1-.09.29-.23.56-.4.78-.17.23-.39.42-.64.57-.06.04-.13.08-.2.11.44.21.79.48,1.05.81.38.48.57,1.08.57,1.8,0,.57-.11,1.08-.32,1.52-.21.44-.51.82-.87,1.13-.36.31-.79.54-1.27.7-.48.16-.98.24-1.51.24ZM18.01,24.22c.12.34.26.65.41.93.18.33.41.61.69.84.27.23.6.41.98.53.39.13.85.19,1.39.19.47,0,.93-.07,1.35-.21.42-.14.79-.34,1.1-.61.31-.26.56-.58.74-.96.18-.38.27-.81.27-1.3,0-.6-.15-1.09-.46-1.48-.31-.39-.78-.68-1.41-.86l-.79-.23.78-.26c.26-.09.5-.19.7-.32.2-.12.36-.27.5-.45.14-.18.24-.39.32-.63.08-.24.11-.53.11-.85,0-.37-.07-.72-.21-1.03-.14-.31-.34-.58-.6-.81-.26-.23-.58-.41-.95-.54-.37-.13-.79-.2-1.25-.2s-.88.06-1.27.19c-.38.12-.73.31-1.02.55-.29.24-.54.54-.73.9-.16.3-.28.65-.36,1.04l.61.11c.23.04.32,0,.35-.01.06-.04.12-.13.17-.27.06-.23.15-.45.27-.64.13-.2.29-.37.48-.52.19-.14.4-.26.64-.34.48-.16,1.09-.16,1.56,0,.25.08.47.21.65.38.18.17.33.38.43.63.1.24.15.52.15.84,0,.29-.05.56-.14.81-.1.26-.26.48-.49.67-.22.18-.5.32-.86.41-.28.08-.61.13-.99.14v.68c.48.01.86.06,1.18.15.38.1.69.25.91.44.23.2.39.44.47.72.07.25.11.53.11.83,0,.25-.05.5-.15.76-.1.26-.25.49-.45.69-.2.2-.45.37-.74.5-.29.13-.64.19-1.02.19s-.71-.06-.98-.18c-.26-.12-.49-.26-.67-.44-.18-.17-.33-.37-.44-.57-.1-.19-.2-.37-.28-.53-.04-.08-.1-.13-.19-.15-.12-.02-.24,0-.38.05l-.5.21Z"/>
  </g>
  <g id="Layer_2" data-name="Layer 2">
    <g id="Up_Arrow" data-name="Up Arrow">
      <path class="cls-4" d="M29.93,4.38l-5.98,4.85v4.85l4.24-3.43v18.98h3.5V10.65l4.24,3.43v-4.85l-5.99-4.85ZM35.28,12.64l-4.24-3.43v19.64h-2.23V9.21l-4.24,3.43v-3l5.35-4.34,5.35,4.34v3Z"/>
    </g>
  </g>
</svg>