<?xml version="1.0" encoding="UTF-8"?>
<svg id="Layer_1" data-name="Layer 1" xmlns="http://www.w3.org/2000/svg" xmlns:xlink="http://www.w3.org/1999/xlink" viewBox="0 0 36 34">
  <defs>
    <style>
      .cls-1 {
        fill: url(#linear-gradient);
      }

      .cls-1, .cls-2, .cls-3 {
        stroke-width: 0px;
      }

      .cls-2 {
        fill: url(#linear-gradient-2);
      }

      .cls-3 {
        fill: url(#linear-gradient-3);
      }
    </style>
    <linearGradient id="linear-gradient" x1="-6.15" y1="7.39" x2="36.36" y2="24.31" gradientUnits="userSpaceOnUse">
      <stop offset="0" stop-color="#0049e7"/>
      <stop offset=".11" stop-color="#0648e7"/>
      <stop offset=".26" stop-color="#1647e9"/>
      <stop offset=".46" stop-color="#3144eb"/>
      <stop offset=".66" stop-color="#5740ee"/>
      <stop offset=".79" stop-color="#883bf3"/>
      <stop offset=".98" stop-color="#c236f7"/>
      <stop offset="1" stop-color="#c835f8"/>
    </linearGradient>
    <linearGradient id="linear-gradient-2" x1="-6.02" y1="7.05" x2="36.49" y2="23.97" xlink:href="#linear-gradient"/>
    <linearGradient id="linear-gradient-3" x1="-7.05" y1="9.65" x2="35.46" y2="26.57" xlink:href="#linear-gradient"/>
  </defs>
  <path class="cls-1" d="M28.17,33.77H7.83c-3.64,0-6.61-2.96-6.61-6.61V6.83C1.23,3.19,4.19.23,7.83.23h20.33c3.64,0,6.61,2.96,6.61,6.61v20.33c0,3.64-2.96,6.61-6.61,6.61ZM7.83,1.47c-2.96,0-5.36,2.4-5.36,5.36v20.33c0,2.96,2.4,5.36,5.36,5.36h20.33c2.96,0,5.36-2.4,5.36-5.36V6.83c0-2.96-2.4-5.36-5.36-5.36H7.83Z"/>
  <g>
    <path class="cls-2" d="M21.66,11.3s-.02,0-.03,0h-9.78c-1.28,0-2.49.5-3.4,1.41-.91.91-1.41,2.12-1.41,3.39,0,2.65,2.16,4.81,4.81,4.81h9.81s0,0,0,0c.24,0,.48-.02.72-.05.23-.04.46-.09.69-.16l-.07-1.14c-.22.09-.45.15-.69.2-.21.04-.44.06-.66.06-2.04,0-3.71-1.67-3.71-3.71s1.65-3.7,3.68-3.71h.03c2.04,0,3.7,1.67,3.7,3.71,0,.94-.35,1.8-.93,2.45-.16.18-.34.35-.53.5l1.01.58c.18-.16.34-.34.49-.52.66-.82,1.06-1.87,1.06-3.01,0-2.65-2.16-4.81-4.81-4.81ZM16.85,16.11c0,1.49.68,2.83,1.75,3.71h-6.75c-2.05,0-3.71-1.66-3.71-3.71,0-.98.39-1.91,1.09-2.62.7-.7,1.63-1.09,2.62-1.09h6.75c-1.07.88-1.75,2.22-1.75,3.71Z"/>
    <path class="cls-3" d="M29.05,21.22l-3.64-2.09-.96-.56-1.71-.98c-.11-.07-.25-.06-.36,0-.11.07-.17.19-.16.32l.11,1.86.07,1.1.26,4.31c0,.14.09.25.22.3.01,0,.03.01.05.02.11.03.23,0,.32-.08l1.53-1.43,1.33,2.16c.1.16.32.21.48.11l1.68-1.04c.16-.1.21-.32.11-.48l-1.34-2.15,1.96-.73c.13-.05.21-.16.23-.3.01-.13-.06-.26-.18-.33ZM26.39,22.07c-.1.04-.18.12-.21.21-.03.1-.02.21.03.3l1.38,2.22-1.09.67-1.38-2.22c-.05-.08-.13-.13-.21-.16-.01,0-.02,0-.03,0-.1-.01-.21.02-.29.09l-1.3,1.21-.23-3.69-.07-1.14-.07-1.06.96.55,1.01.58,3.14,1.8-1.66.62Z"/>
  </g>
</svg>