<?xml version="1.0" encoding="UTF-8"?>
<svg id="Layer_1" data-name="Layer 1" xmlns="http://www.w3.org/2000/svg" xmlns:xlink="http://www.w3.org/1999/xlink" viewBox="0 0 36 34">
  <defs>
    <style>
      .cls-1 {
        fill: url(#linear-gradient);
      }

      .cls-1, .cls-2, .cls-3, .cls-4, .cls-5, .cls-6, .cls-7 {
        stroke-width: 0px;
      }

      .cls-2 {
        fill: url(#linear-gradient-6);
      }

      .cls-3 {
        fill: url(#linear-gradient-5);
      }

      .cls-4 {
        fill: url(#linear-gradient-2);
      }

      .cls-5 {
        fill: url(#linear-gradient-7);
      }

      .cls-6 {
        fill: url(#linear-gradient-3);
      }

      .cls-7 {
        fill: url(#linear-gradient-4);
      }
    </style>
    <linearGradient id="linear-gradient" x1="-8.44" y1="2.64" x2="24.33" y2="13.2" gradientUnits="userSpaceOnUse">
      <stop offset="0" stop-color="#0049e7"/>
      <stop offset=".11" stop-color="#0648e7"/>
      <stop offset=".26" stop-color="#1647e9"/>
      <stop offset=".46" stop-color="#3144eb"/>
      <stop offset=".66" stop-color="#5740ee"/>
      <stop offset=".79" stop-color="#883bf3"/>
      <stop offset=".98" stop-color="#c236f7"/>
      <stop offset="1" stop-color="#c835f8"/>
    </linearGradient>
    <linearGradient id="linear-gradient-2" x1="-6.98" y1="-1.91" x2="25.79" y2="8.65" xlink:href="#linear-gradient"/>
    <linearGradient id="linear-gradient-3" x1="-9.76" y1="6.71" x2="23.01" y2="17.27" xlink:href="#linear-gradient"/>
    <linearGradient id="linear-gradient-4" x1="-11.07" y1="10.78" x2="21.7" y2="21.35" xlink:href="#linear-gradient"/>
    <linearGradient id="linear-gradient-5" x1="-9.76" y1="6.71" x2="23.01" y2="17.27" xlink:href="#linear-gradient"/>
    <linearGradient id="linear-gradient-6" x1="-12.32" y1="14.67" x2="20.45" y2="25.24" xlink:href="#linear-gradient"/>
    <linearGradient id="linear-gradient-7" x1="-12.3" y1="14.58" x2="20.48" y2="25.15" xlink:href="#linear-gradient"/>
  </defs>
  <path class="cls-1" d="M23.06,9.69H7.32c-.31,0-.56.25-.56.56s.25.56.56.56h15.74c.31,0,.56-.25.56-.56s-.25-.56-.56-.56Z"/>
  <path class="cls-4" d="M23.06,5.76h-8.99c-.31,0-.56.25-.56.56s.25.56.56.56h8.99c.31,0,.56-.25.56-.56s-.25-.56-.56-.56Z"/>
  <path class="cls-6" d="M23.06,14.19H7.32c-.31,0-.56.25-.56.56s.25.56.56.56h15.74c.31,0,.56-.25.56-.56s-.25-.56-.56-.56Z"/>
  <path class="cls-7" d="M23.06,18.68H7.32c-.31,0-.56.25-.56.56s.25.56.56.56h15.74c.31,0,.56-.25.56-.56s-.25-.56-.56-.56Z"/>
  <path class="cls-3" d="M27.55,20.47V.7c0-.31-.25-.56-.56-.56h-5.76c-.31,0-.56.25-.56.56s.25.56.56.56h5.19v19.11c-2.25,0-4.24,1.11-5.47,2.81H7.32c-.31,0-.56.25-.56.56s.25.56.56.56h12.99c-.4.85-.62,1.8-.62,2.81,0,.38.04.76.1,1.12H3.95v-7.59c0-.31-.25-.56-.56-.56s-.56.25-.56.56v8.15c0,.31.25.56.56.56h16.69c1.02,2.88,3.94,4.87,7.25,4.44,3.1-.4,5.56-2.99,5.83-6.1.3-3.59-2.23-6.66-5.6-7.23ZM26.41,32.88c-3.17,0-5.74-2.57-5.74-5.75s2.57-5.74,5.74-5.74,5.75,2.57,5.75,5.74-2.57,5.75-5.75,5.75ZM17.84.14h-8.83s-.1,0-.13.02c-.1.02-.19.07-.26.15L2.98,5.92c-.07.07-.12.16-.15.26-.01.04-.02.09-.02.13v11.38c0,.31.25.56.56.56s.56-.25.56-.56V6.88h5.06c.31,0,.56-.25.56-.56V1.26h8.27c.31,0,.56-.25.56-.56s-.25-.56-.56-.56ZM8.48,5.9h-3.45l3.45-3.45v3.45Z"/>
  <path class="cls-2" d="M25.59,25.93c-.07,0-.15-.02-.22-.06-.24-.12-.34-.42-.22-.67l.41-.83c-1.16.37-2,1.46-2,2.74,0,1.02.55,1.98,1.44,2.5.23.13.32.44.18.68-.09.16-.26.25-.43.25-.08,0-.17-.02-.25-.06-1.19-.69-1.94-1.98-1.94-3.36,0-2.14,1.74-3.88,3.88-3.88,0,0,0,0,.01,0,.03,0,.06,0,.09.01.03.01.07.02.1.03,0,0,.01,0,.02,0,.02.01.03.03.05.04.03.02.06.04.08.07.02.02.03.05.05.07.02.03.03.05.04.08.01.03.01.07.02.1,0,.02.02.04.02.07,0,0,0,0,0,.01,0,.03-.01.06-.02.1,0,.03-.01.06-.03.09,0,0,0,.01,0,.02l-.84,1.69c-.08.17-.26.28-.44.28Z"/>
  <path class="cls-5" d="M30.31,27.12c0,1.07-.43,2.04-1.14,2.74-.7.7-1.67,1.14-2.74,1.14h0c-.07,0-.14-.02-.2-.05,0,0-.01,0-.02,0-.02-.01-.03-.03-.05-.04-.03-.02-.06-.04-.08-.07-.02-.02-.03-.05-.05-.07-.01-.03-.03-.05-.04-.08-.01-.03-.02-.07-.02-.1,0-.02-.01-.04-.01-.07,0,0,0-.01,0-.01,0-.03,0-.06.02-.1,0-.03.01-.06.02-.09,0,0,0-.01,0-.02l.84-1.69c.12-.25.42-.35.67-.22.24.12.34.42.22.67l-.41.83c1.16-.37,2-1.46,2-2.74,0-1.02-.55-1.98-1.44-2.5-.23-.13-.32-.44-.18-.68.13-.24.44-.32.68-.18,1.19.69,1.94,1.98,1.94,3.36Z"/>
</svg>