<?xml version="1.0" encoding="utf-8"?>
<!-- Generator: Adobe Illustrator 28.2.0, SVG Export Plug-In . SVG Version: 6.00 Build 0)  -->
<svg version="1.1" id="Layer_1" xmlns="http://www.w3.org/2000/svg" xmlns:xlink="http://www.w3.org/1999/xlink" x="0px" y="0px"
	 viewBox="0 0 36 34" style="enable-background:new 0 0 36 34;" xml:space="preserve">
<style type="text/css">
	.st0{fill:url(#SVGID_1_);}
	.st1{opacity:0.4;}
	.st2{fill-rule:evenodd;clip-rule:evenodd;fill:#FFFFFF;}
	.st3{opacity:0.6;fill:#FFFFFF;}
</style>
<g>
	
		<image style="overflow:visible;opacity:0.3;" width="191" height="159" xlink:href="834CCB14.png"  transform="matrix(0.24 0 0 0.24 -3.84 -1.2)">
	</image>
	<g>
		<g>
			<linearGradient id="SVGID_1_" gradientUnits="userSpaceOnUse" x1="11.3125" y1="3.8714" x2="32.2084" y2="27.4568">
				<stop  offset="0" style="stop-color:#0049E7"/>
				<stop  offset="0.1105" style="stop-color:#0648E7"/>
				<stop  offset="0.2552" style="stop-color:#1647E9"/>
				<stop  offset="0.4637" style="stop-color:#3144EB"/>
				<stop  offset="0.6582" style="stop-color:#5740EE"/>
				<stop  offset="0.7857" style="stop-color:#883BF3"/>
				<stop  offset="0.9815" style="stop-color:#C236F7"/>
				<stop  offset="1" style="stop-color:#C835F8"/>
			</linearGradient>
			<path class="st0" d="M4.3,5.9c0-1.8,1.4-3.2,3.2-3.2h25.4c1.8,0,3.2,1.4,3.2,3.2v15.9c0,1.8-1.4,3.2-3.2,3.2H7.4
				c-1.8,0-3.2-1.4-3.2-3.2V5.9z"/>
			<g>
				<g class="st1">
					<path class="st2" d="M3.2,8.9C1.4,8.9,0,10.3,0,12v15.9c0,1.8,1.4,3.2,3.2,3.2h25.4c1.8,0,3.2-1.4,3.2-3.2V12
						c0-1.8-1.4-3.2-3.2-3.2H3.2z"/>
				</g>
			</g>
			<g>
				<path class="st3" d="M8.3,13.5c0-0.3,0.3-0.6,0.6-0.6h19c0.3,0,0.6,0.3,0.6,0.6V16c0,0.3-0.3,0.6-0.6,0.6h-19
					c-0.3,0-0.6-0.3-0.6-0.6V13.5z"/>
			</g>
		</g>
	</g>
</g>
</svg>
