<?xml version="1.0" encoding="UTF-8"?>
<svg id="Layer_1" data-name="Layer 1" xmlns="http://www.w3.org/2000/svg" xmlns:xlink="http://www.w3.org/1999/xlink" viewBox="0 0 36 34">
  <defs>
    <style>
      .cls-1 {
        fill: url(#linear-gradient);
        stroke-width: 0px;
      }
    </style>
    <linearGradient id="linear-gradient" x1="4.28" y1="181" x2="31.72" y2="181" gradientTransform="translate(0 198) scale(1 -1)" gradientUnits="userSpaceOnUse">
      <stop offset="0" stop-color="#0049e7"/>
      <stop offset="1" stop-color="#c835f8"/>
    </linearGradient>
  </defs>
  <path class="cls-1" d="M29.52,33.89H6.48c-1.45,0-2.58-1.13-2.58-2.58V2.69C3.9,1.24,5.03.11,6.48.11h23.04c1.45,0,2.58,1.13,2.58,2.58v28.62c0,1.42-1.16,2.58-2.58,2.58ZM6.48,1.03c-.95,0-1.66.71-1.66,1.66v28.62c0,.95.71,1.66,1.66,1.66h23.04c.91,0,1.66-.74,1.66-1.66V2.69c0-.95-.71-1.66-1.66-1.66H6.48ZM28.11,29.65h-7.77c-.25,0-.46-.21-.46-.46v-7.77c0-.25.21-.46.46-.46h7.77c.25,0,.46.21.46.46v7.77c0,.25-.21.46-.46.46ZM20.79,28.73h6.85v-6.85h-6.85v6.85ZM17.58,29.65H7.89c-.25,0-.46-.21-.46-.46s.21-.46.46-.46h9.68c.25,0,.46.21.46.46s-.21.46-.46.46ZM23.3,27.11c-.12,0-.24-.04-.33-.13l-.85-.85c-.18-.18-.18-.47,0-.65s.47-.18.65,0l.52.52,2.36-2.36c.18-.18.47-.18.65,0s.18.47,0,.65l-2.69,2.69c-.09.09-.21.13-.33.13ZM17.58,25.55h-5.09c-.25,0-.46-.21-.46-.46s.21-.46.46-.46h5.09c.25,0,.46.21.46.46s-.21.46-.46.46ZM9.66,25.55h-1.77c-.25,0-.46-.21-.46-.46s.21-.46.46-.46h1.77c.25,0,.46.21.46.46s-.21.46-.46.46ZM17.58,21.52H7.89c-.25,0-.46-.21-.46-.46s.21-.46.46-.46h9.68c.25,0,.46.21.46.46s-.21.46-.46.46ZM28.11,17.43h-15.62c-.25,0-.46-.21-.46-.46s.21-.46.46-.46h15.62c.25,0,.46.21.46.46s-.21.46-.46.46ZM9.66,17.43h-1.77c-.25,0-.46-.21-.46-.46s.21-.46.46-.46h1.77c.25,0,.46.21.46.46s-.21.46-.46.46ZM15.31,14.67h-6.08c-1.03,0-1.87-.84-1.87-1.87,0-2.93,1.61-4.35,4.91-4.35s4.91,1.42,4.91,4.35c0,1.03-.84,1.87-1.87,1.87ZM15.14,13.75h.17c.53,0,.95-.43.95-.95,0-2.4-1.19-3.43-3.99-3.43s-3.99,1.02-3.99,3.43c0,.53.43.95.95.95h.32v-.95c0-.25.21-.46.46-.46s.46.21.46.46v.95h3.74v-.95c0-.25.21-.46.46-.46s.46.21.46.46v.95ZM28.11,13.33h-8.27c-.25,0-.46-.21-.46-.46s.21-.46.46-.46h8.27c.25,0,.46.21.46.46s-.21.46-.46.46ZM28.11,9.3h-8.27c-.25,0-.46-.21-.46-.46s.21-.46.46-.46h8.27c.25,0,.46.21.46.46s-.21.46-.46.46ZM12.35,7.81c-1.34,0-2.44-1.09-2.44-2.44s1.09-2.44,2.44-2.44,2.44,1.09,2.44,2.44-1.09,2.44-2.44,2.44ZM12.35,3.86c-.84,0-1.52.68-1.52,1.52s.68,1.52,1.52,1.52,1.52-.68,1.52-1.52-.68-1.52-1.52-1.52ZM28.11,5.2h-3.39c-.25,0-.46-.21-.46-.46s.21-.46.46-.46h3.39c.25,0,.46.21.46.46s-.21.46-.46.46ZM21.89,5.2h-2.05c-.25,0-.46-.21-.46-.46s.21-.46.46-.46h2.05c.25,0,.46.21.46.46s-.21.46-.46.46Z"/>
</svg>