<?xml version="1.0" encoding="UTF-8"?>
<svg id="Layer_1" data-name="Layer 1" xmlns="http://www.w3.org/2000/svg" xmlns:xlink="http://www.w3.org/1999/xlink" viewBox="0 0 36 34">
  <defs>
    <style>
      .cls-1 {
        fill: url(#linear-gradient);
        fill-rule: evenodd;
        stroke-width: 0px;
      }
    </style>
    <linearGradient id="linear-gradient" x1="1.26" y1="73" x2="34.74" y2="73" gradientTransform="translate(0 90) scale(1 -1)" gradientUnits="userSpaceOnUse">
      <stop offset="0" stop-color="#0049e7"/>
      <stop offset="1" stop-color="#c835f8"/>
    </linearGradient>
  </defs>
  <path class="cls-1" d="M18,22.25c0,.58-.47,1.05-1.05,1.05s-1.05-.47-1.05-1.05.47-1.05,1.05-1.05,1.05.47,1.05,1.05ZM31.9,18.88s0,0,0,0c-.2.07-.35.27-.35.49,0,.14.06.26.14.36l1.2,1.2c1.08,1.08,1.08,2.82,0,3.9-.25.25-.53.43-.83.56l-1.86.78c-.25.13-.42.39-.42.69,0,.1.02.19.05.28.01.04.02.07.03.09l.59,1.43c.77,1.87-.11,4.01-1.98,4.78-1.87.77-4.01-.11-4.78-1.98l-.56-1.34s0,0,0,0c-.14-.32-.47-.55-.84-.55-.12,0-.24.03-.35.07l-1.76.74h0c-.36.15-.76.23-1.17.23-1.71,0-3.1-1.39-3.1-3.1v-1.09c0-.58.47-1.05,1.05-1.05s1.05.47,1.05,1.05v1.05c0,.58.47,1.05,1.05,1.05.13,0,.25-.03.36-.07l1.74-.73s.03,0,.05-.02c1.5-.63,3.23.08,3.86,1.59,0,0,0,0,0,0l.57,1.37c.33.8,1.25,1.18,2.05.85.8-.33,1.18-1.25.85-2.05l-.61-1.48c-.6-1.43.06-3.08,1.46-3.72l1.9-.8s0,0,0,0c.07-.03.13-.06.18-.12.2-.2.2-.52,0-.72l-2.46-2.46c-.33-.33-.53-.79-.53-1.3,0-1.02.83-1.85,1.85-1.85h.24c1.16,0,2.09-.94,2.09-2.09V4.46c0-1.16-.94-2.09-2.09-2.09H5.45c-1.16,0-2.09.94-2.09,2.09v10.46c0,1.16.94,2.09,2.09,2.09h9.42c.58,0,1.05-.47,1.05-1.05v-4.89c0-1.63,1.32-2.95,2.95-2.95.82,0,1.56.33,2.09.87,0,0,0,0,.02.01l5.58,5.58c.21.2.34.48.34.8,0,.61-.5,1.11-1.11,1.11-.31,0-.6-.13-.8-.34l-5.71-5.71s0,0,0,0c-.13-.14-.32-.22-.53-.22-.41,0-.74.33-.74.74v5.54c0,1.44-1.17,2.62-2.62,2.62H5.45c-2.31,0-4.18-1.87-4.18-4.19V4.46C1.26,2.15,3.13.28,5.45.28h25.11c2.31,0,4.18,1.87,4.18,4.18v10.46c0,1.84-1.19,3.39-2.84,3.95Z"/>
</svg>