<?xml version="1.0" encoding="UTF-8"?>
<svg id="Layer_1" data-name="Layer 1" xmlns="http://www.w3.org/2000/svg" xmlns:xlink="http://www.w3.org/1999/xlink" viewBox="0 0 36 34">
  <defs>
    <style>
      .cls-1 {
        fill: url(#linear-gradient-12);
      }

      .cls-1, .cls-2, .cls-3, .cls-4, .cls-5, .cls-6, .cls-7, .cls-8, .cls-9, .cls-10, .cls-11, .cls-12, .cls-13, .cls-14, .cls-15, .cls-16, .cls-17, .cls-18, .cls-19, .cls-20, .cls-21, .cls-22, .cls-23, .cls-24, .cls-25, .cls-26, .cls-27 {
        stroke-width: 0px;
      }

      .cls-2 {
        fill: url(#linear-gradient-17);
      }

      .cls-3 {
        fill: url(#linear-gradient-19);
      }

      .cls-4 {
        fill: url(#linear-gradient);
      }

      .cls-5 {
        fill: url(#linear-gradient-21);
      }

      .cls-6 {
        fill: url(#linear-gradient-6);
      }

      .cls-7 {
        fill: url(#linear-gradient-15);
      }

      .cls-8 {
        fill: url(#linear-gradient-11);
      }

      .cls-9 {
        fill: url(#linear-gradient-5);
      }

      .cls-10 {
        fill: url(#linear-gradient-13);
      }

      .cls-11 {
        fill: url(#linear-gradient-23);
      }

      .cls-12 {
        fill: url(#linear-gradient-25);
      }

      .cls-13 {
        fill: url(#linear-gradient-16);
      }

      .cls-14 {
        fill: url(#linear-gradient-22);
      }

      .cls-15 {
        fill: url(#linear-gradient-20);
      }

      .cls-16 {
        fill: url(#linear-gradient-14);
      }

      .cls-17 {
        fill: url(#linear-gradient-2);
      }

      .cls-18 {
        fill: url(#linear-gradient-7);
      }

      .cls-19 {
        fill: url(#linear-gradient-3);
      }

      .cls-20 {
        fill: url(#linear-gradient-9);
      }

      .cls-21 {
        fill: url(#linear-gradient-27);
      }

      .cls-22 {
        fill: url(#linear-gradient-8);
      }

      .cls-23 {
        fill: url(#linear-gradient-24);
      }

      .cls-24 {
        fill: url(#linear-gradient-26);
      }

      .cls-25 {
        fill: url(#linear-gradient-18);
      }

      .cls-26 {
        fill: url(#linear-gradient-10);
      }

      .cls-27 {
        fill: url(#linear-gradient-4);
      }
    </style>
    <linearGradient id="linear-gradient" x1="1.07" y1="175.83" x2="34.93" y2="175.83" gradientTransform="translate(0 198) scale(1 -1)" gradientUnits="userSpaceOnUse">
      <stop offset="0" stop-color="#0049e7"/>
      <stop offset="1" stop-color="#c835f8"/>
    </linearGradient>
    <linearGradient id="linear-gradient-2" x1="1.07" y1="172.96" x2="34.93" y2="172.96" xlink:href="#linear-gradient"/>
    <linearGradient id="linear-gradient-3" x1="1.07" x2="34.93" xlink:href="#linear-gradient"/>
    <linearGradient id="linear-gradient-4" y1="172.96" x2="34.93" y2="172.96" xlink:href="#linear-gradient"/>
    <linearGradient id="linear-gradient-5" x1="1.07" x2="34.93" xlink:href="#linear-gradient"/>
    <linearGradient id="linear-gradient-6" x1="1.07" y1="172.96" x2="34.93" y2="172.96" xlink:href="#linear-gradient"/>
    <linearGradient id="linear-gradient-7" x1="1.07" x2="34.93" xlink:href="#linear-gradient"/>
    <linearGradient id="linear-gradient-8" x1="1.07" y1="172.96" x2="34.93" y2="172.96" xlink:href="#linear-gradient"/>
    <linearGradient id="linear-gradient-9" y1="185.59" x2="34.93" y2="185.59" xlink:href="#linear-gradient"/>
    <linearGradient id="linear-gradient-10" x1="1.07" y1="185.59" x2="34.93" y2="185.59" xlink:href="#linear-gradient"/>
    <linearGradient id="linear-gradient-11" x1="1.07" y1="185.59" x2="34.93" y2="185.59" xlink:href="#linear-gradient"/>
    <linearGradient id="linear-gradient-12" y1="195.35" x2="34.93" y2="195.35" xlink:href="#linear-gradient"/>
    <linearGradient id="linear-gradient-13" x1="1.07" y1="194.78" x2="34.93" y2="194.78" xlink:href="#linear-gradient"/>
    <linearGradient id="linear-gradient-14" x1="1.07" y1="195.35" x2="34.93" y2="195.35" xlink:href="#linear-gradient"/>
    <linearGradient id="linear-gradient-15" x1="1.07" y1="194.78" x2="34.93" y2="194.78" xlink:href="#linear-gradient"/>
    <linearGradient id="linear-gradient-16" x1="1.07" y1="195.35" x2="34.93" y2="195.35" xlink:href="#linear-gradient"/>
    <linearGradient id="linear-gradient-17" x1="1.07" y1="194.78" x2="34.93" y2="194.78" xlink:href="#linear-gradient"/>
    <linearGradient id="linear-gradient-18" x1="1.07" y1="181" x2="34.93" y2="181" xlink:href="#linear-gradient"/>
    <linearGradient id="linear-gradient-19" x1="1.07" y1="195.93" x2="34.93" y2="195.93" xlink:href="#linear-gradient"/>
    <linearGradient id="linear-gradient-20" x1="1.07" y1="196.21" x2="34.93" y2="196.21" xlink:href="#linear-gradient"/>
    <linearGradient id="linear-gradient-21" x1="1.07" y1="196.21" x2="34.93" y2="196.21" xlink:href="#linear-gradient"/>
    <linearGradient id="linear-gradient-22" x1="1.07" y1="196.21" x2="34.93" y2="196.21" xlink:href="#linear-gradient"/>
    <linearGradient id="linear-gradient-23" x1="1.07" y1="196.21" x2="34.93" y2="196.21" xlink:href="#linear-gradient"/>
    <linearGradient id="linear-gradient-24" x1="1.07" y1="194.2" x2="34.93" y2="194.2" xlink:href="#linear-gradient"/>
    <linearGradient id="linear-gradient-25" x1="1.07" y1="194.2" x2="34.94" y2="194.2" xlink:href="#linear-gradient"/>
    <linearGradient id="linear-gradient-26" x1="1.07" y1="194.2" x2="34.93" y2="194.2" xlink:href="#linear-gradient"/>
    <linearGradient id="linear-gradient-27" x1="1.07" y1="194.2" x2="34.93" y2="194.2" xlink:href="#linear-gradient"/>
  </defs>
  <path class="cls-4" d="M5.94,23.03h1.72c.23,0,.45-.09.61-.25.16-.16.25-.38.25-.61s-.09-.45-.25-.61c-.16-.16-.38-.25-.61-.25h-1.72c-.23,0-.45.09-.61.25-.16.16-.25.38-.25.61s.09.45.25.61c.16.16.38.25.61.25ZM5.94,21.88h1.72c.08,0,.15.03.2.08.05.05.08.13.08.2s-.03.15-.08.2c-.05.05-.13.08-.2.08h-1.72c-.08,0-.15-.03-.2-.08-.05-.05-.08-.13-.08-.2s.03-.15.08-.2c.05-.05.13-.08.2-.08Z"/>
  <path class="cls-17" d="M8.82,24.75H3.07c-.08,0-.15.03-.2.08-.05.05-.08.13-.08.2s.03.15.08.2c.05.05.13.08.2.08h5.74c.08,0,.15-.03.2-.08.05-.05.08-.13.08-.2s-.03-.15-.08-.2c-.05-.05-.13-.08-.2-.08Z"/>
  <path class="cls-19" d="M22.02,23.03h1.72c.23,0,.45-.09.61-.25.16-.16.25-.38.25-.61s-.09-.45-.25-.61c-.16-.16-.38-.25-.61-.25h-1.72c-.23,0-.45.09-.61.25-.16.16-.25.38-.25.61s.09.45.25.61c.16.16.38.25.61.25ZM22.02,21.88h1.72c.08,0,.15.03.2.08.05.05.08.13.08.2s-.03.15-.08.2c-.05.05-.13.08-.2.08h-1.72c-.08,0-.15-.03-.2-.08-.05-.05-.08-.13-.08-.2s.03-.15.08-.2c.05-.05.13-.08.2-.08Z"/>
  <path class="cls-27" d="M24.89,24.75h-5.74c-.08,0-.15.03-.2.08-.05.05-.08.13-.08.2s.03.15.08.2c.05.05.13.08.2.08h5.74c.08,0,.15-.03.2-.08.05-.05.08-.13.08-.2s-.03-.15-.08-.2c-.05-.05-.13-.08-.2-.08Z"/>
  <path class="cls-9" d="M12.26,23.03h1.72c.23,0,.45-.09.61-.25.16-.16.25-.38.25-.61s-.09-.45-.25-.61c-.16-.16-.38-.25-.61-.25h-1.72c-.23,0-.45.09-.61.25-.16.16-.25.38-.25.61s.09.45.25.61c.16.16.38.25.61.25ZM12.26,21.88h1.72c.08,0,.15.03.2.08.05.05.08.13.08.2s-.03.15-.08.2c-.05.05-.13.08-.2.08h-1.72c-.08,0-.15-.03-.2-.08-.05-.05-.08-.13-.08-.2s.03-.15.08-.2c.05-.05.13-.08.2-.08Z"/>
  <path class="cls-6" d="M16.85,24.75h-5.74c-.08,0-.15.03-.2.08-.05.05-.08.13-.08.2s.03.15.08.2c.05.05.13.08.2.08h5.74c.08,0,.15-.03.2-.08.05-.05.08-.13.08-.2s-.03-.15-.08-.2c-.05-.05-.13-.08-.2-.08Z"/>
  <path class="cls-18" d="M28.33,23.03h1.72c.23,0,.45-.09.61-.25.16-.16.25-.38.25-.61s-.09-.45-.25-.61c-.16-.16-.38-.25-.61-.25h-1.72c-.23,0-.45.09-.61.25-.16.16-.25.38-.25.61s.09.45.25.61c.16.16.38.25.61.25ZM28.33,21.88h1.72c.08,0,.15.03.2.08.05.05.08.13.08.2s-.03.15-.08.2c-.05.05-.13.08-.2.08h-1.72c-.08,0-.15-.03-.2-.08-.05-.05-.08-.13-.08-.2s.03-.15.08-.2c.05-.05.13-.08.2-.08Z"/>
  <path class="cls-22" d="M27.18,24.75c-.08,0-.15.03-.2.08-.05.05-.08.13-.08.2s.03.15.08.2.13.08.2.08h5.74c.08,0,.15-.03.2-.08.05-.05.08-.13.08-.2s-.03-.15-.08-.2c-.05-.05-.13-.08-.2-.08h-5.74Z"/>
  <path class="cls-20" d="M6.52,11.55c-.17,0-.34.05-.48.15-.14.09-.25.23-.32.39s-.08.33-.05.5c.03.17.12.32.24.44.12.12.27.2.44.24s.34.02.5-.05c.16-.07.29-.18.39-.32.09-.14.15-.31.15-.48,0-.23-.09-.45-.25-.61s-.38-.25-.61-.25ZM6.52,12.69c-.06,0-.11-.02-.16-.05-.05-.03-.08-.08-.11-.13-.02-.05-.03-.11-.02-.17.01-.06.04-.11.08-.15.04-.04.09-.07.15-.08.06-.01.11,0,.17.02s.1.06.13.11c.03.05.05.1.05.16,0,.08-.03.15-.08.2-.05.05-.13.08-.2.08Z"/>
  <path class="cls-26" d="M13.41,11.55c-.17,0-.34.05-.48.15-.14.09-.25.23-.32.39s-.08.33-.05.5c.03.17.12.32.24.44s.27.2.44.24.34.02.5-.05c.16-.07.29-.18.39-.32.09-.14.15-.31.15-.48,0-.23-.09-.45-.25-.61-.16-.16-.38-.25-.61-.25ZM13.41,12.69c-.06,0-.11-.02-.16-.05-.05-.03-.08-.08-.11-.13s-.03-.11-.02-.17c.01-.06.04-.11.08-.15.04-.04.09-.07.15-.08.06-.01.11,0,.17.02s.1.06.13.11c.03.05.05.1.05.16,0,.08-.03.15-.08.2-.05.05-.13.08-.2.08Z"/>
  <path class="cls-8" d="M20.3,11.55c-.17,0-.34.05-.48.15-.14.09-.25.23-.32.39-.07.16-.08.33-.05.5.03.17.12.32.24.44.12.12.27.2.44.24.17.03.34.02.5-.05.16-.07.29-.18.39-.32.09-.14.15-.31.15-.48,0-.23-.09-.45-.25-.61-.16-.16-.38-.25-.61-.25ZM20.3,12.69c-.06,0-.11-.02-.16-.05-.05-.03-.08-.08-.11-.13s-.03-.11-.02-.17c.01-.06.04-.11.08-.15.04-.04.09-.07.15-.08.06-.01.11,0,.17.02s.1.06.13.11c.03.05.05.1.05.16,0,.08-.03.15-.08.2-.05.05-.13.08-.2.08Z"/>
  <path class="cls-1" d="M7.67,3.51c.17,0,.34-.05.48-.15.14-.09.25-.23.32-.39.07-.16.08-.33.05-.5-.03-.17-.12-.32-.24-.44-.12-.12-.27-.2-.44-.24-.17-.03-.34-.02-.5.05-.16.07-.29.18-.39.32-.09.14-.15.31-.15.48,0,.23.09.45.25.61.16.16.38.25.61.25ZM7.67,2.36c.06,0,.11.02.16.05.05.03.08.08.11.13.02.05.03.11.02.17-.01.06-.04.11-.08.15-.04.04-.09.07-.15.08-.06.01-.11,0-.17-.02-.05-.02-.1-.06-.13-.11-.03-.05-.05-.1-.05-.16,0-.08.03-.15.08-.2.05-.05.13-.08.2-.08Z"/>
  <path class="cls-10" d="M4.22,4.08h1.72c.08,0,.15-.03.2-.08.05-.05.08-.13.08-.2v-1.15c0-.08-.03-.15-.08-.2-.05-.05-.13-.08-.2-.08s-.15.03-.2.08c-.05.05-.08.13-.08.2v.86h-1.15v-.86c0-.08-.03-.15-.08-.2-.05-.05-.13-.08-.2-.08s-.15.03-.2.08c-.05.05-.08.13-.08.2v1.15c0,.08.03.15.08.2.05.05.13.08.2.08Z"/>
  <path class="cls-16" d="M15.7,3.51c.17,0,.34-.05.48-.15.14-.09.25-.23.32-.39.07-.16.08-.33.05-.5s-.12-.32-.24-.44c-.12-.12-.27-.2-.44-.24-.17-.03-.34-.02-.5.05-.16.07-.29.18-.39.32-.09.14-.15.31-.15.48,0,.23.09.45.25.61.16.16.38.25.61.25ZM15.7,2.36c.06,0,.11.02.16.05.05.03.08.08.11.13.02.05.03.11.02.17-.01.06-.04.11-.08.15-.04.04-.09.07-.15.08-.06.01-.11,0-.17-.02-.05-.02-.1-.06-.13-.11-.03-.05-.05-.1-.05-.16,0-.08.03-.15.08-.2.05-.05.13-.08.2-.08Z"/>
  <path class="cls-7" d="M12.26,4.08h1.72c.08,0,.15-.03.2-.08.05-.05.08-.13.08-.2v-1.15c0-.08-.03-.15-.08-.2-.05-.05-.13-.08-.2-.08s-.15.03-.2.08c-.05.05-.08.13-.08.2v.86h-1.15v-.86c0-.08-.03-.15-.08-.2-.05-.05-.13-.08-.2-.08s-.15.03-.2.08c-.05.05-.08.13-.08.2v1.15c0,.08.03.15.08.2.05.05.13.08.2.08Z"/>
  <path class="cls-13" d="M23.74,3.51c.17,0,.34-.05.48-.15.14-.09.25-.23.32-.39.07-.16.08-.33.05-.5-.03-.17-.12-.32-.24-.44-.12-.12-.27-.2-.44-.24-.17-.03-.34-.02-.5.05-.16.07-.29.18-.39.32-.09.14-.15.31-.15.48,0,.23.09.45.25.61.16.16.38.25.61.25ZM23.74,2.36c.06,0,.11.02.16.05.05.03.08.08.11.13.02.05.03.11.02.17-.01.06-.04.11-.08.15-.04.04-.09.07-.15.08-.06.01-.11,0-.17-.02-.05-.02-.1-.06-.13-.11-.03-.05-.05-.1-.05-.16,0-.08.03-.15.08-.2.05-.05.13-.08.2-.08Z"/>
  <path class="cls-2" d="M20.3,4.08h1.72c.08,0,.15-.03.2-.08.05-.05.08-.13.08-.2v-1.15c0-.08-.03-.15-.08-.2-.05-.05-.13-.08-.2-.08s-.15.03-.2.08c-.05.05-.08.13-.08.2v.86h-1.15v-.86c0-.08-.03-.15-.08-.2-.05-.05-.13-.08-.2-.08s-.15.03-.2.08c-.05.05-.08.13-.08.2v1.15c0,.08.03.15.08.2.05.05.13.08.2.08Z"/>
  <path class="cls-25" d="M34.12.07h-8.12c-.19,0-.38.07-.53.2-.15-.13-.34-.2-.53-.2h-6.97c-.19,0-.38.07-.53.2-.15-.13-.34-.2-.53-.2h-6.97c-.19,0-.38.07-.53.2-.15-.13-.34-.2-.53-.2H1.88c-.22,0-.42.09-.58.24-.15.15-.24.36-.24.58v17.26c0,.08.03.15.08.2.05.05.13.08.2.08h.29v14.68c0,.22.09.42.24.58.15.15.36.24.58.24h31.09c.22,0,.42-.09.58-.24s.24-.36.24-.58v-14.68h.29c.08,0,.15-.03.2-.08.05-.05.08-.13.08-.2V.88c0-.22-.09-.42-.24-.58-.15-.15-.36-.24-.58-.24ZM25.75.88c0-.06.03-.13.07-.17.05-.05.11-.07.17-.07h8.12c.06,0,.13.03.17.07.05.05.07.11.07.17v4.35h-8.61V.88ZM34.36,11.55h-.57v-1.15h.57v1.15ZM34.36,9.82h-.86c-.08,0-.15.03-.2.08-.05.05-.08.13-.08.2v1.72c0,.08.03.15.08.2.05.05.13.08.2.08h.86v4.02h-1.72V5.81h1.72v4.02ZM16.56,8.68h5.17v7.46h-5.17v-7.46ZM21.73,8.1h-5.17v-1.15h5.17v1.15ZM22.31,6.67c0-.08-.03-.15-.08-.2-.05-.05-.13-.08-.2-.08h-5.74c-.08,0-.15.03-.2.08s-.08.13-.08.2v9.47h-.57V6.67c0-.08-.03-.15-.08-.2-.05-.05-.13-.08-.2-.08h-5.74c-.08,0-.15.03-.2.08-.05.05-.08.13-.08.2v9.47h-.57V6.67c0-.08-.03-.15-.08-.2-.05-.05-.13-.08-.2-.08H2.5c-.08,0-.15.03-.2.08-.05.05-.08.13-.08.2v9.47h-.57V5.81h21.24v10.33h-.57V6.67ZM9.68,8.68h5.17v7.46h-5.17v-7.46ZM14.84,8.1h-5.17v-1.15h5.17v1.15ZM2.79,8.68h5.17v7.46H2.79v-7.46ZM7.95,8.1H2.79v-1.15h5.17v1.15ZM23.45,5.81h4.02v5.74h-1.15v-.29c0-.08-.03-.15-.08-.2-.05-.05-.13-.08-.2-.08h-.29v-.57h.29c.08,0,.15-.03.2-.08.05-.05.08-.13.08-.2v-1.15c0-.08-.03-.15-.08-.2-.05-.05-.13-.08-.2-.08h-1.15c-.08,0-.15.03-.2.08-.05.05-.08.13-.08.2v1.15c0,.08.03.15.08.2.05.05.13.08.2.08h.29v.57h-.29c-.08,0-.15.03-.2.08-.05.05-.08.13-.08.2v.29h-1.15v-5.74ZM32.06,11.55h-1.15v-.29c0-.08-.03-.15-.08-.2-.05-.05-.13-.08-.2-.08h-.29v-.57h.29c.08,0,.15-.03.2-.08.05-.05.08-.13.08-.2v-1.15c0-.08-.03-.15-.08-.2-.05-.05-.13-.08-.2-.08h-1.15c-.08,0-.15.03-.2.08-.05.05-.08.13-.08.2v1.15c0,.08.03.15.08.2.05.05.13.08.2.08h.29v.57h-.29c-.08,0-.15.03-.2.08-.05.05-.08.13-.08.2v.29h-1.15v-5.74h4.02v5.74ZM30.34,11.55v1.15h-.57v-1.15h.57ZM29.77,9.82v-.57h.57v.57h-.57ZM25.75,11.55v1.15h-.57v-1.15h.57ZM25.18,9.82v-.57h.57v.57h-.57ZM23.45,12.12h1.15v.86c0,.08.03.15.08.2s.13.08.2.08h1.15c.08,0,.15-.03.2-.08.05-.05.08-.13.08-.2v-.86h2.87v.86c0,.08.03.15.08.2s.13.08.2.08h1.15c.08,0,.15-.03.2-.08.05-.05.08-.13.08-.2v-.86h1.15v4.02h-8.61v-4.02ZM17.96.64h6.97c.06,0,.13.03.17.07.05.05.07.11.07.17v4.35h-7.46V.88c0-.06.03-.13.07-.17.05-.05.11-.07.17-.07ZM9.92.64h6.97c.06,0,.13.03.17.07.05.05.07.11.07.17v4.35h-7.46V.88c0-.06.03-.13.07-.17.05-.05.11-.07.17-.07ZM1.88.64h6.97c.06,0,.13.03.17.07.05.05.07.11.07.17v4.35H1.64V.88c0-.06.03-.13.07-.17.05-.05.11-.07.17-.07ZM2.21,33.12v-14.68h1.72v.86c0,.23.09.45.25.61.16.16.38.25.61.25s.45-.09.61-.25c.16-.16.25-.38.25-.61v-.86h.57v.86c0,.23.09.45.25.61.16.16.38.25.61.25s.45-.09.61-.25c.16-.16.25-.38.25-.61v-.86h1.72v14.93H2.46c-.06,0-.13-.03-.17-.07-.05-.05-.07-.11-.07-.17ZM4.51,19.3v-1.15c0-.08.03-.15.08-.2.05-.05.13-.08.2-.08s.15.03.2.08c.05.05.08.13.08.2v1.15c0,.08-.03.15-.08.2-.05.05-.13.08-.2.08s-.15-.03-.2-.08c-.05-.05-.08-.13-.08-.2ZM6.81,19.3v-1.15c0-.08.03-.15.08-.2.05-.05.13-.08.2-.08s.15.03.2.08c.05.05.08.13.08.2v1.15c0,.08-.03.15-.08.2-.05.05-.13.08-.2.08s-.15-.03-.2-.08c-.05-.05-.08-.13-.08-.2ZM10.25,18.44h1.72v.86c0,.23.09.45.25.61.16.16.38.25.61.25s.45-.09.61-.25c.16-.16.25-.38.25-.61v-.86h.57v.86c0,.23.09.45.25.61.16.16.38.25.61.25s.45-.09.61-.25c.16-.16.25-.38.25-.61v-.86h1.72v14.93h-7.46v-14.93ZM12.55,19.3v-1.15c0-.08.03-.15.08-.2.05-.05.13-.08.2-.08s.15.03.2.08c.05.05.08.13.08.2v1.15c0,.08-.03.15-.08.2-.05.05-.13.08-.2.08s-.15-.03-.2-.08-.08-.13-.08-.2ZM14.84,19.3v-1.15c0-.08.03-.15.08-.2.05-.05.13-.08.2-.08s.15.03.2.08c.05.05.08.13.08.2v1.15c0,.08-.03.15-.08.2-.05.05-.13.08-.2.08s-.15-.03-.2-.08-.08-.13-.08-.2ZM18.29,18.44h1.72v.86c0,.23.09.45.25.61.16.16.38.25.61.25s.45-.09.61-.25c.16-.16.25-.38.25-.61v-.86h.57v.86c0,.23.09.45.25.61.16.16.38.25.61.25s.45-.09.61-.25c.16-.16.25-.38.25-.61v-.86h1.72v14.93h-7.46v-14.93ZM20.58,19.3v-1.15c0-.08.03-.15.08-.2.05-.05.13-.08.2-.08s.15.03.2.08c.05.05.08.13.08.2v1.15c0,.08-.03.15-.08.2s-.13.08-.2.08-.15-.03-.2-.08c-.05-.05-.08-.13-.08-.2ZM22.88,19.3v-1.15c0-.08.03-.15.08-.2.05-.05.13-.08.2-.08s.15.03.2.08c.05.05.08.13.08.2v1.15c0,.08-.03.15-.08.2s-.13.08-.2.08-.15-.03-.2-.08c-.05-.05-.08-.13-.08-.2ZM33.79,33.12c0,.06-.03.13-.07.17-.05.05-.11.07-.17.07h-7.22v-14.93h1.72v.86c0,.23.09.45.25.61.16.16.38.25.61.25s.45-.09.61-.25c.16-.16.25-.38.25-.61v-.86h.57v.86c0,.23.09.45.25.61.16.16.38.25.61.25s.45-.09.61-.25c.16-.16.25-.38.25-.61v-.86h1.72v14.68ZM28.62,19.3v-1.15c0-.08.03-.15.08-.2.05-.05.13-.08.2-.08s.15.03.2.08.08.13.08.2v1.15c0,.08-.03.15-.08.2-.05.05-.13.08-.2.08s-.15-.03-.2-.08-.08-.13-.08-.2ZM30.92,19.3v-1.15c0-.08.03-.15.08-.2.05-.05.13-.08.2-.08s.15.03.2.08.08.13.08.2v1.15c0,.08-.03.15-.08.2-.05.05-.13.08-.2.08s-.15-.03-.2-.08-.08-.13-.08-.2ZM34.36,17.86h-2.35c-.06-.17-.17-.31-.31-.42-.15-.1-.32-.16-.5-.16s-.35.06-.5.16c-.15.1-.25.25-.31.42h-.67c-.06-.17-.17-.31-.31-.42-.15-.1-.32-.16-.5-.16s-.35.06-.5.16c-.15.1-.25.25-.31.42h-4.12c-.06-.17-.17-.31-.31-.42-.15-.1-.32-.16-.5-.16s-.35.06-.5.16c-.15.1-.25.25-.31.42h-.67c-.06-.17-.17-.31-.31-.42-.15-.1-.32-.16-.5-.16s-.35.06-.5.16c-.15.1-.25.25-.31.42h-4.12c-.06-.17-.17-.31-.31-.42-.15-.1-.32-.16-.5-.16s-.35.06-.5.16c-.15.1-.26.25-.31.42h-.67c-.06-.17-.17-.31-.31-.42-.15-.1-.32-.16-.5-.16s-.35.06-.5.16c-.15.1-.26.25-.31.42h-4.12c-.06-.17-.17-.31-.31-.42-.15-.1-.32-.16-.5-.16s-.35.06-.5.16c-.15.1-.25.25-.31.42h-.67c-.06-.17-.17-.31-.31-.42-.15-.1-.32-.16-.5-.16s-.35.06-.5.16c-.15.1-.25.25-.31.42H1.64v-1.15h32.72v1.15Z"/>
  <path class="cls-3" d="M32.35,2.94c.17,0,.34-.05.48-.15.14-.09.25-.23.32-.39.07-.16.08-.33.05-.5-.03-.17-.12-.32-.24-.44-.12-.12-.27-.2-.44-.24-.17-.03-.34-.02-.5.05-.16.07-.29.18-.39.32-.09.14-.15.31-.15.48,0,.23.09.45.25.61.16.16.38.25.61.25ZM32.35,1.79c.06,0,.11.02.16.05.05.03.08.08.11.13.02.05.03.11.02.17-.01.06-.04.11-.08.15-.04.04-.09.07-.15.08-.06.01-.11,0-.17-.02-.05-.02-.1-.06-.13-.11-.03-.05-.05-.1-.05-.16,0-.08.03-.15.08-.2.05-.05.13-.08.2-.08Z"/>
  <path class="cls-15" d="M26.9,2.07c.16,0,.29-.13.29-.29s-.13-.29-.29-.29-.29.13-.29.29.13.29.29.29Z"/>
  <path class="cls-5" d="M28.05,2.07c.16,0,.29-.13.29-.29s-.13-.29-.29-.29-.29.13-.29.29.13.29.29.29Z"/>
  <path class="cls-14" d="M29.19,2.07c.16,0,.29-.13.29-.29s-.13-.29-.29-.29-.29.13-.29.29.13.29.29.29Z"/>
  <path class="cls-11" d="M30.34,2.07c.16,0,.29-.13.29-.29s-.13-.29-.29-.29-.29.13-.29.29.13.29.29.29Z"/>
  <path class="cls-23" d="M31.78,4.08c.16,0,.29-.13.29-.29s-.13-.29-.29-.29-.29.13-.29.29.13.29.29.29Z"/>
  <path class="cls-12" d="M32.93,4.08c.16,0,.29-.13.29-.29s-.13-.29-.29-.29-.29.13-.29.29.13.29.29.29Z"/>
  <path class="cls-24" d="M26.61,4.66h1.15c.08,0,.15-.03.2-.08.05-.05.08-.13.08-.2v-1.15c0-.08-.03-.15-.08-.2-.05-.05-.13-.08-.2-.08h-1.15c-.08,0-.15.03-.2.08-.05.05-.08.13-.08.2v1.15c0,.08.03.15.08.2.05.05.13.08.2.08ZM26.9,3.51h.57v.57h-.57v-.57Z"/>
  <path class="cls-21" d="M28.91,4.66h1.15c.08,0,.15-.03.2-.08.05-.05.08-.13.08-.2v-1.15c0-.08-.03-.15-.08-.2-.05-.05-.13-.08-.2-.08h-1.15c-.08,0-.15.03-.2.08-.05.05-.08.13-.08.2v1.15c0,.08.03.15.08.2.05.05.13.08.2.08ZM29.19,3.51h.57v.57h-.57v-.57Z"/>
</svg>