<?xml version="1.0" encoding="UTF-8"?>
<svg id="Layer_1" data-name="Layer 1" xmlns="http://www.w3.org/2000/svg" xmlns:xlink="http://www.w3.org/1999/xlink" viewBox="0 0 36 34">
  <defs>
    <style>
      .cls-1 {
        fill: url(#linear-gradient);
      }

      .cls-1, .cls-2, .cls-3 {
        stroke-width: 0px;
      }

      .cls-2 {
        fill: url(#linear-gradient-2);
      }

      .cls-3 {
        fill: url(#linear-gradient-3);
      }
    </style>
    <linearGradient id="linear-gradient" x1="-6.85" y1="1.11" x2="31.55" y2="25.67" gradientUnits="userSpaceOnUse">
      <stop offset="0" stop-color="#0049e7"/>
      <stop offset=".11" stop-color="#0648e7"/>
      <stop offset=".26" stop-color="#1647e9"/>
      <stop offset=".46" stop-color="#3144eb"/>
      <stop offset=".66" stop-color="#5740ee"/>
      <stop offset=".79" stop-color="#883bf3"/>
      <stop offset=".98" stop-color="#c236f7"/>
      <stop offset="1" stop-color="#c835f8"/>
    </linearGradient>
    <linearGradient id="linear-gradient-2" x1="-9.98" y1="6.01" x2="28.41" y2="30.57" xlink:href="#linear-gradient"/>
    <linearGradient id="linear-gradient-3" x1="-4.08" y1="-3.21" x2="34.31" y2="21.35" xlink:href="#linear-gradient"/>
  </defs>
  <path class="cls-1" d="M32.9,2.1H3.1C1.46,2.1.12,3.44.12,5.08v23.84c0,1.64,1.33,2.98,2.98,2.98h29.79c1.64,0,2.98-1.33,2.98-2.98V5.08c0-1.64-1.33-2.98-2.98-2.98ZM1.32,5.08c0-.98.8-1.79,1.79-1.79h29.79c.98,0,1.79.8,1.79,1.79v18.47H1.32V5.08ZM32.3,28.32h-6.66c-.24.69-.91,1.19-1.68,1.19s-1.44-.5-1.68-1.19H3.7c-.33,0-.6-.27-.6-.6s.27-.6.6-.6h18.58c.24-.69.91-1.19,1.68-1.19s1.44.5,1.68,1.19h6.66c.33,0,.6.27.6.6s-.27.6-.6.6Z"/>
  <circle class="cls-2" cx="23.96" cy="27.73" r=".6"/>
  <path class="cls-3" d="M28.13,6.87c-1.44,0-2.65,1.02-2.92,2.38h-.66c-4.43,0-8.2,2.85-9.58,6.82-1.32-3.3-4.54-5.63-8.3-5.63-.33,0-.6.27-.6.6s.27.6.6.6c4.27,0,7.75,3.47,7.75,7.75,0,.33.27.6.6.6s.6-.27.6-.6c0-4.93,4.01-8.94,8.94-8.94h.66c.27,1.36,1.48,2.38,2.92,2.38,1.64,0,2.98-1.33,2.98-2.98s-1.33-2.98-2.98-2.98Z"/>
</svg>