<?xml version="1.0" encoding="UTF-8"?>
<svg id="Layer_1" data-name="Layer 1" xmlns="http://www.w3.org/2000/svg" xmlns:xlink="http://www.w3.org/1999/xlink" viewBox="0 0 36 34">
  <defs>
    <style>
      .cls-1 {
        fill: url(#linear-gradient);
      }

      .cls-1, .cls-2, .cls-3, .cls-4, .cls-5, .cls-6, .cls-7 {
        stroke-width: 0px;
      }

      .cls-2 {
        fill: url(#linear-gradient-6);
      }

      .cls-3 {
        fill: url(#linear-gradient-5);
      }

      .cls-4 {
        fill: url(#linear-gradient-2);
      }

      .cls-5 {
        fill: url(#linear-gradient-7);
      }

      .cls-6 {
        fill: url(#linear-gradient-3);
      }

      .cls-7 {
        fill: url(#linear-gradient-4);
      }
    </style>
    <linearGradient id="linear-gradient" x1="1.99" y1="75.21" x2="34.01" y2="75.21" gradientTransform="translate(0 90) scale(1 -1)" gradientUnits="userSpaceOnUse">
      <stop offset="0" stop-color="#0049e7"/>
      <stop offset="1" stop-color="#c835f8"/>
    </linearGradient>
    <linearGradient id="linear-gradient-2" x1="1.99" y1="73.7" x2="34.01" y2="73.7" xlink:href="#linear-gradient"/>
    <linearGradient id="linear-gradient-3" x1="1.99" y1="72.51" x2="34.01" y2="72.51" xlink:href="#linear-gradient"/>
    <linearGradient id="linear-gradient-4" x1="1.99" y1="71.87" x2="34.01" y2="71.87" xlink:href="#linear-gradient"/>
    <linearGradient id="linear-gradient-5" x1="1.99" y1="72.56" x2="34.01" y2="72.56" xlink:href="#linear-gradient"/>
    <linearGradient id="linear-gradient-6" x1="1.99" y1="68.81" x2="34.01" y2="68.81" xlink:href="#linear-gradient"/>
    <linearGradient id="linear-gradient-7" x1="1.99" y1="73" x2="34.01" y2="73" xlink:href="#linear-gradient"/>
  </defs>
  <path class="cls-1" d="M26.08,16.07c.25-.03.49-.03.7,0,.13-.29.15-.79.03-1.33-.17-.81-.4-1.3-.87-1.22-.47.08-.49.66-.32,1.47.1.45.26.84.45,1.08Z"/>
  <path class="cls-4" d="M22.02,16.71c.34.15.55.25.63.16.05-.05.04-.16-.04-.29-.17-.27-.51-.55-.87-.7-.74-.32-1.63-.21-2.32.28-.23.17-.44.4-.41.53,0,.05.04.08.12.09.19.02.84-.31,1.59-.35.53-.03.97.13,1.31.28Z"/>
  <path class="cls-6" d="M21.34,17.1c-.44.07-.68.21-.84.35-.13.12-.22.24-.21.34,0,.04.02.07.03.08.02.02.04.03.07.03.1,0,.32-.09.32-.09.61-.22,1.02-.19,1.42-.15.22.02.33.04.37-.04.01-.02.03-.07-.01-.14-.1-.17-.55-.45-1.15-.38Z"/>
  <path class="cls-7" d="M24.71,18.52c.3.15.63.09.74-.13.11-.22-.05-.51-.35-.66-.3-.15-.63-.09-.74.13-.11.22.05.51.35.66Z"/>
  <path class="cls-3" d="M26.63,16.84c-.24,0-.44.26-.45.6,0,.33.19.61.43.61.24,0,.44-.26.45-.6,0-.33-.19-.61-.43-.61Z"/>
  <path class="cls-2" d="M10.31,22.85c-.06-.08-.16-.05-.26-.03-.07.02-.14.03-.23.03-.18,0-.33-.08-.41-.21-.11-.17-.1-.42.02-.71.02-.04.04-.08.06-.13.19-.44.52-1.17.15-1.87-.28-.52-.72-.85-1.27-.92-.52-.07-1.05.13-1.39.5-.54.59-.62,1.4-.52,1.68.04.1.1.13.14.14.09.01.23-.05.31-.28,0-.02.01-.04.02-.07.04-.12.11-.34.22-.52.14-.22.35-.37.61-.42.26-.06.52,0,.74.14.38.25.52.71.36,1.15-.08.23-.22.66-.19,1.02.06.72.51,1.01.91,1.05.39.01.66-.2.73-.36.04-.09,0-.15-.02-.18Z"/>
  <path class="cls-5" d="M32.76,21.52c-.01-.05-.11-.4-.24-.83-.13-.42-.27-.72-.27-.72.53-.8.54-1.51.47-1.91-.08-.5-.28-.93-.7-1.37-.42-.44-1.28-.89-2.48-1.23-.14-.04-.59-.16-.63-.18,0-.03-.03-1.49-.06-2.12-.02-.45-.06-1.16-.28-1.86-.26-.95-.72-1.77-1.29-2.3,1.57-1.63,2.56-3.43,2.56-4.97,0-2.97-3.65-3.86-8.14-2,0,0-.94.4-.95.4,0,0-1.72-1.69-1.75-1.71C13.87-3.74-2.13,14.04,2.99,18.36l1.12.95c-.29.75-.4,1.61-.31,2.54.12,1.19.73,2.33,1.73,3.21.94.84,2.18,1.37,3.39,1.36,1.99,4.59,6.54,7.4,11.87,7.56,5.72.17,10.53-2.51,12.54-7.34.13-.34.69-1.86.69-3.21,0-1.35-.77-1.91-1.25-1.91ZM9.35,25.13c-.17.03-.35.04-.53.04-1.73-.05-3.59-1.6-3.78-3.45-.21-2.04.84-3.61,2.68-3.98.22-.04.49-.07.77-.06,1.03.06,2.56.85,2.91,3.1.31,1.99-.18,4.03-2.05,4.34ZM7.42,16.52c-1.15.22-2.16.87-2.78,1.77-.37-.31-1.06-.91-1.18-1.14-.99-1.88,1.08-5.53,2.52-7.59C9.55,4.48,15.14.63,17.72,1.32c.42.12,1.81,1.73,1.81,1.73,0,0-2.59,1.43-4.98,3.44-3.23,2.49-5.67,6.1-7.13,10.03ZM14.01,9.55c1.27-1.47,2.83-2.74,4.23-3.46.05-.02.1.03.07.08-.11.2-.32.63-.39.96-.01.05.04.09.09.06.87-.59,2.38-1.23,3.71-1.31.06,0,.08.07.04.1-.2.15-.42.37-.58.59-.03.04,0,.09.04.09.93,0,2.25.33,3.1.81.06.03.02.14-.05.13-1.3-.3-3.42-.52-5.62.02-1.97.48-3.47,1.22-4.57,2.02-.06.04-.12-.03-.08-.08ZM32.82,23.89c-.25,1.51-.89,2.73-1.96,3.85-.65.7-1.45,1.32-2.36,1.76-.48.25-1,.47-1.54.65-4.05,1.32-8.2-.13-9.54-3.26-.11-.24-.2-.48-.27-.74-.57-2.06-.09-4.53,1.43-6.09h0c.09-.1.19-.22.19-.36,0-.12-.08-.25-.15-.34-.53-.77-2.36-2.08-1.99-4.61.26-1.82,1.85-3.1,3.34-3.02.13,0,.25.01.38.02.64.04,1.2.12,1.73.14.89.04,1.68-.09,2.62-.88.32-.27.57-.49,1-.57.05,0,.16-.05.38-.04.23.01.45.08.65.21.76.5.86,1.72.9,2.61.02.51.08,1.74.1,2.09.05.81.26.92.69,1.06.24.08.47.14.8.23,1,.28,1.59.57,1.97.93.22.23.33.47.36.7.12.86-.67,1.92-2.75,2.89-2.28,1.06-5.04,1.32-6.94,1.11-.15-.02-.67-.08-.67-.08-1.53-.21-2.4,1.77-1.48,3.12.59.87,2.2,1.44,3.81,1.44,3.69,0,6.52-1.57,7.58-2.93.03-.04.03-.05.08-.12.05-.08,0-.12-.06-.08-.86.59-4.69,2.93-8.78,2.23,0,0-.5-.08-.95-.26-.36-.14-1.12-.49-1.21-1.26,3.3,1.02,5.38.06,5.38.06.04-.02.06-.06.06-.1,0-.05-.05-.09-.1-.09,0,0-2.71.4-5.26-.54.28-.91,1.02-.58,2.14-.49,2.02.12,3.83-.17,5.16-.56,1.16-.33,2.68-.99,3.86-1.92.4.88.54,1.84.54,1.84,0,0,.31-.06.57.1.24.15.42.46.3,1.27Z"/>
</svg>