<?xml version="1.0" encoding="UTF-8"?>
<svg id="Layer_1" data-name="Layer 1" xmlns="http://www.w3.org/2000/svg" xmlns:xlink="http://www.w3.org/1999/xlink" viewBox="0 0 36 34">
  <defs>
    <style>
      .cls-1 {
        fill: url(#linear-gradient);
      }

      .cls-1, .cls-2, .cls-3, .cls-4, .cls-5, .cls-6, .cls-7 {
        stroke-width: 0px;
      }

      .cls-2 {
        fill: url(#linear-gradient-6);
      }

      .cls-3 {
        fill: url(#linear-gradient-5);
      }

      .cls-4 {
        fill: url(#linear-gradient-2);
      }

      .cls-5 {
        fill: url(#linear-gradient-7);
      }

      .cls-6 {
        fill: url(#linear-gradient-3);
      }

      .cls-7 {
        fill: url(#linear-gradient-4);
      }
    </style>
    <linearGradient id="linear-gradient" x1="5.13" y1="-8.98" x2="32.94" y2="17.65" gradientUnits="userSpaceOnUse">
      <stop offset="0" stop-color="#0049e7"/>
      <stop offset=".11" stop-color="#0648e7"/>
      <stop offset=".26" stop-color="#1647e9"/>
      <stop offset=".46" stop-color="#3144eb"/>
      <stop offset=".66" stop-color="#5740ee"/>
      <stop offset=".79" stop-color="#883bf3"/>
      <stop offset=".98" stop-color="#c236f7"/>
      <stop offset="1" stop-color="#c835f8"/>
    </linearGradient>
    <linearGradient id="linear-gradient-2" x1="6.32" y1="-10.22" x2="34.13" y2="16.41" xlink:href="#linear-gradient"/>
    <linearGradient id="linear-gradient-3" x1="1.79" y1="-5.49" x2="29.6" y2="21.15" xlink:href="#linear-gradient"/>
    <linearGradient id="linear-gradient-4" x1="-2.75" y1="-.75" x2="25.06" y2="25.88" xlink:href="#linear-gradient"/>
    <linearGradient id="linear-gradient-5" x1="-4.53" y1="1.11" x2="23.28" y2="27.75" xlink:href="#linear-gradient"/>
    <linearGradient id="linear-gradient-6" x1="-12.19" y1="9.11" x2="15.62" y2="35.74" xlink:href="#linear-gradient"/>
    <linearGradient id="linear-gradient-7" x1="-12.67" y1="9.61" x2="15.14" y2="36.24" xlink:href="#linear-gradient"/>
  </defs>
  <path class="cls-1" d="M33.72.08H2.36c-.46,0-.83.37-.83.83v4.95c0,.46.37.83.83.83h31.36c.46,0,.83-.37.83-.83V.91c0-.46-.37-.83-.83-.83Z"/>
  <path class="cls-4" d="M33.72,9.16h-7.43c-.46,0-.83.37-.83.83v4.95c0,.46.37.83.83.83h7.43c.46,0,.83-.37.83-.83v-4.95c0-.46-.37-.83-.83-.83Z"/>
  <path class="cls-6" d="M33.72,18.24h-7.43c-.46,0-.83.37-.83.83v4.95c0,.46.37.83.83.83h7.43c.46,0,.83-.37.83-.83v-4.95c0-.46-.37-.83-.83-.83Z"/>
  <path class="cls-7" d="M33.72,27.32h-7.43c-.46,0-.83.37-.83.83v4.95c0,.46.37.83.83.83h7.43c.46,0,.83-.37.83-.83v-4.95c0-.46-.37-.83-.83-.83Z"/>
  <path class="cls-3" d="M21.76,9.16H2.36c-.46,0-.83.37-.83.83v14.03c0,.46.37.83.83.83h19.39c.46,0,.83-.37.83-.83v-14.03c0-.46-.37-.83-.83-.83Z"/>
  <path class="cls-2" d="M2.28,29.79h12.54c.46,0,.83-.37.83-.83s-.37-.83-.83-.83H2.28c-.46,0-.83.37-.83.83s.37.83.83.83Z"/>
  <path class="cls-5" d="M21.42,32.27H2.28c-.46,0-.83.37-.83.83s.37.83.83.83h19.15c.46,0,.83-.37.83-.83s-.37-.83-.83-.83Z"/>
</svg>