<?xml version="1.0" encoding="UTF-8"?>
<svg id="Layer_1" data-name="Layer 1" xmlns="http://www.w3.org/2000/svg" xmlns:xlink="http://www.w3.org/1999/xlink" viewBox="0 0 36 34">
  <defs>
    <style>
      .cls-1 {
        fill: url(#linear-gradient);
      }

      .cls-1, .cls-2, .cls-3, .cls-4, .cls-5, .cls-6, .cls-7, .cls-8, .cls-9, .cls-10, .cls-11 {
        stroke-width: 0px;
      }

      .cls-2 {
        fill: url(#linear-gradient-6);
      }

      .cls-3 {
        fill: url(#linear-gradient-11);
      }

      .cls-4 {
        fill: url(#linear-gradient-5);
      }

      .cls-5 {
        fill: url(#linear-gradient-2);
      }

      .cls-6 {
        fill: url(#linear-gradient-7);
      }

      .cls-7 {
        fill: url(#linear-gradient-3);
      }

      .cls-8 {
        fill: url(#linear-gradient-9);
      }

      .cls-9 {
        fill: url(#linear-gradient-8);
      }

      .cls-10 {
        fill: url(#linear-gradient-10);
      }

      .cls-11 {
        fill: url(#linear-gradient-4);
      }
    </style>
    <linearGradient id="linear-gradient" x1="-5.01" y1="4.92" x2="28.54" y2="22.53" gradientUnits="userSpaceOnUse">
      <stop offset="0" stop-color="#0049e7"/>
      <stop offset=".11" stop-color="#0648e7"/>
      <stop offset=".26" stop-color="#1647e9"/>
      <stop offset=".46" stop-color="#3144eb"/>
      <stop offset=".66" stop-color="#5740ee"/>
      <stop offset=".79" stop-color="#883bf3"/>
      <stop offset=".98" stop-color="#c236f7"/>
      <stop offset="1" stop-color="#c835f8"/>
    </linearGradient>
    <linearGradient id="linear-gradient-2" x1="-.13" y1="-4.38" x2="33.42" y2="13.23" xlink:href="#linear-gradient"/>
    <linearGradient id="linear-gradient-3" x1="1.01" y1="-6.55" x2="34.56" y2="11.06" xlink:href="#linear-gradient"/>
    <linearGradient id="linear-gradient-4" x1="2.15" y1="-8.72" x2="35.7" y2="8.89" xlink:href="#linear-gradient"/>
    <linearGradient id="linear-gradient-5" x1="-8.33" y1="11.24" x2="25.23" y2="28.85" xlink:href="#linear-gradient"/>
    <linearGradient id="linear-gradient-6" x1="-8.06" y1="10.72" x2="25.5" y2="28.33" xlink:href="#linear-gradient"/>
    <linearGradient id="linear-gradient-7" x1="-2.37" y1="-.12" x2="31.19" y2="17.49" xlink:href="#linear-gradient"/>
    <linearGradient id="linear-gradient-8" x1="-4.2" y1="3.37" x2="29.35" y2="20.98" xlink:href="#linear-gradient"/>
    <linearGradient id="linear-gradient-9" x1="-5.08" y1="5.05" x2="28.47" y2="22.66" xlink:href="#linear-gradient"/>
    <linearGradient id="linear-gradient-10" x1="-7.57" y1="9.79" x2="25.98" y2="27.4" xlink:href="#linear-gradient"/>
    <linearGradient id="linear-gradient-11" x1="-8.19" y1="10.98" x2="25.36" y2="28.59" xlink:href="#linear-gradient"/>
  </defs>
  <path class="cls-1" d="M31.24.15H4.76c-1.99,0-3.61,1.62-3.61,3.61v26.48c0,1.99,1.62,3.61,3.61,3.61h26.48c1.99,0,3.61-1.62,3.61-3.61V3.76c0-1.99-1.62-3.61-3.61-3.61ZM4.76,1.35h26.48c1.33,0,2.41,1.08,2.41,2.41v5.42H2.35V3.76c0-1.33,1.08-2.41,2.41-2.41ZM31.24,32.65H4.76c-1.33,0-2.41-1.08-2.41-2.41V10.38h31.3v19.86c0,1.33-1.08,2.41-2.41,2.41Z"/>
  <path class="cls-5" d="M19.02,7.71c1.12-.01,2.03-.93,2.02-2.06-.01-1.11-.91-2-2.02-2.02-1.12.01-2.03.93-2.02,2.05.01,1.11.91,2.01,2.02,2.02ZM19.02,4.84c.46,0,.83.39.82.85,0,.45-.37.81-.82.82-.46,0-.83-.39-.82-.85,0-.45.37-.81.82-.82Z"/>
  <path class="cls-7" d="M24.3,7.71c1.12-.01,2.03-.93,2.02-2.06-.01-1.11-.91-2-2.02-2.02-1.12.01-2.03.93-2.02,2.05.01,1.11.91,2.01,2.02,2.02ZM24.3,4.84c.46,0,.83.39.82.85,0,.45-.37.81-.82.82-.46,0-.83-.39-.82-.85,0-.45.37-.81.82-.82Z"/>
  <path class="cls-11" d="M29.58,7.71c1.12-.01,2.03-.93,2.02-2.05-.01-1.11-.91-2.01-2.02-2.02-1.12,0-2.03.93-2.02,2.05,0,1.11.91,2.01,2.02,2.02ZM29.58,4.84c.46,0,.83.39.82.85,0,.45-.37.81-.82.82-.46,0-.83-.39-.82-.85,0-.45.37-.81.82-.82Z"/>
  <path class="cls-4" d="M12.6,20.06c.77-.97.6-2.37-.37-3.14-.97-.77-2.37-.6-3.14.37-.31.4-.48.89-.48,1.39,0,.53.19,1.04.54,1.44-1.39.65-2.23,2.09-2.1,3.62,0,.66.54,1.2,1.2,1.2h5.38c.66,0,1.2-.54,1.2-1.2.13-1.58-.78-3.07-2.24-3.68ZM10.85,17.64c.57,0,1.03.48,1.02,1.05,0,.56-.46,1.01-1.02,1.02-.57,0-1.03-.48-1.02-1.05,0-.56.46-1.01,1.02-1.02ZM8.25,23.73c-.27-3.78,5.69-3.69,5.38,0h-5.38Z"/>
  <path class="cls-2" d="M10.95,13.21c-4.12,0-7.47,3.35-7.47,7.47.41,9.91,14.53,9.91,14.94,0,0-4.12-3.35-7.47-7.47-7.47ZM10.95,26.95c-3.46,0-6.26-2.81-6.27-6.27.34-8.32,12.19-8.31,12.54,0,0,3.46-2.81,6.26-6.27,6.27h0Z"/>
  <path class="cls-6" d="M22.06,15.19h7.22c.33,0,.6-.28.59-.61,0-.32-.27-.58-.59-.59h-7.22c-.33,0-.6.28-.59.61,0,.32.27.58.59.59Z"/>
  <path class="cls-9" d="M22.12,17.81c-.33,0-.6.28-.59.62,0,.32.27.58.59.59h4.69c.33,0,.6-.27.6-.6s-.27-.6-.6-.6h-4.69Z"/>
  <path class="cls-8" d="M31.69,21.21h-9.63c-.33,0-.6.28-.59.61,0,.33.27.59.59.59h9.63c.33,0,.6-.28.59-.61,0-.32-.27-.58-.59-.59Z"/>
  <path class="cls-10" d="M28.73,26.63c0-.33-.27-.6-.6-.6h-7.22c-.33,0-.6.27-.6.6s.27.6.6.6h7.22c.33,0,.6-.27.6-.6h0Z"/>
  <path class="cls-3" d="M30.42,28.74h-7.22c-.33,0-.6.27-.6.6s.27.6.6.6h7.22c.33,0,.6-.28.59-.61,0-.32-.27-.58-.59-.59Z"/>
</svg>