<?xml version="1.0" encoding="UTF-8"?>
<svg id="Layer_1" data-name="Layer 1" xmlns="http://www.w3.org/2000/svg" xmlns:xlink="http://www.w3.org/1999/xlink" viewBox="0 0 36 34">
  <defs>
    <style>
      .cls-1 {
        fill: url(#linear-gradient);
      }

      .cls-1, .cls-2, .cls-3, .cls-4, .cls-5, .cls-6, .cls-7, .cls-8, .cls-9, .cls-10 {
        stroke-width: 0px;
      }

      .cls-2 {
        fill: url(#linear-gradient-6);
      }

      .cls-3 {
        fill: url(#linear-gradient-5);
      }

      .cls-4 {
        fill: url(#linear-gradient-2);
      }

      .cls-5 {
        fill: url(#linear-gradient-7);
      }

      .cls-6 {
        fill: url(#linear-gradient-3);
      }

      .cls-7 {
        fill: url(#linear-gradient-9);
      }

      .cls-8 {
        fill: url(#linear-gradient-8);
      }

      .cls-9 {
        fill: url(#linear-gradient-10);
      }

      .cls-10 {
        fill: url(#linear-gradient-4);
      }
    </style>
    <linearGradient id="linear-gradient" x1="-2.19" y1=".31" x2="31.62" y2="19.28" gradientUnits="userSpaceOnUse">
      <stop offset="0" stop-color="#0049e7"/>
      <stop offset=".11" stop-color="#0648e7"/>
      <stop offset=".26" stop-color="#1647e9"/>
      <stop offset=".42" stop-color="#3144eb"/>
      <stop offset=".6" stop-color="#5740ee"/>
      <stop offset=".79" stop-color="#883bf3"/>
      <stop offset=".98" stop-color="#c236f7"/>
      <stop offset="1" stop-color="#c835f8"/>
    </linearGradient>
    <linearGradient id="linear-gradient-2" x1="-1.64" y1="-.67" x2="32.17" y2="18.3" xlink:href="#linear-gradient"/>
    <linearGradient id="linear-gradient-3" x1="-1.09" y1="-1.65" x2="32.72" y2="17.32" xlink:href="#linear-gradient"/>
    <linearGradient id="linear-gradient-4" x1="-4.48" y1="4.39" x2="29.33" y2="23.36" xlink:href="#linear-gradient"/>
    <linearGradient id="linear-gradient-5" x1="-.19" y1="-3.26" x2="33.63" y2="15.71" xlink:href="#linear-gradient"/>
    <linearGradient id="linear-gradient-6" x1="-6" y1="7.11" x2="27.81" y2="26.07" gradientTransform="translate(19.82 -6.7) rotate(45)" xlink:href="#linear-gradient"/>
    <linearGradient id="linear-gradient-7" x1="-5.36" y1="5.96" x2="28.45" y2="24.93" gradientTransform="translate(18.89 -7.67) rotate(43.88)" xlink:href="#linear-gradient"/>
    <linearGradient id="linear-gradient-8" x1="-5.59" y1="6.37" x2="28.22" y2="25.34" xlink:href="#linear-gradient"/>
    <linearGradient id="linear-gradient-9" x1="-5.82" y1="6.78" x2="27.99" y2="25.75" gradientTransform="translate(18.85 -6.31) rotate(45)" xlink:href="#linear-gradient"/>
    <linearGradient id="linear-gradient-10" x1="-5.18" y1="5.64" x2="28.63" y2="24.61" xlink:href="#linear-gradient"/>
  </defs>
  <g>
    <path class="cls-1" d="M4.99,5.25c-.5,0-.91-.41-.91-.91s.41-.91.91-.91.91.41.91.91-.41.91-.91.91ZM4.99,4.04c-.17,0-.3.14-.3.3s.14.3.3.3.3-.14.3-.3-.14-.3-.3-.3Z"/>
    <path class="cls-4" d="M7.29,5.25c-.5,0-.91-.41-.91-.91s.41-.91.91-.91.91.41.91.91-.41.91-.91.91ZM7.29,4.04c-.17,0-.3.14-.3.3s.14.3.3.3.3-.14.3-.3-.14-.3-.3-.3Z"/>
    <path class="cls-6" d="M9.58,5.25c-.5,0-.91-.41-.91-.91s.41-.91.91-.91.91.41.91.91-.41.91-.91.91ZM9.58,4.04c-.17,0-.3.14-.3.3s.14.3.3.3.3-.14.3-.3-.14-.3-.3-.3Z"/>
    <path class="cls-10" d="M31.78,33.39H4.22C1.96,33.39.12,31.55.12,29.29V4.71C.12,2.45,1.96.61,4.22.61h27.57c2.26,0,4.1,1.84,4.1,4.1v24.59c0,2.26-1.84,4.1-4.1,4.1ZM4.22,2.84c-1.03,0-1.86.84-1.86,1.86v24.59c0,1.03.84,1.86,1.86,1.86h27.57c1.03,0,1.86-.84,1.86-1.86V4.71c0-1.03-.84-1.86-1.86-1.86H4.22Z"/>
    <path class="cls-3" d="M34.76,8.06H1.24c-.62,0-1.12-.5-1.12-1.12s.5-1.12,1.12-1.12h33.53c.62,0,1.12.5,1.12,1.12s-.5,1.12-1.12,1.12Z"/>
  </g>
  <g>
    <rect class="cls-2" x="17.93" y="20.5" width=".14" height=".14" transform="translate(-9.27 18.75) rotate(-45)"/>
    <rect class="cls-5" x="18.89" y="19.54" width=".15" height=".14" transform="translate(-8.3 18.62) rotate(-43.88)"/>
    <polygon class="cls-8" points="24.11 17.04 24.12 14.58 19.07 19.61 18.97 19.51 18.86 19.61 18.96 19.71 19.07 19.61 24.1 24.66 24.1 22.2 25.61 22.21 25.59 27.24 20.56 27.22 20.56 25.72 23.02 25.72 18 20.67 18.1 20.57 18 20.47 17.9 20.57 18 20.67 12.95 25.7 15.41 25.71 15.4 27.22 10.37 27.2 10.39 22.17 11.89 22.17 11.88 24.63 16.94 19.6 17.04 19.7 17.14 19.6 17.04 19.5 16.94 19.6 11.91 14.55 11.9 17.01 10.39 17.01 10.41 11.97 15.44 11.99 15.44 13.5 12.98 13.49 18 18.54 17.9 18.64 18 18.74 18.1 18.64 18 18.54 23.06 13.52 20.6 13.5 20.6 12 25.63 12.01 25.62 17.05 24.11 17.04"/>
    <rect class="cls-7" x="16.97" y="19.53" width=".14" height=".14" transform="translate(-8.87 17.79) rotate(-45)"/>
    <polygon class="cls-9" points="18.1 18.64 18 18.74 17.9 18.64 18 18.54 18.1 18.64"/>
  </g>
</svg>