<?xml version="1.0" encoding="UTF-8"?>
<svg id="Layer_1" data-name="Layer 1" xmlns="http://www.w3.org/2000/svg" xmlns:xlink="http://www.w3.org/1999/xlink" viewBox="0 0 36 34">
  <defs>
    <style>
      .cls-1 {
        fill: url(#linear-gradient);
      }

      .cls-1, .cls-2, .cls-3, .cls-4, .cls-5, .cls-6, .cls-7, .cls-8 {
        stroke-width: 0px;
      }

      .cls-2 {
        fill: url(#linear-gradient-6);
      }

      .cls-3 {
        fill: url(#linear-gradient-5);
      }

      .cls-4 {
        fill: url(#linear-gradient-2);
      }

      .cls-5 {
        fill: url(#linear-gradient-7);
      }

      .cls-6 {
        fill: url(#linear-gradient-3);
      }

      .cls-7 {
        fill: url(#linear-gradient-8);
      }

      .cls-8 {
        fill: url(#linear-gradient-4);
      }
    </style>
    <linearGradient id="linear-gradient" x1="-6.38" y1="2.87" x2="29.56" y2="23.8" gradientUnits="userSpaceOnUse">
      <stop offset="0" stop-color="#0049e7"/>
      <stop offset=".11" stop-color="#0648e7"/>
      <stop offset=".26" stop-color="#1647e9"/>
      <stop offset=".46" stop-color="#3144eb"/>
      <stop offset=".66" stop-color="#5740ee"/>
      <stop offset=".79" stop-color="#883bf3"/>
      <stop offset=".98" stop-color="#c236f7"/>
      <stop offset="1" stop-color="#c835f8"/>
    </linearGradient>
    <linearGradient id="linear-gradient-2" x1="-4.33" y1="-.66" x2="31.61" y2="20.28" xlink:href="#linear-gradient"/>
    <linearGradient id="linear-gradient-3" x1="-2.89" y1="-3.13" x2="33.05" y2="17.81" xlink:href="#linear-gradient"/>
    <linearGradient id="linear-gradient-4" x1="-1.45" y1="-5.59" x2="34.49" y2="15.34" xlink:href="#linear-gradient"/>
    <linearGradient id="linear-gradient-5" x1=".86" y1="-9.56" x2="36.8" y2="11.38" xlink:href="#linear-gradient"/>
    <linearGradient id="linear-gradient-6" x1="-10.28" y1="9.57" x2="25.66" y2="30.5" xlink:href="#linear-gradient"/>
    <linearGradient id="linear-gradient-7" x1="-11.76" y1="12.1" x2="24.18" y2="33.04" xlink:href="#linear-gradient"/>
    <linearGradient id="linear-gradient-8" x1="-5.81" y1="1.89" x2="30.13" y2="22.83" xlink:href="#linear-gradient"/>
  </defs>
  <g>
    <path class="cls-1" d="M32,.09H4C2.38.09,1.06,1.41,1.06,3.02v28.27c0,1.44,1.18,2.62,2.62,2.62h28.64c1.44,0,2.62-1.18,2.62-2.62V3.02c0-1.61-1.32-2.93-2.94-2.93ZM33.7,31.29c0,.77-.62,1.37-1.37,1.37H3.68c-.75,0-1.37-.61-1.37-1.37V10.17h2.44v12.15c0,.43.25.8.66.98.14.05.29.09.43.09.27,0,.54-.11.73-.3l2.91-2.75,2.91,2.75c.3.3.77.39,1.16.21.41-.18.66-.55.66-.98v-12.15h19.49v21.12ZM6,21.92v-11.75h6.96v11.75l-2.73-2.6c-.21-.18-.46-.29-.75-.29-.27,0-.54.11-.73.29l-2.75,2.6ZM33.7,8.92H2.3V3.02c0-.93.77-1.68,1.69-1.68h28c.93,0,1.69.75,1.69,1.68v5.9Z"/>
    <g>
      <path class="cls-4" d="M6.09,3.37c-1.12,0-2.03.91-2.03,2.03s.91,2.05,2.03,2.05,2.05-.93,2.05-2.05-.91-2.03-2.05-2.03ZM6.09,6.21c-.43,0-.78-.36-.78-.8s.36-.78.78-.78.8.36.8.78-.36.8-.8.8Z"/>
      <path class="cls-6" d="M11.78,3.37c-1.14,0-2.05.91-2.05,2.03s.91,2.05,2.05,2.05,2.03-.93,2.03-2.05-.91-2.03-2.03-2.03ZM11.78,6.21c-.45,0-.8-.36-.8-.8s.36-.78.8-.78.78.36.78.78-.36.8-.78.8Z"/>
      <path class="cls-8" d="M17.45,3.37c-1.12,0-2.05.91-2.05,2.03s.93,2.05,2.05,2.05,2.03-.93,2.03-2.05-.91-2.03-2.03-2.03ZM17.45,6.21c-.45,0-.8-.36-.8-.8s.36-.78.8-.78.78.36.78.78-.36.8-.78.8Z"/>
      <path class="cls-3" d="M29.9,3.37h-6.69c-.55,0-1.05.21-1.43.59-.39.39-.61.89-.61,1.44,0,1.12.91,2.05,2.03,2.05h6.69c.55,0,1.07-.21,1.44-.61.39-.37.61-.89.61-1.44,0-1.12-.91-2.03-2.05-2.03ZM29.9,6.21h-6.69c-.43,0-.78-.36-.78-.8,0-.21.07-.41.23-.55.14-.16.36-.23.55-.23h6.69c.45,0,.8.36.8.78,0,.21-.07.43-.23.57-.14.14-.36.23-.57.23Z"/>
    </g>
  </g>
  <path class="cls-2" d="M31.68,26.17c0,.34-.29.62-.62.62H5.37c-.34,0-.62-.29-.62-.62s.29-.62.62-.62h25.68c.34,0,.62.29.62.62Z"/>
  <path class="cls-5" d="M31.68,29.56c0,.36-.29.62-.62.62H5.37c-.34,0-.62-.27-.62-.62s.29-.62.62-.62h25.68c.34,0,.62.29.62.62Z"/>
  <path class="cls-7" d="M29.84,16.71c-.07-.23-.27-.39-.5-.43l-3.46-.5-1.55-3.14c-.11-.2-.32-.34-.55-.34-.25,0-.46.14-.55.34l-1.55,3.14-3.48.5c-.23.04-.43.2-.5.43-.07.21,0,.46.16.64l2.51,2.44-.59,3.44c-.05.23.05.46.23.61.11.09.25.12.37.12.11,0,.2-.02.29-.07l3.1-1.62,3.09,1.62c.21.11.46.09.66-.05s.29-.37.25-.61l-.59-3.44,2.51-2.44c.16-.18.21-.43.14-.64ZM21.64,19.68c.05-.2-.02-.41-.18-.54l-1.84-1.8,2.55-.37c.2-.02.37-.16.46-.34l1.14-2.3,1.14,2.3c.09.2.27.32.46.34l2.53.37-1.84,1.78c-.14.14-.21.36-.18.55l.43,2.53-2.27-1.2c-.18-.09-.39-.09-.57,0l-2.28,1.2.43-2.53Z"/>
</svg>