<?xml version="1.0" encoding="UTF-8"?>
<svg id="Layer_1" data-name="Layer 1" xmlns="http://www.w3.org/2000/svg" xmlns:xlink="http://www.w3.org/1999/xlink" viewBox="0 0 36 34">
  <defs>
    <style>
      .cls-1 {
        fill: url(#linear-gradient);
      }

      .cls-1, .cls-2 {
        stroke-width: 0px;
      }

      .cls-2 {
        fill: url(#linear-gradient-2);
      }
    </style>
    <linearGradient id="linear-gradient" x1="1.26" y1="73" x2="34.74" y2="73" gradientTransform="translate(0 90) scale(1 -1)" gradientUnits="userSpaceOnUse">
      <stop offset="0" stop-color="#0049e7"/>
      <stop offset="1" stop-color="#c835f8"/>
    </linearGradient>
    <linearGradient id="linear-gradient-2" x1="11.86" y1="67.12" x2="26.37" y2="67.12" xlink:href="#linear-gradient"/>
  </defs>
  <path class="cls-1" d="M34.53,17.47c-.21-.3-.55-.47-.91-.47h-3.35v-4.48c0-.62-.5-1.12-1.12-1.12h-1.12v-4.48c0-.62-.5-1.12-1.12-1.12h-1.67v-1.68c0-.62-.5-1.12-1.12-1.12h-1.67v-1.68c0-.62-.5-1.12-1.12-1.12H7.96c-.62,0-1.12.5-1.12,1.12v10.08H1.82s-.07.01-.1.02c-.03,0-.06,0-.09.01,0,0,0,0-.01,0-.04.02-.08.04-.11.07-.03.01-.05.03-.07.05-.02.03-.05.06-.06.09-.02.03-.04.06-.06.09,0,.03-.02.06-.02.09-.01.04-.02.08-.02.12,0,0,0,0,0,.01v21.29s0,.01,0,.02c0,.07.01.13.04.19,0,0,0,.01.01.02.01.03.03.06.05.09.01.02.03.04.05.05,0,0,.02.02.03.03.04.04.1.08.15.1.01,0,.02,0,.04.01.06.02.13.04.19.04h26.62c.47,0,.89-.3,1.05-.74l5.18-14.56c.12-.34.07-.72-.14-1.02ZM28.04,12.52h1.12v4.48h-1.12v-4.48ZM26.93,6.92v10.08h-3.55c1.66-1.34,2.29-3.59,1.59-5.6-.71-2.02-2.61-3.37-4.74-3.37s-4.03,1.35-4.74,3.37c-.71,2.02-.07,4.26,1.59,5.6h-3.55V6.92h13.39ZM20.23,14.76c.44,0,.88.15,1.22.44.28.22.45.56.46.92v.5c-1.06.51-2.29.51-3.35,0v-.5c.1-.83.84-1.43,1.67-1.36ZM19.12,12.52c0-.62.5-1.12,1.12-1.12s1.12.5,1.12,1.12-.5,1.12-1.12,1.12c-.62,0-1.12-.5-1.12-1.12ZM21.82,14.09c.86-.88.86-2.29-.01-3.16-.87-.87-2.28-.87-3.15,0-.87.87-.88,2.28-.02,3.16-.64.38-1.07,1.03-1.17,1.76-1.12-1.12-1.45-2.81-.85-4.27.6-1.47,2.03-2.42,3.61-2.42,1.58,0,3,.96,3.61,2.42.6,1.47.27,3.15-.85,4.27-.07-.59-.36-1.13-.82-1.51-.11-.09-.23-.18-.35-.25ZM24.14,4.12v1.68h-10.6c-.62,0-1.12.5-1.12,1.12v10.08h-1.67V4.12h13.39ZM7.96,1.32h13.39v1.68h-10.6c-.62,0-1.12.5-1.12,1.12v12.88h-1.67V1.32ZM6.84,12.52v4.57l-2.42.41-1.8-4.97h4.22ZM2.38,15.14l.99,2.74c.18.51.7.81,1.23.72l1.95-.33-4.18,11.74v-14.87ZM28.44,32.68H2.61l5.18-14.56h25.83l-5.18,14.56Z"/>
  <path class="cls-2" d="M13.54,23.64v1.2c0,.93.75,1.68,1.67,1.68h7.81c.92,0,1.67-.75,1.67-1.68v-1.2c1.09-.28,1.8-1.33,1.66-2.45-.14-1.12-1.09-1.96-2.21-1.95-1.12,0-2.07.84-2.21,1.95-.14,1.12.57,2.17,1.66,2.45v1.2c0,.31-.25.56-.56.56h-7.81c-.31,0-.56-.25-.56-.56v-1.2c1.09-.28,1.8-1.33,1.66-2.45-.14-1.12-1.09-1.96-2.21-1.96s-2.07.84-2.21,1.96c-.14,1.12.57,2.17,1.66,2.45ZM23.06,21.19c.13-.49.57-.83,1.08-.83s.95.34,1.08.83c.13.49-.08,1.01-.52,1.26v-.4c0-.31-.25-.56-.56-.56s-.56.25-.56.56v.4c-.44-.25-.65-.77-.52-1.26ZM13.9,20.37c.53-.1,1.06.21,1.25.72s-.02,1.08-.49,1.36v-.4c0-.31-.25-.56-.56-.56s-.56.25-.56.56v.4c-.34-.2-.56-.57-.56-.96,0-.54.38-1.01.92-1.11Z"/>
</svg>