<?xml version="1.0" encoding="UTF-8"?>
<svg id="Layer_1" data-name="Layer 1" xmlns="http://www.w3.org/2000/svg" xmlns:xlink="http://www.w3.org/1999/xlink" viewBox="0 0 36 34">
  <defs>
    <style>
      .cls-1 {
        fill: url(#linear-gradient);
        fill-rule: evenodd;
        stroke-width: 0px;
      }
    </style>
    <linearGradient id="linear-gradient" x1=".55" y1="-35" x2="34.41" y2="-35" gradientTransform="translate(0 -18) scale(1 -1)" gradientUnits="userSpaceOnUse">
      <stop offset="0" stop-color="#0049e7"/>
      <stop offset="1" stop-color="#c835f8"/>
    </linearGradient>
  </defs>
  <path class="cls-1" d="M12.02.07h20.74c.91,0,1.66.74,1.66,1.66v30.55c0,.91-.74,1.66-1.66,1.66H2.21c-.91,0-1.66-.74-1.66-1.66V1.73C.55.81,1.29.07,2.21.07h7.5c.27,0,.5.22.5.5s-.22.5-.5.5H2.21c-.37,0-.66.3-.66.66v22.62h25.1c.27,0,.5.22.5.5s-.22.5-.5.5H1.54v6.94c0,.37.3.66.66.66h30.55c.37,0,.66-.3.66-.66v-6.94h-4.53c-.27,0-.5-.22-.5-.5s.22-.5.5-.5h4.53V1.73c0-.37-.3-.66-.66-.66H12.02c-.27,0-.5-.22-.5-.5s.22-.5.5-.5ZM6.63,26.81c.32-.17.69-.24,1.05-.21.95.07,1.72.84,1.79,1.79.05.65-.22,1.28-.73,1.69-.15.12-.67.45-1.53.98-.18.11-.38.16-.58.16s-.4-.05-.58-.16c-.87-.53-1.38-.86-1.53-.98-.51-.41-.79-1.04-.73-1.69.08-.95.85-1.71,1.79-1.79.37-.03.73.05,1.05.21ZM6.69,30.21c.93-.57,1.35-.85,1.44-.91.25-.2.39-.51.36-.83-.04-.46-.42-.84-.88-.88-.24-.02-.48.05-.67.2-.18.14-.43.14-.61,0-.17-.13-.38-.21-.59-.21-.03,0-.05,0-.08,0-.46.04-.84.41-.88.88-.03.32.11.63.36.83.09.07.51.35,1.44.91.04.02.08.02.12,0ZM11.51,31.02c.2.2.48.27.75.2l.44-.12c.29.12.61.18.91.18.62,0,1.23-.24,1.69-.7.46-.46.72-1.1.7-1.76-.02-.66-.31-1.27-.81-1.71-.9-.79-2.25-.78-3.14,0-.77.68-1.02,1.76-.62,2.7l-.12.44c-.07.27,0,.55.2.75ZM12.71,27.87c.52-.46,1.31-.46,1.83,0,.29.26.46.61.47,1,.01.39-.13.75-.41,1.03-.41.41-1.04.52-1.56.28-.1-.05-.21-.07-.32-.07-.07,0-.14,0-.2.03l-.16.04.04-.16c.05-.17.03-.36-.04-.52-.26-.56-.12-1.21.34-1.62ZM20.81,26.78h.5c.54,0,1,.39,1.1.92l.39,2.14c.07.39-.04.8-.29,1.11-.26.31-.64.48-1.04.48h-2.27c-.4,0-.78-.18-1.04-.48-.26-.31-.36-.71-.29-1.11l.39-2.14c.1-.53.56-.92,1.1-.92h.5c.05-.22.25-.39.48-.39s.44.17.48.39ZM21.46,30.44c.15,0,.24-.08.28-.13.04-.05.1-.15.08-.29l-.39-2.14c-.01-.06-.06-.1-.12-.1h-.48v.72c0,.27-.22.5-.5.5s-.5-.22-.5-.5v-.72h-.48c-.06,0-.11.04-.12.1l-.39,2.14c-.03.14.04.25.08.29.04.05.13.13.28.13h2.27ZM29.55,27.39h-3.45c-.27,0-.5.22-.5.5s.22.5.5.5h3.45c.27,0,.5-.22.5-.5s-.22-.5-.5-.5ZM26.1,29.44h3.45c.27,0,.5.22.5.5s-.22.5-.5.5h-3.45c-.27,0-.5-.22-.5-.5s.22-.5.5-.5ZM18.82,9.42c.1.14.25.22.41.22.09,0,.19-.03.27-.08l2.7-1.79c.23-.15.29-.46.14-.69-.15-.23-.46-.29-.69-.14l-2.7,1.79c-.23.15-.29.46-.14.69ZM20.44,11.44c-.16,0-.32-.08-.41-.22-.15-.23-.09-.54.14-.69l2.7-1.79c.23-.15.54-.09.69.14.15.23.09.54-.14.69l-2.7,1.79c-.08.06-.18.08-.27.08ZM9.7,14.21c.83,0,1.5-.67,1.5-1.5s-.67-1.5-1.5-1.5-1.5.67-1.5,1.5.67,1.5,1.5,1.5ZM9.7,12.21c.28,0,.51.23.51.51s-.23.51-.51.51-.51-.23-.51-.51.23-.51.51-.51ZM12.38,16.89c0-.83.67-1.5,1.5-1.5s1.5.67,1.5,1.5-.67,1.5-1.5,1.5-1.5-.67-1.5-1.5ZM13.38,16.89c0,.28.23.51.51.51s.51-.23.51-.51-.23-.51-.51-.51-.51.23-.51.51ZM4.61,14.8c0,3.83,3.12,6.95,6.95,6.95,3.35,0,6.15-2.38,6.8-5.53l3.5,5.24c.22.33.56.56.95.64.1.02.2.03.3.03.29,0,.58-.09.83-.25l6.22-4.13c.33-.22.56-.56.64-.95.08-.39,0-.79-.22-1.13l-7.7-11.6c-.26-.39-.69-.63-1.15-.66l-2.25-.11c-.32-.02-.62.07-.88.24l-1.34.89c-.5-.46-1.12-.77-1.81-.91-1-.2-2.02,0-2.87.56-1.29.85-1.89,2.36-1.65,3.79-3.54.32-6.32,3.3-6.32,6.92ZM19.14,4.37c.09-.06.18-.08.29-.08l2.25.11c.15,0,.29.09.38.21l7.7,11.6c.08.11.1.25.07.38-.03.13-.1.25-.22.32l-6.22,4.13c-.11.08-.25.1-.38.07-.13-.03-.25-.1-.32-.22l-4.18-6.26c-.05-2.52-1.46-4.72-3.52-5.89l.73-1.99c.04-.1.1-.18.18-.23l1.18-.78.93,1.4c.15.23.46.29.69.14.23-.15.29-.46.14-.69l-.93-1.4,1.24-.83ZM13.13,4.91c.63-.42,1.38-.56,2.12-.42.42.08.81.26,1.14.51l-1.04.69c-.26.17-.46.42-.57.72l-.7,1.91c-.67-.26-1.4-.42-2.15-.46-.24-1.1.2-2.29,1.2-2.95ZM11.22,8.85s.46-.05,1.16.05c2.9.4,5.13,2.89,5.13,5.9h0c0,3.29-2.67,5.96-5.96,5.96s-5.96-2.67-5.96-5.96c0-3.17,2.49-5.77,5.62-5.95ZM9.12,17.97c-.13,0-.25-.05-.35-.15-.19-.19-.19-.51,0-.7l5.34-5.34c.19-.19.51-.19.7,0,.19.19.19.51,0,.7l-5.34,5.34c-.1.1-.22.15-.35.15Z"/>
</svg>