<?xml version="1.0" encoding="UTF-8"?>
<svg id="Layer_1" data-name="Layer 1" xmlns="http://www.w3.org/2000/svg" xmlns:xlink="http://www.w3.org/1999/xlink" viewBox="0 0 36 34">
  <defs>
    <style>
      .cls-1 {
        fill: url(#linear-gradient-12);
      }

      .cls-1, .cls-2, .cls-3, .cls-4, .cls-5, .cls-6, .cls-7, .cls-8, .cls-9, .cls-10, .cls-11, .cls-12, .cls-13, .cls-14, .cls-15, .cls-16 {
        stroke-width: 0px;
      }

      .cls-2 {
        fill: url(#linear-gradient);
      }

      .cls-3 {
        fill: url(#linear-gradient-6);
      }

      .cls-4 {
        fill: url(#linear-gradient-15);
      }

      .cls-5 {
        fill: url(#linear-gradient-11);
      }

      .cls-6 {
        fill: url(#linear-gradient-5);
      }

      .cls-7 {
        fill: url(#linear-gradient-13);
      }

      .cls-8 {
        fill: url(#linear-gradient-16);
      }

      .cls-9 {
        fill: url(#linear-gradient-14);
      }

      .cls-10 {
        fill: url(#linear-gradient-2);
      }

      .cls-11 {
        fill: url(#linear-gradient-7);
      }

      .cls-12 {
        fill: url(#linear-gradient-3);
      }

      .cls-13 {
        fill: url(#linear-gradient-9);
      }

      .cls-14 {
        fill: url(#linear-gradient-8);
      }

      .cls-15 {
        fill: url(#linear-gradient-10);
      }

      .cls-16 {
        fill: url(#linear-gradient-4);
      }
    </style>
    <linearGradient id="linear-gradient" x1="-11.32" y1="2.69" x2="32.76" y2="24.21" gradientUnits="userSpaceOnUse">
      <stop offset="0" stop-color="#0049e7"/>
      <stop offset=".11" stop-color="#0648e7"/>
      <stop offset=".26" stop-color="#1647e9"/>
      <stop offset=".46" stop-color="#3144eb"/>
      <stop offset=".66" stop-color="#5740ee"/>
      <stop offset=".79" stop-color="#883bf3"/>
      <stop offset=".98" stop-color="#c236f7"/>
      <stop offset="1" stop-color="#c835f8"/>
    </linearGradient>
    <linearGradient id="linear-gradient-2" x1="-9.43" y1="-1.2" x2="34.66" y2="20.32" xlink:href="#linear-gradient"/>
    <linearGradient id="linear-gradient-3" x1="-8.9" y1="-2.29" x2="35.19" y2="19.24" xlink:href="#linear-gradient"/>
    <linearGradient id="linear-gradient-4" x1="-8.37" y1="-3.37" x2="35.72" y2="18.15" xlink:href="#linear-gradient"/>
    <linearGradient id="linear-gradient-5" x1="-11.6" y1="3.25" x2="32.49" y2="24.78" xlink:href="#linear-gradient"/>
    <linearGradient id="linear-gradient-6" x1="-11.35" y1="2.73" x2="32.74" y2="24.25" xlink:href="#linear-gradient"/>
    <linearGradient id="linear-gradient-7" x1="-8.41" y1="-3.28" x2="35.68" y2="18.24" xlink:href="#linear-gradient"/>
    <linearGradient id="linear-gradient-8" x1="-15.22" y1="10.66" x2="28.87" y2="32.18" xlink:href="#linear-gradient"/>
    <linearGradient id="linear-gradient-9" x1="-13.84" y1="7.85" x2="30.24" y2="29.37" xlink:href="#linear-gradient"/>
    <linearGradient id="linear-gradient-10" x1="-14.32" y1="8.83" x2="29.76" y2="30.35" xlink:href="#linear-gradient"/>
    <linearGradient id="linear-gradient-11" x1="-12.28" y1="4.64" x2="31.81" y2="26.17" xlink:href="#linear-gradient"/>
    <linearGradient id="linear-gradient-12" x1="-10.91" y1="1.83" x2="33.18" y2="23.35" xlink:href="#linear-gradient"/>
    <linearGradient id="linear-gradient-13" x1="-11.39" y1="2.81" x2="32.7" y2="24.34" xlink:href="#linear-gradient"/>
    <linearGradient id="linear-gradient-14" x1="-14.49" y1="9.17" x2="29.6" y2="30.7" xlink:href="#linear-gradient"/>
    <linearGradient id="linear-gradient-15" x1="-15.46" y1="11.16" x2="28.63" y2="32.68" xlink:href="#linear-gradient"/>
    <linearGradient id="linear-gradient-16" x1="-8.66" y1="-2.76" x2="35.42" y2="18.76" xlink:href="#linear-gradient"/>
  </defs>
  <path class="cls-2" d="M33.99,2.67H5.71c-.29,0-.53.24-.53.53s.24.53.53.53h28.29c.51,0,.93.42.93.93v1.84H1.08v-1.84c0-.51.42-.93.93-.93h1.59c.29,0,.53-.24.53-.53s-.24-.53-.53-.53h-1.59c-1.09,0-1.98.89-1.98,1.98v24.71c0,1.09.89,1.98,1.98,1.98h24.75c.29,0,.53-.24.53-.53s-.24-.53-.53-.53H2.01c-.51,0-.93-.42-.93-.93V7.54h33.84v21.81c0,.51-.42.93-.93.93h-5.13c-.29,0-.53.24-.53.53s.24.53.53.53h5.13c1.09,0,1.98-.89,1.98-1.98V4.65c0-1.09-.89-1.98-1.98-1.98h0Z"/>
  <path class="cls-10" d="M3.71,4.58h-.44c-.29,0-.53.24-.53.53s.24.53.53.53h.44c.29,0,.53-.24.53-.53s-.24-.53-.53-.53Z"/>
  <path class="cls-12" d="M6.46,5.63c.29,0,.53-.24.53-.53s-.24-.53-.53-.53h-.44c-.29,0-.53.24-.53.53s.24.53.53.53h.44Z"/>
  <path class="cls-16" d="M9.21,5.63c.29,0,.53-.24.53-.53s-.24-.53-.53-.53h-.44c-.29,0-.53.24-.53.53s.24.53.53.53h.44Z"/>
  <path class="cls-6" d="M14.81,9.88H5.92c-.6,0-1.08.49-1.08,1.08v3.62h0v2.41c0,.6.49,1.08,1.08,1.08h8.89c.6,0,1.08-.49,1.08-1.08v-6.03c0-.6-.49-1.08-1.08-1.08ZM5.92,10.93h8.89s.03.01.03.03v3.13l-1.49-.69c-.22-.1-.47-.1-.69,0l-2.5,1.23-1.84-1.4c-.22-.17-.53-.21-.79-.1l-1.64.68v-2.84s.01-.03.03-.03h0ZM14.81,17.02H5.92s-.03-.01-.03-.03v-2.05l1.91-.79,1.85,1.41c.14.11.31.16.48.16.12,0,.24-.03.35-.08l2.54-1.24,1.82.85v1.75s-.01.03-.03.03h0Z"/>
  <path class="cls-3" d="M7.16,12.34h.2c.29,0,.53-.24.53-.53s-.24-.53-.53-.53h-.2c-.29,0-.53.24-.53.53s.24.53.53.53Z"/>
  <path class="cls-11" d="M22.42,11.29c-.29,0-.53.24-.53.53s.24.53.53.53h.2c.29,0,.53-.24.53-.53s-.24-.53-.53-.53h-.2Z"/>
  <path class="cls-14" d="M8.64,21.38c0-1.05-.85-1.9-1.9-1.9s-1.9.85-1.9,1.9.85,1.9,1.9,1.9,1.9-.85,1.9-1.9ZM6.74,22.22c-.47,0-.84-.38-.84-.84s.38-.84.84-.84.84.38.84.84-.38.84-.84.84Z"/>
  <path class="cls-13" d="M9.5,20.53h3.14c.29,0,.53-.24.53-.53s-.24-.53-.53-.53h-3.14c-.29,0-.53.24-.53.53s.24.53.53.53Z"/>
  <path class="cls-15" d="M9.5,22.42h5.87c.29,0,.53-.24.53-.53s-.24-.53-.53-.53h-5.87c-.29,0-.53.24-.53.53s.24.53.53.53Z"/>
  <path class="cls-5" d="M20.1,21.38c0,1.05.85,1.9,1.9,1.9s1.9-.85,1.9-1.9-.85-1.9-1.9-1.9-1.9.85-1.9,1.9ZM22.85,21.38c0,.47-.38.84-.84.84s-.84-.38-.84-.84.38-.84.84-.84.84.38.84.84Z"/>
  <path class="cls-1" d="M24.76,20.53h3.14c.29,0,.53-.24.53-.53s-.24-.53-.53-.53h-3.14c-.29,0-.53.24-.53.53s.24.53.53.53Z"/>
  <path class="cls-7" d="M24.76,22.42h5.87c.29,0,.53-.24.53-.53s-.24-.53-.53-.53h-5.87c-.29,0-.53.24-.53.53s.24.53.53.53Z"/>
  <path class="cls-9" d="M7.65,25.04c0,.29.24.53.53.53h19.65c.29,0,.53-.24.53-.53s-.24-.53-.53-.53H8.18c-.29,0-.53.24-.53.53Z"/>
  <path class="cls-4" d="M5.37,28.02h25.26c.29,0,.53-.24.53-.53s-.24-.53-.53-.53H5.37c-.29,0-.53.24-.53.53s.24.53.53.53Z"/>
  <path class="cls-8" d="M25.8,10.41c0-.29-.24-.53-.53-.53h-4.09c-.6,0-1.08.49-1.08,1.08v3.62h0v2.41c0,.6.49,1.08,1.08,1.08h8.89c.6,0,1.08-.49,1.08-1.08v-6.03c0-.6-.49-1.08-1.08-1.08h-2.7c-.29,0-.53.24-.53.53s.24.53.53.53h2.7s.03.01.03.03v3.13l-1.49-.69c-.22-.1-.47-.1-.69,0l-2.5,1.23-1.84-1.4c-.22-.17-.53-.21-.79-.1l-1.64.68v-2.84s.01-.03.03-.03h4.09c.29,0,.53-.24.53-.53h0ZM23.06,14.16l1.85,1.41c.14.11.31.16.48.16.12,0,.24-.03.35-.08l2.54-1.24,1.82.85v1.75s-.01.03-.03.03h-8.89s-.03-.01-.03-.03v-2.05l1.91-.79Z"/>
</svg>