<?xml version="1.0" encoding="UTF-8"?>
<svg id="Layer_1" data-name="Layer 1" xmlns="http://www.w3.org/2000/svg" xmlns:xlink="http://www.w3.org/1999/xlink" viewBox="0 0 36 34">
  <defs>
    <style>
      .cls-1 {
        fill: url(#linear-gradient);
      }

      .cls-1, .cls-2 {
        stroke-width: 0px;
      }

      .cls-2 {
        fill: url(#linear-gradient-2);
        fill-rule: evenodd;
      }
    </style>
    <linearGradient id="linear-gradient" x1="1.16" y1="-35.09" x2="34.84" y2="-35.09" gradientTransform="translate(0 -18) scale(1 -1)" gradientUnits="userSpaceOnUse">
      <stop offset="0" stop-color="#0049e7"/>
      <stop offset="1" stop-color="#c835f8"/>
    </linearGradient>
    <linearGradient id="linear-gradient-2" x1="1.16" y1="-35" x2="34.84" y2="-35" xlink:href="#linear-gradient"/>
  </defs>
  <path class="cls-1" d="M12.02,13.13h-1.97v-3.63h15.91v3.63h-1.97v-1.65h-5v11.24h1.71v1.97h-5.39v-1.97h1.71v-11.24h-5v1.65Z"/>
  <path class="cls-2" d="M32.49,7.46v19.07c1.38.57,2.35,1.93,2.35,3.51,0,2.09-1.7,3.79-3.79,3.79-1.58,0-2.94-.97-3.51-2.35H8.46c-.57,1.38-1.93,2.35-3.51,2.35-2.09,0-3.79-1.7-3.79-3.79,0-1.58.97-2.94,2.35-3.51V7.46c-1.38-.57-2.35-1.93-2.35-3.51C1.16,1.86,2.86.16,4.96.16c1.58,0,2.94.97,3.51,2.35h19.07c.57-1.38,1.93-2.35,3.51-2.35,2.09,0,3.79,1.7,3.79,3.79,0,1.58-.97,2.94-2.35,3.51ZM8.71,29.51h18.58c.23-1.67,1.56-2.99,3.22-3.22V7.71c-1.67-.23-2.99-1.56-3.22-3.22H8.71c-.23,1.67-1.56,2.99-3.22,3.22v18.58c1.67.23,2.99,1.56,3.22,3.22ZM32.86,3.96c0-1-.82-1.82-1.82-1.82s-1.82.82-1.82,1.82.82,1.82,1.82,1.82,1.82-.82,1.82-1.82ZM6.78,3.96c0-1-.82-1.82-1.82-1.82s-1.82.82-1.82,1.82.82,1.82,1.82,1.82c1,0,1.82-.82,1.82-1.82ZM3.14,30.04c0,1,.82,1.82,1.82,1.82s1.82-.82,1.82-1.82-.82-1.82-1.82-1.82-1.82.82-1.82,1.82ZM29.22,30.04c0,1,.82,1.82,1.82,1.82s1.82-.82,1.82-1.82-.82-1.82-1.82-1.82-1.82.82-1.82,1.82Z"/>
</svg>