<?xml version="1.0" encoding="UTF-8"?>
<svg id="Layer_1" data-name="Layer 1" xmlns="http://www.w3.org/2000/svg" xmlns:xlink="http://www.w3.org/1999/xlink" viewBox="0 0 36 34">
  <defs>
    <style>
      .cls-1 {
        fill: url(#linear-gradient);
        fill-rule: evenodd;
        stroke-width: 0px;
      }
    </style>
    <linearGradient id="linear-gradient" x1=".14" y1="-359" x2="35.86" y2="-359" gradientTransform="translate(0 -342) scale(1 -1)" gradientUnits="userSpaceOnUse">
      <stop offset="0" stop-color="#0049e7"/>
      <stop offset="1" stop-color="#c835f8"/>
    </linearGradient>
  </defs>
  <path class="cls-1" d="M9.77,3.95h24.18c1.06,0,1.92.86,1.92,1.92v22.39c0,1.56-1.27,2.83-2.83,2.83h-12.62c-.29,0-.53-.24-.53-.53s.24-.53.53-.53h12.62c.98,0,1.77-.8,1.77-1.77V10.01H9.33c-.29,0-.53-.24-.53-.53v-5c0-.29-.23-.52-.52-.52H1.71c-.29,0-.52.23-.52.52v23.79c0,.98.8,1.77,1.77,1.77h15.03c.29,0,.53.24.53.53s-.24.53-.53.53H2.97c-1.56,0-2.83-1.27-2.83-2.83V4.48c0-.87.71-1.58,1.58-1.58h6.57c.69,0,1.27.44,1.49,1.05ZM9.86,8.96h7.61v-3.95h-7.61v3.95ZM18.53,8.96h7.61v-3.95h-7.61v3.95ZM27.19,8.96h7.62v-3.08c0-.48-.39-.87-.86-.87h-6.75v3.95ZM12.36,7.51h2c.29,0,.53-.24.53-.53s-.24-.53-.53-.53h-2c-.29,0-.53.24-.53.53s.24.53.53.53ZM21.33,7.51h2c.29,0,.53-.24.53-.53s-.24-.53-.53-.53h-2c-.29,0-.53.24-.53.53s.24.53.53.53ZM30,6.45h2c.29,0,.53.24.53.53s-.24.53-.53.53h-2c-.29,0-.53-.24-.53-.53s.24-.53.53-.53ZM30.87,14.14h-10.93c-.29,0-.53.24-.53.53s.24.53.53.53h10.93c.29,0,.53-.24.53-.53s-.24-.53-.53-.53ZM26.72,17.55h4.14c.29,0,.53.24.53.53s-.24.53-.53.53h-4.14c-.29,0-.53-.24-.53-.53s.24-.53.53-.53ZM19.94,22.01h10.93c.29,0,.53-.24.53-.53s-.24-.53-.53-.53h-10.93c-.29,0-.53.24-.53.53s.24.53.53.53ZM31.4,24.89c0,.29-.24.53-.53.53h-10.93c-.29,0-.53-.24-.53-.53s.24-.53.53-.53h10.93c.29,0,.53.24.53.53ZM7.55,23.79c0,.62.5,1.12,1.12,1.12s1.12-.5,1.12-1.12-.5-1.12-1.12-1.12h3.77c-.62,0-1.12.5-1.12,1.12s.5,1.12,1.12,1.12,1.12-.5,1.12-1.12-.5-1.12-1.12-1.12h1.5c.21,0,.37-.17.37-.37s-.17-.37-.37-.37h-6.3c-.28,0-.46-.29-.34-.54l.1-.21h6.54c.17,0,.31-.11.36-.27l1.5-5.24c.07-.24-.11-.48-.36-.48H5.96l-.35-1.23c-.05-.16-.19-.27-.36-.27h-1.84c-.21,0-.37.17-.37.37s.17.37.37.37h1.56c.42,1.47,1.4,4.89,1.81,6.33l-.14.28c-.37.75.17,1.63,1.01,1.63h1.04c-.62,0-1.12.5-1.12,1.12ZM8.67,23.41c.21,0,.37.17.37.37s-.17.37-.37.37-.37-.17-.37-.37.17-.37.37-.37ZM12.81,23.79c0-.21-.17-.37-.37-.37s-.37.17-.37.37.17.37.37.37.37-.17.37-.37ZM13.66,20.41h-6.2l-1.28-4.49h8.77l-1.28,4.49ZM5.59,6.45c.29,0,.53.24.53.53s-.24.53-.53.53h-2c-.29,0-.53-.24-.53-.53s.24-.53.53-.53h2ZM19.94,18.6h4.35c.29,0,.53-.24.53-.53s-.24-.53-.53-.53h-4.35c-.29,0-.53.24-.53.53s.24.53.53.53Z"/>
</svg>