<?xml version="1.0" encoding="UTF-8"?>
<svg id="Layer_1" data-name="Layer 1" xmlns="http://www.w3.org/2000/svg" xmlns:xlink="http://www.w3.org/1999/xlink" viewBox="0 0 36 34">
  <defs>
    <style>
      .cls-1 {
        fill: #c735f8;
      }

      .cls-1, .cls-2, .cls-3, .cls-4, .cls-5 {
        stroke-width: 0px;
      }

      .cls-2 {
        fill: #5e3fef;
      }

      .cls-3 {
        fill: url(#linear-gradient);
      }

      .cls-3, .cls-5 {
        fill-rule: evenodd;
      }

      .cls-4 {
        fill: #1946e9;
      }

      .cls-5 {
        fill: url(#linear-gradient-2);
      }
    </style>
    <linearGradient id="linear-gradient" x1="2.31" y1="-357.04" x2="33.69" y2="-357.04" gradientTransform="translate(0 -342) scale(1 -1)" gradientUnits="userSpaceOnUse">
      <stop offset="0" stop-color="#0049e7"/>
      <stop offset="1" stop-color="#c835f8"/>
    </linearGradient>
    <linearGradient id="linear-gradient-2" x1=".07" y1="-359" x2="35.93" y2="-359" xlink:href="#linear-gradient"/>
  </defs>
  <path class="cls-3" d="M2.87,5.79h19.61c.31,0,.56.25.56.56v17.37c0,.31-.25.56-.56.56H2.87c-.31,0-.56-.25-.56-.56V6.35c0-.31.25-.56.56-.56ZM3.43,23.16h18.49V6.91H3.43v16.25ZM33.13,11.96h-8.97c-.31,0-.56-.25-.56-.56s.25-.56.56-.56h8.97c.31,0,.56.25.56.56s-.25.56-.56.56ZM24.16,10.27h8.97c.31,0,.56-.25.56-.56s-.25-.56-.56-.56h-8.97c-.31,0-.56.25-.56.56s.25.56.56.56ZM28.64,13.64h-4.48c-.31,0-.56-.25-.56-.56s.25-.56.56-.56h4.48c.31,0,.56.25.56.56s-.25.56-.56.56ZM24.16,16.44h4.48c.31,0,.56-.25.56-.56s-.25-.56-.56-.56h-4.48c-.31,0-.56.25-.56.56s.25.56.56.56ZM33.13,18.12c.31,0,.56.25.56.56v1.68c0,.31-.25.56-.56.56h-8.97c-.31,0-.56-.25-.56-.56v-1.68c0-.31.25-.56.56-.56h8.97ZM24.72,19.8h7.85v-.56h-7.85v.56ZM31.45,15.32c0-.31-.25-.56-.56-.56h-.56s0,0-.01,0c0,0,0,0,0,0-.03,0-.05,0-.08.01,0,0-.02,0-.03,0,0,0-.01,0-.02,0,0,0,0,0-.01,0-.03,0-.05.01-.08.02,0,0,0,0,0,0,0,0,0,0,0,0-.01,0-.03.02-.04.03h0s-.02.01-.02.02c0,0-.01,0-.02.01-.03.02-.06.04-.08.06-.02.02-.03.04-.05.06,0,0,0,.02-.01.02,0,0-.01.02-.02.02-.01.02-.03.04-.04.07-.01.03-.02.06-.02.1,0,0,0,.02,0,.02,0,.01,0,.02,0,.03h0s0,.03,0,.05c0,0,0,0,0,0,0,0,0,0,0,0,0,.03,0,.06.02.08,0,0,0,.02,0,.03,0,.01,0,.02,0,.03,0,.03.01.05.02.08,0,0,0,0,0,0,0,0,0,0,0,0l.2.41c-.15.1-.26.27-.26.46,0,.31.25.56.56.56h.56s0,0,0,0c0,0,0,0,0,0,.08,0,.16-.02.23-.05,0,0,0,0,0,0,0,0,0,0,0,0,0,0,0,0,0,0,.01,0,.03-.02.04-.03,0,0,.02-.01.03-.02,0,0,.01,0,.02-.01.03-.02.05-.04.08-.06.02-.02.03-.04.05-.06h0s0,0,0,0c0,0,0-.02.01-.02,0,0,.01-.02.02-.02h0s.03-.04.04-.07c.01-.03.02-.06.02-.09h0s0-.02,0-.02c0-.01,0-.02,0-.03,0-.02,0-.03,0-.05,0,0,0,0,0,0,0,0,0,0,0,0,0-.03,0-.06-.02-.08h0s0-.02,0-.03c0-.01,0-.02,0-.03,0-.03-.01-.05-.02-.08,0,0,0,0,0,0,0,0,0,0,0,0l-.2-.41c.15-.1.26-.26.26-.46ZM19.12,22.04H6.23c-.31,0-.56-.25-.56-.56v-9.53c0-.31.25-.56.56-.56h1.68c0-1.86,1.51-3.37,3.36-3.37.5,0,.97.11,1.4.31.43-.2.9-.31,1.4-.31,1.85,0,3.36,1.51,3.36,3.36,0,0,0,0,0,0h0s1.68,0,1.68,0c.31,0,.56.25.56.56v9.53c0,.31-.25.56-.56.56ZM16.88,20.92h1.68v-8.41h-1.68v8.41ZM16.32,11.39s0,0,0,0c0-1.23-1.01-2.24-2.24-2.24-.07,0-.14,0-.22.02-.02,0-.04,0-.06,0,.52.59.83,1.36.84,2.21,0,0,0,0,0,0,0,0,0,0,0,0h0s1.68,0,1.68,0h0s0,0,0,0ZM12.68,9.65c-.51.41-.84,1.03-.84,1.73,0,0,0,0,0,0,0,0,0,0,0,0h1.68s0,0,0,0c0-.7-.33-1.32-.84-1.73ZM11.5,9.17c-.07-.01-.15-.02-.23-.02-1.24,0-2.24,1.01-2.24,2.24h0s1.68,0,1.68,0h0s0-.01,0-.01c0,0,0,0,0,0,0-.84.32-1.61.84-2.2-.02,0-.04,0-.05,0ZM15.76,12.51H6.79v8.41h8.97v-8.41Z"/>
  <path class="cls-5" d="M1.75,1.31h32.5c.93,0,1.68.75,1.68,1.68v29.14c0,.31-.25.56-.56.56h-4.46s0,0,0,0c0,0,0,0,0,0h0s0,0-.01,0h-4.48s0,0-.01,0c0,0,0,0-.01,0h-6.12s0,0-.01,0h0s0,0-.01,0h-4.48s0,0-.01,0h0s0,0-.01,0h-6.12s0,0-.01,0c0,0,0,0-.01,0h-4.48s0,0,0,0c0,0,0,0,0,0h0s0,0,0,0c0,0,0,0,0,0,0,0,0,0,0,0H.63c-.31,0-.56-.25-.56-.56V2.99C.07,2.06.82,1.31,1.75,1.31ZM26.96,31.56h0s3.36,0,3.36,0h0s1.12,0,1.12,0h0s1.12,0,1.12,0h0s.02,0,.02,0v-4.54h-.02v-.49h-7.85v5.04h1.12s1.12,0,1.12,0ZM24.16,25.41h8.97c.31,0,.56.25.56.56v5.6h1.12V4.67H1.19v26.9h1.12v-5.6c0-.31.25-.56.56-.56h8.97c.31,0,.56.25.56.56v5.6h.56v-5.6c0-.31.25-.56.56-.56h8.97c.31,0,.56.25.56.56v5.6h.56v-5.6c0-.31.25-.56.56-.56ZM16.32,31.57h0s-1.12,0-1.12,0h0s-1.12,0-1.12,0v-5.04h7.85v.49h.08v4.54h-.08s-1.12,0-1.12,0h0s-1.12,0-1.12,0h0s-3.36,0-3.36,0ZM5.67,31.56h0s3.36,0,3.36,0h0s1.12,0,1.12,0h0s1.12,0,1.12,0v-5.04H3.43v5.04h1.12s1.12,0,1.12,0ZM2.32,2.43h-.57c-.31,0-.56.25-.56.56v.56h33.62v-.56c0-.31-.25-.56-.56-.56H5.69c.31,0,.56.25.56.56s-.25.56-.56.56-.56-.25-.56-.56.25-.56.56-.56h-1.68c.31,0,.56.25.56.56s-.25.56-.56.56-.56-.25-.56-.56.25-.56.56-.56h-1.67c.31,0,.56.25.56.56s-.25.56-.56.56-.56-.25-.56-.56.25-.56.56-.56Z"/>
  <circle class="cls-4" cx="7.38" cy="29.29" r="1.51"/>
  <circle class="cls-2" cx="17.97" cy="29.29" r="1.51"/>
  <circle class="cls-1" cx="28.81" cy="29.29" r="1.51"/>
</svg>