<?xml version="1.0" encoding="UTF-8"?>
<svg id="Layer_1" data-name="Layer 1" xmlns="http://www.w3.org/2000/svg" xmlns:xlink="http://www.w3.org/1999/xlink" viewBox="0 0 36 34">
  <defs>
    <style>
      .cls-1 {
        fill: url(#linear-gradient);
        fill-rule: evenodd;
        stroke-width: 0px;
      }
    </style>
    <linearGradient id="linear-gradient" x1=".13" y1="-251" x2="35.87" y2="-251" gradientTransform="translate(0 -234) scale(1 -1)" gradientUnits="userSpaceOnUse">
      <stop offset="0" stop-color="#0049e7"/>
      <stop offset="1" stop-color="#c835f8"/>
    </linearGradient>
  </defs>
  <path class="cls-1" d="M.97,2.81c0-.55.49-1.04,1.04-1.04h31.97c.55,0,1.04.49,1.04,1.04v3.07h-8.82c-.06-.04-.13-.06-.21-.06-.54,0-1-.33-1.17-.88,0,0,0,0,0,0-.28-.83-1.04-1.47-1.98-1.47h-2.03c-.92,0-1.7.57-1.98,1.48,0,0,0,.01,0,.02-.07.29-.29.53-.57.66-.19-.15-.33-.36-.41-.63,0,0,0,0,0,0-.28-.83-1.04-1.47-1.98-1.47h-1.97c-.92,0-1.7.57-1.98,1.47-.18.52-.65.89-1.17.89H.97v-3.07ZM19.28,5.88h5.09c-.15-.2-.27-.43-.35-.69-.18-.52-.65-.89-1.17-.89h-2.03c-.54,0-1,.32-1.17.87-.07.27-.2.51-.37.7ZM19.01,6.73h16.01v20.24c0,.57-.44,1.04-1.04,1.04h-11.31c-.23,0-.42.19-.42.42s.19.42.42.42h11.31c1.09,0,1.89-.88,1.89-1.89V2.81c0-1.08-.81-1.89-1.89-1.89H2.01C.99.93.13,1.79.13,2.81v24.09c0,1.02.86,1.89,1.89,1.89h7.6c.23,0,.42-.19.42-.42s-.19-.42-.42-.42H2.01c-.55,0-1.04-.49-1.04-1.04V6.73h9.77c.93,0,1.7-.64,1.98-1.47,0,0,0,0,0,0,.17-.56.63-.88,1.17-.88h1.97c.53,0,1,.37,1.17.89.28.9,1.06,1.47,1.98,1.47ZM19.56,14.84c.08-.08.19-.12.3-.12h6.87c.23,0,.42.19.42.42v6.92c0,.11-.04.22-.12.3l-10.58,10.58c-.16.16-.43.16-.6,0l-6.87-6.87c-.16-.16-.16-.43,0-.6l10.58-10.64ZM20.03,15.56l-10.16,10.22,6.27,6.27,10.16-10.16v-6.33h-6.27ZM21.06,18.9c-.81.27-1.25,1.14-.99,1.96.27.81,1.14,1.25,1.96.99.81-.27,1.25-1.14.99-1.96-.27-.81-1.14-1.25-1.96-.99ZM19.28,21.12c-.41-1.26.27-2.61,1.52-3.02,1.26-.41,2.61.27,3.02,1.52.41,1.26-.27,2.61-1.52,3.02-1.26.41-2.61-.27-3.02-1.52ZM3.03,3.41c-.23,0-.42.19-.42.42s.19.42.42.42.42-.19.42-.42-.19-.42-.42-.42ZM1.76,3.83c0-.7.57-1.27,1.27-1.27s1.27.57,1.27,1.27-.57,1.27-1.27,1.27-1.27-.57-1.27-1.27ZM5.76,3.83c0-.23.19-.42.42-.42s.42.19.42.42-.19.42-.42.42-.42-.19-.42-.42ZM6.18,2.56c-.7,0-1.27.57-1.27,1.27s.57,1.27,1.27,1.27,1.27-.57,1.27-1.27-.57-1.27-1.27-1.27ZM9.33,3.41c-.23,0-.42.19-.42.42s.19.42.42.42.42-.19.42-.42-.19-.42-.42-.42ZM8.06,3.83c0-.7.57-1.27,1.27-1.27s1.27.57,1.27,1.27-.57,1.27-1.27,1.27-1.27-.57-1.27-1.27ZM6.63,16.15c-.37,0-.67-.3-.67-.67s.3-.67.67-.67.67.3.67.67-.3.67-.67.67ZM6.86,15.48c0-.12-.1-.22-.22-.22s-.22.1-.22.22.1.22.22.22.22-.1.22-.22ZM8.21,15.48c0,.37.3.67.67.67s.67-.3.67-.67-.3-.67-.67-.67-.67.3-.67.67ZM8.88,15.26c.12,0,.22.1.22.22s-.1.22-.22.22-.22-.1-.22-.22.1-.22.22-.22ZM5.02,10.35h5.65c.15,0,.26.14.21.28l-.89,3.12c-.03.1-.11.16-.21.16h-3.89l-.06.12c-.07.15.03.32.2.32h3.76c.12,0,.22.1.22.22s-.1.22-.22.22h-3.76c-.5,0-.82-.52-.6-.97l.08-.17c-.24-.86-.83-2.9-1.08-3.77h-.93c-.12,0-.22-.1-.22-.22s.1-.22.22-.22h1.1c.1,0,.19.07.21.16l.21.73ZM5.91,13.47h3.7l.77-2.68h-5.23c.2.7.42,1.46.58,2.01l.19.66Z"/>
</svg>