<?xml version="1.0" encoding="UTF-8"?>
<svg id="Layer_1" data-name="Layer 1" xmlns="http://www.w3.org/2000/svg" xmlns:xlink="http://www.w3.org/1999/xlink" viewBox="0 0 36 34">
  <defs>
    <style>
      .cls-1 {
        fill: url(#linear-gradient);
        fill-rule: evenodd;
        stroke-width: 0px;
      }
    </style>
    <linearGradient id="linear-gradient" x1="3.12" y1="-359" x2="32.88" y2="-359" gradientTransform="translate(0 -342) scale(1 -1)" gradientUnits="userSpaceOnUse">
      <stop offset="0" stop-color="#0049e7"/>
      <stop offset="1" stop-color="#c835f8"/>
    </linearGradient>
  </defs>
  <path class="cls-1" d="M4.11,28.56c0,.27-.22.5-.5.5s-.5-.22-.5-.5V1.41C3.12.68,3.71.08,4.45.08h1.74c.27,0,.5.22.5.5s-.22.5-.5.5h-1.74c-.19,0-.34.15-.34.34v27.15ZM9.17,4.38c.29,0,.55.18.65.45l2.38,6.3c.1.26-.03.54-.29.64-.26.1-.54-.03-.64-.29l-.48-1.28h-3.26l-.49,1.28c-.08.2-.26.32-.46.32-.06,0-.12-.01-.18-.03-.26-.1-.39-.38-.29-.64l2.41-6.3c.1-.27.36-.45.65-.45ZM9.17,5.91l-1.26,3.29h2.5l-1.25-3.29ZM12.01,22.52c0,.27.22.5.5.5h13.04c.27,0,.5-.22.5-.5s-.22-.5-.5-.5h-13.04c-.27,0-.5.22-.5.5ZM10.19,23.02h-3.61c-.27,0-.5-.22-.5-.5s.22-.5.5-.5h3.61c.27,0,.5.22.5.5s-.22.5-.5.5ZM14.19,19.38h-7.61c-.27,0-.5.22-.5.5s.22.5.5.5h7.61c.27,0,.5-.22.5-.5s-.22-.5-.5-.5ZM11.54,17.73h-4.96c-.27,0-.5-.22-.5-.5s.22-.5.5-.5h4.96c.27,0,.5.22.5.5s-.22.5-.5.5ZM6.58,15.08h4.96c.27,0,.5-.22.5-.5s-.22-.5-.5-.5h-4.96c-.27,0-.5.22-.5.5s.22.5.5.5ZM23.28,24.67c.27,0,.5.22.5.5s-.22.5-.5.5h-4.65c-.27,0-.5-.22-.5-.5s.22-.5.5-.5h4.65ZM16.81,25.16c0-.27-.22-.5-.5-.5H6.58c-.27,0-.5.22-.5.5s.22.5.5.5h9.73c.27,0,.5-.22.5-.5ZM19.49,28.3h-6.18c-.27,0-.5-.22-.5-.5s.22-.5.5-.5h6.18c.27,0,.5.22.5.5s-.22.5-.5.5ZM6.58,27.31c-.27,0-.5.22-.5.5s.22.5.5.5h4.41c.27,0,.5-.22.5-.5s-.22-.5-.5-.5h-4.41ZM28.71,4.29h2.64c.84,0,1.53.68,1.53,1.53v1.11c0,.27-.22.5-.5.5s-.5-.22-.5-.5v-1.11c0-.29-.24-.53-.54-.53h-15.91c-.3,0-.54.24-.54.53v9.76c0,.29.24.53.54.53h1.94c.27,0,.5.22.5.5v2.54c0,.13.1.23.23.23.06,0,.12-.02.16-.07l3.07-3.06c.09-.09.22-.15.35-.15h1.95c.27,0,.5.22.5.5s-.22.5-.5.5h-1.75l-2.92,2.91c-.23.23-.54.36-.87.36-.68,0-1.23-.55-1.23-1.22v-2.05h-1.45c-.84,0-1.53-.68-1.53-1.53V5.82c0-.84.69-1.53,1.53-1.53h12.27V1.41c0-.19-.15-.34-.34-.34H8.5c-.27,0-.5-.22-.5-.5s.22-.5.5-.5h18.87c.73,0,1.33.6,1.33,1.33v2.88ZM32.39,8.75c-.27,0-.5.22-.5.5v6.33c0,.29-.24.53-.54.53h-5.38c-.27,0-.5.22-.5.5s.22.5.5.5h1.74v10.77h-3.84c-.68,0-1.24.55-1.24,1.24v3.82H4.45c-.19,0-.34-.15-.34-.34v-1.72c0-.27-.22-.5-.5-.5s-.5.22-.5.5v1.72c0,.73.6,1.33,1.33,1.33h18.34c.35,0,.69-.14.94-.39l4.59-4.57c.25-.25.39-.58.39-.94v-10.92h2.64c.84,0,1.53-.68,1.53-1.53v-6.33c0-.27-.22-.5-.5-.5ZM23.63,32.23v-3.12c0-.13.11-.24.25-.24h3.13l-3.38,3.37ZM19.89,14.05c0-.51.41-.92.92-.92s.92.41.92.92c0,.51-.41.92-.92.92s-.92-.41-.92-.92ZM20.3,14.05c0,.28.23.51.51.51s.51-.23.51-.51-.23-.51-.51-.51-.51.23-.51.51ZM24.7,13.13c-.51,0-.92.41-.92.92s.41.92.92.92.92-.41.92-.92-.41-.92-.92-.92ZM24.7,14.56c-.28,0-.51-.23-.51-.51s.23-.51.51-.51.51.23.51.51-.23.51-.51.51ZM26.61,7.7c.06,0,.12.04.16.08.04.05.05.11.03.17l-.49,2.05c-.11.46-.5.8-.97.86l-4.31.45-.08.18c-.06.16-.04.34.05.49.09.15.25.24.43.24h3.98c.11,0,.2.09.2.2s-.09.2-.2.2h-3.98c-.31,0-.6-.17-.77-.43-.17-.26-.21-.59-.09-.89l.1-.23-1.3-3.91c-.07-.21-.27-.35-.49-.36h-.69c-.11,0-.2-.09-.2-.2s.09-.2.2-.2h.69c.4,0,.75.26.88.63l.18.56,6.66.09ZM25.29,10.45c.3-.02.56-.24.62-.54l.44-1.8-6.27-.09.95,2.88,4.25-.44Z"/>
</svg>