<?xml version="1.0" encoding="UTF-8"?>
<svg id="Layer_1" data-name="Layer 1" xmlns="http://www.w3.org/2000/svg" xmlns:xlink="http://www.w3.org/1999/xlink" viewBox="0 0 36 34">
  <defs>
    <style>
      .cls-1 {
        fill: url(#linear-gradient);
        fill-rule: evenodd;
        stroke-width: 0px;
      }
    </style>
    <linearGradient id="linear-gradient" x1="1.07" y1="-251" x2="34.93" y2="-251" gradientTransform="translate(0 -234) scale(1 -1)" gradientUnits="userSpaceOnUse">
      <stop offset="0" stop-color="#0049e7"/>
      <stop offset="1" stop-color="#c835f8"/>
    </linearGradient>
  </defs>
  <path class="cls-1" d="M1.64.07h32.72c.15,0,.29.06.4.17.11.11.17.25.17.4v32.72c0,.15-.06.29-.17.4-.11.11-.25.17-.4.17H1.64c-.15,0-.29-.06-.4-.17-.11-.11-.17-.25-.17-.4V.64c0-.15.06-.29.17-.4.11-.11.25-.17.4-.17ZM2.2,32.8h31.6V1.2H2.2v31.6ZM32.11,2.33h-14.67c-.15,0-.29.06-.4.17-.11.11-.17.25-.17.4v12.41c0,.15.06.29.17.4.11.11.25.17.4.17h14.67c.15,0,.29-.06.4-.17.11-.11.17-.25.17-.4V2.89c0-.15-.06-.29-.17-.4-.11-.11-.25-.17-.4-.17ZM18,3.46h13.54v11.28h-13.54V3.46ZM32.11,17H3.89c-.15,0-.29.06-.4.17-.11.11-.17.25-.17.4v13.54c0,.15.06.29.17.4.11.11.25.17.4.17h28.21c.15,0,.29-.06.4-.17s.17-.25.17-.4v-13.54c0-.15-.06-.29-.17-.4s-.25-.17-.4-.17ZM9.98,30.54l5.2-8.51,5.2,8.51h-10.4ZM21.7,30.54l-1.76-2.88,2.01-2.9,4,5.78h-4.25ZM31.54,30.54h-4.22l-4.91-7.09c-.05-.07-.12-.14-.2-.18-.08-.04-.17-.06-.26-.06s-.18.02-.26.06c-.08.04-.15.1-.2.18l-2.19,3.16-3.64-5.95c-.05-.08-.12-.14-.21-.19-.08-.04-.18-.07-.27-.07s-.19.02-.27.07c-.08.04-.16.11-.21.19l-6.04,9.89h-4.2v-12.41h27.08v12.41ZM20.07,22.36c-.28.19-.61.29-.94.29-.45,0-.88-.18-1.2-.5-.32-.32-.5-.75-.5-1.2,0-.33.1-.66.29-.94.19-.28.45-.5.76-.62.31-.13.65-.16.98-.1.33.07.63.23.87.46.24.24.4.54.46.87.07.33.03.67-.1.98-.13.31-.35.57-.62.76ZM19.44,20.48c-.09-.06-.2-.1-.31-.1-.15,0-.29.06-.4.17-.11.11-.17.25-.17.4,0,.11.03.22.1.31.06.09.15.17.25.21.1.04.22.05.33.03.11-.02.21-.08.29-.15.08-.08.13-.18.15-.29.02-.11.01-.22-.03-.33-.04-.1-.12-.19-.21-.25ZM7.28,4.02h7.9c.15,0,.29-.06.4-.17.11-.11.17-.25.17-.4s-.06-.29-.17-.4c-.11-.11-.25-.17-.4-.17h-7.9c-.15,0-.29.06-.4.17-.11.11-.17.25-.17.4s.06.29.17.4c.11.11.25.17.4.17ZM15.18,6.28H3.89c-.15,0-.29-.06-.4-.17-.11-.11-.17-.25-.17-.4s.06-.29.17-.4c.11-.11.25-.17.4-.17h11.28c.15,0,.29.06.4.17.11.11.17.25.17.4s-.06.29-.17.4c-.11.11-.25.17-.4.17ZM3.89,8.54h11.28c.15,0,.29-.06.4-.17.11-.11.17-.25.17-.4s-.06-.29-.17-.4c-.11-.11-.25-.17-.4-.17H3.89c-.15,0-.29.06-.4.17-.11.11-.17.25-.17.4s.06.29.17.4c.11.11.25.17.4.17ZM15.18,10.79H3.89c-.15,0-.29-.06-.4-.17-.11-.11-.17-.25-.17-.4s.06-.29.17-.4c.11-.11.25-.17.4-.17h11.28c.15,0,.29.06.4.17.11.11.17.25.17.4s-.06.29-.17.4-.25.17-.4.17ZM3.89,13.05h11.28c.15,0,.29-.06.4-.17.11-.11.17-.25.17-.4s-.06-.29-.17-.4c-.11-.11-.25-.17-.4-.17H3.89c-.15,0-.29.06-.4.17-.11.11-.17.25-.17.4s.06.29.17.4c.11.11.25.17.4.17ZM15.18,15.31H3.89c-.15,0-.29-.06-.4-.17-.11-.11-.17-.25-.17-.4s.06-.29.17-.4c.11-.11.25-.17.4-.17h11.28c.15,0,.29.06.4.17.11.11.17.25.17.4s-.06.29-.17.4c-.11.11-.25.17-.4.17ZM3.89,4.02h1.13c.15,0,.29-.06.4-.17.11-.11.17-.25.17-.4s-.06-.29-.17-.4-.25-.17-.4-.17h-1.13c-.15,0-.29.06-.4.17-.11.11-.17.25-.17.4s.06.29.17.4c.11.11.25.17.4.17ZM24.21,12.47c-.37,0-.68-.3-.68-.68s.3-.68.68-.68.68.3.68.68-.3.68-.68.68ZM24.44,11.79c0-.12-.1-.23-.23-.23s-.23.1-.23.23.1.23.23.23.23-.1.23-.23ZM25.8,11.79c0,.37.3.68.68.68s.68-.3.68-.68-.3-.68-.68-.68-.68.3-.68.68ZM26.48,11.57c.12,0,.23.1.23.23s-.1.23-.23.23-.23-.1-.23-.23.1-.23.23-.23ZM22.58,6.62h5.7c.15,0,.26.14.22.29l-.9,3.15c-.03.1-.12.16-.22.16h-3.93l-.06.12c-.07.15.03.33.2.33h3.79c.12,0,.23.1.23.23s-.1.23-.23.23h-3.79c-.5,0-.83-.53-.6-.98l.09-.17-1.09-3.8h-.94c-.12,0-.23-.1-.23-.23s.1-.23.23-.23h1.11c.1,0,.19.07.22.16l.21.74ZM23.48,9.77h3.73l.77-2.7h-5.27l.77,2.7Z"/>
</svg>