<?xml version="1.0" encoding="UTF-8"?>
<svg id="Layer_1" data-name="Layer 1" xmlns="http://www.w3.org/2000/svg" xmlns:xlink="http://www.w3.org/1999/xlink" viewBox="0 0 36 34">
  <defs>
    <style>
      .cls-1 {
        fill: url(#linear-gradient);
        fill-rule: evenodd;
        stroke-width: 0px;
      }
    </style>
    <linearGradient id="linear-gradient" x1="2.35" y1="-251" x2="33.65" y2="-251" gradientTransform="translate(0 -234) scale(1 -1)" gradientUnits="userSpaceOnUse">
      <stop offset="0" stop-color="#0049e7"/>
      <stop offset="1" stop-color="#c835f8"/>
    </linearGradient>
  </defs>
  <path class="cls-1" d="M20.34,18.02c1.41-1.18,3.22-1.89,5.19-1.89,4.47,0,8.11,3.64,8.11,8.11,0,1.58-.45,3.11-1.31,4.42-.15.23-.45.29-.68.14-.23-.15-.29-.45-.14-.68.75-1.16,1.15-2.5,1.15-3.89,0-3.93-3.2-7.13-7.13-7.13s-7.13,3.2-7.13,7.13,3.2,7.13,7.13,7.13c1.68,0,3.31-.59,4.59-1.67.21-.17.52-.15.69.06.17.21.15.52-.06.69-1.46,1.23-3.31,1.9-5.22,1.9-.58,0-1.15-.06-1.7-.18-.22.89-1.03,1.56-1.99,1.56H4.4c-1.13,0-2.05-.92-2.05-2.05V6.3c0-1.13.92-2.05,2.05-2.05h3.62c.56-2.29,2.64-4,5.1-4s4.54,1.71,5.1,4h3.62c1.13,0,2.05.92,2.05,2.05v8.13c0,.27-.22.49-.49.49s-.49-.22-.49-.49V6.3c0-.59-.48-1.07-1.07-1.07h-3.48c0,.09,0,.18,0,.27,0,2.9-2.36,5.25-5.25,5.25-1.19,0-2.31-.39-3.25-1.12-.21-.17-.25-.48-.08-.69.17-.21.48-.25.69-.08.76.6,1.67.91,2.64.91,2.36,0,4.27-1.92,4.27-4.27s-1.92-4.27-4.27-4.27-4.27,1.92-4.27,4.27c0,.56.11,1.11.32,1.62.1.25-.02.54-.27.64-.25.1-.54-.02-.64-.27-.29-.68-.43-1.6-.39-2.27h-3.48c-.59,0-1.07.48-1.07,1.07v25.39c0,.59.48,1.07,1.07,1.07h17.45c.51,0,.94-.36,1.04-.84-2.08-.72-3.78-2.27-4.7-4.24h-8.55c-.27,0-.49-.22-.49-.49s.22-.49.49-.49h8.16c-.24-.77-.38-1.59-.38-2.45,0-.31.02-.61.05-.91h-7.84c-.27,0-.49-.22-.49-.49s.22-.49.49-.49h8.01c.3-1.26.9-2.4,1.71-3.36h-9.72c-.27,0-.49-.22-.49-.49s.22-.49.49-.49h10.71ZM24.72,28.63c-.45,0-.82-.37-.82-.82s.37-.82.81-.82h-.75c-.61,0-1-.64-.73-1.18l.1-.21-1.31-4.6h-1.13c-.15,0-.27-.12-.27-.27s.12-.27.27-.27h1.34c.12,0,.23.08.26.2l.25.89h6.89c.18,0,.31.17.26.35l-1.09,3.81c-.03.12-.14.2-.26.2h-4.75l-.08.15c-.09.18.04.39.24.39h4.58c.15,0,.27.12.27.27s-.12.27-.27.27h-1.09c.45,0,.81.37.81.82s-.37.82-.82.82-.82-.37-.82-.82.37-.82.81-.82h-2.74c.45,0,.81.37.81.82s-.37.82-.82.82ZM24.99,27.81c0-.15-.12-.27-.27-.27s-.27.12-.27.27.12.27.27.27.27-.12.27-.27ZM27.45,27.54c.15,0,.27.12.27.27s-.12.27-.27.27-.27-.12-.27-.27.12-.27.27-.27ZM23.83,25.36h4.51l.93-3.26h-6.37l.93,3.26ZM13.09,7.24c-.45,0-.57-.02-.91-.24-.23-.15-.53-.08-.68.14-.15.23-.08.53.14.68.37.24.64.34.96.38v.19c0,.27.22.49.49.49s.49-.22.49-.49v-.23c.68-.2,1.12-.79,1.22-1.38.13-.78-.29-1.48-1.05-1.75-.42-.15-.87-.32-1.13-.52-.07-.06-.1-.19-.08-.34.01-.07.08-.32.32-.39.44-.13.66.04.87.25l.02.02c.19.19.5.19.69,0,.19-.19.19-.5,0-.69l-.02-.02c-.12-.13-.4-.41-.85-.53v-.17c0-.27-.22-.49-.49-.49s-.49.22-.49.49v.2s0,0,0,0h0s0,0,0,0c0,0,0,0,0,0-.52.16-.9.6-1.01,1.15-.1.51.07,1,.44,1.29.3.23.7.43,1.41.68.45.16.44.52.41.67-.05.3-.31.63-.74.63ZM5.14,14.18c0-.81.66-1.47,1.47-1.47s1.47.66,1.47,1.47-.66,1.47-1.47,1.47-1.47-.66-1.47-1.47ZM6.12,14.18c0,.27.22.49.49.49s.49-.22.49-.49-.22-.49-.49-.49-.49.22-.49.49ZM9.64,13.69c-.27,0-.49.22-.49.49s.22.49.49.49h10.88c.27,0,.49-.22.49-.49s-.22-.49-.49-.49h-10.88ZM5.14,18.51c0-.81.66-1.47,1.47-1.47s1.47.66,1.47,1.47-.66,1.47-1.47,1.47-1.47-.66-1.47-1.47ZM6.12,18.51c0,.27.22.49.49.49s.49-.22.49-.49-.22-.49-.49-.49-.49.22-.49.49ZM6.61,21.38c-.81,0-1.47.66-1.47,1.47s.66,1.47,1.47,1.47,1.47-.66,1.47-1.47-.66-1.47-1.47-1.47ZM6.61,23.34c-.27,0-.49-.22-.49-.49s.22-.49.49-.49.49.22.49.49-.22.49-.49.49ZM5.14,27.19c0-.81.66-1.47,1.47-1.47s1.47.66,1.47,1.47-.66,1.47-1.47,1.47-1.47-.66-1.47-1.47ZM6.12,27.19c0,.27.22.49.49.49s.49-.22.49-.49-.22-.49-.49-.49-.49.22-.49.49Z"/>
</svg>