<?xml version="1.0" encoding="UTF-8"?>
<svg id="Layer_1" data-name="Layer 1" xmlns="http://www.w3.org/2000/svg" xmlns:xlink="http://www.w3.org/1999/xlink" viewBox="0 0 36 34">
  <defs>
    <style>
      .cls-1 {
        fill: url(#linear-gradient);
        fill-rule: evenodd;
        stroke-width: 0px;
      }
    </style>
    <linearGradient id="linear-gradient" x1="1.12" y1="-35" x2="34.88" y2="-35" gradientTransform="translate(0 -18) scale(1 -1)" gradientUnits="userSpaceOnUse">
      <stop offset="0" stop-color="#0049e7"/>
      <stop offset="1" stop-color="#c835f8"/>
    </linearGradient>
  </defs>
  <path class="cls-1" d="M13.81,29.66H4.64c-1.94,0-3.52-1.58-3.52-3.52V3.64C1.12,1.7,2.7.12,4.64.12h16.88c1.94,0,3.52,1.58,3.52,3.52v8.52c0,.39-.32.7-.7.7s-.7-.32-.7-.7V3.64c0-1.16-.95-2.11-2.11-2.11H4.64c-1.16,0-2.11.95-2.11,2.11v22.5c0,1.16.95,2.11,2.11,2.11h9.17c.39,0,.7.32.7.7s-.32.7-.7.7ZM20.11,12.78H6.04c-.39,0-.7-.32-.7-.7s.32-.7.7-.7h14.06c.39,0,.7.32.7.7s-.32.7-.7.7ZM6.04,18.41h8.44c.39,0,.7-.32.7-.7s-.32-.7-.7-.7H6.04c-.39,0-.7.32-.7.7s.32.7.7.7ZM13.08,7.15h-7.03c-.39,0-.7-.32-.7-.7s.32-.7.7-.7h7.03c.39,0,.7.32.7.7s-.32.7-.7.7ZM16.59,24.74c0,5.04,4.1,9.14,9.14,9.14s9.14-4.1,9.14-9.14-4.1-9.14-9.14-9.14-9.14,4.1-9.14,9.14ZM18,24.74c0-4.26,3.47-7.74,7.74-7.74s7.74,3.47,7.74,7.74-3.47,7.74-7.74,7.74-7.74-3.47-7.74-7.74ZM25.74,29.66c-.39,0-.7-.32-.7-.7v-3.52h-3.52c-.39,0-.7-.32-.7-.7s.32-.7.7-.7h3.52v-3.52c0-.39.32-.7.7-.7s.7.32.7.7v3.52h3.52c.39,0,.7.32.7.7s-.32.7-.7.7h-3.52v3.52c0,.39-.32.7-.7.7Z"/>
</svg>