<?xml version="1.0" encoding="UTF-8"?>
<svg id="Layer_1" data-name="Layer 1" xmlns="http://www.w3.org/2000/svg" xmlns:xlink="http://www.w3.org/1999/xlink" viewBox="0 0 36 34">
  <defs>
    <style>
      .cls-1 {
        fill: url(#linear-gradient);
        fill-rule: evenodd;
        stroke-width: 0px;
      }
    </style>
    <linearGradient id="linear-gradient" x1="1.54" y1="-359" x2="34.46" y2="-359" gradientTransform="translate(0 -342) scale(1 -1)" gradientUnits="userSpaceOnUse">
      <stop offset="0" stop-color="#0049e7"/>
      <stop offset="1" stop-color="#c835f8"/>
    </linearGradient>
  </defs>
  <path class="cls-1" d="M32.26,5.48h.55c.44,0,.85.17,1.16.48.31.31.48.73.48,1.16v24.68c0,.44-.17.85-.48,1.16s-.73.48-1.16.48H5.38c-.44,0-.85-.17-1.16-.48-.31-.31-.48-.73-.48-1.16v-1.65h-.55c-.44,0-.85-.17-1.16-.48-.31-.31-.48-.73-.48-1.16V2.19c0-.44.17-.85.48-1.16.31-.31.73-.48,1.16-.48h27.43c.44,0,.85.17,1.16.48.31.31.48.73.48,1.16v3.29ZM2.8,1.8c-.1.1-.16.24-.16.39v1.1h28.52v-1.1c0-.15-.06-.28-.16-.39s-.24-.16-.39-.16H3.19c-.15,0-.28.06-.39.16ZM3.74,29.07V7.13c0-.44.17-.85.48-1.16.31-.31.73-.48,1.16-.48h25.78v-1.1H2.64v24.14c0,.15.06.28.16.39s.24.16.39.16h.55ZM33.2,32.2c.1-.1.16-.24.16-.39V10.97H4.83v20.85c0,.15.06.28.16.39s.24.16.39.16h27.43c.15,0,.28-.06.39-.16ZM4.83,9.87h28.52v-2.74c0-.15-.06-.28-.16-.39-.1-.1-.24-.16-.39-.16H5.38c-.15,0-.28.06-.39.16-.1.1-.16.24-.16.39v2.74ZM7.03,7.67h-1.1v1.1h1.1v-1.1ZM8.13,7.67h1.1v1.1h-1.1v-1.1ZM11.42,7.67h-1.1v1.1h1.1v-1.1ZM16.08,25.12c0,.62.5,1.12,1.12,1.12s1.12-.5,1.12-1.12-.5-1.12-1.12-1.12-1.12.5-1.12,1.12ZM17.19,24.75c.21,0,.37.17.37.37s-.17.37-.37.37-.37-.17-.37-.37.17-.37.37-.37ZM20.93,26.24c-.62,0-1.12-.5-1.12-1.12s.5-1.12,1.12-1.12,1.12.5,1.12,1.12-.5,1.12-1.12,1.12ZM21.31,25.12c0-.21-.17-.37-.37-.37s-.37.17-.37.37.17.37.37.37.37-.17.37-.37ZM23.91,16.57h-9.41l-.35-1.22c-.05-.16-.19-.27-.36-.27h-1.83c-.21,0-.37.17-.37.37s.17.37.37.37h1.55c.42,1.46,1.39,4.86,1.8,6.28l-.14.28c-.37.74.17,1.61,1,1.61h6.26c.21,0,.37-.17.37-.37s-.17-.37-.37-.37h-6.26c-.28,0-.46-.29-.33-.54l.1-.21h6.49c.17,0,.31-.11.36-.27l1.49-5.2c.07-.24-.11-.47-.36-.47ZM22.14,21.78h-6.16l-1.27-4.46h8.71l-1.27,4.46ZM32.26,7.67H12.51v1.1h19.75v-1.1Z"/>
</svg>