<?xml version="1.0" encoding="UTF-8"?>
<svg id="Layer_1" data-name="Layer 1" xmlns="http://www.w3.org/2000/svg" xmlns:xlink="http://www.w3.org/1999/xlink" viewBox="0 0 36 34">
  <defs>
    <style>
      .cls-1 {
        fill: url(#linear-gradient);
        fill-rule: evenodd;
        stroke-width: 0px;
      }
    </style>
    <linearGradient id="linear-gradient" x1="3.16" y1="-35" x2="32.84" y2="-35" gradientTransform="translate(0 -18) scale(1 -1)" gradientUnits="userSpaceOnUse">
      <stop offset="0" stop-color="#0049e7"/>
      <stop offset="1" stop-color="#c835f8"/>
    </linearGradient>
  </defs>
  <path class="cls-1" d="M30.51.05H5.49C4.2.05,3.16,1.22,3.16,2.66v5.21c0,1.44,1.04,2.61,2.33,2.61h25.02c1.29,0,2.33-1.17,2.33-2.61V2.66c0-1.44-1.04-2.61-2.33-2.61ZM31.67,7.88c0,.72-.52,1.3-1.16,1.3H5.49c-.64,0-1.16-.58-1.16-1.3V2.66c0-.72.52-1.3,1.16-1.3h25.02c.64,0,1.16.58,1.16,1.3v5.21ZM7.81,3.04l1.73,1.08c.37.23.6.67.6,1.15s-.23.92-.6,1.15l-1.73,1.08c-.36.23-.81.22-1.16-.01-.36-.24-.58-.67-.58-1.13v-2.15c0-.46.22-.89.58-1.13.36-.24.8-.24,1.16-.02ZM7.24,4.18v2.16s1.74-1.07,1.74-1.07l-1.73-1.09h0ZM30.51,11.79H5.49c-1.29,0-2.33,1.17-2.33,2.61v5.21c0,1.44,1.04,2.61,2.33,2.61h25.02c1.29,0,2.33-1.17,2.33-2.61v-5.21c0-1.44-1.04-2.61-2.33-2.61ZM31.67,19.61c0,.72-.52,1.3-1.16,1.3H5.49c-.64,0-1.16-.58-1.16-1.3v-5.21c0-.72.52-1.3,1.16-1.3h25.02c.64,0,1.16.58,1.16,1.3v5.21ZM7.81,14.78l1.73,1.08c.37.23.6.67.6,1.15s-.23.92-.6,1.15l-1.73,1.08c-.36.23-.81.22-1.16-.01-.36-.24-.58-.67-.58-1.13v-2.15c0-.46.22-.89.58-1.13.36-.24.8-.24,1.16-.02ZM7.24,15.91v2.16s1.74-1.07,1.74-1.07l-1.73-1.09h0ZM30.51,23.52H5.49c-1.29,0-2.33,1.17-2.33,2.61v5.21c0,1.44,1.04,2.61,2.33,2.61h25.02c1.29,0,2.33-1.17,2.33-2.61v-5.21c0-1.44-1.04-2.61-2.33-2.61ZM31.67,31.34c0,.72-.52,1.3-1.16,1.3H5.49c-.64,0-1.16-.58-1.16-1.3v-5.21c0-.72.52-1.3,1.16-1.3h25.02c.64,0,1.16.58,1.16,1.3v5.21ZM9.54,27.59l-1.73-1.08c-.36-.23-.8-.22-1.16.02-.36.24-.58.67-.58,1.13v2.15c0,.47.22.9.58,1.13.36.24.8.24,1.16.01l1.73-1.08c.37-.23.6-.67.6-1.15s-.23-.92-.6-1.15ZM7.24,29.81v-2.16h.01l1.73,1.09-1.74,1.07ZM19.45,3.31h8.73c.32,0,.58.29.58.65s-.26.65-.58.65h-8.73c-.32,0-.58-.29-.58-.65s.26-.65.58-.65ZM13.05,4.62h4.07c.32,0,.58-.29.58-.65s-.26-.65-.58-.65h-4.07c-.32,0-.58.29-.58.65s.26.65.58.65ZM13.05,5.92h9.89c.32,0,.58.29.58.65s-.26.65-.58.65h-9.89c-.32,0-.58-.29-.58-.65s.26-.65.58-.65ZM28.18,15.04h-8.73c-.32,0-.58.29-.58.65s.26.65.58.65h8.73c.32,0,.58-.29.58-.65s-.26-.65-.58-.65ZM17.13,16.35h-4.07c-.32,0-.58-.29-.58-.65s.26-.65.58-.65h4.07c.32,0,.58.29.58.65s-.26.65-.58.65ZM22.95,17.65h-9.89c-.32,0-.58.29-.58.65s.26.65.58.65h9.89c.32,0,.58-.29.58-.65s-.26-.65-.58-.65ZM19.45,26.78h8.73c.32,0,.58.29.58.65s-.26.65-.58.65h-8.73c-.32,0-.58-.29-.58-.65s.26-.65.58-.65ZM13.05,28.08h4.07c.32,0,.58-.29.58-.65s-.26-.65-.58-.65h-4.07c-.32,0-.58.29-.58.65s.26.65.58.65ZM13.05,29.38h9.89c.32,0,.58.29.58.65s-.26.65-.58.65h-9.89c-.32,0-.58-.29-.58-.65s.26-.65.58-.65Z"/>
</svg>