<?xml version="1.0" encoding="UTF-8"?>
<svg id="Layer_1" data-name="Layer 1" xmlns="http://www.w3.org/2000/svg" xmlns:xlink="http://www.w3.org/1999/xlink" viewBox="0 0 36 34">
  <defs>
    <style>
      .cls-1 {
        fill: url(#linear-gradient);
        fill-rule: evenodd;
        stroke-width: 0px;
      }
    </style>
    <linearGradient id="linear-gradient" x1="1.05" y1="-35" x2="34.95" y2="-35" gradientTransform="translate(0 -18) scale(1 -1)" gradientUnits="userSpaceOnUse">
      <stop offset="0" stop-color="#0049e7"/>
      <stop offset="1" stop-color="#c835f8"/>
    </linearGradient>
  </defs>
  <path class="cls-1" d="M34.27,27.55l-3.14-3.14c-.19-.19-.51-.19-.7,0l-.02.02-1.21-1.21c.81-1.25,1.3-2.7,1.39-4.21.02-.27-.19-.51-.47-.53-.27-.02-.51.19-.53.47-.12,1.89-.92,3.66-2.26,5-1.51,1.51-3.5,2.27-5.48,2.27h0s0,0,0,0h-.04c-1.97,0-3.95-.77-5.45-2.27-1.47-1.47-2.27-3.41-2.27-5.49s.81-4.02,2.27-5.49c3.03-3.03,7.95-3.03,10.98,0,1.13,1.13,1.87,2.55,2.15,4.11.05.27.31.45.58.4.27-.05.45-.31.4-.58-.32-1.76-1.16-3.37-2.43-4.64-.63-.63-1.33-1.14-2.08-1.54v-4.01c0-.13-.05-.26-.15-.35L19.64.19c-.09-.09-.22-.15-.35-.15H2.54C1.72.05,1.05.72,1.05,1.54v4.18c0,.27.22.5.5.5s.5-.22.5-.5V1.54c0-.27.22-.5.5-.5h16.25v4.67c0,.82.67,1.49,1.49,1.49h4.67v3.06c-.97-.37-1.99-.56-3.02-.57h0s0,0-.01,0h-11.11c-.27,0-.5.22-.5.5s.22.5.5.5h6.97c-.71.37-1.38.85-1.99,1.43h-4.98c-.27,0-.5.22-.5.5s.22.5.5.5h4.09c-.81,1.05-1.37,2.26-1.63,3.56h-2.45c-.27,0-.5.22-.5.5s.22.5.5.5h2.31c-.02.26-.04.52-.04.78,0,.22,0,.43.02.64h-2.3c-.27,0-.5.22-.5.5s.22.5.5.5h2.43c.25,1.35.82,2.61,1.66,3.7h-4.09c-.27,0-.5.22-.5.5s.22.5.5.5h4.98c.61.58,1.27,1.05,1.98,1.42h-6.97c-.27,0-.5.22-.5.5s.22.5.5.5h11.03c1.06,0,2.11-.19,3.11-.57v5.82c0,.27-.22.5-.5.5H2.54c-.27,0-.5-.22-.5-.5V7.71c0-.27-.22-.5-.5-.5s-.5.22-.5.5v24.74c0,.82.67,1.49,1.49,1.49h21.92c.82,0,1.49-.67,1.49-1.49v-6.27c.22-.12.44-.25.65-.38l1.21,1.21c-.21.18-.22.53-.02.72l3.14,3.14c.88.91,2.45.91,3.33,0,.91-.88.91-2.45,0-3.33ZM20.29,6.21c-.27,0-.5-.22-.5-.5V1.75l4.47,4.47h-3.97ZM27.42,25.21c.21-.18.42-.36.62-.56.2-.2.38-.4.56-.62l1.1,1.1-1.18,1.18-1.1-1.1ZM33.56,30.17c-.51.53-1.41.53-1.92,0l-2.79-2.79,1.92-1.92,2.79,2.79c.53.51.53,1.41,0,1.92ZM16.77,21.65c.22-.17.53-.12.7.1.15.2.32.4.5.58,1.04,1.04,2.41,1.61,3.88,1.61s2.84-.57,3.88-1.61c1.04-1.04,1.61-2.41,1.61-3.88s-.57-2.84-1.61-3.88c-2.14-2.14-5.62-2.14-7.75,0-1.46,1.46-1.97,3.58-1.35,5.55.08.26-.06.54-.32.63-.26.08-.54-.06-.63-.32-.74-2.32-.13-4.83,1.59-6.56,2.53-2.53,6.64-2.53,9.16,0,1.22,1.22,1.9,2.85,1.9,4.58s-.67,3.36-1.9,4.58c-1.22,1.22-2.85,1.9-4.58,1.9s-3.36-.67-4.58-1.9c-.21-.21-.41-.44-.6-.68-.17-.22-.12-.53.1-.7ZM22.42,20.95c-.29.3-.69.47-1.11.47s-.79-.16-1.08-.44l-1.37-1.33c-.61-.59-.62-1.57-.03-2.18.59-.61,1.57-.62,2.18-.03l.27.26,1.53-1.57c.59-.61,1.57-.62,2.18-.03.61.59.62,1.57.03,2.18l-2.6,2.67ZM20.32,18.14c-.22-.21-.56-.21-.78.01-.21.22-.21.56.01.77l1.37,1.33c.21.21.57.2.77-.01l2.6-2.67c.21-.22.21-.56,0-.77-.22-.21-.56-.21-.78,0l-1.87,1.92c-.19.2-.51.2-.7,0l-.62-.61ZM7.74,13.61h-2.18c-.61,0-1.11-.5-1.11-1.11v-2.18c0-.61.5-1.11,1.11-1.11h2.18c.61,0,1.11.5,1.11,1.11v2.18c0,.61-.5,1.11-1.11,1.11ZM5.57,10.2c-.06,0-.12.05-.12.12v2.18c0,.06.05.12.12.12h2.18c.06,0,.12-.05.12-.12v-2.18c0-.06-.05-.12-.12-.12h-2.18ZM4.45,19.47c0,.61.5,1.11,1.11,1.11h2.18c.61,0,1.11-.5,1.11-1.11v-2.18c0-.61-.5-1.11-1.11-1.11h-2.18c-.61,0-1.11.5-1.11,1.11v2.18ZM5.45,17.3c0-.06.05-.12.12-.12h2.18c.07,0,.12.05.12.12v2.18c0,.06-.05.12-.12.12h-2.18c-.06,0-.12-.05-.12-.12v-2.18ZM5.57,27.71c-.61,0-1.11-.5-1.11-1.11v-2.18c0-.61.5-1.11,1.11-1.11h2.18c.61,0,1.11.5,1.11,1.11v2.18c0,.61-.5,1.11-1.11,1.11h-2.18ZM5.57,24.3c-.06,0-.12.05-.12.12v2.18c0,.06.05.12.12.12h2.18c.06,0,.12-.05.12-.12v-2.18c0-.06-.05-.12-.12-.12h-2.18Z"/>
</svg>