<?xml version="1.0" encoding="UTF-8"?>
<svg id="Layer_1" data-name="Layer 1" xmlns="http://www.w3.org/2000/svg" xmlns:xlink="http://www.w3.org/1999/xlink" viewBox="0 0 36 34">
  <defs>
    <style>
      .cls-1 {
        fill: url(#linear-gradient);
        fill-rule: evenodd;
        stroke-width: 0px;
      }
    </style>
    <linearGradient id="linear-gradient" x1="1.06" y1="-35" x2="34.94" y2="-35" gradientTransform="translate(0 -18) scale(1 -1)" gradientUnits="userSpaceOnUse">
      <stop offset="0" stop-color="#0049e7"/>
      <stop offset="1" stop-color="#c835f8"/>
    </linearGradient>
  </defs>
  <path class="cls-1" d="M2.19,7.4v-1.13c-.62,0-1.13-.51-1.13-1.13V1.75C1.06.82,1.82.06,2.75.06h3.39c.62,0,1.13.51,1.13,1.13h1.13c.31,0,.56.25.56.56s-.25.56-.56.56h-1.13c0,.62-.51,1.13-1.13,1.13h-1.69v1.69c0,.62-.51,1.13-1.13,1.13v1.13c0,.31-.25.56-.56.56s-.56-.25-.56-.56ZM2.75,1.19c-.31,0-.56.25-.56.56v3.39h1.13v-1.69c0-.62.51-1.13,1.13-1.13h1.69v-1.13h-3.39ZM2.75,15.87c.31,0,.56.25.56.56v1.13c0,.31-.25.56-.56.56s-.56-.25-.56-.56v-1.13c0-.31.25-.56.56-.56ZM3.32,13.05c0-.31-.25-.56-.56-.56s-.56.25-.56.56v1.13c0,.31.25.56.56.56s.56-.25.56-.56v-1.13ZM2.75,9.09c.31,0,.56.25.56.56v1.13c0,.31-.25.56-.56.56s-.56-.25-.56-.56v-1.13c0-.31.25-.56.56-.56ZM3.32,19.82c0-.31-.25-.56-.56-.56s-.56.25-.56.56v1.13c0,.31.25.56.56.56s.56-.25.56-.56v-1.13ZM2.19,23.21c0-.31.25-.56.56-.56s.56.25.56.56v1.13c0,.31-.25.56-.56.56s-.56-.25-.56-.56v-1.13ZM6.14,33.94c.62,0,1.13-.51,1.13-1.13h1.13c.31,0,.56-.25.56-.56s-.25-.56-.56-.56h-1.13c0-.62-.51-1.13-1.13-1.13h-1.69v-1.69c0-.62-.51-1.13-1.13-1.13v-1.13c0-.31-.25-.56-.56-.56s-.56.25-.56.56v1.13c-.62,0-1.13.51-1.13,1.13v3.39c0,.94.76,1.69,1.69,1.69h3.39ZM2.19,28.86h1.13v1.69c0,.62.51,1.13,1.13,1.13h1.69v1.13h-3.39c-.31,0-.56-.25-.56-.56v-3.39ZM19.13,32.25c0,.31-.25.56-.56.56h-1.13c-.31,0-.56-.25-.56-.56s.25-.56.56-.56h1.13c.31,0,.56.25.56.56ZM15.18,32.81c.31,0,.56-.25.56-.56s-.25-.56-.56-.56h-1.13c-.31,0-.56.25-.56.56s.25.56.56.56h1.13ZM12.35,32.25c0,.31-.25.56-.56.56h-1.13c-.31,0-.56-.25-.56-.56s.25-.56.56-.56h1.13c.31,0,.56.25.56.56ZM33.81,27.73v-1.13c0-.31-.25-.56-.56-.56s-.56.25-.56.56v1.13c-.62,0-1.13.51-1.13,1.13v1.69h-1.69c-.62,0-1.13.51-1.13,1.13h-1.13c-.31,0-.56.25-.56.56s.25.56.56.56h1.13c0,.62.51,1.13,1.13,1.13h3.39c.94,0,1.69-.76,1.69-1.69v-3.39c0-.62-.51-1.13-1.13-1.13ZM33.81,32.25c0,.31-.25.56-.56.56h-3.39v-1.13h1.69c.62,0,1.13-.51,1.13-1.13v-1.69h1.13v3.39ZM33.25,18.13c-.31,0-.56-.25-.56-.56v-1.13c0-.31.25-.56.56-.56s.56.25.56.56v1.13c0,.31-.25.56-.56.56ZM32.68,20.95c0,.31.25.56.56.56s.56-.25.56-.56v-1.13c0-.31-.25-.56-.56-.56s-.56.25-.56.56v1.13ZM33.25,24.91c-.31,0-.56-.25-.56-.56v-1.13c0-.31.25-.56.56-.56s.56.25.56.56v1.13c0,.31-.25.56-.56.56ZM33.25.06h-3.39c-.62,0-1.13.51-1.13,1.13h-1.13c-.31,0-.56.25-.56.56s.25.56.56.56h1.13c0,.62.51,1.13,1.13,1.13h1.69v1.69c0,.62.51,1.13,1.13,1.13v1.13c0,.31.25.56.56.56s.56-.25.56-.56v-1.13c.62,0,1.13-.51,1.13-1.13V1.75c0-.94-.76-1.69-1.69-1.69ZM32.68,5.14v-1.69c0-.62-.51-1.13-1.13-1.13h-1.69v-1.13h3.39c.31,0,.56.25.56.56v3.39h-1.13ZM18.56,2.32h-1.13c-.31,0-.56-.25-.56-.56s.25-.56.56-.56h1.13c.31,0,.56.25.56.56s-.25.56-.56.56ZM20.82,2.32h1.13c.31,0,.56-.25.56-.56s-.25-.56-.56-.56h-1.13c-.31,0-.56.25-.56.56s.25.56.56.56ZM25.34,2.32h-1.13c-.31,0-.56-.25-.56-.56s.25-.56.56-.56h1.13c.31,0,.56.25.56.56s-.25.56-.56.56ZM14.05,2.32h1.13c.31,0,.56-.25.56-.56s-.25-.56-.56-.56h-1.13c-.31,0-.56.25-.56.56s.25.56.56.56ZM11.79,2.32h-1.13c-.31,0-.56-.25-.56-.56s.25-.56.56-.56h1.13c.31,0,.56.25.56.56s-.25.56-.56.56ZM32.68,14.18c0,.31.25.56.56.56s.56-.25.56-.56v-1.13c0-.31-.25-.56-.56-.56s-.56.25-.56.56v1.13ZM33.81,10.79c0,.31-.25.56-.56.56s-.56-.25-.56-.56v-1.13c0-.31.25-.56.56-.56s.56.25.56.56v1.13ZM21.95,32.81c.31,0,.56-.25.56-.56s-.25-.56-.56-.56h-1.13c-.31,0-.56.25-.56.56s.25.56.56.56h1.13ZM25.91,32.25c0,.31-.25.56-.56.56h-1.13c-.31,0-.56-.25-.56-.56s.25-.56.56-.56h1.13c.31,0,.56.25.56.56ZM6.14,8.53v5.65c0,.31.25.56.56.56s.56-.25.56-.56v-2.82h4.52v2.82c0,.31.25.56.56.56s.56-.25.56-.56v-5.65c0-1.87-1.52-3.39-3.39-3.39s-3.39,1.52-3.39,3.39ZM9.53,6.27c1.25,0,2.26,1.01,2.26,2.26v1.69h-4.52v-1.69c0-1.25,1.01-2.26,2.26-2.26ZM29.3,7.4h-12.99c-.31,0-.56-.25-.56-.56s.25-.56.56-.56h12.99c.31,0,.56.25.56.56s-.25.56-.56.56ZM29.3,9.66h-12.99c-.31,0-.56.25-.56.56s.25.56.56.56h12.99c.31,0,.56-.25.56-.56s-.25-.56-.56-.56ZM16.31,13.05h12.99c.31,0,.56.25.56.56s-.25.56-.56.56h-12.99c-.31,0-.56-.25-.56-.56s.25-.56.56-.56ZM29.3,16.44H6.7c-.31,0-.56.25-.56.56s.25.56.56.56h22.59c.31,0,.56-.25.56-.56s-.25-.56-.56-.56ZM6.7,19.82h22.59c.31,0,.56.25.56.56s-.25.56-.56.56H6.7c-.31,0-.56-.25-.56-.56s.25-.56.56-.56ZM29.3,23.21H6.7c-.31,0-.56.25-.56.56s.25.56.56.56h22.59c.31,0,.56-.25.56-.56s-.25-.56-.56-.56ZM29.3,26.6c.31,0,.56.25.56.56s-.25.56-.57.56H6.7c-.31,0-.56-.25-.56-.56s.25-.56.56-.56h22.59Z"/>
</svg>