<?xml version="1.0" encoding="UTF-8"?>
<svg id="Layer_1" data-name="Layer 1" xmlns="http://www.w3.org/2000/svg" xmlns:xlink="http://www.w3.org/1999/xlink" viewBox="0 0 36 34">
  <defs>
    <style>
      .cls-1 {
        fill: #953af4;
      }

      .cls-1, .cls-2, .cls-3, .cls-4, .cls-5, .cls-6, .cls-7, .cls-8, .cls-9, .cls-10, .cls-11, .cls-12, .cls-13, .cls-14, .cls-15, .cls-16, .cls-17, .cls-18, .cls-19, .cls-20, .cls-21, .cls-22, .cls-23, .cls-24, .cls-25, .cls-26, .cls-27, .cls-28, .cls-29, .cls-30, .cls-31, .cls-32, .cls-33, .cls-34, .cls-35, .cls-36, .cls-37, .cls-38, .cls-39, .cls-40, .cls-41, .cls-42, .cls-43, .cls-44, .cls-45, .cls-46, .cls-47, .cls-48, .cls-49, .cls-50, .cls-51, .cls-52, .cls-53, .cls-54, .cls-55, .cls-56, .cls-57, .cls-58, .cls-59, .cls-60, .cls-61, .cls-62, .cls-63, .cls-64, .cls-65, .cls-66, .cls-67, .cls-68, .cls-69, .cls-70, .cls-71, .cls-72, .cls-73, .cls-74, .cls-75, .cls-76, .cls-77, .cls-78, .cls-79, .cls-80, .cls-81, .cls-82, .cls-83, .cls-84, .cls-85, .cls-86, .cls-87, .cls-88, .cls-89, .cls-90, .cls-91, .cls-92, .cls-93, .cls-94, .cls-95, .cls-96, .cls-97, .cls-98, .cls-99, .cls-100, .cls-101, .cls-102, .cls-103, .cls-104, .cls-105, .cls-106, .cls-107, .cls-108, .cls-109, .cls-110, .cls-111, .cls-112, .cls-113, .cls-114, .cls-115, .cls-116, .cls-117, .cls-118, .cls-119, .cls-120, .cls-121, .cls-122, .cls-123, .cls-124, .cls-125, .cls-126, .cls-127, .cls-128, .cls-129, .cls-130, .cls-131, .cls-132, .cls-133, .cls-134, .cls-135, .cls-136, .cls-137, .cls-138, .cls-139, .cls-140, .cls-141, .cls-142, .cls-143, .cls-144, .cls-145, .cls-146, .cls-147, .cls-148, .cls-149, .cls-150, .cls-151, .cls-152, .cls-153, .cls-154, .cls-155, .cls-156, .cls-157, .cls-158, .cls-159, .cls-160, .cls-161, .cls-162, .cls-163 {
        stroke-width: 0px;
      }

      .cls-2 {
        fill: #2c45eb;
      }

      .cls-3 {
        fill: #4042ec;
      }

      .cls-4 {
        fill: #3c43ec;
      }

      .cls-5 {
        fill: #7f3cf2;
      }

      .cls-6 {
        fill: #ae38f6;
      }

      .cls-7 {
        fill: #623fef;
      }

      .cls-8 {
        fill: #5f3fef;
      }

      .cls-9 {
        fill: #9c39f4;
      }

      .cls-10 {
        fill: url(#linear-gradient);
      }

      .cls-11 {
        fill: #763df1;
      }

      .cls-12 {
        fill: #9b39f4;
      }

      .cls-13 {
        fill: #4542ed;
      }

      .cls-14 {
        fill: #5740ee;
      }

      .cls-15 {
        fill: #b637f6;
      }

      .cls-16 {
        fill: #b537f6;
      }

      .cls-17 {
        fill: #5241ee;
      }

      .cls-18 {
        fill: #4342ec;
      }

      .cls-19 {
        fill: #723df1;
      }

      .cls-20 {
        fill: #8f3af3;
      }

      .cls-21 {
        fill: #8a3bf3;
      }

      .cls-22 {
        fill: #ab38f5;
      }

      .cls-23 {
        fill: #3643eb;
      }

      .cls-24 {
        fill: #9e39f5;
      }

      .cls-25 {
        fill: #793df1;
      }

      .cls-26 {
        fill: #873bf3;
      }

      .cls-27 {
        fill: #9a39f4;
      }

      .cls-28 {
        fill: #3843ec;
      }

      .cls-29 {
        fill: #4b41ed;
      }

      .cls-30 {
        fill: #bb37f7;
      }

      .cls-31 {
        fill: #b038f6;
      }

      .cls-32 {
        fill: #8b3bf3;
      }

      .cls-33 {
        fill: #6d3ef0;
      }

      .cls-34 {
        fill: #863bf3;
      }

      .cls-35 {
        fill: #bd36f7;
      }

      .cls-36 {
        fill: #973af4;
      }

      .cls-37 {
        fill: #c236f7;
      }

      .cls-38 {
        fill: #7b3cf2;
      }

      .cls-39 {
        fill: #4742ed;
      }

      .cls-40 {
        fill: #7a3cf2;
      }

      .cls-41 {
        fill: #b437f6;
      }

      .cls-42 {
        fill: #a738f5;
      }

      .cls-43 {
        fill: #4f41ed;
      }

      .cls-164 {
        clip-path: url(#clippath-2);
      }

      .cls-44 {
        fill: #5840ee;
      }

      .cls-45 {
        fill: #4d41ed;
      }

      .cls-46 {
        fill: #5540ee;
      }

      .cls-47 {
        fill: #2645ea;
      }

      .cls-48 {
        fill: #933af4;
      }

      .cls-49 {
        fill: #613fef;
      }

      .cls-50 {
        fill: #4c41ed;
      }

      .cls-51 {
        fill: #a239f5;
      }

      .cls-52 {
        fill: #653fef;
      }

      .cls-53 {
        fill: #5d3fef;
      }

      .cls-54 {
        fill: #773df1;
      }

      .cls-55 {
        fill: #8d3bf3;
      }

      .cls-56 {
        fill: #903af4;
      }

      .cls-57 {
        fill: #4e41ed;
      }

      .cls-58 {
        fill: #5a40ee;
      }

      .cls-59 {
        fill: #b937f6;
      }

      .cls-60 {
        fill: #4842ed;
      }

      .cls-61 {
        fill: #c835f8;
      }

      .cls-62 {
        fill: #823cf2;
      }

      .cls-63 {
        fill: none;
      }

      .cls-64 {
        fill: #703ef1;
      }

      .cls-65 {
        fill: #683ef0;
      }

      .cls-66 {
        fill: #c136f7;
      }

      .cls-67 {
        fill: #8e3af3;
      }

      .cls-68 {
        fill: #2945ea;
      }

      .cls-69 {
        fill: #c036f7;
      }

      .cls-70 {
        fill: #6e3ef0;
      }

      .cls-71 {
        fill: #5041ed;
      }

      .cls-72 {
        fill: #913af4;
      }

      .cls-73 {
        fill: #5640ee;
      }

      .cls-74 {
        fill: #7c3cf2;
      }

      .cls-75 {
        fill: #663ef0;
      }

      .cls-165 {
        clip-path: url(#clippath-1);
      }

      .cls-76 {
        fill: #993af4;
      }

      .cls-77 {
        fill: #923af4;
      }

      .cls-78 {
        fill: #803cf2;
      }

      .cls-79 {
        fill: #4a41ed;
      }

      .cls-80 {
        fill: #a838f5;
      }

      .cls-81 {
        fill: #833cf2;
      }

      .cls-82 {
        fill: #c735f8;
      }

      .cls-83 {
        fill: #ad38f6;
      }

      .cls-84 {
        fill: #2d44eb;
      }

      .cls-85 {
        fill: #5e3fef;
      }

      .cls-86 {
        fill: #9d39f4;
      }

      .cls-87 {
        fill: #2845ea;
      }

      .cls-88 {
        fill: #aa38f5;
      }

      .cls-89 {
        fill: #3044eb;
      }

      .cls-90 {
        fill: #3e43ec;
      }

      .cls-91 {
        fill: #2745ea;
      }

      .cls-92 {
        fill: #733df1;
      }

      .cls-93 {
        fill: #6c3ef0;
      }

      .cls-94 {
        fill: url(#linear-gradient-2);
      }

      .cls-95 {
        fill: #6b3ef0;
      }

      .cls-96 {
        fill: #2a45ea;
      }

      .cls-97 {
        fill: #bf36f7;
      }

      .cls-98 {
        fill: #b337f6;
      }

      .cls-99 {
        fill: #a638f5;
      }

      .cls-100 {
        fill: #633fef;
      }

      .cls-101 {
        fill: #4642ed;
      }

      .cls-102 {
        fill: #a039f5;
      }

      .cls-103 {
        fill: #ac38f5;
      }

      .cls-104 {
        fill: #b237f6;
      }

      .cls-105 {
        fill: #983af4;
      }

      .cls-106 {
        fill: #3244eb;
      }

      .cls-107 {
        fill: #be36f7;
      }

      .cls-108 {
        fill: #783df1;
      }

      .cls-109 {
        fill: #4942ed;
      }

      .cls-110 {
        fill: url(#linear-gradient-3);
      }

      .cls-111 {
        fill: #3f42ec;
      }

      .cls-112 {
        fill: #5c3fef;
      }

      .cls-113 {
        fill: #2e44eb;
      }

      .cls-114 {
        fill: #3a43ec;
      }

      .cls-115 {
        fill: #c436f7;
      }

      .cls-116 {
        fill: #ba37f6;
      }

      .cls-166 {
        clip-path: url(#clippath);
      }

      .cls-117 {
        fill: #6a3ef0;
      }

      .cls-118 {
        fill: #5b40ee;
      }

      .cls-119 {
        fill: #673ef0;
      }

      .cls-120 {
        fill: #713df1;
      }

      .cls-121 {
        fill: #5940ee;
      }

      .cls-122 {
        fill: #743df1;
      }

      .cls-123 {
        fill: #c635f8;
      }

      .cls-124 {
        fill: #7e3cf2;
      }

      .cls-125 {
        fill: #5340ee;
      }

      .cls-126 {
        fill: #813cf2;
      }

      .cls-127 {
        fill: #a938f5;
      }

      .cls-128 {
        fill: #843bf3;
      }

      .cls-129 {
        fill: #b137f6;
      }

      .cls-130 {
        fill: #3943ec;
      }

      .cls-131 {
        fill: #af38f6;
      }

      .cls-132 {
        fill: #a339f5;
      }

      .cls-133 {
        fill: #b837f6;
      }

      .cls-134 {
        fill: #883bf3;
      }

      .cls-135 {
        fill: #b737f6;
      }

      .cls-136 {
        fill: #a139f5;
      }

      .cls-137 {
        fill: #3b43ec;
      }

      .cls-138 {
        fill: #c336f7;
      }

      .cls-139 {
        fill: #603fef;
      }

      .cls-140 {
        fill: #753df1;
      }

      .cls-141 {
        fill: #7d3cf2;
      }

      .cls-142 {
        fill: #3444eb;
      }

      .cls-143 {
        fill: #893bf3;
      }

      .cls-144 {
        fill: #943af4;
      }

      .cls-145 {
        fill: #5141ee;
      }

      .cls-146 {
        fill: #4142ec;
      }

      .cls-147 {
        fill: #5440ee;
      }

      .cls-148 {
        fill: #a439f5;
      }

      .cls-149 {
        fill: #2b45eb;
      }

      .cls-150 {
        fill: #9f39f5;
      }

      .cls-151 {
        fill: #2f44eb;
      }

      .cls-152 {
        fill: #853bf3;
      }

      .cls-153 {
        fill: #3544eb;
      }

      .cls-154 {
        fill: #3144eb;
      }

      .cls-155 {
        fill: #bc37f7;
      }

      .cls-156 {
        fill: #3743eb;
      }

      .cls-157 {
        fill: #963af4;
      }

      .cls-158 {
        fill: #693ef0;
      }

      .cls-159 {
        fill: #3d43ec;
      }

      .cls-160 {
        fill: #4242ec;
      }

      .cls-161 {
        fill: #8c3bf3;
      }

      .cls-162 {
        fill: #3344eb;
      }

      .cls-163 {
        fill: #643fef;
      }
    </style>
    <linearGradient id="linear-gradient" x1="8.29" y1="-6.13" x2="33.31" y2="19.66" gradientUnits="userSpaceOnUse">
      <stop offset="0" stop-color="#0049e7"/>
      <stop offset=".11" stop-color="#0648e7"/>
      <stop offset=".26" stop-color="#1647e9"/>
      <stop offset=".46" stop-color="#3144eb"/>
      <stop offset=".66" stop-color="#5740ee"/>
      <stop offset=".79" stop-color="#883bf3"/>
      <stop offset=".98" stop-color="#c236f7"/>
      <stop offset="1" stop-color="#c835f8"/>
    </linearGradient>
    <linearGradient id="linear-gradient-2" x1="-4.82" y1="6.59" x2="20.2" y2="32.38" xlink:href="#linear-gradient"/>
    <clipPath id="clippath">
      <path class="cls-63" d="M17.92,22.22h0c-.27,0-.52-.12-.7-.32l-5.45-6.23-5.54,6.22c-.34.38-.93.42-1.31.08-.38-.34-.42-.93-.08-1.31l6.24-7.01c.18-.2.42-.31.7-.31.27,0,.52.12.7.32l5.45,6.23,5.55-6.24c.18-.2.43-.31.69-.31h0c.26,0,.52.11.69.31l6.29,7.01c.34.38.31.97-.07,1.32-.38.34-.97.31-1.32-.07l-5.6-6.23-5.56,6.25c-.18.2-.43.31-.7.31Z"/>
    </clipPath>
    <clipPath id="clippath-1">
      <path class="cls-63" d="M22.94,27.92c-.26,0-.52-.11-.7-.32l-5.02-5.7c-.34-.39-.3-.97.08-1.31.39-.34.97-.3,1.31.08l5.02,5.7c.34.39.3.97-.08,1.31-.18.16-.4.23-.62.23Z"/>
    </clipPath>
    <clipPath id="clippath-2">
      <path class="cls-63" d="M30.47,27.92H5.53c-.51,0-.93-.42-.93-.93V7.01c0-.51.42-.93.93-.93h24.94c.51,0,.93.42.93.93v19.98c0,.51-.42.93-.93.93ZM6.46,26.06h23.07V7.94H6.46v18.12Z"/>
    </clipPath>
    <linearGradient id="linear-gradient-3" x1="-3.21" y1="5.03" x2="21.81" y2="30.81" xlink:href="#linear-gradient"/>
  </defs>
  <g>
    <path class="cls-10" d="M21.97,3.84c0,.2-.07.39-.21.55-.31.34-.83.37-1.17.06l-2.63-2.37-2.63,2.37c-.34.31-.86.28-1.17-.06-.31-.34-.28-.86.06-1.17l3.19-2.87c.31-.28.79-.28,1.11,0l3.19,2.87c.18.16.27.39.27.61Z"/>
    <path class="cls-94" d="M14.03,30.16c0-.2.07-.39.21-.55.31-.34.83-.37,1.17-.06l2.63,2.37,2.63-2.37c.34-.31.86-.28,1.17.06.31.34.28.86-.06,1.17l-3.19,2.87c-.31.28-.79.28-1.11,0l-3.19-2.87c-.18-.16-.27-.39-.27-.61Z"/>
  </g>
  <g>
    <g>
      <g class="cls-166">
        <polygon class="cls-113" points="4.75 13.33 4.49 13.97 4.49 13.33 4.75 13.33"/>
        <polygon class="cls-151" points="5.13 13.33 4.49 14.91 4.49 13.97 4.75 13.33 5.13 13.33"/>
        <polygon class="cls-89" points="5.51 13.33 4.49 15.85 4.49 14.91 5.13 13.33 5.51 13.33"/>
        <polygon class="cls-154" points="5.89 13.33 4.49 16.79 4.49 15.85 5.51 13.33 5.89 13.33"/>
        <polygon class="cls-154" points="6.14 13.33 4.49 17.41 4.49 16.79 5.89 13.33 6.14 13.33"/>
        <polygon class="cls-106" points="6.39 13.33 4.49 18.04 4.49 17.41 6.14 13.33 6.39 13.33"/>
        <polygon class="cls-162" points="6.64 13.33 4.49 18.66 4.49 18.04 6.39 13.33 6.64 13.33"/>
        <polygon class="cls-142" points="6.9 13.33 4.49 19.28 4.49 18.66 6.64 13.33 6.9 13.33"/>
        <polygon class="cls-153" points="7.15 13.33 4.49 19.91 4.49 19.28 6.9 13.33 7.15 13.33"/>
        <polygon class="cls-23" points="7.4 13.33 4.49 20.53 4.49 19.91 7.15 13.33 7.4 13.33"/>
        <polygon class="cls-156" points="7.65 13.33 4.49 21.15 4.49 20.53 7.4 13.33 7.65 13.33"/>
        <polygon class="cls-28" points="7.9 13.33 4.49 21.78 4.49 21.15 7.65 13.33 7.9 13.33"/>
        <polygon class="cls-130" points="8.15 13.33 4.53 22.31 4.49 22.31 4.49 21.78 7.9 13.33 8.15 13.33"/>
        <polygon class="cls-114" points="8.41 13.33 4.78 22.31 4.53 22.31 8.15 13.33 8.41 13.33"/>
        <polygon class="cls-137" points="8.66 13.33 5.03 22.31 4.78 22.31 8.41 13.33 8.66 13.33"/>
        <polygon class="cls-4" points="8.91 13.33 5.29 22.31 5.03 22.31 8.66 13.33 8.91 13.33"/>
        <polygon class="cls-159" points="9.16 13.33 5.54 22.31 5.29 22.31 8.91 13.33 9.16 13.33"/>
        <polygon class="cls-90" points="9.41 13.33 5.79 22.31 5.54 22.31 9.16 13.33 9.41 13.33"/>
        <polygon class="cls-111" points="9.66 13.33 6.04 22.31 5.79 22.31 9.41 13.33 9.66 13.33"/>
        <polygon class="cls-3" points="9.91 13.33 6.29 22.31 6.04 22.31 9.66 13.33 9.91 13.33"/>
        <polygon class="cls-146" points="10.17 13.33 6.54 22.31 6.29 22.31 9.91 13.33 10.17 13.33"/>
        <polygon class="cls-160" points="10.42 13.33 6.79 22.31 6.54 22.31 10.17 13.33 10.42 13.33"/>
        <polygon class="cls-18" points="10.67 13.33 7.05 22.31 6.79 22.31 10.42 13.33 10.67 13.33"/>
        <polygon class="cls-13" points="10.92 13.33 7.3 22.31 7.05 22.31 10.67 13.33 10.92 13.33"/>
        <polygon class="cls-101" points="11.17 13.33 7.55 22.31 7.3 22.31 10.92 13.33 11.17 13.33"/>
        <polygon class="cls-39" points="11.42 13.33 7.8 22.31 7.55 22.31 11.17 13.33 11.42 13.33"/>
        <polygon class="cls-60" points="11.68 13.33 8.05 22.31 7.8 22.31 11.42 13.33 11.68 13.33"/>
        <polygon class="cls-109" points="11.93 13.33 8.3 22.31 8.05 22.31 11.68 13.33 11.93 13.33"/>
        <polygon class="cls-79" points="12.18 13.33 8.56 22.31 8.3 22.31 11.93 13.33 12.18 13.33"/>
        <polygon class="cls-29" points="12.43 13.33 8.81 22.31 8.56 22.31 12.18 13.33 12.43 13.33"/>
        <polygon class="cls-50" points="12.68 13.33 9.06 22.31 8.81 22.31 12.43 13.33 12.68 13.33"/>
        <polygon class="cls-45" points="12.93 13.33 9.31 22.31 9.06 22.31 12.68 13.33 12.93 13.33"/>
        <polygon class="cls-57" points="13.18 13.33 9.56 22.31 9.31 22.31 12.93 13.33 13.18 13.33"/>
        <polygon class="cls-43" points="13.44 13.33 9.81 22.31 9.56 22.31 13.18 13.33 13.44 13.33"/>
        <polygon class="cls-71" points="13.69 13.33 10.06 22.31 9.81 22.31 13.44 13.33 13.69 13.33"/>
        <polygon class="cls-145" points="13.94 13.33 10.32 22.31 10.06 22.31 13.69 13.33 13.94 13.33"/>
        <polygon class="cls-17" points="14.19 13.33 10.57 22.31 10.32 22.31 13.94 13.33 14.19 13.33"/>
        <polygon class="cls-125" points="14.44 13.33 10.82 22.31 10.57 22.31 14.19 13.33 14.44 13.33"/>
        <polygon class="cls-147" points="14.69 13.33 11.07 22.31 10.82 22.31 14.44 13.33 14.69 13.33"/>
        <polygon class="cls-46" points="14.95 13.33 11.32 22.31 11.07 22.31 14.69 13.33 14.95 13.33"/>
        <polygon class="cls-73" points="15.2 13.33 11.57 22.31 11.32 22.31 14.95 13.33 15.2 13.33"/>
        <polygon class="cls-14" points="15.45 13.33 11.83 22.31 11.57 22.31 15.2 13.33 15.45 13.33"/>
        <polygon class="cls-14" points="15.58 13.33 11.95 22.31 11.83 22.31 15.45 13.33 15.58 13.33"/>
        <polygon class="cls-44" points="15.7 13.33 12.08 22.31 11.95 22.31 15.58 13.33 15.7 13.33"/>
        <polygon class="cls-121" points="15.83 13.33 12.21 22.31 12.08 22.31 15.7 13.33 15.83 13.33"/>
        <polygon class="cls-58" points="15.96 13.33 12.34 22.31 12.21 22.31 15.83 13.33 15.96 13.33"/>
        <polygon class="cls-118" points="16.09 13.33 12.47 22.31 12.34 22.31 15.96 13.33 16.09 13.33"/>
        <polygon class="cls-112" points="16.22 13.33 12.59 22.31 12.47 22.31 16.09 13.33 16.22 13.33"/>
        <polygon class="cls-53" points="16.34 13.33 12.72 22.31 12.59 22.31 16.22 13.33 16.34 13.33"/>
        <polygon class="cls-85" points="16.47 13.33 12.85 22.31 12.72 22.31 16.34 13.33 16.47 13.33"/>
        <polygon class="cls-8" points="16.6 13.33 12.98 22.31 12.85 22.31 16.47 13.33 16.6 13.33"/>
        <polygon class="cls-139" points="16.73 13.33 13.1 22.31 12.98 22.31 16.6 13.33 16.73 13.33"/>
        <polygon class="cls-49" points="16.86 13.33 13.23 22.31 13.1 22.31 16.73 13.33 16.86 13.33"/>
        <polygon class="cls-7" points="16.98 13.33 13.36 22.31 13.23 22.31 16.86 13.33 16.98 13.33"/>
        <polygon class="cls-100" points="17.11 13.33 13.49 22.31 13.36 22.31 16.98 13.33 17.11 13.33"/>
        <polygon class="cls-163" points="17.24 13.33 13.62 22.31 13.49 22.31 17.11 13.33 17.24 13.33"/>
        <polygon class="cls-52" points="17.37 13.33 13.74 22.31 13.62 22.31 17.24 13.33 17.37 13.33"/>
        <polygon class="cls-75" points="17.5 13.33 13.87 22.31 13.74 22.31 17.37 13.33 17.5 13.33"/>
        <polygon class="cls-119" points="17.62 13.33 14 22.31 13.87 22.31 17.5 13.33 17.62 13.33"/>
        <polygon class="cls-65" points="17.75 13.33 14.13 22.31 14 22.31 17.62 13.33 17.75 13.33"/>
        <polygon class="cls-158" points="17.88 13.33 14.26 22.31 14.13 22.31 17.75 13.33 17.88 13.33"/>
        <polygon class="cls-117" points="18.01 13.33 14.38 22.31 14.26 22.31 17.88 13.33 18.01 13.33"/>
        <polygon class="cls-95" points="18.13 13.33 14.51 22.31 14.38 22.31 18.01 13.33 18.13 13.33"/>
        <polygon class="cls-93" points="18.26 13.33 14.64 22.31 14.51 22.31 18.13 13.33 18.26 13.33"/>
        <polygon class="cls-33" points="18.39 13.33 14.77 22.31 14.64 22.31 18.26 13.33 18.39 13.33"/>
        <polygon class="cls-70" points="18.52 13.33 14.9 22.31 14.77 22.31 18.39 13.33 18.52 13.33"/>
        <polygon class="cls-64" points="18.65 13.33 15.02 22.31 14.9 22.31 18.52 13.33 18.65 13.33"/>
        <polygon class="cls-120" points="18.77 13.33 15.15 22.31 15.02 22.31 18.65 13.33 18.77 13.33"/>
        <polygon class="cls-19" points="18.9 13.33 15.28 22.31 15.15 22.31 18.77 13.33 18.9 13.33"/>
        <polygon class="cls-92" points="19.03 13.33 15.41 22.31 15.28 22.31 18.9 13.33 19.03 13.33"/>
        <polygon class="cls-122" points="19.16 13.33 15.54 22.31 15.41 22.31 19.03 13.33 19.16 13.33"/>
        <polygon class="cls-140" points="19.29 13.33 15.66 22.31 15.54 22.31 19.16 13.33 19.29 13.33"/>
        <polygon class="cls-11" points="19.41 13.33 15.79 22.31 15.66 22.31 19.29 13.33 19.41 13.33"/>
        <polygon class="cls-54" points="19.54 13.33 15.92 22.31 15.79 22.31 19.41 13.33 19.54 13.33"/>
        <polygon class="cls-108" points="19.67 13.33 16.05 22.31 15.92 22.31 19.54 13.33 19.67 13.33"/>
        <polygon class="cls-25" points="19.8 13.33 16.18 22.31 16.05 22.31 19.67 13.33 19.8 13.33"/>
        <polygon class="cls-40" points="19.93 13.33 16.3 22.31 16.18 22.31 19.8 13.33 19.93 13.33"/>
        <polygon class="cls-38" points="20.05 13.33 16.43 22.31 16.3 22.31 19.93 13.33 20.05 13.33"/>
        <polygon class="cls-74" points="20.18 13.33 16.56 22.31 16.43 22.31 20.05 13.33 20.18 13.33"/>
        <polygon class="cls-141" points="20.31 13.33 16.69 22.31 16.56 22.31 20.18 13.33 20.31 13.33"/>
        <polygon class="cls-124" points="20.44 13.33 16.82 22.31 16.69 22.31 20.31 13.33 20.44 13.33"/>
        <polygon class="cls-5" points="20.57 13.33 16.94 22.31 16.82 22.31 20.44 13.33 20.57 13.33"/>
        <polygon class="cls-78" points="20.69 13.33 17.07 22.31 16.94 22.31 20.57 13.33 20.69 13.33"/>
        <polygon class="cls-126" points="20.82 13.33 17.2 22.31 17.07 22.31 20.69 13.33 20.82 13.33"/>
        <polygon class="cls-62" points="20.95 13.33 17.33 22.31 17.2 22.31 20.82 13.33 20.95 13.33"/>
        <polygon class="cls-81" points="21.08 13.33 17.45 22.31 17.33 22.31 20.95 13.33 21.08 13.33"/>
        <polygon class="cls-128" points="21.21 13.33 17.58 22.31 17.45 22.31 21.08 13.33 21.21 13.33"/>
        <polygon class="cls-152" points="21.33 13.33 17.71 22.31 17.58 22.31 21.21 13.33 21.33 13.33"/>
        <polygon class="cls-34" points="21.46 13.33 17.84 22.31 17.71 22.31 21.33 13.33 21.46 13.33"/>
        <polygon class="cls-26" points="21.59 13.33 17.97 22.31 17.84 22.31 21.46 13.33 21.59 13.33"/>
        <polygon class="cls-134" points="21.72 13.33 18.09 22.31 17.97 22.31 21.59 13.33 21.72 13.33"/>
        <polygon class="cls-134" points="21.88 13.33 18.26 22.31 18.09 22.31 21.72 13.33 21.88 13.33"/>
        <polygon class="cls-143" points="22.05 13.33 18.43 22.31 18.26 22.31 21.88 13.33 22.05 13.33"/>
        <polygon class="cls-21" points="22.22 13.33 18.59 22.31 18.43 22.31 22.05 13.33 22.22 13.33"/>
        <polygon class="cls-32" points="22.38 13.33 18.76 22.31 18.59 22.31 22.22 13.33 22.38 13.33"/>
        <polygon class="cls-161" points="22.55 13.33 18.92 22.31 18.76 22.31 22.38 13.33 22.55 13.33"/>
        <polygon class="cls-55" points="22.71 13.33 19.09 22.31 18.92 22.31 22.55 13.33 22.71 13.33"/>
        <polygon class="cls-67" points="22.88 13.33 19.26 22.31 19.09 22.31 22.71 13.33 22.88 13.33"/>
        <polygon class="cls-20" points="23.04 13.33 19.42 22.31 19.26 22.31 22.88 13.33 23.04 13.33"/>
        <polygon class="cls-56" points="23.21 13.33 19.59 22.31 19.42 22.31 23.04 13.33 23.21 13.33"/>
        <polygon class="cls-72" points="23.38 13.33 19.75 22.31 19.59 22.31 23.21 13.33 23.38 13.33"/>
        <polygon class="cls-77" points="23.54 13.33 19.92 22.31 19.75 22.31 23.38 13.33 23.54 13.33"/>
        <polygon class="cls-48" points="23.71 13.33 20.09 22.31 19.92 22.31 23.54 13.33 23.71 13.33"/>
        <polygon class="cls-144" points="23.87 13.33 20.25 22.31 20.09 22.31 23.71 13.33 23.87 13.33"/>
        <polygon class="cls-1" points="24.04 13.33 20.42 22.31 20.25 22.31 23.87 13.33 24.04 13.33"/>
        <polygon class="cls-157" points="24.21 13.33 20.58 22.31 20.42 22.31 24.04 13.33 24.21 13.33"/>
        <polygon class="cls-36" points="24.37 13.33 20.75 22.31 20.58 22.31 24.21 13.33 24.37 13.33"/>
        <polygon class="cls-105" points="24.54 13.33 20.92 22.31 20.75 22.31 24.37 13.33 24.54 13.33"/>
        <polygon class="cls-76" points="24.7 13.33 21.08 22.31 20.92 22.31 24.54 13.33 24.7 13.33"/>
        <polygon class="cls-27" points="24.87 13.33 21.25 22.31 21.08 22.31 24.7 13.33 24.87 13.33"/>
        <polygon class="cls-12" points="25.04 13.33 21.41 22.31 21.25 22.31 24.87 13.33 25.04 13.33"/>
        <polygon class="cls-9" points="25.2 13.33 21.58 22.31 21.41 22.31 25.04 13.33 25.2 13.33"/>
        <polygon class="cls-86" points="25.37 13.33 21.75 22.31 21.58 22.31 25.2 13.33 25.37 13.33"/>
        <polygon class="cls-24" points="25.53 13.33 21.91 22.31 21.75 22.31 25.37 13.33 25.53 13.33"/>
        <polygon class="cls-150" points="25.7 13.33 22.08 22.31 21.91 22.31 25.53 13.33 25.7 13.33"/>
        <polygon class="cls-102" points="25.87 13.33 22.24 22.31 22.08 22.31 25.7 13.33 25.87 13.33"/>
        <polygon class="cls-136" points="26.03 13.33 22.41 22.31 22.24 22.31 25.87 13.33 26.03 13.33"/>
        <polygon class="cls-51" points="26.2 13.33 22.57 22.31 22.41 22.31 26.03 13.33 26.2 13.33"/>
        <polygon class="cls-132" points="26.36 13.33 22.74 22.31 22.57 22.31 26.2 13.33 26.36 13.33"/>
        <polygon class="cls-148" points="26.53 13.33 22.91 22.31 22.74 22.31 26.36 13.33 26.53 13.33"/>
        <polygon class="cls-99" points="26.7 13.33 23.07 22.31 22.91 22.31 26.53 13.33 26.7 13.33"/>
        <polygon class="cls-42" points="26.86 13.33 23.24 22.31 23.07 22.31 26.7 13.33 26.86 13.33"/>
        <polygon class="cls-80" points="27.03 13.33 23.4 22.31 23.24 22.31 26.86 13.33 27.03 13.33"/>
        <polygon class="cls-127" points="27.19 13.33 23.57 22.31 23.4 22.31 27.03 13.33 27.19 13.33"/>
        <polygon class="cls-88" points="27.36 13.33 23.74 22.31 23.57 22.31 27.19 13.33 27.36 13.33"/>
        <polygon class="cls-22" points="27.53 13.33 23.9 22.31 23.74 22.31 27.36 13.33 27.53 13.33"/>
        <polygon class="cls-103" points="27.69 13.33 24.07 22.31 23.9 22.31 27.53 13.33 27.69 13.33"/>
        <polygon class="cls-83" points="27.86 13.33 24.23 22.31 24.07 22.31 27.69 13.33 27.86 13.33"/>
        <polygon class="cls-6" points="27.92 13.33 28.01 13.36 24.4 22.31 24.23 22.31 27.86 13.33 27.92 13.33"/>
        <polygon class="cls-131" points="28.01 13.36 28.15 13.42 24.57 22.31 24.4 22.31 28.01 13.36"/>
        <polygon class="cls-31" points="28.15 13.42 28.29 13.48 24.73 22.31 24.57 22.31 28.15 13.42"/>
        <polygon class="cls-129" points="28.29 13.48 28.44 13.54 24.9 22.31 24.73 22.31 28.29 13.48"/>
        <polygon class="cls-104" points="28.44 13.54 28.58 13.6 25.06 22.31 24.9 22.31 28.44 13.54"/>
        <polygon class="cls-98" points="28.58 13.6 28.72 13.65 25.23 22.31 25.06 22.31 28.58 13.6"/>
        <polygon class="cls-41" points="28.72 13.65 28.87 13.71 25.4 22.31 25.23 22.31 28.72 13.65"/>
        <polygon class="cls-16" points="28.87 13.71 29.01 13.77 25.56 22.31 25.4 22.31 28.87 13.71"/>
        <polygon class="cls-15" points="29.01 13.77 29.15 13.83 25.73 22.31 25.56 22.31 29.01 13.77"/>
        <polygon class="cls-135" points="29.15 13.83 29.29 13.88 25.89 22.31 25.73 22.31 29.15 13.83"/>
        <polygon class="cls-133" points="29.29 13.88 29.44 13.94 26.06 22.31 25.89 22.31 29.29 13.88"/>
        <polygon class="cls-59" points="29.44 13.94 29.58 14 26.23 22.31 26.06 22.31 29.44 13.94"/>
        <polygon class="cls-116" points="29.58 14 29.72 14.06 26.39 22.31 26.23 22.31 29.58 14"/>
        <polygon class="cls-30" points="29.72 14.06 29.86 14.11 26.56 22.31 26.39 22.31 29.72 14.06"/>
        <polygon class="cls-155" points="29.86 14.11 30.01 14.17 26.72 22.31 26.56 22.31 29.86 14.11"/>
        <polygon class="cls-35" points="30.01 14.17 30.15 14.23 26.89 22.31 26.72 22.31 30.01 14.17"/>
        <polygon class="cls-107" points="30.15 14.23 30.29 14.29 27.06 22.31 26.89 22.31 30.15 14.23"/>
        <polygon class="cls-97" points="30.29 14.29 30.43 14.34 27.22 22.31 27.06 22.31 30.29 14.29"/>
        <polygon class="cls-69" points="30.43 14.34 30.58 14.4 27.39 22.31 27.22 22.31 30.43 14.34"/>
        <polygon class="cls-66" points="30.58 14.4 30.72 14.46 27.55 22.31 27.39 22.31 30.58 14.4"/>
        <polygon class="cls-37" points="30.72 14.46 30.86 14.52 27.72 22.31 27.55 22.31 30.72 14.46"/>
        <polygon class="cls-37" points="30.86 14.52 30.99 14.57 27.87 22.31 27.72 22.31 30.86 14.52"/>
        <polygon class="cls-138" points="30.99 14.57 31.12 14.62 28.02 22.31 27.87 22.31 30.99 14.57"/>
        <polygon class="cls-115" points="31.12 14.62 31.25 14.67 28.17 22.31 28.02 22.31 31.12 14.62"/>
        <polygon class="cls-123" points="31.25 14.67 31.38 14.73 28.33 22.31 28.17 22.31 31.25 14.67"/>
        <polygon class="cls-82" points="31.38 14.73 31.5 14.78 31.5 14.8 28.48 22.31 28.33 22.31 31.38 14.73"/>
        <polygon class="cls-61" points="31.5 15.18 28.63 22.31 28.48 22.31 31.5 14.8 31.5 15.18"/>
        <polygon class="cls-61" points="28.63 22.31 31.5 15.18 31.5 22.31 28.63 22.31"/>
      </g>
      <g class="cls-165">
        <polygon class="cls-25" points="17.01 20.25 16.89 20.55 16.89 20.25 17.01 20.25"/>
        <polygon class="cls-40" points="17.13 20.25 16.89 20.87 16.89 20.55 17.01 20.25 17.13 20.25"/>
        <polygon class="cls-38" points="17.26 20.25 16.89 21.18 16.89 20.87 17.13 20.25 17.26 20.25"/>
        <polygon class="cls-74" points="17.39 20.25 16.89 21.5 16.89 21.18 17.26 20.25 17.39 20.25"/>
        <polygon class="cls-141" points="17.52 20.25 16.89 21.82 16.89 21.5 17.39 20.25 17.52 20.25"/>
        <polygon class="cls-124" points="17.65 20.25 16.89 22.13 16.89 21.82 17.52 20.25 17.65 20.25"/>
        <polygon class="cls-5" points="17.77 20.25 16.89 22.45 16.89 22.13 17.65 20.25 17.77 20.25"/>
        <polygon class="cls-78" points="17.9 20.25 16.89 22.77 16.89 22.45 17.77 20.25 17.9 20.25"/>
        <polygon class="cls-126" points="18.03 20.25 16.89 23.09 16.89 22.77 17.9 20.25 18.03 20.25"/>
        <polygon class="cls-62" points="18.16 20.25 16.89 23.4 16.89 23.09 18.03 20.25 18.16 20.25"/>
        <polygon class="cls-81" points="18.29 20.25 16.89 23.72 16.89 23.4 18.16 20.25 18.29 20.25"/>
        <polygon class="cls-128" points="18.41 20.25 16.89 24.04 16.89 23.72 18.29 20.25 18.41 20.25"/>
        <polygon class="cls-152" points="18.54 20.25 16.89 24.35 16.89 24.04 18.41 20.25 18.54 20.25"/>
        <polygon class="cls-34" points="18.67 20.25 16.89 24.67 16.89 24.35 18.54 20.25 18.67 20.25"/>
        <polygon class="cls-26" points="18.8 20.25 16.89 24.99 16.89 24.67 18.67 20.25 18.8 20.25"/>
        <polygon class="cls-134" points="18.92 20.25 16.89 25.31 16.89 24.99 18.8 20.25 18.92 20.25"/>
        <polygon class="cls-134" points="19.09 20.25 16.89 25.72 16.89 25.31 18.92 20.25 19.09 20.25"/>
        <polygon class="cls-143" points="19.26 20.25 16.89 26.13 16.89 25.72 19.09 20.25 19.26 20.25"/>
        <polygon class="cls-21" points="19.42 20.25 16.89 26.54 16.89 26.13 19.26 20.25 19.42 20.25"/>
        <polygon class="cls-32" points="19.59 20.25 16.89 26.95 16.89 26.54 19.42 20.25 19.59 20.25"/>
        <polygon class="cls-161" points="19.75 20.25 17.02 27.04 16.89 26.99 16.89 26.95 19.59 20.25 19.75 20.25"/>
        <polygon class="cls-55" points="19.92 20.25 17.16 27.1 17.02 27.04 19.75 20.25 19.92 20.25"/>
        <polygon class="cls-67" points="20.09 20.25 17.3 27.16 17.16 27.1 19.92 20.25 20.09 20.25"/>
        <polygon class="cls-20" points="20.25 20.25 17.44 27.21 17.3 27.16 20.09 20.25 20.25 20.25"/>
        <polygon class="cls-56" points="20.42 20.25 17.59 27.27 17.44 27.21 20.25 20.25 20.42 20.25"/>
        <polygon class="cls-72" points="20.58 20.25 17.73 27.33 17.59 27.27 20.42 20.25 20.58 20.25"/>
        <polygon class="cls-77" points="20.75 20.25 17.87 27.39 17.73 27.33 20.58 20.25 20.75 20.25"/>
        <polygon class="cls-48" points="20.92 20.25 18.01 27.44 17.87 27.39 20.75 20.25 20.92 20.25"/>
        <polygon class="cls-144" points="21.08 20.25 18.16 27.5 18.01 27.44 20.92 20.25 21.08 20.25"/>
        <polygon class="cls-1" points="21.25 20.25 18.3 27.56 18.16 27.5 21.08 20.25 21.25 20.25"/>
        <polygon class="cls-157" points="21.41 20.25 18.44 27.62 18.3 27.56 21.25 20.25 21.41 20.25"/>
        <polygon class="cls-36" points="21.58 20.25 18.59 27.67 18.44 27.62 21.41 20.25 21.58 20.25"/>
        <polygon class="cls-105" points="21.68 20.25 21.74 20.28 18.73 27.73 18.59 27.67 21.58 20.25 21.68 20.25"/>
        <rect class="cls-76" x="16.28" y="23.95" width="8.04" height=".15" transform="translate(-9.58 33.87) rotate(-68.03)"/>
        <rect class="cls-27" x="16.43" y="24.01" width="8.04" height=".15" transform="translate(-9.54 34.04) rotate(-68.03)"/>
        <rect class="cls-12" x="16.57" y="24.07" width="8.04" height=".15" transform="translate(-9.51 34.21) rotate(-68.03)"/>
        <polygon class="cls-9" points="22.16 20.45 22.31 20.51 19.32 27.92 19.2 27.92 19.16 27.9 22.16 20.45"/>
        <polygon class="cls-86" points="22.31 20.51 22.45 20.56 19.48 27.92 19.32 27.92 22.31 20.51"/>
        <polygon class="cls-24" points="22.45 20.56 22.59 20.62 19.65 27.92 19.48 27.92 22.45 20.56"/>
        <polygon class="cls-150" points="22.59 20.62 22.74 20.68 19.81 27.92 19.65 27.92 22.59 20.62"/>
        <polygon class="cls-102" points="22.74 20.68 22.88 20.74 19.98 27.92 19.81 27.92 22.74 20.68"/>
        <polygon class="cls-136" points="22.88 20.74 23.02 20.79 20.15 27.92 19.98 27.92 22.88 20.74"/>
        <polygon class="cls-51" points="23.02 20.79 23.16 20.85 20.31 27.92 20.15 27.92 23.02 20.79"/>
        <polygon class="cls-132" points="23.16 20.85 23.31 20.91 20.48 27.92 20.31 27.92 23.16 20.85"/>
        <polygon class="cls-148" points="23.31 20.91 23.45 20.97 20.64 27.92 20.48 27.92 23.31 20.91"/>
        <polygon class="cls-99" points="23.45 20.97 23.59 21.02 20.81 27.92 20.64 27.92 23.45 20.97"/>
        <polygon class="cls-42" points="23.59 21.02 23.73 21.08 20.97 27.92 20.81 27.92 23.59 21.02"/>
        <polygon class="cls-80" points="23.73 21.08 23.88 21.14 21.14 27.92 20.97 27.92 23.73 21.08"/>
        <polygon class="cls-127" points="23.88 21.14 23.98 21.18 23.98 21.29 21.31 27.92 21.14 27.92 23.88 21.14"/>
        <polygon class="cls-88" points="23.98 21.7 21.47 27.92 21.31 27.92 23.98 21.29 23.98 21.7"/>
        <polygon class="cls-22" points="23.98 22.11 21.64 27.92 21.47 27.92 23.98 21.7 23.98 22.11"/>
        <polygon class="cls-103" points="23.98 22.52 21.8 27.92 21.64 27.92 23.98 22.11 23.98 22.52"/>
        <polygon class="cls-83" points="23.98 22.93 21.97 27.92 21.8 27.92 23.98 22.52 23.98 22.93"/>
        <polygon class="cls-6" points="23.98 23.34 22.14 27.92 21.97 27.92 23.98 22.93 23.98 23.34"/>
        <polygon class="cls-131" points="23.98 23.76 22.3 27.92 22.14 27.92 23.98 23.34 23.98 23.76"/>
        <polygon class="cls-31" points="23.98 24.17 22.47 27.92 22.3 27.92 23.98 23.76 23.98 24.17"/>
        <polygon class="cls-129" points="23.98 24.58 22.63 27.92 22.47 27.92 23.98 24.17 23.98 24.58"/>
        <polygon class="cls-104" points="23.98 24.99 22.8 27.92 22.63 27.92 23.98 24.58 23.98 24.99"/>
        <polygon class="cls-98" points="23.98 25.4 22.97 27.92 22.8 27.92 23.98 24.99 23.98 25.4"/>
        <polygon class="cls-41" points="23.98 25.81 23.13 27.92 22.97 27.92 23.98 25.4 23.98 25.81"/>
        <polygon class="cls-16" points="23.98 26.22 23.3 27.92 23.13 27.92 23.98 25.81 23.98 26.22"/>
        <polygon class="cls-15" points="23.98 26.63 23.46 27.92 23.3 27.92 23.98 26.22 23.98 26.63"/>
        <polygon class="cls-135" points="23.98 27.05 23.63 27.92 23.46 27.92 23.98 26.63 23.98 27.05"/>
        <polygon class="cls-133" points="23.98 27.46 23.8 27.92 23.63 27.92 23.98 27.05 23.98 27.46"/>
        <polygon class="cls-59" points="23.98 27.87 23.96 27.92 23.8 27.92 23.98 27.46 23.98 27.87"/>
        <polygon class="cls-116" points="23.96 27.92 23.98 27.87 23.98 27.92 23.96 27.92"/>
      </g>
      <g class="cls-164">
        <polygon class="cls-84" points="6.55 7.94 6.46 8.15 6.46 7.94 6.55 7.94"/>
        <polygon class="cls-113" points="6.92 7.94 6.46 9.09 6.46 8.15 6.55 7.94 6.92 7.94"/>
        <polygon class="cls-151" points="7.3 7.94 6.46 10.03 6.46 9.09 6.92 7.94 7.3 7.94"/>
        <polygon class="cls-89" points="7.68 7.94 6.46 10.97 6.46 10.03 7.3 7.94 7.68 7.94"/>
        <polygon class="cls-154" points="8.06 7.94 6.46 11.91 6.46 10.97 7.68 7.94 8.06 7.94"/>
        <polygon class="cls-154" points="8.32 7.94 6.46 12.53 6.46 11.91 8.06 7.94 8.32 7.94"/>
        <polygon class="cls-106" points="8.57 7.94 6.46 13.16 6.46 12.53 8.32 7.94 8.57 7.94"/>
        <polygon class="cls-162" points="8.82 7.94 6.46 13.78 6.46 13.16 8.57 7.94 8.82 7.94"/>
        <polygon class="cls-142" points="9.07 7.94 6.46 14.4 6.46 13.78 8.82 7.94 9.07 7.94"/>
        <polygon class="cls-153" points="9.32 7.94 6.46 15.03 6.46 14.4 9.07 7.94 9.32 7.94"/>
        <polygon class="cls-23" points="9.57 7.94 6.46 15.65 6.46 15.03 9.32 7.94 9.57 7.94"/>
        <polygon class="cls-156" points="9.82 7.94 6.46 16.27 6.46 15.65 9.57 7.94 9.82 7.94"/>
        <polygon class="cls-28" points="10.08 7.94 6.46 16.9 6.46 16.27 9.82 7.94 10.08 7.94"/>
        <polygon class="cls-130" points="10.33 7.94 6.46 17.52 6.46 16.9 10.08 7.94 10.33 7.94"/>
        <polygon class="cls-114" points="10.58 7.94 6.46 18.14 6.46 17.52 10.33 7.94 10.58 7.94"/>
        <polygon class="cls-137" points="10.83 7.94 6.46 18.77 6.46 18.14 10.58 7.94 10.83 7.94"/>
        <polygon class="cls-4" points="11.08 7.94 6.46 19.39 6.46 18.77 10.83 7.94 11.08 7.94"/>
        <polygon class="cls-159" points="11.33 7.94 6.46 20.01 6.46 19.39 11.08 7.94 11.33 7.94"/>
        <polygon class="cls-90" points="11.59 7.94 6.46 20.64 6.46 20.01 11.33 7.94 11.59 7.94"/>
        <polygon class="cls-111" points="11.84 7.94 6.46 21.26 6.46 20.64 11.59 7.94 11.84 7.94"/>
        <polygon class="cls-3" points="12.09 7.94 6.46 21.88 6.46 21.26 11.84 7.94 12.09 7.94"/>
        <polygon class="cls-146" points="12.34 7.94 6.46 22.51 6.46 21.88 12.09 7.94 12.34 7.94"/>
        <polygon class="cls-160" points="12.59 7.94 6.46 23.13 6.46 22.51 12.34 7.94 12.59 7.94"/>
        <polygon class="cls-18" points="12.84 7.94 6.46 23.76 6.46 23.13 12.59 7.94 12.84 7.94"/>
        <polygon class="cls-13" points="13.09 7.94 6.46 24.38 6.46 23.76 12.84 7.94 13.09 7.94"/>
        <polygon class="cls-101" points="13.35 7.94 6.46 25 6.46 24.38 13.09 7.94 13.35 7.94"/>
        <polygon class="cls-39" points="13.6 7.94 6.46 25.63 6.46 25 13.35 7.94 13.6 7.94"/>
        <polygon class="cls-60" points="13.85 7.94 6.54 26.06 6.46 26.06 6.46 25.63 13.6 7.94 13.85 7.94"/>
        <polygon class="cls-109" points="14.1 7.94 6.79 26.06 6.54 26.06 13.85 7.94 14.1 7.94"/>
        <polygon class="cls-79" points="14.35 7.94 7.04 26.06 6.79 26.06 14.1 7.94 14.35 7.94"/>
        <polygon class="cls-29" points="14.6 7.94 7.29 26.06 7.04 26.06 14.35 7.94 14.6 7.94"/>
        <polygon class="cls-50" points="14.85 7.94 7.55 26.06 7.29 26.06 14.6 7.94 14.85 7.94"/>
        <polygon class="cls-45" points="15.11 7.94 7.8 26.06 7.55 26.06 14.85 7.94 15.11 7.94"/>
        <polygon class="cls-57" points="15.36 7.94 8.05 26.06 7.8 26.06 15.11 7.94 15.36 7.94"/>
        <polygon class="cls-43" points="15.61 7.94 8.3 26.06 8.05 26.06 15.36 7.94 15.61 7.94"/>
        <polygon class="cls-71" points="15.86 7.94 8.55 26.06 8.3 26.06 15.61 7.94 15.86 7.94"/>
        <polygon class="cls-145" points="16.11 7.94 8.8 26.06 8.55 26.06 15.86 7.94 16.11 7.94"/>
        <polygon class="cls-17" points="16.36 7.94 9.06 26.06 8.8 26.06 16.11 7.94 16.36 7.94"/>
        <polygon class="cls-125" points="16.62 7.94 9.31 26.06 9.06 26.06 16.36 7.94 16.62 7.94"/>
        <polygon class="cls-147" points="16.87 7.94 9.56 26.06 9.31 26.06 16.62 7.94 16.87 7.94"/>
        <polygon class="cls-46" points="17.12 7.94 9.81 26.06 9.56 26.06 16.87 7.94 17.12 7.94"/>
        <polygon class="cls-73" points="17.37 7.94 10.06 26.06 9.81 26.06 17.12 7.94 17.37 7.94"/>
        <polygon class="cls-14" points="17.62 7.94 10.31 26.06 10.06 26.06 17.37 7.94 17.62 7.94"/>
        <polygon class="cls-14" points="17.75 7.94 10.44 26.06 10.31 26.06 17.62 7.94 17.75 7.94"/>
        <polygon class="cls-44" points="17.88 7.94 10.57 26.06 10.44 26.06 17.75 7.94 17.88 7.94"/>
        <polygon class="cls-121" points="18.01 7.94 10.7 26.06 10.57 26.06 17.88 7.94 18.01 7.94"/>
        <polygon class="cls-58" points="18.13 7.94 10.82 26.06 10.7 26.06 18.01 7.94 18.13 7.94"/>
        <polygon class="cls-118" points="18.26 7.94 10.95 26.06 10.82 26.06 18.13 7.94 18.26 7.94"/>
        <polygon class="cls-112" points="18.39 7.94 11.08 26.06 10.95 26.06 18.26 7.94 18.39 7.94"/>
        <polygon class="cls-53" points="18.52 7.94 11.21 26.06 11.08 26.06 18.39 7.94 18.52 7.94"/>
        <polygon class="cls-85" points="18.65 7.94 11.34 26.06 11.21 26.06 18.52 7.94 18.65 7.94"/>
        <polygon class="cls-8" points="18.77 7.94 11.46 26.06 11.34 26.06 18.65 7.94 18.77 7.94"/>
        <polygon class="cls-139" points="18.9 7.94 11.59 26.06 11.46 26.06 18.77 7.94 18.9 7.94"/>
        <polygon class="cls-49" points="19.03 7.94 11.72 26.06 11.59 26.06 18.9 7.94 19.03 7.94"/>
        <polygon class="cls-7" points="19.16 7.94 11.85 26.06 11.72 26.06 19.03 7.94 19.16 7.94"/>
        <polygon class="cls-100" points="19.29 7.94 11.98 26.06 11.85 26.06 19.16 7.94 19.29 7.94"/>
        <polygon class="cls-163" points="19.41 7.94 12.1 26.06 11.98 26.06 19.29 7.94 19.41 7.94"/>
        <polygon class="cls-52" points="19.54 7.94 12.23 26.06 12.1 26.06 19.41 7.94 19.54 7.94"/>
        <polygon class="cls-75" points="19.67 7.94 12.36 26.06 12.23 26.06 19.54 7.94 19.67 7.94"/>
        <polygon class="cls-119" points="19.8 7.94 12.49 26.06 12.36 26.06 19.67 7.94 19.8 7.94"/>
        <polygon class="cls-65" points="19.92 7.94 12.62 26.06 12.49 26.06 19.8 7.94 19.92 7.94"/>
        <polygon class="cls-158" points="20.05 7.94 12.74 26.06 12.62 26.06 19.92 7.94 20.05 7.94"/>
        <polygon class="cls-117" points="20.18 7.94 12.87 26.06 12.74 26.06 20.05 7.94 20.18 7.94"/>
        <polygon class="cls-95" points="20.31 7.94 13 26.06 12.87 26.06 20.18 7.94 20.31 7.94"/>
        <polygon class="cls-93" points="20.44 7.94 13.13 26.06 13 26.06 20.31 7.94 20.44 7.94"/>
        <polygon class="cls-33" points="20.56 7.94 13.26 26.06 13.13 26.06 20.44 7.94 20.56 7.94"/>
        <polygon class="cls-70" points="20.69 7.94 13.38 26.06 13.26 26.06 20.56 7.94 20.69 7.94"/>
        <polygon class="cls-64" points="20.82 7.94 13.51 26.06 13.38 26.06 20.69 7.94 20.82 7.94"/>
        <polygon class="cls-120" points="20.95 7.94 13.64 26.06 13.51 26.06 20.82 7.94 20.95 7.94"/>
        <polygon class="cls-19" points="21.08 7.94 13.77 26.06 13.64 26.06 20.95 7.94 21.08 7.94"/>
        <polygon class="cls-92" points="21.2 7.94 13.9 26.06 13.77 26.06 21.08 7.94 21.2 7.94"/>
        <polygon class="cls-122" points="21.33 7.94 14.02 26.06 13.9 26.06 21.2 7.94 21.33 7.94"/>
        <polygon class="cls-140" points="21.46 7.94 14.15 26.06 14.02 26.06 21.33 7.94 21.46 7.94"/>
        <polygon class="cls-11" points="21.59 7.94 14.28 26.06 14.15 26.06 21.46 7.94 21.59 7.94"/>
        <polygon class="cls-54" points="21.72 7.94 14.41 26.06 14.28 26.06 21.59 7.94 21.72 7.94"/>
        <polygon class="cls-108" points="21.84 7.94 14.54 26.06 14.41 26.06 21.72 7.94 21.84 7.94"/>
        <polygon class="cls-25" points="21.97 7.94 14.66 26.06 14.54 26.06 21.84 7.94 21.97 7.94"/>
        <polygon class="cls-40" points="22.1 7.94 14.79 26.06 14.66 26.06 21.97 7.94 22.1 7.94"/>
        <polygon class="cls-38" points="22.23 7.94 14.92 26.06 14.79 26.06 22.1 7.94 22.23 7.94"/>
        <polygon class="cls-74" points="22.36 7.94 15.05 26.06 14.92 26.06 22.23 7.94 22.36 7.94"/>
        <polygon class="cls-141" points="22.48 7.94 15.17 26.06 15.05 26.06 22.36 7.94 22.48 7.94"/>
        <polygon class="cls-124" points="22.61 7.94 15.3 26.06 15.17 26.06 22.48 7.94 22.61 7.94"/>
        <polygon class="cls-5" points="22.74 7.94 15.43 26.06 15.3 26.06 22.61 7.94 22.74 7.94"/>
        <polygon class="cls-78" points="22.87 7.94 15.56 26.06 15.43 26.06 22.74 7.94 22.87 7.94"/>
        <polygon class="cls-126" points="23 7.94 15.69 26.06 15.56 26.06 22.87 7.94 23 7.94"/>
        <polygon class="cls-62" points="23.12 7.94 15.81 26.06 15.69 26.06 23 7.94 23.12 7.94"/>
        <polygon class="cls-81" points="23.25 7.94 15.94 26.06 15.81 26.06 23.12 7.94 23.25 7.94"/>
        <polygon class="cls-128" points="23.38 7.94 16.07 26.06 15.94 26.06 23.25 7.94 23.38 7.94"/>
        <polygon class="cls-152" points="23.51 7.94 16.2 26.06 16.07 26.06 23.38 7.94 23.51 7.94"/>
        <polygon class="cls-34" points="23.64 7.94 16.33 26.06 16.2 26.06 23.51 7.94 23.64 7.94"/>
        <polygon class="cls-26" points="23.76 7.94 16.45 26.06 16.33 26.06 23.64 7.94 23.76 7.94"/>
        <polygon class="cls-134" points="23.89 7.94 16.58 26.06 16.45 26.06 23.76 7.94 23.89 7.94"/>
        <polygon class="cls-134" points="24.06 7.94 16.75 26.06 16.58 26.06 23.89 7.94 24.06 7.94"/>
        <polygon class="cls-143" points="24.22 7.94 16.91 26.06 16.75 26.06 24.06 7.94 24.22 7.94"/>
        <polygon class="cls-21" points="24.39 7.94 17.08 26.06 16.91 26.06 24.22 7.94 24.39 7.94"/>
        <polygon class="cls-32" points="24.56 7.94 17.25 26.06 17.08 26.06 24.39 7.94 24.56 7.94"/>
        <polygon class="cls-161" points="24.72 7.94 17.41 26.06 17.25 26.06 24.56 7.94 24.72 7.94"/>
        <polygon class="cls-55" points="24.89 7.94 17.58 26.06 17.41 26.06 24.72 7.94 24.89 7.94"/>
        <polygon class="cls-67" points="25.05 7.94 17.74 26.06 17.58 26.06 24.89 7.94 25.05 7.94"/>
        <polygon class="cls-20" points="25.22 7.94 17.91 26.06 17.74 26.06 25.05 7.94 25.22 7.94"/>
        <polygon class="cls-56" points="25.38 7.94 18.08 26.06 17.91 26.06 25.22 7.94 25.38 7.94"/>
        <polygon class="cls-72" points="25.55 7.94 18.24 26.06 18.08 26.06 25.38 7.94 25.55 7.94"/>
        <polygon class="cls-77" points="25.72 7.94 18.41 26.06 18.24 26.06 25.55 7.94 25.72 7.94"/>
        <polygon class="cls-48" points="25.88 7.94 18.57 26.06 18.41 26.06 25.72 7.94 25.88 7.94"/>
        <polygon class="cls-144" points="26.05 7.94 18.74 26.06 18.57 26.06 25.88 7.94 26.05 7.94"/>
        <polygon class="cls-1" points="26.21 7.94 18.91 26.06 18.74 26.06 26.05 7.94 26.21 7.94"/>
        <polygon class="cls-157" points="26.38 7.94 19.07 26.06 18.91 26.06 26.21 7.94 26.38 7.94"/>
        <polygon class="cls-36" points="26.55 7.94 19.24 26.06 19.07 26.06 26.38 7.94 26.55 7.94"/>
        <polygon class="cls-105" points="26.71 7.94 19.4 26.06 19.24 26.06 26.55 7.94 26.71 7.94"/>
        <polygon class="cls-76" points="26.88 7.94 19.57 26.06 19.4 26.06 26.71 7.94 26.88 7.94"/>
        <polygon class="cls-27" points="27.04 7.94 19.74 26.06 19.57 26.06 26.88 7.94 27.04 7.94"/>
        <polygon class="cls-12" points="27.21 7.94 19.9 26.06 19.74 26.06 27.04 7.94 27.21 7.94"/>
        <polygon class="cls-9" points="27.38 7.94 20.07 26.06 19.9 26.06 27.21 7.94 27.38 7.94"/>
        <polygon class="cls-86" points="27.54 7.94 20.23 26.06 20.07 26.06 27.38 7.94 27.54 7.94"/>
        <polygon class="cls-24" points="27.71 7.94 20.4 26.06 20.23 26.06 27.54 7.94 27.71 7.94"/>
        <polygon class="cls-150" points="27.87 7.94 20.56 26.06 20.4 26.06 27.71 7.94 27.87 7.94"/>
        <polygon class="cls-102" points="28.04 7.94 20.73 26.06 20.56 26.06 27.87 7.94 28.04 7.94"/>
        <polygon class="cls-136" points="28.21 7.94 20.9 26.06 20.73 26.06 28.04 7.94 28.21 7.94"/>
        <polygon class="cls-51" points="28.37 7.94 21.06 26.06 20.9 26.06 28.21 7.94 28.37 7.94"/>
        <polygon class="cls-132" points="28.54 7.94 21.23 26.06 21.06 26.06 28.37 7.94 28.54 7.94"/>
        <polygon class="cls-148" points="28.7 7.94 21.39 26.06 21.23 26.06 28.54 7.94 28.7 7.94"/>
        <polygon class="cls-99" points="28.87 7.94 21.56 26.06 21.39 26.06 28.7 7.94 28.87 7.94"/>
        <polygon class="cls-42" points="29.04 7.94 21.73 26.06 21.56 26.06 28.87 7.94 29.04 7.94"/>
        <polygon class="cls-80" points="29.2 7.94 21.89 26.06 21.73 26.06 29.04 7.94 29.2 7.94"/>
        <polygon class="cls-127" points="29.37 7.94 22.06 26.06 21.89 26.06 29.2 7.94 29.37 7.94"/>
        <polygon class="cls-88" points="29.53 7.94 22.22 26.06 22.06 26.06 29.37 7.94 29.53 7.94"/>
        <polygon class="cls-22" points="29.54 8.34 22.39 26.06 22.22 26.06 29.53 7.94 29.54 7.94 29.54 8.34"/>
        <polygon class="cls-103" points="29.54 8.75 22.56 26.06 22.39 26.06 29.54 8.34 29.54 8.75"/>
        <polygon class="cls-83" points="29.54 9.17 22.72 26.06 22.56 26.06 29.54 8.75 29.54 9.17"/>
        <polygon class="cls-6" points="29.54 9.58 22.89 26.06 22.72 26.06 29.54 9.17 29.54 9.58"/>
        <polygon class="cls-131" points="29.54 9.99 23.05 26.06 22.89 26.06 29.54 9.58 29.54 9.99"/>
        <polygon class="cls-31" points="29.54 10.4 23.22 26.06 23.05 26.06 29.54 9.99 29.54 10.4"/>
        <polygon class="cls-129" points="29.54 10.81 23.39 26.06 23.22 26.06 29.54 10.4 29.54 10.81"/>
        <polygon class="cls-104" points="29.54 11.22 23.55 26.06 23.39 26.06 29.54 10.81 29.54 11.22"/>
        <polygon class="cls-98" points="29.54 11.63 23.72 26.06 23.55 26.06 29.54 11.22 29.54 11.63"/>
        <polygon class="cls-41" points="29.54 12.04 23.88 26.06 23.72 26.06 29.54 11.63 29.54 12.04"/>
        <polygon class="cls-16" points="29.54 12.46 24.05 26.06 23.88 26.06 29.54 12.04 29.54 12.46"/>
        <polygon class="cls-15" points="29.54 12.87 24.22 26.06 24.05 26.06 29.54 12.46 29.54 12.87"/>
        <polygon class="cls-135" points="29.54 13.28 24.38 26.06 24.22 26.06 29.54 12.87 29.54 13.28"/>
        <polygon class="cls-133" points="29.54 13.69 24.55 26.06 24.38 26.06 29.54 13.28 29.54 13.69"/>
        <polygon class="cls-59" points="29.54 14.1 24.71 26.06 24.55 26.06 29.54 13.69 29.54 14.1"/>
        <polygon class="cls-116" points="29.54 14.51 24.88 26.06 24.71 26.06 29.54 14.1 29.54 14.51"/>
        <polygon class="cls-30" points="29.54 14.92 25.04 26.06 24.88 26.06 29.54 14.51 29.54 14.92"/>
        <polygon class="cls-155" points="29.54 15.33 25.21 26.06 25.04 26.06 29.54 14.92 29.54 15.33"/>
        <polygon class="cls-35" points="29.54 15.75 25.38 26.06 25.21 26.06 29.54 15.33 29.54 15.75"/>
        <polygon class="cls-107" points="29.54 16.16 25.54 26.06 25.38 26.06 29.54 15.75 29.54 16.16"/>
        <polygon class="cls-97" points="29.54 16.57 25.71 26.06 25.54 26.06 29.54 16.16 29.54 16.57"/>
        <polygon class="cls-69" points="29.54 16.98 25.87 26.06 25.71 26.06 29.54 16.57 29.54 16.98"/>
        <polygon class="cls-66" points="29.54 17.39 26.04 26.06 25.87 26.06 29.54 16.98 29.54 17.39"/>
        <polygon class="cls-37" points="29.54 17.8 26.21 26.06 26.04 26.06 29.54 17.39 29.54 17.8"/>
        <polygon class="cls-37" points="29.54 18.18 26.36 26.06 26.21 26.06 29.54 17.8 29.54 18.18"/>
        <polygon class="cls-138" points="29.54 18.55 26.51 26.06 26.36 26.06 29.54 18.18 29.54 18.55"/>
        <polygon class="cls-115" points="29.54 18.93 26.66 26.06 26.51 26.06 29.54 18.55 29.54 18.93"/>
        <polygon class="cls-123" points="29.54 19.31 26.81 26.06 26.66 26.06 29.54 18.93 29.54 19.31"/>
        <polygon class="cls-82" points="29.54 19.68 26.96 26.06 26.81 26.06 29.54 19.31 29.54 19.68"/>
        <polygon class="cls-61" points="29.54 20.06 27.12 26.06 26.96 26.06 29.54 19.68 29.54 20.06"/>
        <polygon class="cls-61" points="27.12 26.06 29.54 20.06 29.54 26.06 27.12 26.06"/>
        <polygon class="cls-47" points="4.64 6.08 4.6 6.18 4.6 6.08 4.64 6.08"/>
        <polygon class="cls-91" points="5.02 6.08 4.6 7.12 4.6 6.18 4.64 6.08 5.02 6.08"/>
        <polygon class="cls-87" points="5.4 6.08 4.6 8.06 4.6 7.12 5.02 6.08 5.4 6.08"/>
        <polygon class="cls-68" points="5.78 6.08 4.6 9 4.6 8.06 5.4 6.08 5.78 6.08"/>
        <polygon class="cls-96" points="6.16 6.08 4.6 9.94 4.6 9 5.78 6.08 6.16 6.08"/>
        <polygon class="cls-149" points="6.54 6.08 4.6 10.88 4.6 9.94 6.16 6.08 6.54 6.08"/>
        <polygon class="cls-2" points="6.92 6.08 4.6 11.82 4.6 10.88 6.54 6.08 6.92 6.08"/>
        <polygon class="cls-84" points="7.3 6.08 4.6 12.76 4.6 11.82 6.92 6.08 7.3 6.08"/>
        <polygon class="cls-113" points="7.68 6.08 4.6 13.7 4.6 12.76 7.3 6.08 7.68 6.08"/>
        <polygon class="cls-151" points="8.06 6.08 4.6 14.64 4.6 13.7 7.68 6.08 8.06 6.08"/>
        <polygon class="cls-89" points="8.44 6.08 4.6 15.59 4.6 14.64 8.06 6.08 8.44 6.08"/>
        <polygon class="cls-154" points="8.81 6.08 4.6 16.53 4.6 15.59 8.44 6.08 8.81 6.08"/>
        <polygon class="cls-154" points="9.07 6.08 4.6 17.15 4.6 16.53 8.81 6.08 9.07 6.08"/>
        <polygon class="cls-106" points="9.32 6.08 4.6 17.77 4.6 17.15 9.07 6.08 9.32 6.08"/>
        <polygon class="cls-162" points="9.57 6.08 4.6 18.4 4.6 17.77 9.32 6.08 9.57 6.08"/>
        <polygon class="cls-142" points="9.82 6.08 4.6 19.02 4.6 18.4 9.57 6.08 9.82 6.08"/>
        <polygon class="cls-153" points="10.07 6.08 4.6 19.64 4.6 19.02 9.82 6.08 10.07 6.08"/>
        <polygon class="cls-23" points="10.32 6.08 4.6 20.27 4.6 19.64 10.07 6.08 10.32 6.08"/>
        <polygon class="cls-156" points="10.58 6.08 4.6 20.89 4.6 20.27 10.32 6.08 10.58 6.08"/>
        <polygon class="cls-28" points="10.83 6.08 4.6 21.51 4.6 20.89 10.58 6.08 10.83 6.08"/>
        <polygon class="cls-130" points="11.08 6.08 4.6 22.14 4.6 21.51 10.83 6.08 11.08 6.08"/>
        <polygon class="cls-114" points="11.33 6.08 4.6 22.76 4.6 22.14 11.08 6.08 11.33 6.08"/>
        <polygon class="cls-137" points="11.58 6.08 4.6 23.38 4.6 22.76 11.33 6.08 11.58 6.08"/>
        <polygon class="cls-4" points="11.83 6.08 4.6 24.01 4.6 23.38 11.58 6.08 11.83 6.08"/>
        <polygon class="cls-159" points="12.08 6.08 4.6 24.63 4.6 24.01 11.83 6.08 12.08 6.08"/>
        <polygon class="cls-90" points="12.34 6.08 4.6 25.25 4.6 24.63 12.08 6.08 12.34 6.08"/>
        <polygon class="cls-111" points="12.59 6.08 4.6 25.88 4.6 25.25 12.34 6.08 12.59 6.08"/>
        <polygon class="cls-3" points="12.84 6.08 4.6 26.5 4.6 25.88 12.59 6.08 12.84 6.08"/>
        <polygon class="cls-146" points="13.09 6.08 4.6 27.12 4.6 26.5 12.84 6.08 13.09 6.08"/>
        <polygon class="cls-160" points="13.34 6.08 4.6 27.75 4.6 27.12 13.09 6.08 13.34 6.08"/>
        <polygon class="cls-18" points="13.59 6.08 4.78 27.92 4.6 27.92 4.6 27.75 13.34 6.08 13.59 6.08"/>
        <polygon class="cls-13" points="13.85 6.08 5.03 27.92 4.78 27.92 13.59 6.08 13.85 6.08"/>
        <polygon class="cls-101" points="14.1 6.08 5.29 27.92 5.03 27.92 13.85 6.08 14.1 6.08"/>
        <polygon class="cls-39" points="14.35 6.08 5.54 27.92 5.29 27.92 14.1 6.08 14.35 6.08"/>
        <polygon class="cls-60" points="14.6 6.08 5.79 27.92 5.54 27.92 14.35 6.08 14.6 6.08"/>
        <polygon class="cls-109" points="14.85 6.08 6.04 27.92 5.79 27.92 14.6 6.08 14.85 6.08"/>
        <polygon class="cls-79" points="15.1 6.08 6.29 27.92 6.04 27.92 14.85 6.08 15.1 6.08"/>
        <polygon class="cls-29" points="15.35 6.08 6.54 27.92 6.29 27.92 15.1 6.08 15.35 6.08"/>
        <polygon class="cls-50" points="15.61 6.08 6.79 27.92 6.54 27.92 15.35 6.08 15.61 6.08"/>
        <polygon class="cls-45" points="15.86 6.08 7.05 27.92 6.79 27.92 15.61 6.08 15.86 6.08"/>
        <polygon class="cls-57" points="16.11 6.08 7.3 27.92 7.05 27.92 15.86 6.08 16.11 6.08"/>
        <polygon class="cls-43" points="16.36 6.08 7.55 27.92 7.3 27.92 16.11 6.08 16.36 6.08"/>
        <polygon class="cls-71" points="16.61 6.08 7.8 27.92 7.55 27.92 16.36 6.08 16.61 6.08"/>
        <polygon class="cls-145" points="16.86 6.08 8.05 27.92 7.8 27.92 16.61 6.08 16.86 6.08"/>
        <polygon class="cls-17" points="17.12 6.08 8.3 27.92 8.05 27.92 16.86 6.08 17.12 6.08"/>
        <polygon class="cls-125" points="17.37 6.08 8.56 27.92 8.3 27.92 17.12 6.08 17.37 6.08"/>
        <polygon class="cls-147" points="17.62 6.08 8.81 27.92 8.56 27.92 17.37 6.08 17.62 6.08"/>
        <polygon class="cls-46" points="17.87 6.08 9.06 27.92 8.81 27.92 17.62 6.08 17.87 6.08"/>
        <polygon class="cls-73" points="18.12 6.08 9.31 27.92 9.06 27.92 17.87 6.08 18.12 6.08"/>
        <polygon class="cls-14" points="18.37 6.08 9.56 27.92 9.31 27.92 18.12 6.08 18.37 6.08"/>
        <polygon class="cls-14" points="18.5 6.08 9.69 27.92 9.56 27.92 18.37 6.08 18.5 6.08"/>
        <polygon class="cls-44" points="18.63 6.08 9.82 27.92 9.69 27.92 18.5 6.08 18.63 6.08"/>
        <polygon class="cls-121" points="18.76 6.08 9.95 27.92 9.82 27.92 18.63 6.08 18.76 6.08"/>
        <polygon class="cls-58" points="18.89 6.08 10.07 27.92 9.95 27.92 18.76 6.08 18.89 6.08"/>
        <polygon class="cls-118" points="19.01 6.08 10.2 27.92 10.07 27.92 18.89 6.08 19.01 6.08"/>
        <polygon class="cls-112" points="19.14 6.08 10.33 27.92 10.2 27.92 19.01 6.08 19.14 6.08"/>
        <polygon class="cls-53" points="19.27 6.08 10.46 27.92 10.33 27.92 19.14 6.08 19.27 6.08"/>
        <polygon class="cls-85" points="19.4 6.08 10.58 27.92 10.46 27.92 19.27 6.08 19.4 6.08"/>
        <polygon class="cls-8" points="19.52 6.08 10.71 27.92 10.58 27.92 19.4 6.08 19.52 6.08"/>
        <polygon class="cls-139" points="19.65 6.08 10.84 27.92 10.71 27.92 19.52 6.08 19.65 6.08"/>
        <polygon class="cls-49" points="19.78 6.08 10.97 27.92 10.84 27.92 19.65 6.08 19.78 6.08"/>
        <polygon class="cls-7" points="19.91 6.08 11.1 27.92 10.97 27.92 19.78 6.08 19.91 6.08"/>
        <polygon class="cls-100" points="20.04 6.08 11.22 27.92 11.1 27.92 19.91 6.08 20.04 6.08"/>
        <polygon class="cls-163" points="20.16 6.08 11.35 27.92 11.22 27.92 20.04 6.08 20.16 6.08"/>
        <polygon class="cls-52" points="20.29 6.08 11.48 27.92 11.35 27.92 20.16 6.08 20.29 6.08"/>
        <polygon class="cls-75" points="20.42 6.08 11.61 27.92 11.48 27.92 20.29 6.08 20.42 6.08"/>
        <polygon class="cls-119" points="20.55 6.08 11.74 27.92 11.61 27.92 20.42 6.08 20.55 6.08"/>
        <polygon class="cls-65" points="20.68 6.08 11.86 27.92 11.74 27.92 20.55 6.08 20.68 6.08"/>
        <polygon class="cls-158" points="20.8 6.08 11.99 27.92 11.86 27.92 20.68 6.08 20.8 6.08"/>
        <polygon class="cls-117" points="20.93 6.08 12.12 27.92 11.99 27.92 20.8 6.08 20.93 6.08"/>
        <polygon class="cls-95" points="21.06 6.08 12.25 27.92 12.12 27.92 20.93 6.08 21.06 6.08"/>
        <polygon class="cls-93" points="21.19 6.08 12.38 27.92 12.25 27.92 21.06 6.08 21.19 6.08"/>
        <polygon class="cls-33" points="21.32 6.08 12.5 27.92 12.38 27.92 21.19 6.08 21.32 6.08"/>
        <polygon class="cls-70" points="21.44 6.08 12.63 27.92 12.5 27.92 21.32 6.08 21.44 6.08"/>
        <polygon class="cls-64" points="21.57 6.08 12.76 27.92 12.63 27.92 21.44 6.08 21.57 6.08"/>
        <polygon class="cls-120" points="21.7 6.08 12.89 27.92 12.76 27.92 21.57 6.08 21.7 6.08"/>
        <polygon class="cls-19" points="21.83 6.08 13.02 27.92 12.89 27.92 21.7 6.08 21.83 6.08"/>
        <polygon class="cls-92" points="21.96 6.08 13.14 27.92 13.02 27.92 21.83 6.08 21.96 6.08"/>
        <polygon class="cls-122" points="22.08 6.08 13.27 27.92 13.14 27.92 21.96 6.08 22.08 6.08"/>
        <polygon class="cls-140" points="22.21 6.08 13.4 27.92 13.27 27.92 22.08 6.08 22.21 6.08"/>
        <polygon class="cls-11" points="22.34 6.08 13.53 27.92 13.4 27.92 22.21 6.08 22.34 6.08"/>
        <polygon class="cls-54" points="22.47 6.08 13.66 27.92 13.53 27.92 22.34 6.08 22.47 6.08"/>
        <polygon class="cls-108" points="22.6 6.08 13.78 27.92 13.66 27.92 22.47 6.08 22.6 6.08"/>
        <polygon class="cls-25" points="22.72 6.08 13.91 27.92 13.78 27.92 22.6 6.08 22.72 6.08"/>
        <polygon class="cls-40" points="22.85 6.08 14.04 27.92 13.91 27.92 22.72 6.08 22.85 6.08"/>
        <polygon class="cls-38" points="22.98 6.08 14.17 27.92 14.04 27.92 22.85 6.08 22.98 6.08"/>
        <polygon class="cls-74" points="23.11 6.08 14.3 27.92 14.17 27.92 22.98 6.08 23.11 6.08"/>
        <polygon class="cls-141" points="23.24 6.08 14.42 27.92 14.3 27.92 23.11 6.08 23.24 6.08"/>
        <polygon class="cls-124" points="23.36 6.08 14.55 27.92 14.42 27.92 23.24 6.08 23.36 6.08"/>
        <polygon class="cls-5" points="23.49 6.08 14.68 27.92 14.55 27.92 23.36 6.08 23.49 6.08"/>
        <polygon class="cls-78" points="23.62 6.08 14.81 27.92 14.68 27.92 23.49 6.08 23.62 6.08"/>
        <polygon class="cls-126" points="23.75 6.08 14.94 27.92 14.81 27.92 23.62 6.08 23.75 6.08"/>
        <polygon class="cls-62" points="23.88 6.08 15.06 27.92 14.94 27.92 23.75 6.08 23.88 6.08"/>
        <polygon class="cls-81" points="24 6.08 15.19 27.92 15.06 27.92 23.88 6.08 24 6.08"/>
        <polygon class="cls-128" points="24.13 6.08 15.32 27.92 15.19 27.92 24 6.08 24.13 6.08"/>
        <polygon class="cls-152" points="24.26 6.08 15.45 27.92 15.32 27.92 24.13 6.08 24.26 6.08"/>
        <polygon class="cls-34" points="24.39 6.08 15.57 27.92 15.45 27.92 24.26 6.08 24.39 6.08"/>
        <polygon class="cls-26" points="24.51 6.08 15.7 27.92 15.57 27.92 24.39 6.08 24.51 6.08"/>
        <polygon class="cls-134" points="24.64 6.08 15.83 27.92 15.7 27.92 24.51 6.08 24.64 6.08"/>
        <polygon class="cls-134" points="24.81 6.08 16 27.92 15.83 27.92 24.64 6.08 24.81 6.08"/>
        <polygon class="cls-143" points="24.97 6.08 16.16 27.92 16 27.92 24.81 6.08 24.97 6.08"/>
        <polygon class="cls-21" points="25.14 6.08 16.33 27.92 16.16 27.92 24.97 6.08 25.14 6.08"/>
        <polygon class="cls-32" points="25.31 6.08 16.49 27.92 16.33 27.92 25.14 6.08 25.31 6.08"/>
        <polygon class="cls-161" points="25.47 6.08 16.66 27.92 16.49 27.92 25.31 6.08 25.47 6.08"/>
        <polygon class="cls-55" points="25.64 6.08 16.83 27.92 16.66 27.92 25.47 6.08 25.64 6.08"/>
        <polygon class="cls-67" points="25.8 6.08 16.99 27.92 16.83 27.92 25.64 6.08 25.8 6.08"/>
        <polygon class="cls-20" points="25.97 6.08 17.16 27.92 16.99 27.92 25.8 6.08 25.97 6.08"/>
        <polygon class="cls-56" points="26.14 6.08 17.32 27.92 17.16 27.92 25.97 6.08 26.14 6.08"/>
        <polygon class="cls-72" points="26.3 6.08 17.49 27.92 17.32 27.92 26.14 6.08 26.3 6.08"/>
        <polygon class="cls-77" points="26.47 6.08 17.66 27.92 17.49 27.92 26.3 6.08 26.47 6.08"/>
        <polygon class="cls-48" points="26.63 6.08 17.82 27.92 17.66 27.92 26.47 6.08 26.63 6.08"/>
        <polygon class="cls-144" points="26.8 6.08 17.99 27.92 17.82 27.92 26.63 6.08 26.8 6.08"/>
        <polygon class="cls-1" points="26.97 6.08 18.15 27.92 17.99 27.92 26.8 6.08 26.97 6.08"/>
        <polygon class="cls-157" points="27.13 6.08 18.32 27.92 18.15 27.92 26.97 6.08 27.13 6.08"/>
        <polygon class="cls-36" points="27.3 6.08 18.49 27.92 18.32 27.92 27.13 6.08 27.3 6.08"/>
        <polygon class="cls-105" points="27.46 6.08 18.65 27.92 18.49 27.92 27.3 6.08 27.46 6.08"/>
        <polygon class="cls-76" points="27.63 6.08 18.82 27.92 18.65 27.92 27.46 6.08 27.63 6.08"/>
        <polygon class="cls-27" points="27.8 6.08 18.98 27.92 18.82 27.92 27.63 6.08 27.8 6.08"/>
        <polygon class="cls-12" points="27.96 6.08 19.15 27.92 18.98 27.92 27.8 6.08 27.96 6.08"/>
        <polygon class="cls-9" points="28.13 6.08 19.32 27.92 19.15 27.92 27.96 6.08 28.13 6.08"/>
        <polygon class="cls-86" points="28.29 6.08 19.48 27.92 19.32 27.92 28.13 6.08 28.29 6.08"/>
        <polygon class="cls-24" points="28.46 6.08 19.65 27.92 19.48 27.92 28.29 6.08 28.46 6.08"/>
        <polygon class="cls-150" points="28.63 6.08 19.81 27.92 19.65 27.92 28.46 6.08 28.63 6.08"/>
        <polygon class="cls-102" points="28.79 6.08 19.98 27.92 19.81 27.92 28.63 6.08 28.79 6.08"/>
        <polygon class="cls-136" points="28.96 6.08 20.15 27.92 19.98 27.92 28.79 6.08 28.96 6.08"/>
        <polygon class="cls-51" points="29.12 6.08 20.31 27.92 20.15 27.92 28.96 6.08 29.12 6.08"/>
        <polygon class="cls-132" points="29.29 6.08 20.48 27.92 20.31 27.92 29.12 6.08 29.29 6.08"/>
        <polygon class="cls-148" points="29.45 6.08 20.64 27.92 20.48 27.92 29.29 6.08 29.45 6.08"/>
        <polygon class="cls-99" points="29.62 6.08 20.81 27.92 20.64 27.92 29.45 6.08 29.62 6.08"/>
        <polygon class="cls-42" points="29.79 6.08 20.97 27.92 20.81 27.92 29.62 6.08 29.79 6.08"/>
        <polygon class="cls-80" points="29.95 6.08 21.14 27.92 20.97 27.92 29.79 6.08 29.95 6.08"/>
        <polygon class="cls-127" points="30.12 6.08 21.31 27.92 21.14 27.92 29.95 6.08 30.12 6.08"/>
        <polygon class="cls-88" points="30.28 6.08 21.47 27.92 21.31 27.92 30.12 6.08 30.28 6.08"/>
        <polygon class="cls-22" points="30.45 6.08 21.64 27.92 21.47 27.92 30.28 6.08 30.45 6.08"/>
        <polygon class="cls-103" points="30.62 6.08 21.8 27.92 21.64 27.92 30.45 6.08 30.62 6.08"/>
        <polygon class="cls-83" points="30.78 6.08 21.97 27.92 21.8 27.92 30.62 6.08 30.78 6.08"/>
        <polygon class="cls-6" points="30.95 6.08 22.14 27.92 21.97 27.92 30.78 6.08 30.95 6.08"/>
        <polygon class="cls-131" points="31.11 6.08 22.3 27.92 22.14 27.92 30.95 6.08 31.11 6.08"/>
        <polygon class="cls-31" points="31.28 6.08 22.47 27.92 22.3 27.92 31.11 6.08 31.28 6.08"/>
        <polygon class="cls-129" points="31.4 6.19 22.63 27.92 22.47 27.92 31.28 6.08 31.4 6.08 31.4 6.19"/>
        <polygon class="cls-104" points="31.4 6.61 22.8 27.92 22.63 27.92 31.4 6.19 31.4 6.61"/>
        <polygon class="cls-98" points="31.4 7.02 22.97 27.92 22.8 27.92 31.4 6.61 31.4 7.02"/>
        <polygon class="cls-41" points="31.4 7.43 23.13 27.92 22.97 27.92 31.4 7.02 31.4 7.43"/>
        <polygon class="cls-16" points="31.4 7.84 23.3 27.92 23.13 27.92 31.4 7.43 31.4 7.84"/>
        <polygon class="cls-15" points="31.4 8.25 23.46 27.92 23.3 27.92 31.4 7.84 31.4 8.25"/>
        <polygon class="cls-135" points="31.4 8.66 23.63 27.92 23.46 27.92 31.4 8.25 31.4 8.66"/>
        <polygon class="cls-133" points="31.4 9.07 23.8 27.92 23.63 27.92 31.4 8.66 31.4 9.07"/>
        <polygon class="cls-59" points="31.4 9.48 23.96 27.92 23.8 27.92 31.4 9.07 31.4 9.48"/>
        <polygon class="cls-116" points="31.4 9.9 24.13 27.92 23.96 27.92 31.4 9.48 31.4 9.9"/>
        <polygon class="cls-30" points="31.4 10.31 24.29 27.92 24.13 27.92 31.4 9.9 31.4 10.31"/>
        <polygon class="cls-155" points="31.4 10.72 24.46 27.92 24.29 27.92 31.4 10.31 31.4 10.72"/>
        <polygon class="cls-35" points="31.4 11.13 24.63 27.92 24.46 27.92 31.4 10.72 31.4 11.13"/>
        <polygon class="cls-107" points="31.4 11.54 24.79 27.92 24.63 27.92 31.4 11.13 31.4 11.54"/>
        <polygon class="cls-97" points="31.4 11.95 24.96 27.92 24.79 27.92 31.4 11.54 31.4 11.95"/>
        <polygon class="cls-69" points="31.4 12.36 25.12 27.92 24.96 27.92 31.4 11.95 31.4 12.36"/>
        <polygon class="cls-66" points="31.4 12.77 25.29 27.92 25.12 27.92 31.4 12.36 31.4 12.77"/>
        <polygon class="cls-37" points="31.4 13.19 25.46 27.92 25.29 27.92 31.4 12.77 31.4 13.19"/>
        <polygon class="cls-37" points="31.4 13.56 25.61 27.92 25.46 27.92 31.4 13.19 31.4 13.56"/>
        <polygon class="cls-138" points="31.4 13.94 25.76 27.92 25.61 27.92 31.4 13.56 31.4 13.94"/>
        <polygon class="cls-115" points="31.4 14.31 25.91 27.92 25.76 27.92 31.4 13.94 31.4 14.31"/>
        <polygon class="cls-123" points="31.4 14.69 26.06 27.92 25.91 27.92 31.4 14.31 31.4 14.69"/>
        <polygon class="cls-82" points="31.4 15.06 26.21 27.92 26.06 27.92 31.4 14.69 31.4 15.06"/>
        <polygon class="cls-61" points="31.4 15.44 26.36 27.92 26.21 27.92 31.4 15.06 31.4 15.44"/>
        <polygon class="cls-61" points="26.36 27.92 31.4 15.44 31.4 27.92 26.36 27.92"/>
      </g>
    </g>
    <path class="cls-110" d="M11.67,21.63c-.7,0-1.27-.57-1.27-1.27s.57-1.27,1.27-1.27,1.27.57,1.27,1.27-.57,1.27-1.27,1.27ZM11.67,19.58c-.43,0-.78.35-.78.78s.35.78.78.78.78-.35.78-.78-.35-.78-.78-.78Z"/>
  </g>
</svg>