<?xml version="1.0" encoding="UTF-8"?>
<svg id="Layer_1" data-name="Layer 1" xmlns="http://www.w3.org/2000/svg" xmlns:xlink="http://www.w3.org/1999/xlink" viewBox="0 0 36 34">
  <defs>
    <style>
      .cls-1 {
        fill: url(#linear-gradient-12);
      }

      .cls-1, .cls-2, .cls-3, .cls-4, .cls-5, .cls-6, .cls-7, .cls-8, .cls-9, .cls-10, .cls-11, .cls-12, .cls-13, .cls-14, .cls-15, .cls-16, .cls-17 {
        stroke-width: 0px;
      }

      .cls-2 {
        fill: url(#linear-gradient-17);
      }

      .cls-3 {
        fill: url(#linear-gradient);
      }

      .cls-4 {
        fill: url(#linear-gradient-6);
      }

      .cls-5 {
        fill: url(#linear-gradient-15);
      }

      .cls-6 {
        fill: url(#linear-gradient-11);
      }

      .cls-7 {
        fill: url(#linear-gradient-5);
      }

      .cls-8 {
        fill: url(#linear-gradient-13);
      }

      .cls-9 {
        fill: url(#linear-gradient-16);
      }

      .cls-10 {
        fill: url(#linear-gradient-14);
      }

      .cls-11 {
        fill: url(#linear-gradient-2);
      }

      .cls-12 {
        fill: url(#linear-gradient-7);
      }

      .cls-13 {
        fill: url(#linear-gradient-3);
      }

      .cls-14 {
        fill: url(#linear-gradient-9);
      }

      .cls-15 {
        fill: url(#linear-gradient-8);
      }

      .cls-16 {
        fill: url(#linear-gradient-10);
      }

      .cls-17 {
        fill: url(#linear-gradient-4);
      }
    </style>
    <linearGradient id="linear-gradient" x1="-.89" y1=".65" x2="26.36" y2="24.62" gradientUnits="userSpaceOnUse">
      <stop offset="0" stop-color="#0049e7"/>
      <stop offset=".11" stop-color="#0648e7"/>
      <stop offset=".26" stop-color="#1647e9"/>
      <stop offset=".46" stop-color="#3144eb"/>
      <stop offset=".66" stop-color="#5740ee"/>
      <stop offset=".79" stop-color="#883bf3"/>
      <stop offset=".98" stop-color="#c236f7"/>
      <stop offset="1" stop-color="#c835f8"/>
    </linearGradient>
    <linearGradient id="linear-gradient-2" x1="-.57" y1=".28" x2="26.68" y2="24.25" xlink:href="#linear-gradient"/>
    <linearGradient id="linear-gradient-3" x1=".29" y1="-.69" x2="27.54" y2="23.27" xlink:href="#linear-gradient"/>
    <linearGradient id="linear-gradient-4" x1="1.15" y1="-1.67" x2="28.39" y2="22.3" xlink:href="#linear-gradient"/>
    <linearGradient id="linear-gradient-5" x1="-2.67" y1="2.67" x2="24.58" y2="26.64" xlink:href="#linear-gradient"/>
    <linearGradient id="linear-gradient-6" x1="-1.79" y1="1.68" x2="25.45" y2="25.64" xlink:href="#linear-gradient"/>
    <linearGradient id="linear-gradient-7" x1="-.25" y1="-.08" x2="26.99" y2="23.89" xlink:href="#linear-gradient"/>
    <linearGradient id="linear-gradient-8" x1="1.21" y1="-1.73" x2="28.45" y2="22.23" xlink:href="#linear-gradient"/>
    <linearGradient id="linear-gradient-9" x1="2.32" y1="-3" x2="29.56" y2="20.97" xlink:href="#linear-gradient"/>
    <linearGradient id="linear-gradient-10" x1="-.16" y1="-.18" x2="27.08" y2="23.79" xlink:href="#linear-gradient"/>
    <linearGradient id="linear-gradient-11" x1="-2.49" y1="2.47" x2="24.75" y2="26.44" xlink:href="#linear-gradient"/>
    <linearGradient id="linear-gradient-12" x1="-7.84" y1="8.55" x2="19.41" y2="32.52" xlink:href="#linear-gradient"/>
    <linearGradient id="linear-gradient-13" x1="-9.04" y1="9.91" x2="18.21" y2="33.87" xlink:href="#linear-gradient"/>
    <linearGradient id="linear-gradient-14" x1="-2.99" y1="3.04" x2="24.25" y2="27" xlink:href="#linear-gradient"/>
    <linearGradient id="linear-gradient-15" x1="7.45" y1="-8.83" x2="34.69" y2="15.14" xlink:href="#linear-gradient"/>
    <linearGradient id="linear-gradient-16" x1="2.73" y1="-3.47" x2="29.98" y2="20.5" xlink:href="#linear-gradient"/>
    <linearGradient id="linear-gradient-17" x1="-7.52" y1="8.19" x2="19.73" y2="32.15" xlink:href="#linear-gradient"/>
  </defs>
  <path class="cls-3" d="M35.94,3.85v27.29c0,1.4-1.09,2.53-2.43,2.53H9.86c-.33,0-.59-.27-.59-.61s.26-.61.59-.61h23.64c.69,0,1.25-.58,1.25-1.3V7H9.72c-.33,0-.59-.27-.59-.61s.27-.61.59-.61h25.04v-1.92c0-1.26-.99-2.29-2.2-2.29H3.45c-1.22,0-2.2,1.02-2.2,2.29v1.92h5.68c.33,0,.59.28.59.61s-.26.61-.59.61H1.24v24.14c0,.72.56,1.3,1.25,1.3h4.57c.33,0,.59.28.59.61s-.27.61-.59.61H2.5c-1.34,0-2.43-1.13-2.43-2.53V3.85C.06,1.91,1.58.33,3.45.33h29.11c1.87,0,3.38,1.58,3.38,3.52Z"/>
  <g>
    <ellipse class="cls-11" cx="3.47" cy="3.83" rx=".68" ry=".7"/>
    <ellipse class="cls-13" cx="5.43" cy="3.83" rx=".68" ry=".7"/>
    <ellipse class="cls-17" cx="7.4" cy="3.83" rx=".68" ry=".7"/>
  </g>
  <g>
    <path class="cls-7" d="M9.98,13.14h3.09c.21,0,.38.17.38.38s-.17.38-.38.38h-1.17v4.25c0,.22-.17.38-.38.38s-.38-.17-.38-.38v-4.25h-1.16c-.22,0-.38-.17-.38-.38s.17-.38.38-.38Z"/>
    <path class="cls-4" d="M13.91,18.14v-4.64c0-.21.17-.38.38-.38s.38.17.38.38v4.64c0,.22-.17.38-.38.38s-.38-.17-.38-.38Z"/>
    <path class="cls-12" d="M15.52,13.14h3.09c.21,0,.38.17.38.38s-.17.38-.38.38h-1.17v4.25c0,.22-.17.38-.38.38s-.38-.17-.38-.38v-4.25h-1.16c-.22,0-.38-.17-.38-.38s.17-.38.38-.38Z"/>
    <path class="cls-15" d="M22.9,18.13c0,.22-.18.38-.38.38h-2.68c-.22,0-.38-.17-.38-.38v-4.59c0-.22.17-.38.38-.38h2.68c.21,0,.38.17.38.38s-.18.38-.38.38h-2.3v1.54h1.75c.21,0,.38.17.38.38s-.18.38-.38.38h-1.75v1.51h2.3c.21,0,.38.17.38.38Z"/>
    <path class="cls-14" d="M26.78,18.13c0,.22-.18.38-.38.38h-2.67c-.22,0-.38-.17-.38-.38v-4.59c0-.22.17-.38.38-.38s.38.17.38.38v4.21h2.29c.21,0,.38.17.38.38Z"/>
  </g>
  <path class="cls-16" d="M5.68,12.17v7.06h.64v-7.06h-.64ZM7.4,20.8v.64h21.22v-.64H7.4ZM30.06,12v7.23h.64v-7.23h-.64ZM7.22,10.21v.64h21.4v-.64H7.22Z"/>
  <path class="cls-6" d="M30.25,28.47h-10.49c-.18,0-.33-.15-.33-.33v-2.96c0-.18.15-.33.33-.33h10.49c.18,0,.33.15.33.33v2.96c0,.18-.15.33-.33.33ZM20.15,28.08h9.71c.18,0,.33-.15.33-.33v-2.19c0-.18-.15-.33-.33-.33h-9.71c-.18,0-.33.15-.33.33v2.19c0,.18.15.33.33.33Z"/>
  <path class="cls-1" d="M16.88,26H5.89c-.17,0-.3-.13-.3-.3v-.48c0-.17.13-.3.3-.3h10.99c.17,0,.3.13.3.3v.48c0,.17-.13.3-.3.3ZM5.91,25.67h10.95v-.43H5.91v.43Z"/>
  <path class="cls-8" d="M16.97,28.47H5.85c-.17,0-.3-.13-.3-.3v-.54c0-.17.13-.3.3-.3h11.12c.17,0,.3.13.3.3v.54c0,.17-.13.3-.3.3ZM5.94,28.08h10.94v-.37H5.94v.37Z"/>
  <path class="cls-10" d="M6.04,12.74c-.97,0-1.75-.79-1.75-1.75s.79-1.75,1.75-1.75,1.75.79,1.75,1.75-.79,1.75-1.75,1.75ZM6.04,9.88c-.61,0-1.11.5-1.11,1.11s.5,1.11,1.11,1.11,1.11-.5,1.11-1.11-.5-1.11-1.11-1.11Z"/>
  <path class="cls-5" d="M29.82,12.62c-.98,0-1.77-.79-1.77-1.77s.79-1.77,1.77-1.77,1.77.79,1.77,1.77-.79,1.77-1.77,1.77ZM29.82,9.72c-.62,0-1.13.51-1.13,1.13s.51,1.13,1.13,1.13,1.13-.51,1.13-1.13-.51-1.13-1.13-1.13Z"/>
  <path class="cls-9" d="M29.93,22.24c-.98,0-1.78-.8-1.78-1.78s.8-1.78,1.78-1.78,1.78.8,1.78,1.78-.8,1.78-1.78,1.78ZM29.93,19.32c-.63,0-1.14.51-1.14,1.14s.51,1.14,1.14,1.14,1.14-.51,1.14-1.14-.51-1.14-1.14-1.14Z"/>
  <path class="cls-2" d="M6.32,22.09c-.96,0-1.73-.78-1.73-1.73s.78-1.73,1.73-1.73,1.73.78,1.73,1.73-.78,1.73-1.73,1.73ZM6.32,19.27c-.6,0-1.09.49-1.09,1.09s.49,1.09,1.09,1.09,1.09-.49,1.09-1.09-.49-1.09-1.09-1.09Z"/>
</svg>