<?xml version="1.0" encoding="UTF-8"?>
<svg id="Layer_1" data-name="Layer 1" xmlns="http://www.w3.org/2000/svg" xmlns:xlink="http://www.w3.org/1999/xlink" viewBox="0 0 36 34">
  <defs>
    <style>
      .cls-1 {
        fill: url(#linear-gradient);
      }

      .cls-1, .cls-2, .cls-3, .cls-4, .cls-5, .cls-6, .cls-7, .cls-8, .cls-9, .cls-10 {
        stroke-width: 0px;
      }

      .cls-2 {
        fill: url(#linear-gradient-6);
      }

      .cls-3 {
        fill: url(#linear-gradient-5);
      }

      .cls-4 {
        fill: url(#linear-gradient-2);
      }

      .cls-5 {
        fill: url(#linear-gradient-7);
      }

      .cls-6 {
        fill: url(#linear-gradient-3);
      }

      .cls-7 {
        fill: url(#linear-gradient-9);
      }

      .cls-8 {
        fill: url(#linear-gradient-8);
      }

      .cls-9 {
        fill: url(#linear-gradient-10);
      }

      .cls-10 {
        fill: url(#linear-gradient-4);
      }
    </style>
    <linearGradient id="linear-gradient" x1="7.55" y1="-6.35" x2="21.81" y2="29.52" gradientUnits="userSpaceOnUse">
      <stop offset="0" stop-color="#0049e7"/>
      <stop offset=".11" stop-color="#0648e7"/>
      <stop offset=".26" stop-color="#1647e9"/>
      <stop offset=".46" stop-color="#3144eb"/>
      <stop offset=".66" stop-color="#5740ee"/>
      <stop offset=".79" stop-color="#883bf3"/>
      <stop offset=".98" stop-color="#c236f7"/>
      <stop offset="1" stop-color="#c835f8"/>
    </linearGradient>
    <linearGradient id="linear-gradient-2" x1="7.55" y1="-6.35" x2="21.81" y2="29.52" xlink:href="#linear-gradient"/>
    <linearGradient id="linear-gradient-3" x1="3.45" y1="-4.72" x2="17.71" y2="31.15" xlink:href="#linear-gradient"/>
    <linearGradient id="linear-gradient-4" x1="8.24" y1="-6.63" x2="22.5" y2="29.25" xlink:href="#linear-gradient"/>
    <linearGradient id="linear-gradient-5" x1="10.77" y1="-7.63" x2="25.03" y2="28.24" xlink:href="#linear-gradient"/>
    <linearGradient id="linear-gradient-6" x1="5.75" y1="-5.64" x2="20.01" y2="30.24" xlink:href="#linear-gradient"/>
    <linearGradient id="linear-gradient-7" x1="10.37" y1="-1.81" x2="21.77" y2="26.87" xlink:href="#linear-gradient"/>
    <linearGradient id="linear-gradient-8" x1="2.47" y1="1.33" x2="13.88" y2="30.01" xlink:href="#linear-gradient"/>
    <linearGradient id="linear-gradient-9" x1="4.17" y1=".65" x2="15.57" y2="29.34" xlink:href="#linear-gradient"/>
    <linearGradient id="linear-gradient-10" x1="5.86" y1="-.02" x2="17.27" y2="28.66" xlink:href="#linear-gradient"/>
  </defs>
  <g>
    <path class="cls-1" d="M26.86,12.14c.26,0,.48-.21.48-.48v-1.18c0-.26-.21-.48-.48-.48h-1.18c-.26,0-.48.22-.48.48v.26h-6.3v-.26c0-.26-.21-.48-.48-.48h-1.18c-.26,0-.48.22-.48.48v.26h-6.3v-.26c0-.26-.21-.48-.48-.48h-1.18c-.26,0-.48.22-.48.48v1.18c0,.26.21.48.48.48h.26v6.3h-.26c-.26,0-.48.21-.48.47v1.18c0,.26.21.48.48.48h.26v6.3h-.26c-.26,0-.48.21-.48.48v1.18c0,.26.21.48.48.48h1.18c.26,0,.48-.21.48-.48v-.26h6.3v.26c0,.26.22.48.48.48h1.18c.26,0,.48-.21.48-.48v-.26h6.3v.26c0,.26.21.48.48.48h1.18c.26,0,.48-.21.48-.48v-1.18c0-.26-.21-.48-.48-.48h-.26v-6.3h.26c.26,0,.48-.21.48-.48v-1.18c0-.26-.21-.47-.48-.47h-.26v-6.3h.26ZM17.42,10.66h.82v.82h-.82v-.82ZM8.99,11.48v-.82h.82v.82h-.82ZM8.99,19.92v-.82h.82v.82h-.82ZM9.8,28.36h-.82v-.82h.82v.82ZM18.24,28.36h-.82v-.82h.82v.82ZM25.21,27.36v.26h-6.3v-.26c0-.26-.21-.48-.48-.48h-1.18c-.26,0-.48.21-.48.48v.26h-6.3v-.26c0-.26-.21-.48-.48-.48h-.26v-6.3h.26c.26,0,.48-.21.48-.48v-1.18c0-.26-.21-.47-.48-.47h-.26v-6.3h.26c.26,0,.48-.21.48-.48v-.26h6.3v.26c0,.26.22.48.48.48h1.18c.26,0,.48-.21.48-.48v-.26h6.3v.26c0,.26.21.48.48.48h.26v6.3h-.26c-.26,0-.48.21-.48.47v1.18c0,.26.21.48.48.48h.26v6.3h-.26c-.26,0-.48.21-.48.48ZM25.86,28.36v-.82h.82v.82h-.82ZM26.68,19.1v.82h-.82v-.82h.82ZM25.86,11.48v-.82h.82v.82h-.82Z"/>
    <path class="cls-4" d="M24.72,18.7l-2.74-4.75c-.29-.5-.83-.81-1.41-.81h-5.48c-.58,0-1.12.31-1.41.81l-2.74,4.75c-.29.5-.29,1.12,0,1.62l2.74,4.75c.29.5.83.81,1.41.81h5.48c.58,0,1.11-.31,1.41-.81l1.31-2.27c.09-.15.04-.36-.12-.45-.16-.09-.36-.04-.45.12l-.86,1.49h-8.05l-2.29-3.97c-.17-.3-.17-.67,0-.97l2.23-3.87h1.89c.18,0,.33-.15.33-.33s-.15-.33-.33-.33h-1.51l.13-.22c.17-.3.49-.48.83-.48h5.48c.34,0,.66.18.83.48l.12.22h-4.6c-.18,0-.33.15-.33.33s.15.33.33.33h4.98l2.23,3.87c.17.3.17.67,0,.97l-.76,1.32c-.09.16-.04.36.12.45.08.05.17.06.25.03.09-.02.16-.08.2-.15l.76-1.32c.29-.5.29-1.12,0-1.62ZM21.48,24.62l-.07.12c-.18.3-.49.48-.83.48h-5.48c-.34,0-.66-.18-.83-.48l-.07-.12h7.29Z"/>
    <path class="cls-6" d="M14.13,20.53c0,.09-.03.17-.09.23-.06.06-.15.1-.23.1h-.69c-.2,0-.36-.17-.36-.37v-2.01c0-.18.15-.33.33-.33s.33.15.33.33v1.72h.39c.18,0,.33.15.33.32Z"/>
    <path class="cls-10" d="M19.94,19.7c-.02.77-.52,1.17-1.22,1.17-.37,0-.73-.16-.99-.44-.26-.28-.39-.64-.36-1.02.04-.66.58-1.2,1.24-1.26.31-.03.62.06.87.23.15.1.19.31.09.46-.05.07-.12.12-.21.14-.09.02-.17,0-.25-.05-.13-.09-.29-.13-.44-.12-.34.03-.62.3-.64.64-.01.2.05.38.18.53.13.14.32.22.51.22.3,0,.44-.19.5-.37h-.23c-.18,0-.34-.04-.29-.28.04-.19.15-.18.33-.18h.48c.1,0,.29.04.36.11.07.07.07.12.07.21Z"/>
    <path class="cls-3" d="M21.56,18.16c-.75,0-1.35.61-1.35,1.36s.61,1.36,1.35,1.36,1.36-.61,1.36-1.36-.61-1.36-1.36-1.36ZM21.56,20.21c-.38,0-.7-.31-.7-.7s.31-.7.7-.7.7.31.7.7-.31.7-.7.7Z"/>
    <path class="cls-2" d="M15.75,18.16c-.75,0-1.36.61-1.36,1.36s.61,1.36,1.36,1.36,1.35-.61,1.35-1.36-.61-1.36-1.35-1.36ZM15.75,20.21c-.38,0-.7-.31-.7-.7s.31-.7.7-.7.7.31.7.7-.32.7-.7.7Z"/>
  </g>
  <path class="cls-5" d="M35.94,3.85v27.29c0,1.4-1.09,2.53-2.43,2.53H9.86c-.33,0-.59-.27-.59-.61s.26-.61.59-.61h23.64c.69,0,1.25-.58,1.25-1.3V7h-5.7c-.33,0-.59-.27-.59-.61s.27-.61.59-.61h5.7v-1.92c0-1.26-.99-2.29-2.2-2.29H3.45c-1.22,0-2.2,1.02-2.2,2.29v1.92h25.02c.33,0,.59.28.59.61s-.26.61-.59.61H1.24v24.14c0,.72.56,1.3,1.25,1.3h4.57c.33,0,.59.28.59.61s-.27.61-.59.61H2.5c-1.34,0-2.43-1.13-2.43-2.53V3.85C.06,1.91,1.58.33,3.45.33h29.11c1.87,0,3.38,1.58,3.38,3.52Z"/>
  <g>
    <ellipse class="cls-8" cx="3.47" cy="3.83" rx=".68" ry=".7"/>
    <ellipse class="cls-7" cx="5.43" cy="3.83" rx=".68" ry=".7"/>
    <ellipse class="cls-9" cx="7.4" cy="3.83" rx=".68" ry=".7"/>
  </g>
</svg>