<?xml version="1.0" encoding="UTF-8"?>
<svg id="Layer_1" data-name="Layer 1" xmlns="http://www.w3.org/2000/svg" xmlns:xlink="http://www.w3.org/1999/xlink" viewBox="0 0 36 34">
  <defs>
    <style>
      .cls-1 {
        fill: url(#linear-gradient);
        fill-rule: evenodd;
        stroke-width: 0px;
      }
    </style>
    <linearGradient id="linear-gradient" x1=".23" y1="-143" x2="35.77" y2="-143" gradientTransform="translate(0 -126) scale(1 -1)" gradientUnits="userSpaceOnUse">
      <stop offset="0" stop-color="#0049e7"/>
      <stop offset="1" stop-color="#c835f8"/>
    </linearGradient>
  </defs>
  <path class="cls-1" d="M3.3,1.44c.97-.32,2.04-.3,3,.06,1.12.42,2.02,1.26,2.51,2.35.83,1.83.31,4.08-1.25,5.35v1.17c-.02.84-1.09,1.26-1.68.67l-.82-.84c-1.86.14-3.66-.93-4.43-2.62C-.09,6,.18,4.09,1.31,2.78c.19-.22.52-.24.73-.06.22.19.24.52.06.73-.86,1-1.07,2.48-.52,3.68.62,1.37,2.12,2.2,3.61,1.99.16-.02.33.03.44.15l.87.9v-1.25c.02-.17.1-.32.23-.42,1.32-.95,1.8-2.75,1.13-4.23-.72-1.58-2.59-2.4-4.23-1.85-.27.09-.57-.06-.66-.33-.09-.27.06-.57.33-.66ZM6.51,26.55l1.76.25c.39.06.72.33.84.71.12.38.02.79-.26,1.06l-1.28,1.24.3,1.75c.14.83-.76,1.49-1.51,1.09l-1.58-.83-1.58.83c-.35.19-.77.16-1.09-.08-.32-.23-.48-.62-.41-1.02l.3-1.76-1.28-1.24c-.29-.28-.39-.69-.26-1.06.12-.38.44-.65.84-.71l1.76-.26.79-1.6c.18-.36.53-.58.93-.58s.76.22.93.58l.79,1.6ZM6.55,29.99c-.06-.34.05-.68.3-.92l1.27-1.24-1.76-.26c-.34-.05-.63-.26-.78-.57l-.79-1.59-.79,1.59c-.15.31-.44.52-.78.57l-1.76.26,1.27,1.24c.24.24.36.58.3.92l-.3,1.75,1.57-.83c.32-.16.64-.16.97,0l1.57.83-.3-1.75ZM2.52,5.99c.11.26.4.39.67.29.26-.1.4-.41.3-.67-.1-.27-.42-.41-.69-.3-.26.11-.39.42-.28.68ZM5.02,6.21c-.23.17-.58.11-.74-.13-.16-.24-.09-.56.14-.72.23-.15.56-.09.72.14.16.23.1.56-.13.72ZM6.01,6.08c.16.24.49.3.72.14.24-.16.3-.49.14-.72-.16-.24-.49-.3-.72-.14-.24.16-.3.49-.14.72ZM7.92,17.68h-.51c-.43,0-.85.37-.84.83,0,.44.37.79.81.79h.54c.5,0,.91.41.91.91v.48c0,1.03-.84,1.87-1.87,1.87H2.55c-1.03,0-1.87-.84-1.87-1.87v-4.41c0-1.03.84-1.87,1.87-1.87h.35c0-1,.82-1.83,1.82-1.85,1.01-.02,1.87.85,1.89,1.85h.35c1.03,0,1.87.84,1.87,1.87v.48c0,.5-.41.91-.91.91ZM7.79,20.34h-.41c-1,0-1.83-.81-1.85-1.82-.02-1.02.87-1.89,1.89-1.89h.38v-.35c0-.46-.37-.83-.83-.83h-.87c-.29,0-.52-.23-.52-.52v-.48c0-.43-.37-.85-.83-.84-.44,0-.79.37-.79.81v.52c0,.29-.23.52-.52.52h-.87c-.46,0-.83.37-.83.83v4.41c0,.46.37.83.83.83h4.41c.46,0,.83-.37.83-.83v-.35ZM32.86,26.85H13.73c-1.6,0-2.9,1.3-2.9,2.9s1.3,2.9,2.9,2.9h13.85c.28,0,.55-.3.52-.58-.02-.27-.33-.51-.61-.47h-13.76c-1.03,0-1.86-.84-1.86-1.86s.84-1.86,1.86-1.86h17.33v3.72c-.17,0-.34,0-.51,0h0c-.31,0-.62-.01-.93,0-.28.02-.49.24-.49.52,0,.27.26.53.52.53h3.21c1.6,0,2.9-1.3,2.9-2.9s-1.3-2.9-2.9-2.9ZM32.86,31.62h-.76v-3.72h.76c1.03,0,1.86.84,1.86,1.86s-.84,1.86-1.86,1.86ZM32.86,10.09H13.73c-1.6,0-2.9-1.3-2.9-2.9s1.3-2.9,2.9-2.9h19.13c1.6,0,2.9,1.3,2.9,2.9s-1.3,2.9-2.9,2.9ZM32.86,9.05c1.03,0,1.86-.84,1.86-1.86s-.84-1.86-1.86-1.86h-5.47v3.72h5.47ZM26.36,5.33h-12.63c-1.03,0-1.86.84-1.86,1.86s.84,1.86,1.86,1.86h12.63v-3.72ZM32.86,15.57H13.73c-1.6,0-2.9,1.3-2.9,2.9s1.3,2.9,2.9,2.9h19.13c1.6,0,2.9-1.3,2.9-2.9s-1.3-2.9-2.9-2.9ZM11.87,18.47c0-1.03.84-1.86,1.86-1.86h9.05v3.72h-9.05c-1.03,0-1.86-.84-1.86-1.86ZM32.86,20.33h-9.05v-3.72h9.05c1.03,0,1.86.84,1.86,1.86s-.84,1.86-1.86,1.86ZM23.96,2.74h-9.69c-.29,0-.52-.23-.52-.52s.23-.52.52-.52h9.69c.29,0,.52.23.52.52s-.23.52-.52.52ZM14.27,12.98c-.29,0-.52.23-.52.52s.23.52.52.52h14.13c.29,0,.52-.23.52-.52s-.23-.52-.52-.52h-14.13ZM26.67,24.79c0,.29-.23.52-.52.52h-11.88c-.29,0-.52-.23-.52-.52s.23-.52.52-.52h11.88c.29,0,.52.23.52.52Z"/>
</svg>