<?xml version="1.0" encoding="UTF-8"?>
<svg id="Layer_1" data-name="Layer 1" xmlns="http://www.w3.org/2000/svg" xmlns:xlink="http://www.w3.org/1999/xlink" viewBox="0 0 36 34">
  <defs>
    <style>
      .cls-1 {
        fill: url(#linear-gradient);
        fill-rule: evenodd;
        stroke-width: 0px;
      }
    </style>
    <linearGradient id="linear-gradient" x1="1.08" y1="-143" x2="34.92" y2="-143" gradientTransform="translate(0 -126) scale(1 -1)" gradientUnits="userSpaceOnUse">
      <stop offset="0" stop-color="#0049e7"/>
      <stop offset="1" stop-color="#c835f8"/>
    </linearGradient>
  </defs>
  <path class="cls-1" d="M30.62,21.08c.43-1.32.64-2.69.64-4.09s-.22-2.76-.64-4.08c2.57-.97,4.38-3.5,4.29-6.4-.1-3.66-3.16-6.54-6.82-6.44-2.77.08-5.09,1.85-6.02,4.29-1.31-.42-2.68-.64-4.08-.64s-2.76.22-4.08.64C12.97,1.87,10.55.08,7.72.08,4.06.08,1.08,3.05,1.08,6.71c0,2.83,1.79,5.26,4.29,6.21-.42,1.31-.64,2.68-.64,4.08s.22,2.77.64,4.09c-2.51.95-4.3,3.37-4.3,6.21,0,3.66,2.97,6.63,6.63,6.63,2.84,0,5.27-1.79,6.21-4.31,1.31.42,2.68.64,4.07.64s2.76-.21,4.07-.64c.3.81.76,1.56,1.37,2.21.19.2.5.21.7.02.2-.19.21-.5.02-.7-.98-1.05-1.52-2.42-1.52-3.85,0-3.11,2.53-5.64,5.64-5.64s5.64,2.53,5.64,5.64-2.53,5.64-5.64,5.64c-.82,0-1.61-.17-2.35-.51-.25-.11-.54,0-.66.24-.11.25,0,.54.24.66.87.4,1.8.6,2.76.6,3.66,0,6.63-2.97,6.63-6.63,0-2.84-1.79-5.26-4.3-6.21ZM28.12,1.07c.05,0,.11,0,.16,0,3.04,0,5.55,2.42,5.64,5.48.09,3.11-2.37,5.71-5.48,5.8-3.11.09-5.71-2.37-5.8-5.48-.09-3.11,2.37-5.71,5.48-5.8ZM7.72,32.93c-3.11,0-5.64-2.53-5.64-5.64s2.53-5.64,5.64-5.64,5.64,2.53,5.64,5.64-2.53,5.64-5.64,5.64ZM21.65,27.29c0,.47.05.93.14,1.37-1.22.4-2.5.6-3.8.6s-2.57-.2-3.8-.6c.09-.44.14-.9.14-1.37,0-3.66-2.98-6.63-6.63-6.63-.47,0-.94.05-1.38.15-.4-1.23-.6-2.51-.6-3.81s.2-2.58.6-3.8c.45.1.91.15,1.39.15,1.7,0,3.31-.64,4.55-1.8.2-.19.21-.5.02-.7-.19-.2-.5-.21-.7-.02-1.05.99-2.42,1.53-3.87,1.53-3.11,0-5.64-2.53-5.64-5.64S4.61,1.07,7.72,1.07s5.64,2.53,5.64,5.64c0,.73-.14,1.43-.4,2.1-.1.25.02.54.28.64.25.1.54-.02.64-.28.31-.78.47-1.61.47-2.47,0-.48-.05-.94-.15-1.39,1.22-.4,2.5-.6,3.8-.6s2.58.2,3.8.6c-.11.51-.16,1.03-.14,1.58.1,3.59,3.06,6.44,6.63,6.44.06,0,.13,0,.19,0,.41-.01.81-.06,1.2-.14.4,1.22.6,2.5.6,3.8s-.2,2.58-.6,3.81c-.45-.09-.91-.15-1.38-.15-3.66,0-6.63,2.97-6.63,6.63ZM11.09,3.78c-.17-.12-.4-.11-.56,0-.17.12-.35.22-.54.3-.68-.53-1.67-.53-2.34.06-.35.31-.57.73-.62,1.18-.73-.11-1.38-.51-1.82-1.12-.1-.15-.28-.23-.45-.21-.18.02-.33.13-.4.29-.01.03-.35.79-.31,1.73.03.71.29,1.63,1.22,2.34-.34.11-.69.16-1.04.14-.23,0-.44.14-.5.36-.06.22.04.46.24.57.78.43,1.61.65,2.42.65s1.55-.2,2.23-.6c1.33-.78,2.1-2.22,2.1-3.94,0-.03,0-.05,0-.08.28-.33.49-.73.59-1.16.05-.2-.03-.41-.2-.53ZM9.7,5.39c.01.05.02.11.02.16,0,1.38-.57,2.47-1.61,3.08-.6.35-1.29.5-1.99.45.16-.08.32-.17.46-.27.15-.1.23-.27.22-.45-.02-.18-.13-.34-.29-.41-.93-.41-1.42-1.07-1.47-1.94-.01-.18,0-.35.02-.51.68.57,1.55.88,2.47.86.27,0,.48-.23.48-.5v-.3s0,0,0,0c0-.25.1-.49.29-.65.35-.31.89-.27,1.2.08.06.07.14.12.23.15-.03.08-.04.17-.02.26ZM27.36,7.1h-.7c-.27,0-.5-.22-.5-.5s.22-.5.5-.5h.7v-1.39c0-1.02.83-1.86,1.86-1.86h.64c.27,0,.5.22.5.5s-.22.5-.5.5h-.64c-.48,0-.86.39-.86.86v1.39h.77c.27,0,.5.22.5.5s-.22.5-.5.5h-.77v2.96c0,.27-.22.5-.5.5s-.5-.22-.5-.5v-2.96ZM10.31,26.63l-3.37-1.95c-.21-.12-.47-.12-.68,0-.21.12-.34.35-.34.59v3.9c0,.24.13.47.34.59.11.06.22.09.34.09s.24-.03.34-.09l3.37-1.95c.21-.12.34-.35.34-.59s-.13-.47-.34-.59ZM6.9,25.81l2.45,1.41-2.45,1.41v-2.83ZM31.8,29.44c0,.75-.61,1.36-1.36,1.36h-4.31c-.75,0-1.36-.61-1.36-1.36v-4.31c0-.75.61-1.36,1.36-1.36h4.31c.75,0,1.36.61,1.36,1.36v4.31ZM25.76,25.14v4.31c0,.2.16.37.37.37h4.31c.2,0,.37-.16.37-.37v-4.31c0-.2-.16-.37-.37-.37h-4.31c-.2,0-.37.16-.37.37ZM28.28,28.79h0c.83,0,1.5-.67,1.5-1.5s-.67-1.5-1.5-1.5-1.5.67-1.5,1.5.67,1.5,1.5,1.5ZM28.28,26.78c.28,0,.51.23.51.51s-.23.51-.51.51h0c-.28,0-.51-.23-.51-.51s.23-.51.51-.51ZM18.83,11.31c.23-.1.51-.05.69.12l4.13,3.92c.2.19.31.46.31.73,0,.27-.12.54-.32.73l-4.13,3.78c-.19.17-.46.22-.69.11-.23-.1-.38-.33-.38-.58v-1.77c-.6.02-1.14.09-1.65.19-.27.06-.53-.11-.59-.38-.06-.27.11-.53.38-.59.71-.15,1.48-.22,2.35-.22.27,0,.5.22.5.5v1.48l3.53-3.24-3.53-3.36v1.38c0,.25-.18.46-.43.49-2.8.4-4.67,1.9-5.68,4.57.35-.31.73-.57,1.12-.8.24-.14.54-.05.68.19.14.24.05.54-.19.68-.57.32-1.08.74-1.57,1.28-.15.16-.35.25-.56.25-.13,0-.25-.03-.37-.1-.31-.17-.46-.53-.36-.87.47-1.65,1.17-2.95,2.14-3.95,1.08-1.12,2.5-1.85,4.22-2.17v-1.79c0-.26.15-.49.39-.59Z"/>
</svg>