<?xml version="1.0" encoding="UTF-8"?>
<svg id="Layer_1" data-name="Layer 1" xmlns="http://www.w3.org/2000/svg" xmlns:xlink="http://www.w3.org/1999/xlink" viewBox="0 0 36 34">
  <defs>
    <style>
      .cls-1 {
        fill: url(#linear-gradient);
      }

      .cls-1, .cls-2, .cls-3, .cls-4, .cls-5, .cls-6, .cls-7 {
        stroke-width: 0px;
      }

      .cls-2 {
        fill: url(#linear-gradient-6);
      }

      .cls-3 {
        fill: url(#linear-gradient-5);
      }

      .cls-4 {
        fill: url(#linear-gradient-2);
      }

      .cls-5 {
        fill: url(#linear-gradient-7);
      }

      .cls-6 {
        fill: url(#linear-gradient-3);
      }

      .cls-7 {
        fill: url(#linear-gradient-4);
      }
    </style>
    <linearGradient id="linear-gradient" x1="-.32" y1="6.97" x2="29.61" y2="19.61" gradientUnits="userSpaceOnUse">
      <stop offset="0" stop-color="#0049e7"/>
      <stop offset=".11" stop-color="#0648e7"/>
      <stop offset=".26" stop-color="#1647e9"/>
      <stop offset=".42" stop-color="#3144eb"/>
      <stop offset=".6" stop-color="#5740ee"/>
      <stop offset=".79" stop-color="#883bf3"/>
      <stop offset=".98" stop-color="#c236f7"/>
      <stop offset="1" stop-color="#c835f8"/>
    </linearGradient>
    <linearGradient id="linear-gradient-2" x1="-1.14" y1="8.92" x2="28.79" y2="21.56" xlink:href="#linear-gradient"/>
    <linearGradient id="linear-gradient-3" x1="-2.64" y1="12.47" x2="27.29" y2="25.11" xlink:href="#linear-gradient"/>
    <linearGradient id="linear-gradient-4" x1="-3.85" y1="15.35" x2="26.07" y2="27.99" xlink:href="#linear-gradient"/>
    <linearGradient id="linear-gradient-5" x1="-3.79" y1="15.19" x2="26.14" y2="27.82" xlink:href="#linear-gradient"/>
    <linearGradient id="linear-gradient-6" x1="-3.53" y1="14.57" x2="26.4" y2="27.21" xlink:href="#linear-gradient"/>
    <linearGradient id="linear-gradient-7" x1="-3.27" y1="13.95" x2="26.66" y2="26.59" xlink:href="#linear-gradient"/>
  </defs>
  <path class="cls-1" d="M23.63,14.21c.57-.56.92-1.33.92-2.19,0-1.7-1.38-3.08-3.08-3.08-1.31,0-2.47.83-2.91,2.05-.18-.03-.37-.05-.56-.05s-.38.02-.56.05c-.43-1.22-1.6-2.05-2.91-2.05-1.7,0-3.08,1.38-3.08,3.08,0,.86.35,1.63.92,2.19-1.36.77-2.23,2.23-2.23,3.82,0,.27.22.5.5.5s.5-.22.5-.5c0-1.4.88-2.68,2.19-3.18.37.16.78.25,1.21.25.19,0,.38-.02.56-.05.16.44.41.83.74,1.15-1.37.77-2.23,2.23-2.23,3.83,0,.27.22.5.5.5s.5-.22.5-.5c0-1.37.82-2.6,2.08-3.14.03-.01.06-.03.09-.05.38.16.79.26,1.23.26s.84-.09,1.21-.25c1.31.5,2.19,1.78,2.19,3.18,0,.27.22.5.5.5s.5-.22.5-.5c0-1.59-.87-3.05-2.23-3.82.33-.32.58-.72.74-1.16.18.03.37.05.56.05.43,0,.84-.09,1.21-.25,1.31.5,2.19,1.78,2.19,3.18,0,.27.22.5.5.5s.5-.22.5-.5c0-1.59-.87-3.05-2.23-3.82h0ZM14.92,14.01s0,.04,0,.06c-.13.02-.25.04-.38.04-1.15,0-2.09-.94-2.09-2.09s.94-2.09,2.09-2.09c.89,0,1.68.56,1.97,1.39-.95.53-1.59,1.54-1.59,2.7ZM15.91,14.01c0-1.15.94-2.09,2.09-2.09s2.09.94,2.09,2.09-.94,2.09-2.09,2.09-2.09-.94-2.09-2.09h0ZM21.08,14.07s0-.04,0-.06c0-1.16-.64-2.17-1.59-2.7.29-.83,1.08-1.39,1.97-1.39,1.15,0,2.09.94,2.09,2.09s-.94,2.09-2.09,2.09c-.13,0-.26-.01-.38-.04Z"/>
  <path class="cls-4" d="M30.87,21.51v-9.03c1.24-.23,2.18-1.32,2.18-2.63,0-1.48-1.2-2.68-2.68-2.68-.81,0-1.54.36-2.03.93l-7.82-4.51c.1-.28.15-.57.15-.88,0-1.48-1.2-2.68-2.68-2.68s-2.68,1.2-2.68,2.68c0,.31.05.61.15.88l-7.82,4.51c-.49-.57-1.22-.93-2.03-.93-1.48,0-2.68,1.2-2.68,2.68,0,1.31.94,2.39,2.18,2.63v9.03c-1.24.23-2.18,1.32-2.18,2.63,0,1.48,1.2,2.68,2.68,2.68.81,0,1.54-.36,2.03-.93l7.82,4.51c-.1.28-.15.57-.15.88,0,1.48,1.2,2.68,2.68,2.68s2.68-1.2,2.68-2.68c0-.31-.05-.61-.15-.88l7.82-4.51c.49.57,1.22.93,2.03.93,1.48,0,2.68-1.2,2.68-2.68,0-1.31-.94-2.39-2.18-2.63h0ZM30.37,8.17c.93,0,1.68.75,1.68,1.68s-.75,1.68-1.68,1.68-1.68-.75-1.68-1.68.75-1.68,1.68-1.68ZM18,1.04c.93,0,1.68.75,1.68,1.68s-.75,1.68-1.68,1.68c0,0,0,0,0,0s0,0,0,0c-.93,0-1.68-.76-1.68-1.68s.75-1.68,1.68-1.68h0ZM3.95,9.85c0-.93.75-1.68,1.68-1.68s1.68.75,1.68,1.68-.75,1.68-1.68,1.68-1.68-.75-1.68-1.68ZM5.63,25.82c-.93,0-1.68-.75-1.68-1.68s.75-1.68,1.68-1.68,1.68.75,1.68,1.68-.75,1.68-1.68,1.68ZM18,32.96c-.93,0-1.68-.75-1.68-1.68s.75-1.68,1.68-1.68,1.68.75,1.68,1.68-.75,1.68-1.68,1.68ZM20.03,29.54c-.39-.45-.92-.77-1.53-.88v-1.91c0-.27-.22-.5-.5-.5s-.5.22-.5.5v1.91c-.61.11-1.14.43-1.53.88l-7.82-4.51c.1-.28.15-.57.15-.88s-.05-.61-.15-.88l1.66-.96c.24-.14.32-.44.18-.68s-.44-.32-.68-.18l-1.66.96c-.39-.45-.92-.77-1.53-.88v-9.03c.61-.11,1.14-.43,1.53-.88l1.66.96c.08.05.16.07.25.07.17,0,.34-.09.43-.25.14-.24.06-.54-.18-.68l-1.66-.96c.1-.28.15-.57.15-.88s-.05-.6-.15-.88l7.82-4.51c.39.45.92.77,1.53.88v1.91c0,.27.22.5.5.5s.5-.22.5-.5v-1.91c.61-.11,1.14-.43,1.53-.88l7.82,4.51c-.1.28-.15.57-.15.88s.05.61.15.88l-1.66.96c-.24.14-.32.44-.18.68.09.16.26.25.43.25.08,0,.17-.02.25-.07l1.66-.96c.39.45.92.77,1.53.88v9.03c-.61.11-1.14.43-1.53.88l-1.66-.96c-.24-.14-.54-.06-.68.18s-.06.54.18.68l1.66.96c-.1.28-.15.57-.15.88s.05.61.15.88l-7.82,4.51ZM30.37,25.82c-.93,0-1.68-.75-1.68-1.68s.75-1.68,1.68-1.68,1.68.75,1.68,1.68-.75,1.68-1.68,1.68Z"/>
  <path class="cls-6" d="M22.16,22.13h-1.48c-.27,0-.5.22-.5.5s.22.5.5.5h1.48c.27,0,.5-.22.5-.5s-.22-.5-.5-.5Z"/>
  <path class="cls-7" d="M22.16,24.08h-8.32c-.27,0-.5.22-.5.5s.22.5.5.5h8.32c.27,0,.5-.22.5-.5s-.22-.5-.5-.5Z"/>
  <path class="cls-3" d="M13.84,23.13h0c.27,0,.5-.22.5-.5s-.22-.5-.5-.5h0c-.27,0-.5.22-.5.5s.22.5.5.5Z"/>
  <path class="cls-2" d="M15.57,23.13c.27,0,.5-.22.5-.5s-.22-.5-.5-.5h0c-.27,0-.5.22-.5.5s.22.5.5.5h0Z"/>
  <path class="cls-5" d="M17.29,23.13c.27,0,.5-.22.5-.5s-.22-.5-.5-.5h0c-.27,0-.5.22-.5.5s.22.5.5.5h0Z"/>
</svg>