<?xml version="1.0" encoding="UTF-8"?>
<svg id="Layer_1" data-name="Layer 1" xmlns="http://www.w3.org/2000/svg" xmlns:xlink="http://www.w3.org/1999/xlink" viewBox="0 0 36 34">
  <defs>
    <style>
      .cls-1 {
        fill: #0049e7;
      }

      .cls-1, .cls-2 {
        stroke-width: 0px;
      }

      .cls-2 {
        fill: url(#linear-gradient);
        fill-rule: evenodd;
      }
    </style>
    <linearGradient id="linear-gradient" x1="5.27" y1="-143" x2="30.73" y2="-143" gradientTransform="translate(0 -126) scale(1 -1)" gradientUnits="userSpaceOnUse">
      <stop offset="0" stop-color="#0049e7"/>
      <stop offset="1" stop-color="#c835f8"/>
    </linearGradient>
  </defs>
  <g>
    <path class="cls-1" d="M33.87,15.24c-.05,0-.1.01-.15.04-.04.03-.08.07-.09.12-.02.05-.02.1,0,.15.01.05.04.09.08.13l1.53,1.31-1.53,1.31s-.05.05-.07.08c-.02.03-.03.06-.03.1,0,.03,0,.07,0,.1.01.03.03.06.05.09.02.03.05.05.08.06.03.01.06.02.1.02.03,0,.07,0,.1-.02.03-.01.06-.03.09-.06l1.75-1.5s.05-.05.06-.09c.02-.03.02-.07.02-.1s0-.07-.02-.1c-.02-.03-.04-.06-.06-.09l-1.75-1.5s-.1-.06-.16-.06Z"/>
    <path class="cls-1" d="M2.13,15.24c.05,0,.1.01.15.04.04.03.08.07.09.12.02.05.02.1,0,.15-.01.05-.04.09-.08.13l-1.53,1.31,1.53,1.31s.05.05.07.08c.02.03.03.06.03.1s0,.07,0,.1c-.01.03-.03.06-.05.09-.02.03-.05.05-.08.06s-.06.02-.1.02c-.03,0-.07,0-.1-.02-.03-.01-.06-.03-.09-.06l-1.75-1.5s-.05-.05-.06-.09c-.02-.03-.02-.07-.02-.1s0-.07.02-.1c.02-.03.04-.06.06-.09l1.75-1.5s.1-.06.16-.06Z"/>
  </g>
  <path class="cls-2" d="M10.88,6.15h19.3c.15.01.29.08.39.19.1.11.16.25.16.4v18.8c0,.07,0,.15-.03.22-.03.07-.06.13-.12.19-.05.05-.11.1-.18.13-.04.02-.08.03-.12.04-.03,0-.07.01-.1.01-.13,0-.27-.04-.36-.14l-4-3.31h-4.72v1.95c0,.16-.07.3-.18.41-.11.11-.26.17-.41.18h-11.35l-3,2.5c-.08.07-.17.12-.28.13-.1.02-.21,0-.3-.04-.1-.04-.18-.11-.23-.2-.06-.09-.09-.19-.09-.29v-14.3c0-.16.07-.31.18-.42.11-.11.26-.17.41-.18h4.43v-5.67c0-.16.07-.3.18-.41.11-.11.26-.17.41-.18ZM9.01,24.09h10.95v-1.36h-9.09c-.16,0-.3-.07-.41-.18-.11-.11-.17-.26-.18-.41v-8.58h-3.86v12.53l2.22-1.86c.1-.09.23-.14.36-.14ZM26.36,21.68l3.22,2.68V7.28H11.42v14.26h14.57c.13,0,.27.04.36.14ZM17.23,15c-.29.29-.68.45-1.09.45-.2,0-.4-.04-.59-.12-.19-.08-.36-.19-.5-.33-.14-.14-.26-.31-.33-.5-.08-.19-.12-.39-.11-.59,0-.41.17-.8.46-1.09.29-.29.68-.45,1.08-.46.41,0,.8.16,1.09.45.29.29.45.68.45,1.09s-.16.8-.45,1.09ZM16.37,13.62c-.07-.04-.15-.07-.23-.07-.11,0-.21.04-.29.12-.08.08-.12.18-.12.29,0,.08.02.16.07.23.04.07.11.12.18.15.07.03.16.04.24.02.03,0,.06-.02.09-.03.04-.02.08-.05.12-.08.04-.04.07-.08.09-.13.01-.02.02-.05.02-.08,0-.05.01-.1,0-.14,0-.03-.01-.06-.03-.09-.03-.08-.08-.14-.15-.18ZM21.31,15.2c-.25.17-.55.26-.86.26-.41-.01-.79-.18-1.08-.47-.29-.29-.45-.67-.47-1.08,0-.31.09-.6.26-.86.17-.25.41-.45.69-.57.28-.12.59-.15.89-.09.3.06.57.21.79.42.22.22.36.49.42.79.06.3.03.61-.09.89-.12.28-.31.52-.57.69ZM20.69,13.62c-.07-.04-.15-.07-.23-.07-.1.01-.2.06-.27.14-.07.07-.12.17-.14.27,0,.08.02.16.07.23.04.07.11.12.18.15.04.02.08.03.12.03.04,0,.08,0,.12,0,.08-.02.15-.05.21-.11.06-.06.1-.13.11-.21.01-.06,0-.12,0-.18,0-.02-.01-.04-.02-.06,0-.02-.01-.03-.02-.05,0-.01-.01-.02-.02-.03-.03-.04-.07-.08-.11-.1ZM24.82,15.46c.31,0,.6-.09.86-.26.25-.17.45-.41.57-.69.12-.28.15-.59.09-.89-.06-.3-.21-.57-.42-.79-.22-.22-.49-.36-.79-.42-.3-.06-.61-.03-.89.09-.28.12-.52.31-.69.57-.17.25-.26.55-.26.86,0,.2.04.41.11.59.08.19.19.36.33.5.14.14.31.26.5.33.19.08.39.12.59.11ZM24.89,13.56s.03,0,.04,0c.04.01.08.03.11.05.07.05.12.11.15.18s.04.16.02.24c-.02.08-.06.15-.11.21-.03.03-.06.05-.09.07-.04.02-.08.03-.12.04-.08.02-.16,0-.24-.03-.07-.03-.14-.08-.18-.15-.02-.03-.04-.07-.05-.11-.01-.04-.02-.08-.02-.12,0-.05.01-.11.03-.16.02-.05.05-.09.09-.13.01-.01.02-.02.04-.03.03-.02.06-.04.1-.06.05-.02.1-.03.16-.03.02,0,.05,0,.07,0Z"/>
</svg>